<?xml version="1.0" standalone="no"?>
<!DOCTYPE svg PUBLIC "-//W3C//DTD SVG 1.1//EN" "http://www.w3.org/Graphics/SVG/1.1/DTD/svg11.dtd" >
<svg xmlns="http://www.w3.org/2000/svg" xmlns:xlink="http://www.w3.org/1999/xlink" version="1.1">
<metadata></metadata>
<defs>
<font id="geometriamedium" horiz-adv-x="1318" >
<font-face units-per-em="2048" ascent="1591" descent="-457" />
<missing-glyph horiz-adv-x="532" />
<glyph unicode="ij" horiz-adv-x="1144" d="M147 1325q0 59 40 100t100 41q57 0 97 -41t40 -100t-40 -99t-97 -40q-59 0 -99.5 40t-40.5 99zM176 0v1006h221v-1006h-221zM434 -186q66 -39 148 -39q166 0 166 178v1053h221v-1078q0 -168 -89 -258t-245 -90q-129 0 -201 41v193zM717 1324q0 58 39 101q41 41 100 41 t98 -41q41 -41 41 -100t-41 -100q-41 -39 -98 -39t-98 39q-41 41 -41 99z" />
<glyph unicode="&#xfb00;" horiz-adv-x="1523" d="M47 811v195h189v131q0 145 81.5 231t233.5 86q131 0 235 -43v-186q-96 37 -174 37q-156 0 -155 -164v-92h465v131q0 145 81.5 231t233.5 86q131 0 236 -43v-186q-96 37 -175 37q-156 0 -155 -164v-92h330v-195h-330v-811h-221v811h-465v-811h-221v811h-189z" />
<glyph unicode="&#xfb01;" d="M47 811v195h189v131q0 145 81.5 231t233.5 86q131 0 235 -43v-186q-96 37 -174 37q-156 0 -155 -164v-92h686v-1006h-221v811h-465v-811h-221v811h-189zM893 1325q0 59 40 100t99 41q57 0 97 -41t40 -100t-40 -99t-97 -40q-59 0 -99 40t-40 99z" />
<glyph unicode="&#xfb02;" horiz-adv-x="1392" d="M47 811v195h189v131q0 145 81.5 231t233.5 86q131 0 235 -43v-186q-96 37 -174 37q-156 0 -155 -164v-92h465v428h221v-1135q0 -123 112 -123q45 0 84 21v-191q-63 -33 -165 -33q-117 0 -184.5 64.5t-67.5 200.5v573h-465v-811h-221v811h-189z" />
<glyph unicode="&#xfb03;" horiz-adv-x="1996" d="M47 811v195h189v131q0 145 81.5 231t233.5 86q131 0 235 -43v-186q-96 37 -174 37q-156 0 -155 -164v-92h465v131q0 145 81.5 231t233.5 86q131 0 236 -43v-186q-96 37 -175 37q-156 0 -155 -164v-92h686v-1006h-221v811h-465v-811h-221v811h-465v-811h-221v811h-189z M1579 1325q0 59 40 100t99 41q57 0 97 -41t40 -100t-40 -99t-97 -40q-59 0 -99 40t-40 99z" />
<glyph unicode="&#xfb04;" horiz-adv-x="2076" d="M47 811v195h189v131q0 145 81.5 231t233.5 86q131 0 235 -43v-186q-96 37 -174 37q-156 0 -155 -164v-92h465v131q0 145 81.5 231t233.5 86q131 0 236 -43v-186q-96 37 -175 37q-156 0 -155 -164v-92h465v428h221v-1135q0 -123 110 -123q49 0 84 21v-191 q-63 -33 -163 -33q-117 0 -184.5 64.5t-67.5 200.5v573h-465v-811h-221v811h-465v-811h-221v811h-189z" />
<glyph horiz-adv-x="0" />
<glyph unicode="&#xd;" horiz-adv-x="681" />
<glyph unicode=" "  horiz-adv-x="532" />
<glyph unicode="&#x09;" horiz-adv-x="532" />
<glyph unicode="&#xa0;" horiz-adv-x="532" />
<glyph unicode="!" horiz-adv-x="634" d="M172 127q0 59 41 102q43 43 102.5 43t100.5 -43q43 -43 43 -102t-43 -102q-41 -41 -100.5 -41t-102.5 41q-41 43 -41 102zM172 1434h291l-47 -973h-199z" />
<glyph unicode="&#x22;" horiz-adv-x="770" d="M92 868v566h193v-566h-193zM487 868v566h193v-566h-193z" />
<glyph unicode="#" horiz-adv-x="1536" d="M72 367l26 170h289l59 358h-290l26 172h289l59 367h177l-60 -367h354l58 367h174l-57 -367h290l-28 -172h-289l-57 -358h290l-26 -170h-291l-59 -367h-175l60 367h-356l-56 -367h-176l59 367h-290zM563 537h355l57 358h-357z" />
<glyph unicode="$" horiz-adv-x="1290" d="M94 127v242q80 -74 230 -131q147 -55 297 -56q145 0 238 58.5t93 156.5q0 78 -63 133q-25 23 -74 43q-59 29 -197 68l-28 8q-117 33 -187 60q-55 20 -143 71q-147 92 -147 289q0 156 108.5 258.5t302.5 126.5v207h221v-207q184 -20 347 -113v-223q-219 133 -455 133 q-143 0 -218 -50t-75 -134q0 -125 295 -209q123 -33 248 -80q133 -47 215 -144t82 -233q0 -172 -123 -282q-119 -108 -316 -137v-209h-221v207q-262 25 -430 147z" />
<glyph unicode="%" horiz-adv-x="1677" d="M74 1111.5q0 145.5 98 248.5q100 100 252 100q154 0 254 -100t100 -247.5t-100 -248.5q-100 -98 -254 -98q-150 0 -252 98q-98 102 -98 247.5zM236 1112q0 -84 53 -140.5t135 -56.5q84 0 138 56.5t54 140.5q0 86 -53 141.5t-139 55.5q-82 0 -135 -56.5t-53 -140.5zM330 0 l848 1434h170l-846 -1434h-172zM899 322q0 145 98 245q100 101 252 101q154 0 254.5 -100.5t100.5 -245.5q0 -147 -100.5 -248t-254.5 -101q-152 0 -252 101q-98 100 -98 248zM1061 322q0 -84 53 -140.5t135 -56.5q86 0 139.5 55.5t53.5 141.5q0 84 -54.5 140t-138.5 56 q-82 0 -135 -56t-53 -140z" />
<glyph unicode="&#x26;" horiz-adv-x="1509" d="M86 440q0 145 80 252q84 109 178 152q-82 115 -82 256q0 156 115 258t293 102q208 0 366 -106v-221q-152 133 -327 133q-104 0 -165 -49.5t-61 -135.5q0 -53 33 -110q35 -61 66 -94l90 -91l372 -364q90 139 97 352h213q0 -291 -154 -504l279 -270h-287l-131 125 q-188 -152 -438 -152q-225 0 -381 123q-156 125 -156 344zM305 444q0 -127 92.5 -201.5t231.5 -74.5q168 0 282 100l-436 426q-70 -27 -120 -95.5t-50 -154.5z" />
<glyph unicode="'" horiz-adv-x="374" d="M92 868v566h193v-566h-193z" />
<glyph unicode="(" horiz-adv-x="768" d="M168 512q0 557 301 934h227q-324 -416 -323 -934q-1 -524 323 -934h-227q-301 377 -301 934z" />
<glyph unicode=")" horiz-adv-x="768" d="M72 -422q324 410 323 934q0 518 -323 934h227q301 -377 301 -934t-301 -934h-227z" />
<glyph unicode="*" horiz-adv-x="866" d="M68 934l221 125l-221 123l77 131l217 -131l-4 252h152l-4 -252l217 131l76 -131l-224 -123l224 -125l-76 -131l-217 129l4 -252h-152l4 252l-217 -129z" />
<glyph unicode="+" horiz-adv-x="1292" d="M139 573v199h406v408h200v-408h408v-199h-408v-407h-200v407h-406z" />
<glyph unicode="," horiz-adv-x="520" d="M16 -311l170 573h254l-250 -573h-174z" />
<glyph unicode="-" horiz-adv-x="1005" d="M201 465v199h604v-199h-604z" />
<glyph unicode="." horiz-adv-x="512" d="M113 129q0 59 42 101t103 42q57 0 100 -42t43 -101q0 -61 -42 -103t-101 -42q-61 0 -103 42t-42 103z" />
<glyph unicode="/" horiz-adv-x="1071" d="M-16 -287l862 1909h225l-862 -1909h-225z" />
<glyph unicode="0" horiz-adv-x="1445" d="M121 717q0 307 164 526q166 217 438 217q276 0 438 -217q166 -217 166 -526q0 -311 -166 -529q-162 -215 -438 -215q-272 0 -438 215q-164 219 -164 529zM346 717q0 -221 105 -379q104 -154 272 -154q170 0 274.5 154t104.5 379t-104.5 378.5t-274.5 153.5 q-168 0 -272 -155q-104 -154 -105 -377z" />
<glyph unicode="1" horiz-adv-x="782" d="M53 1024v219l338 191h197v-1434h-221v1192z" />
<glyph unicode="2" horiz-adv-x="1181" d="M82 0v164l450 422q143 133 211 229q61 92 62 197q0 109 -79 175t-206 66q-213 0 -401 -178v236q176 150 424 149q203 0 344 -117q143 -117 143 -305q0 -145 -72 -264q-76 -121 -241 -278l-309 -295h671v-201h-997z" />
<glyph unicode="3" horiz-adv-x="1175" d="M82 82v219q176 -127 416 -127q141 0 243 78q102 80 103 213q0 125 -90 201.5t-242 76.5q-98 0 -182 -32v153l385 373h-580v197h879v-170l-367 -353q172 -18 299 -139q125 -119 125 -307q0 -221 -162 -356q-159 -136 -399 -136q-254 0 -428 109z" />
<glyph unicode="4" horiz-adv-x="1304" d="M59 375v172l744 887h221v-867h223v-192h-223v-375h-221v375h-744zM315 567h488v578z" />
<glyph unicode="5" horiz-adv-x="1212" d="M111 72v211q176 -109 393 -109q154 0 260 78q106 80 106 211q0 125 -99 205t-261 80q-166 0 -344 -62l94 748h737v-197h-573l-41 -330q84 23 180 23q231 0 383 -129t152 -338q0 -225 -168 -357q-168 -133 -416 -133q-231 0 -403 99z" />
<glyph unicode="6" horiz-adv-x="1308" d="M123 645q0 344 170 580q168 236 471 235q178 0 315 -90v-205q-133 90 -291 90q-207 0 -317 -143q-109 -145 -117 -348q125 162 371 162q195 0 328 -127t133 -330q0 -219 -146 -358q-143 -138 -358 -138q-260 0 -412 179q-147 178 -147 493zM348 516q12 -162 96.5 -253 t223.5 -91q129 0 211 82q84 84 84 211q0 125 -86 201q-84 78 -211 77q-104 0 -199 -65q-90 -66 -119 -162z" />
<glyph unicode="7" horiz-adv-x="1148" d="M82 1231v203h979v-174l-635 -1260h-242l621 1231h-723z" />
<glyph unicode="8" horiz-adv-x="1316" d="M98 399q0 127 78 223.5t209 139.5q-100 43 -158.5 125t-58.5 186q0 170 139 278.5t352 108.5q211 0 350.5 -108.5t139.5 -278.5q0 -104 -57.5 -186t-157.5 -125q131 -43 208 -139.5t77 -223.5q0 -199 -162 -311q-162 -115 -397.5 -115t-399.5 115q-162 113 -162 311z M330 413.5q0 -108.5 94 -177.5q96 -72 235 -72q137 0 234 72q94 69 94 177.5t-94 178.5q-90 70 -234 70q-141 0 -235 -70t-94 -178.5zM383 1054.5q0 -96.5 79 -157.5t197.5 -61t196.5 61t78 157.5t-78 158t-196.5 61.5t-197.5 -61.5t-79 -158z" />
<glyph unicode="9" horiz-adv-x="1308" d="M123 965q0 219 143 356q146 139 361 139q262 0 409 -178q150 -176 150 -494q0 -344 -170 -581q-168 -233 -471 -234q-178 0 -316 90v205q133 -90 291 -90q209 0 316 144q111 143 118 348q-125 -162 -370 -162q-199 0 -330 125t-131 332zM346 969q0 -125 84 -203 q84 -76 213 -76q106 0 197 66q92 66 121 162q-12 162 -96.5 253t-223.5 91q-127 0 -211 -84t-84 -209z" />
<glyph unicode=":" horiz-adv-x="512" d="M113 129q0 59 42 101t103 42q57 0 100 -42t43 -101q0 -61 -42 -103t-101 -42q-61 0 -103 42t-42 103zM113 846q0 59 42 101t103 42q57 0 100 -42t43 -101q0 -61 -42 -103.5t-101 -42.5q-61 0 -103 42t-42 104z" />
<glyph unicode=";" horiz-adv-x="534" d="M16 -311l170 573h254l-250 -573h-174zM166 846q0 59 42 101t103 42q57 0 100.5 -42t43.5 -101q0 -61 -42.5 -103.5t-101.5 -42.5q-61 0 -103 42t-42 104z" />
<glyph unicode="&#x3c;" horiz-adv-x="1292" d="M139 565v207l1014 424v-217l-784 -309l784 -310v-215z" />
<glyph unicode="=" horiz-adv-x="1292" d="M139 340v199h1014v-199h-1014zM139 807v199h1014v-199h-1014z" />
<glyph unicode="&#x3e;" horiz-adv-x="1292" d="M139 145v215l783 310l-783 309v217l1014 -424v-207z" />
<glyph unicode="?" horiz-adv-x="991" d="M57 1139v194q164 121 396 121q195 0 327 -106q135 -106 135 -289q0 -150 -110 -256q-106 -104 -262 -154v-188h-213v297q141 27 249.5 104.5t108.5 181.5q0 98 -73.5 154.5t-198.5 56.5q-180 0 -359 -116zM299 129q0 59 41 101t102 42q59 0 101.5 -42t42.5 -101 q0 -61 -42.5 -103t-101.5 -42q-61 0 -102 42t-41 103z" />
<glyph unicode="@" horiz-adv-x="1947" d="M86 563q0 379 258 637q258 260 629 260q379 0 633 -246q256 -244 256 -598q0 -221 -103 -360q-100 -137 -264 -137q-96 0 -169 42t-109 111q-47 -68 -131.5 -113.5t-186.5 -45.5q-182 0 -295 129q-113 127 -112.5 319.5t112.5 319.5q113 129 293 129q178 0 293 -140v113 h207v-571q0 -209 149 -209q102 0 172 112q74 113 74 303q0 317 -227 549q-227 229 -592 230q-352 0 -586 -244q-231 -244 -231 -590q0 -348 231 -592q229 -242 586 -241q225 0 438 118v-71q-198 -111 -438 -111q-369 0 -629 256q-258 256 -258 641zM709 561.5 q0 -112.5 70 -188.5t179 -76q70 0 132.5 37t99.5 96v262q-37 59 -99.5 96t-132.5 37q-109 0 -179 -75.5t-70 -188z" />
<glyph unicode="A" horiz-adv-x="1560" d="M45 0l627 1442h217l627 -1442h-242l-156 356h-680l-153 -356h-240zM516 555h524l-262 602z" />
<glyph unicode="B" horiz-adv-x="1476" d="M178 0v1434h651q195 0 308.5 -94.5t113.5 -258.5q0 -106 -53 -184t-137 -111q135 -25 220 -127t85 -256q0 -182 -131 -292q-129 -111 -352 -111h-705zM403 207h439q131 0 205.5 60.5t74.5 168.5q0 106 -73.5 163.5t-206.5 57.5h-439v-450zM403 856h388q113 0 175 48 t62 138.5t-62.5 137.5t-174.5 47h-388v-371z" />
<glyph unicode="C" horiz-adv-x="1400" d="M127 717q0 324 215 532q213 211 541 211q219 0 389 -96v-227q-172 112 -383 112h-4q-225 0 -377 -151q-150 -150 -150 -381.5t152 -382.5q152 -150 383 -150q246 0 410 131v-227q-180 -115 -420 -115q-322 0 -541 209q-215 211 -215 535z" />
<glyph unicode="D" horiz-adv-x="1593" d="M178 0v1434h506q344 0 563 -201t219 -516q0 -317 -219 -518q-217 -199 -563 -199h-506zM403 207h261q270 0 419 137q152 139 152 372.5t-152 373.5q-150 137 -419 137h-261v-1020z" />
<glyph unicode="E" horiz-adv-x="1312" d="M178 0v1434h1020v-207h-795v-359h648v-206h-648v-455h822v-207h-1047z" />
<glyph unicode="F" horiz-adv-x="1280" d="M178 0v1434h1018v-207h-793v-375h629v-207h-629v-645h-225z" />
<glyph unicode="G" horiz-adv-x="1585" d="M127 717q0 324 215 532q213 211 539 211q262 0 442 -123v-223q-197 135 -428 135q-236 0 -385 -149q-152 -152 -152 -385q0 -238 148 -385q152 -145 366 -146q219 0 347 121v522h225v-614q-90 -106 -243 -173t-329 -67q-317 0 -532 209q-213 213 -213 535z" />
<glyph unicode="H" horiz-adv-x="1554" d="M178 0v1434h225v-566h748v566h225v-1434h-225v662h-748v-662h-225z" />
<glyph unicode="I" horiz-adv-x="604" d="M188 0v1434h226v-1434h-226z" />
<glyph unicode="J" horiz-adv-x="1042" d="M66 61v224q121 -100 292 -101q150 0 223.5 75t73.5 233v942h226v-979q0 -244 -126.5 -363t-353.5 -119q-209 0 -335 88z" />
<glyph unicode="K" horiz-adv-x="1396" d="M178 0v1434h225v-586l588 586h289l-664 -656l770 -778h-307l-676 688v-688h-225z" />
<glyph unicode="L" horiz-adv-x="1228" d="M178 0v1434h228v-1227h761v-207h-989z" />
<glyph unicode="M" horiz-adv-x="1736" d="M178 0v1434h230l464 -646l461 646h226v-1434h-226v1090l-399 -541h-131l-400 541v-1090h-225z" />
<glyph unicode="N" horiz-adv-x="1583" d="M178 0v1434h197l809 -1039v1039h221v-1434h-191l-815 1042v-1042h-221z" />
<glyph unicode="O" horiz-adv-x="1718" d="M127 717q0 315 207 528q209 215 524.5 215t523.5 -215q209 -213 209 -528q0 -316 -209 -531q-209 -213 -524 -213t-524 213q-207 217 -207 531zM359 717q0 -229 143 -381q145 -152 356 -152t356 152q145 156 146 381q0 227 -146 379q-145 154 -355 154h-1 q-211 0 -356 -154q-143 -150 -143 -379z" />
<glyph unicode="P" horiz-adv-x="1355" d="M178 0v1434h617q225 0 350 -117q129 -113 129 -299t-129 -307q-125 -119 -350 -119h-392v-592h-225zM403 799h373q127 0 199 56t72 158.5t-71 158t-200 55.5h-373v-428z" />
<glyph unicode="Q" horiz-adv-x="1718" d="M127 717q0 315 207 528q209 215 524.5 215t523.5 -215q209 -213 209 -528q0 -238 -125 -424q-121 -184 -329 -268q113 -117 229 -117q100 0 170 45v-207q-88 -45 -205 -45q-115 0 -219 65.5t-231 206.5h-23q-315 0 -524 213q-207 217 -207 531zM359 717q0 -229 143 -381 q145 -152 356 -152t356 152q145 156 146 381q0 227 -146 379q-145 154 -355 154h-1q-211 -1 -356 -154q-143 -150 -143 -379z" />
<glyph unicode="R" horiz-adv-x="1501" d="M178 0v1434h653q221 0 347 -113q127 -115 127 -295q0 -150 -83 -255t-229 -140l451 -631h-273l-432 606h-336v-606h-225zM403 805h414q123 0 191.5 55t68.5 158q0 98 -68.5 153.5t-191.5 55.5h-414v-422z" />
<glyph unicode="S" horiz-adv-x="1290" d="M92 127v244q84 -74 232 -131q147 -55 294 -56q145 0 238.5 57.5t93.5 155.5q0 78 -63 133q-25 23 -74 43q-59 29 -197 68l-28 8q-117 33 -187 60q-55 20 -143 71q-147 92 -147 289q0 178 140 284.5t380 106.5q260 0 459 -119v-225q-219 133 -455 133q-143 0 -218 -50 t-75 -132q0 -70 84 -129q12 -8 34.5 -17.5t51.5 -19.5t41 -14l164 -47q150 -45 262 -107q190 -102 203 -332q0 -199 -157.5 -313.5t-393.5 -114.5q-328 0 -539 154z" />
<glyph unicode="T" horiz-adv-x="1308" d="M68 1227v207h1173v-207h-475v-1227h-225v1227h-473z" />
<glyph unicode="U" horiz-adv-x="1519" d="M160 606v828h225v-836q0 -199 100.5 -306.5t274.5 -107.5t275.5 107.5t101.5 306.5v836h225v-828q0 -301 -168 -467q-170 -166 -434 -166t-434 164q-166 166 -166 469z" />
<glyph unicode="V" horiz-adv-x="1550" d="M53 1434h250l475 -1131l475 1131h244l-614 -1442h-213z" />
<glyph unicode="W" horiz-adv-x="2181" d="M61 1434h252l342 -1078l349 1080h178l348 -1080l342 1078h248l-490 -1442h-198l-340 1067l-342 -1067h-201z" />
<glyph unicode="X" horiz-adv-x="1468" d="M35 0l567 776l-477 658h266l346 -476l346 476h263l-480 -654l570 -780h-269l-434 596l-436 -596h-262z" />
<glyph unicode="Y" horiz-adv-x="1400" d="M33 1434h262l410 -580l409 580h254l-555 -779v-655h-225v649z" />
<glyph unicode="Z" horiz-adv-x="1314" d="M84 0v160l807 1067h-766v207h1073v-158l-805 -1069h838v-207h-1147z" />
<glyph unicode="[" horiz-adv-x="837" d="M178 -422v1868h582v-174h-381v-1520h381v-174h-582z" />
<glyph unicode="\" horiz-adv-x="1069" d="M2 1622h221l862 -1909h-221z" />
<glyph unicode="]" horiz-adv-x="837" d="M78 -248h381v1520h-381v174h581v-1868h-581v174z" />
<glyph unicode="^" horiz-adv-x="1095" d="M90 700l352 791h211l353 -791h-211l-246 596l-248 -596h-211z" />
<glyph unicode="_" horiz-adv-x="1298" d="M12 -133h1274v-152h-1274v152z" />
<glyph unicode="`" horiz-adv-x="1069" d="M303 1464h275l194 -286h-201z" />
<glyph unicode="a" horiz-adv-x="1222" d="M74 311q0 160 116 246q115 88 287 88q182 0 322 -78v56q0 219 -295 219q-172 0 -318 -90v194q150 86 367 86q213 0 339 -101.5t126 -283.5v-375q0 -47 23.5 -73.5t60.5 -26.5q33 0 59 14v-168q-44 -32 -124 -32h-5q-172 0 -211 143q-137 -156 -370 -156q-162 0 -271 90 q-106 88 -106 248zM295 324q0 -78 58.5 -119t158.5 -41q82 0 160 34t127 87v123q-125 71 -265 71h-4q-111 0 -173 -41t-62 -114z" />
<glyph unicode="b" horiz-adv-x="1310" d="M158 0v1434h221v-566q127 164 358 164q213 0 350 -153q137 -152 138 -375q0 -225 -138 -377q-137 -154 -350 -154q-231 0 -358 164v-137h-221zM379 348q43 -80 123 -130t176 -50q139 0 231 96q92 98 92 240q0 139 -92 235q-92 98 -231 99q-94 0 -175 -50.5t-124 -128.5 v-311z" />
<glyph unicode="c" horiz-adv-x="1064" d="M86 506q0 231 158 379q160 147 387 147q172 0 303 -69v-191q-137 66 -270 66q-152 0 -254 -95q-102 -96 -103 -239q0 -145 103 -242q102 -94 254 -94q162 0 286 76v-189q-143 -82 -321 -82q-227 0 -385 150q-158 152 -158 383z" />
<glyph unicode="d" horiz-adv-x="1310" d="M86 504q0 223 137 375q136 153 347 153h3q231 0 359 -164v566h221v-1434h-221v137q-128 -164 -359 -164q-213 0 -350 154q-137 152 -137 377zM309 504q0 -141 92 -240q93 -96 232 -96q96 0 176 50t123 130v311q-43 78 -124 128.5t-175 50.5q-139 0 -232 -99 q-92 -96 -92 -235z" />
<glyph unicode="e" horiz-adv-x="1171" d="M86 504q0 227 143 377q144 151 370 151h3q156 0 264 -82q213 -152 213 -454v-58h-770q20 -127 121.5 -198.5t257.5 -71.5q172 0 324 90v-186q-138 -98 -370 -98q-1 0 -2 -1q-230 0 -394 148q-160 147 -160 383zM311 606h545q-4 94 -72 166q-70 74 -192 74 q-117 0 -194 -69t-87 -171z" />
<glyph unicode="f" horiz-adv-x="837" d="M47 811v195h189v131q0 145 81.5 231t233.5 86q131 0 235 -43v-186q-96 37 -174 37q-156 0 -155 -164v-92h329v-195h-329v-811h-221v811h-189z" />
<glyph unicode="g" horiz-adv-x="1304" d="M86 520q0 217 137 363q136 149 347 149h3q236 0 359 -158v132h221v-916q0 -248 -166 -379q-162 -131 -399 -131q-236 0 -393 90v203q162 -98 368 -98q168 0 268.5 77.5t100.5 233.5v76q-127 -158 -359 -158q-213 0 -350 149.5t-137 366.5zM309 518q0 -135 92.5 -227 t231.5 -92q96 0 178 48t121 124v293q-39 78 -120 126t-179 48q-139 0 -231.5 -92.5t-92.5 -227.5z" />
<glyph unicode="h" horiz-adv-x="1257" d="M158 0v1434h221v-562q147 160 369 160q178 0 275 -110.5t97 -307.5v-614h-221v565q0 145 -69.5 202.5t-165.5 57.5q-82 0 -162 -45.5t-123 -117.5v-662h-221z" />
<glyph unicode="i" horiz-adv-x="573" d="M147 1325q0 59 40 100t100 41q57 0 97 -41t40 -100t-40 -99t-97 -40q-59 0 -99.5 40t-40.5 99zM176 0v1006h221v-1006h-221z" />
<glyph unicode="j" horiz-adv-x="573" d="M-137 -186q66 -39 147 -39q166 0 166 178v1053h221v-1078q0 -168 -89 -258t-245 -90q-129 0 -200 41v193zM145 1325q0 59 39 100q41 41 100.5 41t98.5 -41q41 -41 41 -100t-41 -100q-39 -39 -98.5 -39t-100.5 39q-39 41 -39 100z" />
<glyph unicode="k" horiz-adv-x="1169" d="M158 0v1434h221v-809l397 381h283l-477 -451l548 -555h-303l-448 455v-455h-221z" />
<glyph unicode="l" horiz-adv-x="626" d="M158 238v1196h221v-1135q0 -123 110 -123q49 0 84 21v-191q-63 -33 -163 -33q-117 0 -184.5 64.5t-67.5 200.5z" />
<glyph unicode="m" horiz-adv-x="1888" d="M158 0v1006h221v-132q115 158 332 158q117 0 200.5 -49t116.5 -131q55 82 152.5 131t214.5 49q168 0 262 -104.5t94 -298.5v-629h-221v578q0 247 -203 247h-2q-80 0 -152.5 -48t-105.5 -120v-657h-221v578q0 247 -205 247h-2q-78 0 -150.5 -46t-109.5 -115v-664h-221z " />
<glyph unicode="n" horiz-adv-x="1257" d="M158 0v1006h221v-134q147 160 369 160q178 0 275 -110.5t97 -307.5v-614h-221v565q0 260 -235 260q-82 0 -162 -45.5t-123 -117.5v-662h-221z" />
<glyph unicode="o" horiz-adv-x="1275" d="M86 504q0 221 155.5 374.5t397.5 153.5q238 0 395 -153q156 -154 156 -375t-156 -377q-157 -154 -395 -154q-242 0 -397.5 154t-155.5 377zM307 504q0 -145 94 -240q97 -96 238 -96q139 0 235 96q94 94 95 240q0 143 -95 237q-96 96 -235 97q-141 0 -238 -97 q-94 -94 -94 -237z" />
<glyph unicode="p" horiz-adv-x="1310" d="M158 -410v1416h221v-138q127 164 358 164q213 0 350 -153q137 -152 138 -377q0 -223 -138 -375q-137 -154 -350 -154q-231 0 -358 164v-547h-221zM379 346q43 -78 124 -128t175 -50q139 0 231 96q92 98 92 238q0 141 -92 237q-92 99 -231 99q-96 0 -176 -50.5 t-123 -130.5v-311z" />
<glyph unicode="q" horiz-adv-x="1310" d="M86 502q0 225 137 377q137 153 350 153q231 0 359 -164v138h221v-1416h-221v547q-127 -164 -359 -164q-213 0 -350 154q-137 152 -137 375zM309 502q0 -139 92 -238q92 -96 232 -96q94 0 175 50t124 128v311q-43 80 -123 130.5t-176 50.5q-139 0 -232 -99 q-92 -96 -92 -237z" />
<glyph unicode="r" horiz-adv-x="813" d="M158 0v1006h221v-175q51 88 153.5 144.5t217.5 56.5q14 0 20 -2v-221q-37 4 -61 4q-113 0 -203 -57.5t-127 -139.5v-616h-221z" />
<glyph unicode="s" horiz-adv-x="1048" d="M96 76v209q176 -121 410 -121q104 0 162.5 31.5t58.5 87.5q0 49 -61 79q-27 12 -97 31l-125 31q-178 45 -258 115.5t-80 197.5q0 137 113 216t313 79q231 0 371 -90v-203q-182 102 -362 103q-100 0 -153.5 -30t-53.5 -81q0 -47 63 -80q8 -4 97 -30l116 -25 q344 -76 344 -317q0 -137 -120.5 -221.5t-317.5 -84.5q-268 0 -420 103z" />
<glyph unicode="t" horiz-adv-x="892" d="M47 811v195h215v292h221v-292h318v-195h-318v-473q0 -84 39 -123t119 -39t152 37v-190q-72 -49 -224 -50q-143 0 -225 78t-82 223v537h-215z" />
<glyph unicode="u" horiz-adv-x="1259" d="M139 391v615h221v-566q0 -260 236 -260q82 0 162 46t123 118v662h221v-1006h-221v133q-147 -160 -369 -160q-178 0 -275.5 111t-97.5 307z" />
<glyph unicode="v" horiz-adv-x="1185" d="M41 1006h244l313 -727l309 727h236l-451 -1014h-200z" />
<glyph unicode="w" horiz-adv-x="1685" d="M57 1006h226l235 -684l234 688h182l237 -688l234 684h223l-352 -1014h-193l-243 694l-242 -694h-190z" />
<glyph unicode="x" horiz-adv-x="1163" d="M51 0l406 526l-365 480h256l238 -312l239 312h252l-364 -476l405 -530h-256l-280 367l-281 -367h-250z" />
<glyph unicode="y" horiz-adv-x="1169" d="M43 1006h246l303 -709l293 709h239l-481 -1115q-135 -311 -383 -311q-125 0 -182 33v194q64 -32 140 -32h5q84 0 142.5 61.5t117.5 200.5z" />
<glyph unicode="z" horiz-adv-x="1056" d="M72 0v147l559 664h-522v195h841v-152l-559 -659h592v-195h-911z" />
<glyph unicode="{" horiz-adv-x="796" d="M106 426v172q72 6 105 45q35 39 44 82t9 131v277q0 145 84 229t230 84h141v-174h-96q-74 0 -115 -43t-41 -117v-317q0 -229 -154 -283q154 -53 154 -283v-317q0 -74 41 -117t115 -43h96v-174h-141q-145 0 -229.5 84t-84.5 229v277q0 84 -8 125q-8 51 -46 89t-104 44z" />
<glyph unicode="|" horiz-adv-x="684" d="M242 -227v1783h200v-1783h-200z" />
<glyph unicode="}" horiz-adv-x="796" d="M78 -248h96q74 0 115 43t41 117v317q0 229 153 283q-154 53 -153 283v317q0 74 -41 117t-115 43h-96v174h141q145 0 229 -84t84 -229v-277q0 -86 9 -127q8 -49 47 -87t102 -44v-172q-68 -6 -106 -47q-33 -37 -42.5 -80t-9.5 -131v-277q0 -145 -83.5 -229t-229.5 -84h-141 v174z" />
<glyph unicode="~" horiz-adv-x="1245" d="M139 391v201q27 39 91.5 62.5t138.5 23.5q94 0 254 -55q164 -53 251 -54q150 0 232 95v-203q-66 -84 -232 -84q-88 0 -251 53q-160 55 -254 55q-147 0 -230 -94z" />
<glyph unicode="&#xa2;" horiz-adv-x="1064" d="M86 506q0 205 125 344q125 141 317 174v221h187v-217q109 -8 219 -65v-191q-137 66 -270 66q-152 0 -254 -95q-102 -96 -103 -239q0 -145 103 -242q102 -94 254 -94q162 0 286 76v-189q-102 -62 -235 -78v-217h-187v224q-193 31 -317 172q-125 143 -125 350z" />
<glyph unicode="&#xa3;" horiz-adv-x="1198" d="M104 0v203h31q68 0 96.5 30.5t28.5 98.5v260h-156v182h156v211q0 223 132 349t364 126q190 0 329 -80v-213q-127 82 -294 82q-147 0 -226.5 -75.5t-79.5 -221.5v-178h510v-182h-510v-266q0 -80 -55 -123h680v-203h-1006z" />
<glyph unicode="&#xa5;" horiz-adv-x="1335" d="M33 1434h262l375 -580l379 580h251l-446 -668h342v-160h-416v-170h416v-160h-416v-276h-225v276h-416v160h416v170h-416v160h342z" />
<glyph unicode="&#xa8;" horiz-adv-x="1069" d="M209 1327q0 51 37 86q37 37 88 37t86 -37q35 -35 35 -86t-35 -88q-35 -35 -86 -35t-88 35q-37 37 -37 88zM633 1327q0 51 37 86q37 37 88 37t86 -37q35 -35 35 -86t-35 -88q-35 -35 -86 -35t-88 35q-37 37 -37 88z" />
<glyph unicode="&#xa9;" horiz-adv-x="1736" d="M127 717q0 307 217 524q219 219 524 219q309 0 525 -219q217 -217 217 -524t-217 -524q-219 -219 -527 -220q-309 0 -524 217q-215 220 -215 527zM194.5 716.5q0.5 -282.5 194.5 -483.5q197 -199 477.5 -198.5t477 201t196.5 481.5q0 283 -197 481q-195 201 -475 201 t-477 -201q-197 -199 -196.5 -481.5zM496 717q0 172 118 284q119 117 297 117q117 0 207 -47v-149q-94 59 -206.5 59t-187.5 -75t-75 -189q0 -117 77 -190.5t194 -73.5q129 0 217 69v-149q-97 -60 -226 -60q-178 0 -296.5 117t-118.5 287z" />
<glyph unicode="&#xaa;" horiz-adv-x="985" d="M90 901q0 115 87 182.5t220 67.5q139 0 248 -64v50q0 176 -227 176q-125 0 -240 -72v137q117 68 275 68q160 0 254 -75t94 -212v-293q0 -80 63 -80q25 0 43 13v-121q-35 -23 -90 -23q-129 0 -155 111q-106 -119 -285 -119q-125 0 -206 68.5t-81 185.5zM250 909 q0 -61 46 -95t124 -34q141 0 225 99v94q-96 59 -211 59q-86 0 -135 -32.5t-49 -90.5z" />
<glyph unicode="&#xab;" horiz-adv-x="1153" d="M72 446v113l295 371h225l-334 -426l334 -426h-225zM561 446v113l295 371h225l-331 -426l331 -426h-225z" />
<glyph unicode="&#xad;" horiz-adv-x="1005" d="M201 465v199h604v-199h-604z" />
<glyph unicode="&#xae;" horiz-adv-x="1736" d="M127 717q0 307 217 524q219 219 524 219q309 0 525 -219q217 -217 217 -524t-217 -524q-219 -219 -527 -220q-309 0 -524 217q-215 220 -215 527zM194.5 716.5q0.5 -282.5 194.5 -483.5q197 -199 477.5 -198.5t477 201t196.5 481.5q0 283 -197 481q-195 201 -475 201 t-477 -201q-197 -199 -196.5 -481.5zM563 344v778h361q121 0 191.5 -62.5t70.5 -166.5q0 -80 -43 -135.5t-121 -75.5l244 -338h-166l-232 320h-157v-320h-148zM711 786h204q57 0 89 28t32 75q0 106 -121 106h-204v-209z" />
<glyph unicode="&#xb2;" horiz-adv-x="735" d="M82 659v132l227 196q135 113 135 197q0 43 -32.5 69.5t-87.5 26.5q-109 0 -215 -82v180q94 70 229 70q117 0 203 -68q88 -63 88 -174q0 -78 -37 -141.5t-131 -151.5l-111 -102h303v-152h-571z" />
<glyph unicode="&#xb3;" horiz-adv-x="675" d="M49 707v167q113 -70 232 -69q68 0 112.5 32.5t44.5 82t-38 80t-105 30.5q-70 0 -121 -22v112l186 162h-288v152h514v-136l-174 -153q90 -14 149.5 -72.5t59.5 -157.5q0 -121 -95 -196q-96 -74 -229 -74q-143 0 -248 62z" />
<glyph unicode="&#xb4;" horiz-adv-x="974" d="M324 1178l194 286h277l-271 -286h-200z" />
<glyph unicode="&#xb8;" horiz-adv-x="1009" d="M252 -283l219 299h180l-143 -299h-256z" />
<glyph unicode="&#xb9;" horiz-adv-x="518" d="M39 1139v180l217 115h174v-775h-182v588z" />
<glyph unicode="&#xba;" horiz-adv-x="933" d="M51 1047q0 170 117 284q121 115 301 115q182 0 297 -115q117 -115 117 -284.5t-117 -284.5q-115 -115 -297 -115q-180 0 -301 115q-117 115 -117 285zM227 1049q0 -106 69 -177t173 -71t172 71t68 177q0 104 -68 173.5t-172 69.5t-173 -69.5t-69 -173.5z" />
<glyph unicode="&#xbb;" horiz-adv-x="1153" d="M72 78l331 426l-331 426h225l295 -371v-113l-295 -368h-225zM561 78l334 426l-334 426h225l295 -371v-113l-295 -368h-225z" />
<glyph unicode="&#xbc;" horiz-adv-x="1554" d="M39 1139v180l217 115h174v-775h-182v588zM215 0l856 1434h186l-856 -1434h-186zM840 188v129l383 457h184v-444h113v-142h-113v-188h-176v188h-391zM1024 330h207v241z" />
<glyph unicode="&#xbd;" horiz-adv-x="1650" d="M39 1139v180l217 115h174v-775h-182v588zM215 0l856 1434h186l-856 -1434h-186zM997 0v131l228 197q135 113 135 196q0 43 -33 70t-88 27q-109 0 -215 -82v180q94 70 229 69q117 0 203 -67q88 -63 88 -174q0 -78 -37 -141.5t-131 -151.5l-110 -102h303v-152h-572z" />
<glyph unicode="&#xbe;" horiz-adv-x="1648" d="M49 707v167q113 -70 232 -69q68 0 112.5 32.5t44.5 82t-38 80t-105 30.5q-70 0 -121 -22v112l186 162h-288v152h514v-136l-174 -153q90 -14 149.5 -72.5t59.5 -157.5q0 -121 -95 -196q-96 -74 -229 -74q-143 0 -248 62zM309 0l856 1434h187l-856 -1434h-187zM934 188v129 l383 457h184v-444h113v-142h-113v-188h-176v188h-391zM1118 330h207v241z" />
<glyph unicode="&#x132;" horiz-adv-x="1267" d="M188 68v223q152 -106 340 -107q174 0 259 79t85 247v924h226v-949q0 -258 -141.5 -385t-393.5 -127q-225 0 -375 95zM188 537v897h226v-897h-226z" />
<glyph unicode="&#x2c6;" horiz-adv-x="1097" d="M203 1178l233 286h230l233 -286h-207l-141 174l-141 -174h-207z" />
<glyph unicode="&#x2da;" horiz-adv-x="1120" d="M336 1327q0 82 59 141q59 61 143.5 61.5t143.5 -61.5q59 -59 59 -141t-61 -141q-59 -59 -141 -59.5t-144 59.5q-59 59 -59 141zM434 1327q0 -41 31 -71.5t74 -30.5t73.5 30.5t30.5 71.5q2 63 -51 90t-106.5 0.5t-51.5 -90.5z" />
<glyph unicode="&#x2dc;" horiz-adv-x="1052" d="M172 1198q2 113 60.5 187.5t148.5 74.5q59 0 147 -51q90 -49 129 -49q70 0 84 94h133q-2 -111 -60 -186.5t-148 -75.5q-59 0 -150 49q-88 51 -129 51q-68 0 -82 -94h-133z" />
<glyph unicode="&#x401;" horiz-adv-x="1312" d="M178 0v1434h1020v-207h-795v-359h648v-206h-648v-455h822v-207h-1047zM352 1702q0 51 37 86q37 37 88 37t86 -37q35 -35 35 -86t-35 -88q-35 -35 -86 -35t-88 35q-37 37 -37 88zM776 1702q0 51 37 86q37 37 88 37t86 -37q35 -35 35 -86t-35 -88q-35 -35 -86 -35t-88 35 q-37 37 -37 88z" />
<glyph unicode="&#x402;" horiz-adv-x="1574" d="M68 1227v207h1034v-207h-496v-416q164 68 369 68q231 0 375 -131q143 -129 143 -334q0 -190 -125 -315.5t-336 -125.5q-104 0 -196 29v211q86 -29 165 -29q121 0 196 65.5t75 172t-88 176.5t-238 70q-190 0 -340 -76v-592h-225v1227h-313z" />
<glyph unicode="&#x403;" horiz-adv-x="1255" d="M178 0v1434h1004v-207h-779v-1227h-225zM520 1561l195 286h276l-268 -286h-203z" />
<glyph unicode="&#x404;" horiz-adv-x="1392" d="M127 717q0 315 215 528q215 215 535 215q213 0 387 -98v-227q-176 115 -392 114q-182 0 -321 -114q-133 -113 -168 -297h600v-207h-612q27 -197 168 -322q143 -125 340 -125q248 0 415 133v-231q-169 -113 -415 -113q-317 0 -537 215q-215 215 -215 529z" />
<glyph unicode="&#x405;" horiz-adv-x="1286" d="M92 127v244q84 -74 232 -131q147 -55 294 -56q145 0 238.5 57.5t93.5 155.5q0 78 -63 133q-25 23 -74 43q-59 29 -197 68l-28 8q-117 33 -187 60q-55 20 -143 71q-147 92 -147 289q0 178 140 284.5t380 106.5q260 0 459 -119v-225q-219 133 -455 133q-143 0 -218 -50 t-75 -132q0 -70 84 -129q12 -8 34.5 -17.5t51.5 -19.5t41 -14l164 -47q150 -45 262 -107q190 -102 203 -332q0 -199 -157.5 -313.5t-393.5 -114.5q-328 0 -539 154z" />
<glyph unicode="&#x406;" horiz-adv-x="604" d="M188 0v1434h226v-1434h-226z" />
<glyph unicode="&#x407;" horiz-adv-x="600" d="M-35 1702q0 51 37 86q37 37 88 37t86 -37q35 -35 35 -86t-35 -88q-35 -35 -86 -35t-88 35q-37 37 -37 88zM188 0v1434h226v-1434h-226zM389 1702q0 51 37 86q37 37 88 37t86 -37q35 -35 35 -86t-35 -88q-35 -35 -86 -35t-88 35q-37 37 -37 88z" />
<glyph unicode="&#x408;" horiz-adv-x="1042" d="M66 61v224q121 -100 292 -101q150 0 223.5 75t73.5 233v942h226v-979q0 -244 -126.5 -363t-353.5 -119q-209 0 -335 88z" />
<glyph unicode="&#x409;" horiz-adv-x="2265" d="M20 4v205q27 -8 76 -8q158 0 207 202q51 203 51 680l6 351h936v-496h351q250 0 393 -131t143 -340q0 -205 -145 -338q-143 -129 -391 -129h-576v1227h-493l-7 -307q-8 -465 -100 -691q-96 -236 -362 -235q-53 0 -89 10zM1296 207h338q152 0 236 68.5t84 191.5 q0 125 -85 194.5t-235 69.5h-338v-524z" />
<glyph unicode="&#x40a;" horiz-adv-x="2304" d="M178 0v1434h225v-506h707v506h225v-506h353q246 0 391 -129q143 -129 143 -336q0 -205 -143 -334q-145 -129 -391 -129h-578v721h-707v-721h-225zM1335 207h348q145 0 228.5 67.5t83.5 186.5q0 123 -83 191.5t-229 68.5h-348v-514z" />
<glyph unicode="&#x40b;" horiz-adv-x="1619" d="M68 1227v207h1034v-207h-496v-412q164 63 369 64q518 0 518 -453v-426h-225v379q0 158 -77 223.5t-251 65.5t-334 -72v-596h-225v1227h-313z" />
<glyph unicode="&#x40c;" horiz-adv-x="1396" d="M178 0v1434h225v-586l588 586h289l-664 -656l770 -778h-307l-676 688v-688h-225zM549 1561l194 286h277l-268 -286h-203z" />
<glyph unicode="&#x40e;" horiz-adv-x="1349" d="M41 1434h254l424 -777l352 777h242l-529 -1127q-155 -334 -411 -334q-135 0 -203 33v213q80 -35 164 -35q86 0 143 45q55 45 125 189zM311 1855h189q0 -76 47 -121.5t127 -45.5t127 47t49 120h188q-2 -154 -103 -245.5t-259 -91.5q-162 0 -262.5 92t-102.5 245z" />
<glyph unicode="&#x40f;" horiz-adv-x="1511" d="M178 0v1434h225v-1227h705v1227h225v-1434h-471v-307h-215v307h-469z" />
<glyph unicode="&#x410;" horiz-adv-x="1560" d="M45 0l627 1442h217l627 -1442h-242l-156 356h-680l-153 -356h-240zM516 555h524l-262 602z" />
<glyph unicode="&#x411;" horiz-adv-x="1417" d="M178 0v1434h1012v-207h-787v-303h381q244 0 385 -129q141 -127 142 -334q0 -209 -142 -334q-139 -127 -385 -127h-606zM403 207h361q152 0 234.5 66.5t82.5 187.5t-84 188.5t-233 67.5h-361v-510z" />
<glyph unicode="&#x412;" horiz-adv-x="1476" d="M178 0v1434h651q195 0 308.5 -94.5t113.5 -258.5q0 -106 -53 -184t-137 -111q135 -25 220 -127t85 -256q0 -182 -131 -292q-129 -111 -352 -111h-705zM403 207h439q131 0 205.5 60.5t74.5 168.5q0 106 -73.5 163.5t-206.5 57.5h-439v-450zM403 856h388q113 0 175 48 t62 138.5t-62.5 137.5t-174.5 47h-388v-371z" />
<glyph unicode="&#x413;" horiz-adv-x="1255" d="M178 0v1434h1004v-207h-779v-1227h-225z" />
<glyph unicode="&#x414;" horiz-adv-x="1603" d="M29 207h137q113 170 166 399q53 236 53 629v199h948v-1227h207v-514h-213v307h-1085v-307h-213v514zM412 207h696v1020h-504q0 -358 -43 -602q-43 -246 -149 -418z" />
<glyph unicode="&#x415;" horiz-adv-x="1312" d="M178 0v1434h1020v-207h-795v-359h648v-206h-648v-455h822v-207h-1047z" />
<glyph unicode="&#x416;" horiz-adv-x="2072" d="M20 0l682 750l-596 684h279l537 -613v613h225v-613l539 613h282l-602 -684l686 -750h-295l-610 657v-657h-225v659l-607 -659h-295z" />
<glyph unicode="&#x417;" horiz-adv-x="1286" d="M82 96v221q94 -59 222 -96t247 -37q182 0 287.5 69t105.5 183q0 100 -96 161.5t-254 61.5h-178v207h205q131 0 202.5 51.5t71.5 141.5t-83 140t-226 50q-229 0 -443 -104v207q211 109 455 108q233 0 376.5 -106.5t143.5 -282.5q0 -117 -69 -192q-70 -76 -154 -105 q113 -33 197 -127q84 -90 84 -229q0 -193 -160 -320q-158 -125 -432 -125q-301 0 -502 123z" />
<glyph unicode="&#x418;" horiz-adv-x="1566" d="M178 0v1434h225v-1053l789 1053h197v-1434h-226v1057l-792 -1057h-193z" />
<glyph unicode="&#x419;" horiz-adv-x="1566" d="M178 0v1434h225v-1053l789 1053h197v-1434h-226v1057l-792 -1057h-193zM418 1855h188q0 -76 47 -121.5t127 -45.5t127 47t49 120h189q-2 -154 -103.5 -245.5t-259.5 -91.5q-162 0 -262 92t-102 245z" />
<glyph unicode="&#x41a;" horiz-adv-x="1396" d="M178 0v1434h225v-586l588 586h289l-664 -656l770 -778h-307l-676 688v-688h-225z" />
<glyph unicode="&#x41b;" horiz-adv-x="1492" d="M20 4v205q27 -8 76 -8q152 0 201 188q49 162 57 553l6 492h955v-1434h-225v1227h-512l-7 -307q-8 -465 -100 -691q-96 -236 -362 -235q-54 0 -89 10z" />
<glyph unicode="&#x41c;" horiz-adv-x="1736" d="M178 0v1434h230l464 -646l461 646h226v-1434h-226v1090l-399 -541h-131l-400 541v-1090h-225z" />
<glyph unicode="&#x41d;" horiz-adv-x="1554" d="M178 0v1434h225v-566h748v566h225v-1434h-225v662h-748v-662h-225z" />
<glyph unicode="&#x41e;" horiz-adv-x="1718" d="M127 717q0 315 207 528q209 215 524.5 215t523.5 -215q209 -213 209 -528q0 -316 -209 -531q-209 -213 -524 -213t-524 213q-207 217 -207 531zM359 717q0 -229 143 -381q145 -152 356 -152t356 152q145 156 146 381q0 227 -146 379q-145 154 -356 153.5t-356 -153.5 q-143 -150 -143 -379z" />
<glyph unicode="&#x41f;" horiz-adv-x="1521" d="M178 0v1434h1165v-1434h-225v1227h-715v-1227h-225z" />
<glyph unicode="&#x420;" horiz-adv-x="1355" d="M178 0v1434h617q225 0 350 -117q129 -113 129 -299t-129 -307q-125 -119 -350 -119h-392v-592h-225zM403 799h373q127 0 199 56t72 158.5t-71 158t-200 55.5h-373v-428z" />
<glyph unicode="&#x421;" horiz-adv-x="1400" d="M127 717q0 324 215 532q213 211 541 211q219 0 389 -96v-227q-174 113 -387 112q-225 0 -377 -151q-150 -150 -150 -381.5t152 -382.5q152 -150 383 -150q246 0 410 131v-227q-180 -115 -420 -115q-322 0 -541 209q-215 211 -215 535z" />
<glyph unicode="&#x422;" horiz-adv-x="1308" d="M68 1227v207h1173v-207h-475v-1227h-225v1227h-473z" />
<glyph unicode="&#x423;" horiz-adv-x="1349" d="M41 1434h254l424 -777l352 777h242l-529 -1127q-155 -334 -411 -334q-135 0 -203 33v213q80 -35 164 -35q86 0 143 45q55 45 125 189z" />
<glyph unicode="&#x424;" horiz-adv-x="1882" d="M127 725q0 119 43 226.5t126 194.5t220 141t311 59v135h226v-135q174 -4 311 -57.5t221 -140.5t127 -194.5t43 -226.5t-43 -226.5t-127 -194.5t-221 -140t-311 -57v-158h-226v158q-340 8 -520 186t-180 430zM358 727q0 -178 117 -299q116 -117 352 -121v840 q-231 -2 -352 -123q-117 -119 -117 -297zM1053 307q236 4 352 121q119 119 119 299q0 178 -119 297q-121 121 -352 123v-840z" />
<glyph unicode="&#x425;" horiz-adv-x="1468" d="M35 0l567 776l-477 658h266l346 -476l346 476h263l-480 -654l570 -780h-269l-434 596l-436 -596h-262z" />
<glyph unicode="&#x426;" horiz-adv-x="1603" d="M178 0v1434h225v-1227h705v1227h225v-1227h207v-514h-213v307h-1149z" />
<glyph unicode="&#x427;" horiz-adv-x="1415" d="M127 991v443h225v-398q0 -158 78 -223t248 -65q180 0 334 71v615h225v-1434h-225v600q-172 -63 -369 -63q-516 0 -516 454z" />
<glyph unicode="&#x428;" horiz-adv-x="2101" d="M178 0v1434h225v-1227h535v1227h225v-1227h535v1227h225v-1434h-1745z" />
<glyph unicode="&#x429;" horiz-adv-x="2193" d="M178 0v1434h225v-1227h535v1227h225v-1227h535v1227h225v-1227h207v-514h-211v307h-1741z" />
<glyph unicode="&#x42a;" horiz-adv-x="1632" d="M39 1227v207h604v-496h371q250 0 393 -131t143 -340q0 -205 -145 -338q-143 -129 -391 -129h-596v1227h-379zM643 207h358q152 0 236 68.5t84 191.5q0 125 -85 194.5t-235 69.5h-358v-524z" />
<glyph unicode="&#x42b;" horiz-adv-x="1859" d="M178 0v1434h225v-496h322q250 0 393.5 -131t143.5 -340q0 -205 -146 -338q-145 -129 -391 -129h-547zM403 207h310q152 0 235.5 68.5t83.5 191.5q0 125 -85 194.5t-234 69.5h-310v-524zM1456 0v1434h225v-1434h-225z" />
<glyph unicode="&#x42c;" horiz-adv-x="1392" d="M178 0v1434h225v-496h371q250 0 393.5 -131t143.5 -340q0 -205 -146 -338q-145 -129 -391 -129h-596zM403 207h359q152 0 235.5 68.5t83.5 191.5q0 125 -85 194.5t-234 69.5h-359v-524z" />
<glyph unicode="&#x42d;" horiz-adv-x="1392" d="M98 86v231q168 -133 416 -133q199 0 338 125q141 125 170 322h-612v207h600q-35 186 -170 297q-137 115 -320 114q-215 0 -391 -114v227q174 98 387 98q319 0 535 -215q215 -213 215 -528q0 -313 -217 -529q-216 -215 -535 -215q-246 0 -416 113z" />
<glyph unicode="&#x42e;" horiz-adv-x="2142" d="M178 0v1434h225v-605h252q33 272 224 453q186 178 454 178q293 0 488 -215q195 -217 194.5 -528t-194.5 -529q-195 -215 -488 -215q-272 0 -461 183q-188 186 -219 467h-250v-623h-225zM881 717q0 -238 127 -387q128 -146 325 -146q195 0 322 146q129 147 129 387 q0 242 -129 385q-125 147 -321.5 147t-325.5 -147q-127 -145 -127 -385z" />
<glyph unicode="&#x42f;" horiz-adv-x="1503" d="M59 0l457 631q-152 35 -235.5 140.5t-83.5 254.5q0 186 128 297t347 111h653v-1434h-225v606h-336l-432 -606h-273zM424 1016q0 -100 68.5 -155.5t189.5 -55.5h418v422h-418q-121 0 -189.5 -56.5t-68.5 -154.5z" />
<glyph unicode="&#x430;" horiz-adv-x="1222" d="M74 311q0 160 116 246q115 88 287 88q182 0 322 -78v56q0 219 -295 219q-172 0 -318 -90v194q150 86 367 86q213 0 339 -101.5t126 -283.5v-375q0 -47 23.5 -73.5t60.5 -26.5q33 0 59 14v-168q-45 -33 -129 -32q-172 0 -211 143q-137 -156 -370 -156q-162 0 -271 90 q-106 88 -106 248zM295 324q0 -78 58.5 -119t158.5 -41q82 0 160 34t127 87v123q-127 72 -269 71q-111 0 -173 -41t-62 -114z" />
<glyph unicode="&#x431;" horiz-adv-x="1251" d="M100 635q0 334 156 516q72 86 197 147q129 63 262 97q137 35 338 67v-205q-328 -61 -414 -92q-229 -78 -299 -243q-31 -70 -37 -170q63 92 171 145t237 53q195 0 325 -127q129 -127 129 -331q0 -231 -149 -375q-146 -144 -367 -144q-260 0 -405 179q-143 180 -144 483z M317 557q8 -184 94 -286.5t238 -102.5q129 0 211 86q84 88 84 221q0 127 -81 206t-206 79q-102 0 -195 -57.5t-145 -145.5z" />
<glyph unicode="&#x432;" horiz-adv-x="1189" d="M158 0v1006h549q147 0 231 -71t84 -185q0 -74 -36 -132.5t-93 -85.5q197 -57 197 -258q0 -129 -93.5 -201.5t-259.5 -72.5h-579zM379 178h319q78 0 122 33t44 90q0 59 -44 92t-122 33h-319v-248zM379 604h274q72 0 112 30t40 81q0 113 -152 112h-274v-223z" />
<glyph unicode="&#x433;" horiz-adv-x="993" d="M158 0v1006h778v-195h-557v-811h-221z" />
<glyph unicode="&#x434;" horiz-adv-x="1357" d="M43 195h131q80 121 111 297q31 170 34 514h801v-811h174v-471h-209v276h-829v-276h-213v471zM408 195h491v616h-377q1 -391 -114 -616z" />
<glyph unicode="&#x435;" horiz-adv-x="1171" d="M86 504q0 227 143 377q145 152 373 151q156 0 264 -82q213 -152 213 -454v-58h-770q20 -127 121.5 -198.5t257.5 -71.5q172 0 324 90v-186q-139 -98 -370.5 -98.5t-395.5 147.5q-160 147 -160 383zM311 606h545q-4 94 -72 166q-70 74 -192 74q-117 0 -194 -69t-87 -171z " />
<glyph unicode="&#x436;" horiz-adv-x="1669" d="M55 0l480 539l-422 467h260l352 -394v394h221v-394l352 394h261l-426 -467l483 -539h-275l-395 449v-449h-221v449l-397 -449h-273z" />
<glyph unicode="&#x437;" horiz-adv-x="1081" d="M113 45v201q172 -82 352 -82q131 0 207 38t76 107q0 127 -222 127h-186v178h186q188 0 189 111q0 117 -244 117q-160 0 -330 -74v195q154 70 377 69q184 0 303 -76q121 -78 121 -194q0 -166 -154 -221q193 -61 193 -248q0 -141 -133 -232q-131 -88 -352 -88 q-229 0 -383 72z" />
<glyph unicode="&#x438;" horiz-adv-x="1286" d="M158 0v1006h221v-682l543 682h206v-1006h-221v684l-542 -684h-207z" />
<glyph unicode="&#x439;" horiz-adv-x="1286" d="M158 0v1006h221v-682l543 682h206v-1006h-221v684l-542 -684h-207zM289 1479h186q0 -74 46 -121t120 -47t120 47t48 121h188q-2 -154 -100 -246t-254 -92t-254 92t-100 246z" />
<glyph unicode="&#x43a;" horiz-adv-x="1169" d="M158 0v1006h221v-381l397 381h283l-477 -451l548 -555h-303l-448 455v-455h-221z" />
<glyph unicode="&#x43b;" horiz-adv-x="1265" d="M43 4v191q23 -6 45 -7q109 0 154 112t49 378l6 328h811v-1006h-221v811h-379l-4 -145q-2 -217 -45 -373q-72 -287 -346 -297q-43 0 -70 8z" />
<glyph unicode="&#x43c;" horiz-adv-x="1439" d="M158 0v1006h217l344 -418l346 418h217v-1006h-213v705l-307 -371h-86l-305 371v-705h-213z" />
<glyph unicode="&#x43d;" horiz-adv-x="1267" d="M158 0v1006h221v-394h510v394h221v-1006h-221v418h-510v-418h-221z" />
<glyph unicode="&#x43e;" horiz-adv-x="1275" d="M86 504q0 221 155.5 374.5t397.5 153.5q238 0 395 -153q156 -154 156 -375t-156 -377q-157 -154 -395 -154q-242 0 -397.5 154t-155.5 377zM307 504q0 -145 94 -240q97 -96 238 -96q139 0 235 96q94 94 95 240q0 143 -95 237q-96 96 -235 97q-141 0 -238 -97 q-94 -94 -94 -237z" />
<glyph unicode="&#x43f;" horiz-adv-x="1253" d="M158 0v1006h938v-1006h-222v811h-495v-811h-221z" />
<glyph unicode="&#x440;" horiz-adv-x="1310" d="M158 -410v1416h221v-138q127 164 358 164q213 0 350 -153q137 -152 138 -377q0 -223 -138 -375q-137 -154 -350 -154q-231 0 -358 164v-547h-221zM379 346q43 -78 124 -128t175 -50q139 0 231 96q92 98 92 238q0 141 -92 237q-92 99 -231 99q-96 0 -176 -50.5 t-123 -130.5v-311z" />
<glyph unicode="&#x441;" horiz-adv-x="1064" d="M86 506q0 231 158 379q160 147 387 147q172 0 303 -69v-191q-137 66 -270 66q-152 0 -254 -95q-102 -96 -103 -239q0 -145 103 -242q102 -94 254 -94q162 0 286 76v-189q-143 -82 -321 -82q-227 0 -385 150q-158 152 -158 383z" />
<glyph unicode="&#x442;" horiz-adv-x="983" d="M41 811v195h899v-195h-338v-811h-221v811h-340z" />
<glyph unicode="&#x443;" horiz-adv-x="1169" d="M43 1006h246l303 -709l293 709h239l-481 -1115q-135 -311 -383 -311q-125 0 -182 33v194q66 -33 145 -32q84 0 142.5 61.5t117.5 200.5z" />
<glyph unicode="&#x444;" horiz-adv-x="1527" d="M86 504q0 225 150.5 364.5t416.5 153.5v412h221v-412q266 -14 417 -153.5t151 -364.5q0 -223 -152 -369q-147 -141 -416 -151v-394h-221v394q-268 10 -415 151q-152 145 -152 369zM301 504q0 -150 98 -242t254 -92v666q-156 -2 -254 -93.5t-98 -238.5zM874 170 q156 0 254.5 92t98.5 242q0 147 -98.5 238.5t-254.5 93.5v-666z" />
<glyph unicode="&#x445;" horiz-adv-x="1183" d="M51 0l406 526l-365 480h256l238 -312l239 312h252l-364 -476l405 -530h-256l-280 367l-281 -367h-250z" />
<glyph unicode="&#x446;" horiz-adv-x="1335" d="M158 0v1006h221v-811h495v811h222v-811h176v-471h-215v276h-899z" />
<glyph unicode="&#x447;" horiz-adv-x="1169" d="M109 752v254h221v-236q0 -145 52 -203.5t181 -58.5q127 0 228 51v447h221v-1006h-221v362q-117 -47 -265 -47q-213 0 -315 101.5t-102 335.5z" />
<glyph unicode="&#x448;" horiz-adv-x="1728" d="M158 0v1006h221v-811h375v811h221v-811h375v811h221v-1006h-1413z" />
<glyph unicode="&#x449;" horiz-adv-x="1810" d="M158 0v1006h221v-811h375v811h221v-811h375v811h221v-811h176v-471h-215v276h-1374z" />
<glyph unicode="&#x44a;" horiz-adv-x="1327" d="M31 811v195h516v-306h289q184 0 294.5 -95t110.5 -255q0 -150 -104 -252q-105 -98 -291 -98h-520v811h-295zM547 186h264q96 0 151.5 44t55.5 120q0 78 -54.5 121t-152.5 43h-264v-328z" />
<glyph unicode="&#x44b;" horiz-adv-x="1548" d="M158 0v1006h221v-306h244q184 0 294.5 -95t110.5 -255q0 -150 -104 -252q-105 -98 -291 -98h-475zM379 186h219q96 0 151.5 44t55.5 120q0 78 -54.5 121t-152.5 43h-219v-328zM1169 0v1006h222v-1006h-222z" />
<glyph unicode="&#x44c;" horiz-adv-x="1159" d="M158 0v1006h221v-306h289q184 0 294.5 -95t110.5 -255q0 -150 -104 -252q-105 -98 -291 -98h-520zM379 186h264q96 0 151.5 44t55.5 120q0 78 -54.5 121t-152.5 43h-264v-328z" />
<glyph unicode="&#x44d;" horiz-adv-x="1056" d="M111 53v193q133 -78 284 -78q135 0 232.5 68.5t115.5 181.5h-424v178h424q-25 113 -119 177.5t-229 64.5q-139 0 -264 -66v193q131 68 299 67q225 0 383 -147.5t158 -379t-158 -382.5q-156 -150 -383 -150q-180 0 -319 80z" />
<glyph unicode="&#x44e;" horiz-adv-x="1683" d="M158 0v1006h221v-396h205q31 184 168 303t331 119q223 0 369 -153q145 -152 145 -375t-145 -379q-146 -152 -369 -152q-203 0 -340 123q-135 123 -163 320h-201v-416h-221zM786 504q0 -145 82 -240q84 -96 215 -96q129 0 213 96q82 95 82 240q0 143 -82 237 q-84 96 -213 97q-131 0 -215 -97q-82 -94 -82 -237z" />
<glyph unicode="&#x44f;" horiz-adv-x="1198" d="M72 0l284 391q-106 27 -164.5 104.5t-58.5 192.5q0 145 97.5 231.5t281.5 86.5h528v-1006h-221v346h-244l-249 -346h-254zM358 676q0 -72 48.5 -112t136.5 -40h276v303h-276q-88 0 -136.5 -39.5t-48.5 -111.5z" />
<glyph unicode="&#x451;" horiz-adv-x="1171" d="M86 504q0 227 143 377q145 152 373 151q156 0 264 -82q213 -152 213 -454v-58h-770q20 -127 121.5 -198.5t257.5 -71.5q172 0 324 90v-186q-139 -98 -370.5 -98.5t-395.5 147.5q-160 147 -160 383zM258 1302.5q0 51.5 37 86.5q37 37 88 36.5t86 -36.5q35 -35 35 -86.5 t-35 -88.5q-35 -35 -86 -35t-88 35q-37 37 -37 88.5zM311 606h545q-4 94 -72 166q-70 74 -192 74q-117 0 -194 -69t-87 -171zM682 1302.5q0 51.5 37 86.5q37 37 88 36.5t86 -36.5q35 -35 35 -86.5t-35 -88.5q-35 -35 -86 -35t-88 35q-37 37 -37 88.5z" />
<glyph unicode="&#x452;" horiz-adv-x="1339" d="M31 1100v178h209v156h221v-156h309v-178h-309v-334q147 160 368 160q178 0 275.5 -110.5t97.5 -307.5v-580q0 -168 -89 -258t-245 -90q-129 0 -200 41v193q66 -39 147 -39q166 0 166 178v506q0 145 -69.5 202.5t-166.5 57.5q-82 0 -161.5 -46t-122.5 -118v-555h-221v1100 h-209z" />
<glyph unicode="&#x453;" horiz-adv-x="993" d="M158 0v1006h778v-195h-557v-811h-221zM373 1178l194 286h277l-271 -286h-200z" />
<glyph unicode="&#x454;" horiz-adv-x="1060" d="M86 506q0 231 157.5 378.5t383.5 147.5q168 0 299 -67v-193q-125 66 -264 66q-135 0 -229.5 -64.5t-119.5 -177.5h424v-178h-424q18 -113 115.5 -181.5t233.5 -68.5q152 0 284 78v-193q-139 -80 -319 -80q-227 0 -383 150q-158 152 -158 383z" />
<glyph unicode="&#x455;" horiz-adv-x="1048" d="M96 76v209q176 -121 410 -121q104 0 162.5 31.5t58.5 87.5q0 49 -61 79q-27 12 -97 31l-125 31q-178 45 -258 115.5t-80 197.5q0 137 113 216t313 79q231 0 371 -90v-203q-182 102 -362 103q-100 0 -153.5 -30t-53.5 -81q0 -47 63 -80q8 -4 97 -30l116 -25 q344 -76 344 -317q0 -137 -120.5 -221.5t-317.5 -84.5q-268 0 -420 103z" />
<glyph unicode="&#x456;" horiz-adv-x="573" d="M147 1325q0 59 40 100t100 41q57 0 97 -41t40 -100t-40 -99t-97 -40q-59 0 -99.5 40t-40.5 99zM176 0v1006h221v-1006h-221z" />
<glyph unicode="&#x457;" horiz-adv-x="575" d="M-47 1327q0 51 37 86q37 37 88 37t86 -37q35 -35 35 -86t-35 -88q-35 -35 -86 -35t-88 35q-37 37 -37 88zM176 0v1006h223v-1006h-223zM377 1327q0 51 37 86q37 37 88 37t86 -37q35 -35 35 -86t-35 -88q-35 -35 -86 -35t-88 35q-37 37 -37 88z" />
<glyph unicode="&#x458;" horiz-adv-x="573" d="M-137 -186q66 -39 147 -39q166 0 166 178v1053h221v-1078q0 -168 -89 -258t-245 -90q-129 0 -200 41v193zM145 1325q0 59 39 100q41 41 100.5 41t98.5 -41q41 -41 41 -100t-41 -100q-39 -39 -98.5 -39t-100.5 39q-39 41 -39 100z" />
<glyph unicode="&#x459;" horiz-adv-x="1843" d="M43 4v191q23 -6 45 -7q109 0 154 112t49 378l6 328h793v-306h262q184 0 294.5 -95t110.5 -255q0 -150 -104 -252q-105 -98 -291 -98h-494v811h-360l-4 -145q-2 -217 -45 -373q-72 -287 -346 -297q-43 0 -70 8zM1090 186h237q96 0 151.5 44t55.5 120q0 78 -54.5 121 t-152.5 43h-237v-328z" />
<glyph unicode="&#x45a;" horiz-adv-x="1835" d="M158 0v1006h221v-394h481v394h221v-306h262q184 0 295 -95t111 -255q0 -150 -104 -252q-105 -98 -291 -98h-494v418h-481v-418h-221zM1081 186h238q96 0 151.5 44t55.5 120q0 78 -54.5 121t-152.5 43h-238v-328z" />
<glyph unicode="&#x45b;" horiz-adv-x="1339" d="M31 1100v178h209v156h221v-156h309v-178h-309v-334q147 160 368 160q178 0 275.5 -110.5t97.5 -307.5v-508h-221v459q0 145 -69.5 202.5t-166.5 57.5q-82 0 -161.5 -46t-122.5 -118v-555h-221v1100h-209z" />
<glyph unicode="&#x45c;" horiz-adv-x="1169" d="M158 0v1006h221v-381l397 381h283l-477 -451l548 -555h-303l-448 455v-455h-221zM463 1178l194 286h277l-270 -286h-201z" />
<glyph unicode="&#x45e;" horiz-adv-x="1169" d="M43 1006h246l303 -709l293 709h239l-481 -1115q-135 -311 -383 -311q-125 0 -182 33v194q66 -33 145 -32q84 0 142.5 61.5t117.5 200.5zM238 1479h186q0 -74 46 -121t120 -47t120 47t48 121h188q-2 -154 -100 -246t-254 -92t-254 92t-100 246z" />
<glyph unicode="&#x45f;" horiz-adv-x="1253" d="M158 0v1006h221v-811h495v811h222v-1006h-363v-276h-215v276h-360z" />
<glyph unicode="&#x490;" horiz-adv-x="1255" d="M178 0v1434h799v290h205v-497h-779v-1227h-225z" />
<glyph unicode="&#x491;" horiz-adv-x="993" d="M158 0v1006h573v262h205v-457h-557v-811h-221z" />
<glyph unicode="&#x2000;" horiz-adv-x="954" />
<glyph unicode="&#x2001;" horiz-adv-x="1909" />
<glyph unicode="&#x2002;" horiz-adv-x="954" />
<glyph unicode="&#x2003;" horiz-adv-x="1909" />
<glyph unicode="&#x2004;" horiz-adv-x="636" />
<glyph unicode="&#x2005;" horiz-adv-x="477" />
<glyph unicode="&#x2006;" horiz-adv-x="318" />
<glyph unicode="&#x2007;" horiz-adv-x="318" />
<glyph unicode="&#x2008;" horiz-adv-x="238" />
<glyph unicode="&#x2009;" horiz-adv-x="381" />
<glyph unicode="&#x200a;" horiz-adv-x="106" />
<glyph unicode="&#x2010;" horiz-adv-x="1005" d="M201 465v199h604v-199h-604z" />
<glyph unicode="&#x2011;" horiz-adv-x="1005" d="M201 465v199h604v-199h-604z" />
<glyph unicode="&#x2012;" horiz-adv-x="1005" d="M201 465v199h604v-199h-604z" />
<glyph unicode="&#x2013;" horiz-adv-x="1538" d="M201 465v199h1136v-199h-1136z" />
<glyph unicode="&#x2014;" horiz-adv-x="1867" d="M201 465v199h1466v-199h-1466z" />
<glyph unicode="&#x2018;" horiz-adv-x="479" d="M14 860l250 574h174l-170 -574h-254z" />
<glyph unicode="&#x2019;" horiz-adv-x="479" d="M29 860l170 574h254l-250 -574h-174z" />
<glyph unicode="&#x201a;" horiz-adv-x="520" d="M16 -311l170 573h254l-250 -573h-174z" />
<glyph unicode="&#x201c;" horiz-adv-x="860" d="M14 860l250 574h174l-170 -574h-254zM395 860l250 574h174l-170 -574h-254z" />
<glyph unicode="&#x201d;" horiz-adv-x="860" d="M29 860l170 574h254l-250 -574h-174zM410 860l170 574h254l-250 -574h-174z" />
<glyph unicode="&#x201e;" horiz-adv-x="901" d="M16 -311l170 573h254l-250 -573h-174zM397 -311l170 573h254l-250 -573h-174z" />
<glyph unicode="&#x2026;" horiz-adv-x="1456" d="M113 129q0 59 42 101t103 42q57 0 100 -42t43 -101q0 -61 -42 -103t-101 -42q-61 0 -103 42t-42 103zM586 129q0 59 42 101t101 42t101 -42t42 -101q0 -61 -42 -103t-101 -42t-101 42t-42 103zM1059 129q0 59 42 101t101.5 42t101.5 -42t42 -101q0 -61 -42 -103 t-101.5 -42t-101.5 42t-42 103z" />
<glyph unicode="&#x202f;" horiz-adv-x="381" />
<glyph unicode="&#x2030;" horiz-adv-x="2471" d="M74 1111.5q0 145.5 98 248.5q100 100 252 100q154 0 254 -100t100 -247.5t-100 -248.5q-100 -98 -254 -98q-150 0 -252 98q-98 102 -98 247.5zM236 1112q0 -84 53 -140.5t135 -56.5q84 0 138 56.5t54 140.5q0 86 -53 141.5t-139 55.5q-82 0 -135 -56.5t-53 -140.5zM330 0 l848 1434h170l-846 -1434h-172zM899 322q0 145 98 245q100 101 252 101q154 0 254.5 -100.5t100.5 -245.5q0 -147 -100.5 -248t-254.5 -101q-152 0 -252 101q-98 100 -98 248zM1061 322q0 -84 53 -140.5t135 -56.5q86 0 139.5 55.5t53.5 141.5q0 84 -54.5 140t-138.5 56 q-82 0 -135 -56t-53 -140zM1696 322q0 145 98 245q100 101 252 101q154 0 254 -100.5t100 -245.5q0 -150 -100 -250q-100 -98 -254 -99q-152 0 -252 101q-98 100 -98 248zM1855 322q0 -84 54.5 -141.5t136.5 -57.5q86 0 139 56.5t53 142.5q0 84 -54 140t-138 56 q-82 0 -136.5 -56t-54.5 -140z" />
<glyph unicode="&#x2039;" horiz-adv-x="663" d="M72 446v113l295 371h225l-334 -426l334 -426h-225z" />
<glyph unicode="&#x203a;" horiz-adv-x="661" d="M72 78l329 426l-329 426h223l295 -371v-113l-295 -368h-223z" />
<glyph unicode="&#x2044;" horiz-adv-x="430" d="M-301 0l856 1434h186l-856 -1434h-186z" />
<glyph unicode="&#x205f;" horiz-adv-x="477" />
<glyph unicode="&#x2070;" horiz-adv-x="794" d="M51 1046.5q0 161.5 92 282.5q94 119 254 119t252 -119q94 -119 94 -282.5t-94 -282.5q-92 -119 -251.5 -119t-254.5 119q-92 121 -92 282.5zM231 1046.5q0 -102.5 46 -173t120 -70.5q76 0 120 69.5t44 174t-44 174t-120 69.5q-74 0 -120 -70.5t-46 -173z" />
<glyph unicode="&#x2074;" horiz-adv-x="747" d="M33 848v129l383 457h184v-445h113v-141h-113v-189h-176v189h-391zM217 989h207v242z" />
<glyph unicode="&#x2075;" horiz-adv-x="686" d="M57 700v170q102 -66 222 -65q70 0 114.5 30.5t44.5 86.5q0 49 -43 80.5t-116 31.5q-106 0 -195 -30l51 430h434v-152h-299l-12 -115q20 4 64 4q133 0 216 -67.5t83 -181.5q0 -127 -94.5 -202t-241.5 -75q-133 0 -228 55z" />
<glyph unicode="&#x2076;" horiz-adv-x="729" d="M61 1008q0 184 93 311q96 129 274 129q117 0 182 -47v-160q-70 49 -161 49q-82 0 -138.5 -51t-62.5 -137q61 72 174 72q111 0 182.5 -70t71.5 -184q0 -123 -86 -199q-82 -76 -209 -76q-152 0 -236 98.5t-84 264.5zM236 954q2 -74 39 -117.5t94 -43.5q55 0 90 35.5 t35 91.5q0 51 -36 85.5t-89 34.5q-41 0 -78 -23.5t-55 -62.5z" />
<glyph unicode="&#x2077;" horiz-adv-x="667" d="M47 1282v152h569v-142l-323 -633h-197l316 623h-365z" />
<glyph unicode="&#x2078;" horiz-adv-x="741" d="M49 883q0 63 41 115.5t103 72.5q-47 20 -76 64.5t-29 95.5q0 96 81 156.5t204 60.5t202.5 -60.5t79.5 -156.5q0 -51 -29.5 -95t-76.5 -65q61 -20 102 -72.5t41 -115.5q0 -111 -94 -174q-90 -64 -225 -64q-141 0 -232.5 64.5t-91.5 173.5zM231 897q0 -45 40.5 -74.5 t101.5 -29.5q59 0 98 29.5t39 74.5q0 49 -38 79t-99 30q-63 0 -102.5 -30t-39.5 -79zM254 1212q0 -39 34 -65.5t85 -26.5q47 0 79.5 27t32.5 65q0 41 -31.5 67t-80.5 26q-51 0 -85 -26t-34 -67z" />
<glyph unicode="&#x2079;" horiz-adv-x="729" d="M61 1174q0 119 84 196.5t209 77.5q152 0 237 -98.5t85 -264.5q0 -182 -96 -313q-96 -127 -273 -127q-115 0 -184 47v160q72 -49 162 -49q84 0 140 51t62 137q-61 -72 -174 -71q-111 0 -181.5 69.5t-70.5 184.5zM242 1174q0 -51 34.5 -86t88.5 -35q94 0 133 86 q-2 74 -39 117.5t-92.5 43.5t-90 -35.5t-34.5 -90.5z" />
<glyph unicode="&#x2080;" horiz-adv-x="794" d="M51 387q0 162 92 283q94 119 254 118.5t252 -118.5q94 -119 94 -283t-94 -283q-92 -119 -251.5 -118.5t-254.5 118.5q-92 121 -92 283zM231 387q0 -102 46 -173t120 -71q76 0 120 70t44 174.5t-44 174t-120 69.5q-74 0 -120 -71t-46 -173z" />
<glyph unicode="&#x2081;" horiz-adv-x="518" d="M39 479v180l217 115h174v-774h-182v588z" />
<glyph unicode="&#x2082;" horiz-adv-x="735" d="M82 0v131l227 197q135 113 135 196q0 43 -32.5 70t-87.5 27q-109 0 -215 -82v180q94 70 229 69q117 0 203 -67q88 -63 88 -174q0 -78 -37 -141.5t-131 -151.5l-111 -102h303v-152h-571z" />
<glyph unicode="&#x2083;" horiz-adv-x="675" d="M49 47v168q113 -70 232 -70q68 0 112.5 33t44.5 82t-38 80t-105 31q-70 0 -121 -23v113l186 162h-288v151h514v-135l-174 -154q90 -14 149.5 -72.5t59.5 -156.5q0 -121 -95 -197q-96 -73 -229 -73q-143 0 -248 61z" />
<glyph unicode="&#x2084;" horiz-adv-x="747" d="M33 188v129l383 457h184v-444h113v-142h-113v-188h-176v188h-391zM217 330h207v241z" />
<glyph unicode="&#x2085;" horiz-adv-x="686" d="M57 41v170q102 -66 222 -66q70 0 114.5 31t44.5 86q0 49 -43 81t-116 32q-106 0 -195 -31l51 430h434v-151h-299l-12 -115q20 4 64 4q133 0 216 -67.5t83 -182.5q0 -127 -94.5 -201.5t-241.5 -74.5q-133 0 -228 55z" />
<glyph unicode="&#x2086;" horiz-adv-x="729" d="M61 348q0 184 93 311q96 129 274 129q117 0 182 -47v-159q-70 49 -161 49q-82 0 -138.5 -51.5t-62.5 -137.5q61 72 174 72q111 0 182.5 -69.5t71.5 -184.5q0 -123 -86 -199q-82 -75 -209 -75q-152 0 -236 98t-84 264zM236 295q2 -74 39 -118t94 -44q55 0 90 36t35 91 q0 51 -36 86t-89 35q-41 0 -78 -23.5t-55 -62.5z" />
<glyph unicode="&#x2087;" horiz-adv-x="667" d="M47 623v151h569v-141l-323 -633h-197l316 623h-365z" />
<glyph unicode="&#x2088;" horiz-adv-x="741" d="M49 223q0 63 41 115.5t103 73.5q-47 20 -76 64t-29 95q0 96 81 156.5t204 60.5t202.5 -60t79.5 -157q0 -51 -29.5 -95t-76.5 -64q61 -20 102 -72.5t41 -116.5q0 -111 -94 -174q-90 -63 -225 -63q-141 0 -232.5 64.5t-91.5 172.5zM231 238q0 -45 40.5 -75t101.5 -30 q59 0 98 30t39 75q0 49 -38 78.5t-99 29.5q-63 0 -102.5 -29.5t-39.5 -78.5zM254 553q0 -39 34 -65.5t85 -26.5q47 0 79.5 26.5t32.5 65.5q0 41 -31.5 66.5t-80.5 25.5q-51 0 -85 -25.5t-34 -66.5z" />
<glyph unicode="&#x2089;" horiz-adv-x="729" d="M61 512q0 119 84 196.5t209 77.5q152 0 237 -98t85 -264q0 -182 -96 -313q-96 -127 -273 -127q-115 0 -184 47v159q72 -49 162 -49q84 0 140 51.5t62 137.5q-61 -72 -174 -72q-111 0 -181.5 69.5t-70.5 184.5zM242 512q0 -51 34.5 -86t88.5 -35q94 0 133 86 q-2 74 -39 118t-92.5 44t-90 -36t-34.5 -91z" />
<glyph unicode="&#x20ac;" horiz-adv-x="1378" d="M74 494v159h153q-2 16 -2 76q0 12 4 94h-155v160h188q66 213 234 344q170 133 411 133q199 0 342 -88v-215q-145 96 -315 96q-152 0 -263.5 -70.5t-162.5 -199.5h444v-160h-491q-6 -49 -6 -90q0 -18 4 -80h493v-159h-456q43 -147 158.5 -230.5t279.5 -83.5q203 0 346 119 v-225q-143 -100 -373 -101q-256 0 -428 142q-170 145 -227 379h-178z" />
<glyph unicode="&#x2122;" horiz-adv-x="1411" d="M43 1323v111h530v-111h-204v-524h-127v524h-199zM680 799v635h117l192 -260l191 260h120v-635h-126v438l-152 -197h-64l-153 199v-440h-125z" />
<glyph unicode="&#x2153;" horiz-adv-x="1619" d="M39 1139v180l217 115h174v-775h-182v588zM215 0l856 1434h186l-856 -1434h-186zM993 47v168q113 -70 232 -70q68 0 112.5 33t44.5 82t-37.5 80t-105.5 31q-70 0 -121 -23v113l187 162h-289v151h514v-135l-174 -154q90 -14 149.5 -72.5t59.5 -156.5q0 -121 -95 -197 q-94 -73 -229 -73q-143 0 -248 61z" />
<glyph unicode="&#x2154;" horiz-adv-x="1824" d="M82 659v132l227 196q135 113 135 197q0 43 -32.5 69.5t-87.5 26.5q-109 0 -215 -82v180q94 70 229 70q117 0 203 -68q88 -63 88 -174q0 -78 -37 -141.5t-131 -151.5l-111 -102h303v-152h-571zM420 0l856 1434h186l-856 -1434h-186zM1198 47v168q113 -70 232 -70 q68 0 112.5 33t44.5 82t-38 80t-105 31q-70 0 -121 -23v113l186 162h-288v151h514v-135l-174 -154q90 -14 149 -72.5t59 -156.5q0 -121 -94 -197q-94 -73 -229 -73q-143 0 -248 61z" />
<glyph unicode="&#x2155;" horiz-adv-x="1581" d="M39 1139v180l217 115h174v-775h-182v588zM215 0l856 1434h186l-856 -1434h-186zM952 41v170q102 -66 222 -66q70 0 114.5 31t44.5 86q0 49 -43 81t-116 32q-104 0 -195 -31l51 430h434v-151h-299l-12 -115q20 4 64 4q133 0 216 -67.5t83 -182.5q0 -127 -94.5 -201.5 t-241.5 -74.5q-131 0 -228 55z" />
<glyph unicode="&#x2156;" horiz-adv-x="1783" d="M82 659v132l227 196q135 113 135 197q0 43 -32.5 69.5t-87.5 26.5q-109 0 -215 -82v180q94 70 229 70q117 0 203 -68q88 -63 88 -174q0 -78 -37 -141.5t-131 -151.5l-111 -102h303v-152h-571zM420 0l856 1434h186l-856 -1434h-186zM1155 41v170q102 -66 221 -66 q70 0 115 31t45 86q0 49 -43 81t-117 32q-106 0 -194 -31l51 430h434v-151h-299l-12 -115q20 4 63 4q133 0 216 -67.5t83 -182.5q0 -127 -94.5 -201.5t-241.5 -74.5q-133 0 -227 55z" />
<glyph unicode="&#x2157;" horiz-adv-x="1675" d="M49 707v167q113 -70 232 -69q68 0 112.5 32.5t44.5 82t-38 80t-105 30.5q-70 0 -121 -22v112l186 162h-288v152h514v-136l-174 -153q90 -14 149.5 -72.5t59.5 -157.5q0 -121 -95 -196q-96 -74 -229 -74q-143 0 -248 62zM309 0l856 1434h187l-856 -1434h-187zM1047 41v170 q102 -66 221 -66q70 0 114.5 31t44.5 86q0 49 -43 81t-116 32q-104 0 -195 -31l51 430h435v-151h-299l-13 -115q20 4 64 4q133 0 216 -67.5t83 -182.5q0 -127 -94.5 -201.5t-241.5 -74.5q-131 0 -227 55z" />
<glyph unicode="&#x2158;" horiz-adv-x="1761" d="M33 848v129l383 457h184v-445h113v-141h-113v-189h-176v189h-391zM217 989h207v242zM395 0l856 1434h187l-856 -1434h-187zM1133 41v170q102 -66 221 -66q70 0 114.5 31t44.5 86q0 49 -43 81t-116 32q-104 0 -195 -31l51 430h435v-151h-299l-13 -115q20 4 64 4 q133 0 216 -67.5t83 -182.5q0 -127 -94.5 -201.5t-241.5 -74.5q-131 0 -227 55z" />
<glyph unicode="&#x2159;" horiz-adv-x="1587" d="M39 1139v180l217 115h174v-775h-182v588zM215 0l856 1434h186l-856 -1434h-186zM920 348q0 184 92 311q94 129 274 129q117 0 182 -47v-159q-70 49 -161 49q-82 0 -138.5 -51.5t-62.5 -137.5q61 72 174 72q111 0 182.5 -69.5t71.5 -184.5q0 -123 -86 -199 q-82 -75 -209 -75q-152 0 -235.5 98t-83.5 264zM1094 295q2 -74 39 -118t94 -44q55 0 90 36t35 91q0 51 -35 86t-90 35q-41 0 -78 -23.5t-55 -62.5z" />
<glyph unicode="&#x215a;" horiz-adv-x="1687" d="M57 700v170q102 -66 222 -65q70 0 114.5 30.5t44.5 86.5q0 49 -43 80.5t-116 31.5q-106 0 -195 -30l51 430h434v-152h-299l-12 -115q20 4 64 4q133 0 216 -67.5t83 -181.5q0 -127 -94.5 -202t-241.5 -75q-133 0 -228 55zM315 0l856 1434h187l-856 -1434h-187zM1020 348 q0 184 92 311q96 129 274 129q117 0 183 -47v-159q-70 49 -162 49q-82 0 -138.5 -51.5t-62.5 -137.5q61 72 174 72q111 0 182.5 -69.5t71.5 -184.5q0 -123 -86 -199q-82 -75 -209 -75q-152 0 -235.5 98t-83.5 264zM1194 295q2 -74 39 -118t94 -44q55 0 90 36t35 91 q0 51 -36 86t-89 35q-41 0 -78 -23.5t-55 -62.5z" />
<glyph unicode="&#x215b;" horiz-adv-x="1628" d="M39 1139v180l217 115h174v-775h-182v588zM215 0l856 1434h186l-856 -1434h-186zM936 223q0 63 41 115.5t102 73.5q-47 20 -75.5 64t-28.5 95q0 96 81 156.5t203.5 60.5t202.5 -60t80 -157q0 -51 -29.5 -95t-76.5 -64q61 -20 102 -72.5t41 -116.5q0 -111 -94 -174 q-90 -63 -225 -63q-141 0 -232.5 64.5t-91.5 172.5zM1118 238q0 -45 40.5 -75t101.5 -30q59 0 98 30t39 75q0 49 -38 78.5t-99 29.5q-63 0 -102.5 -29.5t-39.5 -78.5zM1141 553q0 -39 34 -65.5t85 -26.5q47 0 79.5 26.5t32.5 65.5q0 41 -31.5 66.5t-80.5 25.5 q-51 0 -85 -25.5t-34 -66.5z" />
<glyph unicode="&#x215c;" horiz-adv-x="1724" d="M49 707v167q113 -70 232 -69q68 0 112.5 32.5t44.5 82t-38 80t-105 30.5q-70 0 -121 -22v112l186 162h-288v152h514v-136l-174 -153q90 -14 149.5 -72.5t59.5 -157.5q0 -121 -95 -196q-96 -74 -229 -74q-143 0 -248 62zM309 0l856 1434h187l-856 -1434h-187zM1032 223 q0 63 41 115.5t103 73.5q-47 20 -76 64t-29 95q0 96 81 156.5t204 60.5t202.5 -60t79.5 -157q0 -51 -29.5 -95t-76.5 -64q61 -20 102 -72.5t41 -116.5q0 -111 -94 -174q-90 -63 -225 -63q-141 0 -232.5 64.5t-91.5 172.5zM1214 238q0 -45 40.5 -75t101.5 -30q59 0 98 30 t39 75q0 49 -38 78.5t-99 29.5q-63 0 -102.5 -29.5t-39.5 -78.5zM1237 553q0 -39 34 -65.5t85 -26.5q47 0 79.5 26.5t32.5 65.5q0 41 -31.5 66.5t-80.5 25.5q-51 0 -85 -25.5t-34 -66.5z" />
<glyph unicode="&#x215d;" horiz-adv-x="1730" d="M57 700v170q102 -66 222 -65q70 0 114.5 30.5t44.5 86.5q0 49 -43 80.5t-116 31.5q-106 0 -195 -30l51 430h434v-152h-299l-12 -115q20 4 64 4q133 0 216 -67.5t83 -181.5q0 -127 -94.5 -202t-241.5 -75q-133 0 -228 55zM315 0l856 1434h187l-856 -1434h-187zM1038 223 q0 63 41 115.5t103 73.5q-47 20 -76 64t-29 95q0 96 81 156.5t204 60.5t203 -60t80 -157q0 -51 -30 -95t-77 -64q61 -20 102 -72.5t41 -116.5q0 -111 -94 -174q-90 -63 -225 -63q-141 0 -232.5 64.5t-91.5 172.5zM1221 238q0 -45 40 -75t101 -30q59 0 98 30t39 75 q0 49 -38 78.5t-99 29.5q-63 0 -102 -29.5t-39 -78.5zM1243 553q0 -39 34 -65.5t85 -26.5q47 0 80 26.5t33 65.5q0 41 -32 66.5t-81 25.5q-51 0 -85 -25.5t-34 -66.5z" />
<glyph unicode="&#x215e;" horiz-adv-x="1605" d="M47 1282v152h569v-142l-323 -633h-197l316 623h-365zM193 0l856 1434h186l-856 -1434h-186zM913 223q0 63 41 115.5t103 73.5q-47 20 -76 64t-29 95q0 96 81 156.5t204 60.5t203 -60t80 -157q0 -51 -30 -95t-77 -64q61 -20 102 -72.5t41 -116.5q0 -111 -94 -174 q-90 -63 -225 -63q-141 0 -232.5 64.5t-91.5 172.5zM1096 238q0 -45 40 -75t101 -30q59 0 98 30t39 75q0 49 -38 78.5t-99 29.5q-63 0 -102 -29.5t-39 -78.5zM1118 553q0 -39 34 -65.5t85 -26.5q47 0 80 26.5t33 65.5q0 41 -32 66.5t-81 25.5q-51 0 -85 -25.5t-34 -66.5z " />
<glyph unicode="&#x2190;" horiz-adv-x="1470" d="M106 547l386 442h231l-313 -350h913v-180h-913l313 -353h-231z" />
<glyph unicode="&#x2192;" horiz-adv-x="1470" d="M147 459v180h914l-313 350h231l383 -442l-383 -441h-231l313 353h-914z" />
<glyph unicode="&#x25fc;" horiz-adv-x="1003" d="M0 0v1004h1004v-1004h-1004z" />
<glyph unicode="&#xf639;" d="M94 717q-4 307 152.5 526t412.5 217q262 0 412 -217q154 -215 154 -526q0 -313 -154 -529q-150 -215 -412 -215q-256 -2 -412.5 216.5t-152.5 527.5zM319.5 716.5q-0.5 -227.5 92.5 -382.5q91 -154 247 -154q158 0 250 153.5t92 383t-92 383t-250 153.5q-156 0 -247 -155 q-92 -154 -92.5 -381.5z" />
<glyph unicode="&#xf63a;" d="M158 0v164l450 422q143 133 211 229q61 92 62 197q0 109 -79 175t-206 66q-215 0 -401 -178v236q176 150 423 149q203 0 345 -117q143 -117 143 -305q0 -145 -72 -264q-76 -121 -241 -278l-310 -295h672v-201h-997z" />
<glyph unicode="&#xf63b;" d="M152 82v219q176 -127 415 -127q141 0 244 78q102 80 102 213q0 125 -90 201.5t-241 76.5q-98 0 -183 -32v153l385 373h-579v197h878v-170l-366 -353q172 -18 299 -139q125 -119 125 -307q0 -221 -162 -356q-159 -136 -399 -136q-254 0 -428 109z" />
<glyph unicode="&#xf63c;" d="M59 375v172l744 887h221v-867h223v-192h-223v-375h-221v375h-744zM315 567h488v578z" />
<glyph unicode="&#xf63d;" d="M166 72v211q176 -109 393 -109q154 0 260 78q106 80 107 211q0 125 -99.5 205t-261.5 80q-166 0 -344 -62l94 748h738v-197h-574l-41 -330q84 23 180 23q233 0 383 -129q152 -129 152 -338q0 -225 -168 -357q-168 -133 -416 -133q-231 0 -403 99z" />
<glyph unicode="&#xf63e;" d="M129 645q0 344 170 580q168 236 471 235q178 0 315 -90v-205q-133 90 -290 90q-207 0 -318 -143q-109 -145 -117 -348q125 162 371 162q195 0 328 -127t133 -330q0 -219 -145 -358q-144 -138 -359 -138q-262 0 -412 179q-147 178 -147 493zM354 516q12 -162 96.5 -253 t223.5 -91q129 0 211 82q84 84 84 211q0 125 -86 201q-84 78 -211 77q-104 0 -199 -65q-90 -66 -119 -162z" />
<glyph unicode="&#xf63f;" d="M176 1231v203h979v-174l-635 -1260h-241l620 1231h-723z" />
<glyph unicode="&#xf640;" d="M98 399q0 127 78 223.5t209 139.5q-100 43 -158.5 125t-58.5 186q0 170 139 278.5t352 108.5q211 0 350.5 -108.5t139.5 -278.5q0 -104 -57.5 -186t-157.5 -125q131 -43 208 -139.5t77 -223.5q0 -199 -162 -311q-162 -115 -397.5 -115t-399.5 115q-162 113 -162 311z M330 413.5q0 -108.5 94 -177.5q96 -72 235 -72q137 0 234 72q94 69 94 177.5t-94 178.5q-90 70 -234 70q-141 0 -235 -70t-94 -178.5zM383 1054.5q0 -96.5 79 -157.5t197.5 -61t196.5 61t78 157.5t-78 158t-196.5 61.5t-197.5 -61.5t-79 -158z" />
<glyph unicode="&#xf641;" d="M117 965q0 219 143 356q146 139 361 139q262 0 409 -178q150 -176 150 -494q0 -344 -170 -581q-170 -233 -471 -234q-178 0 -316 90v205q133 -90 291 -90q209 0 315 144q111 143 119 348q-125 -162 -370 -162q-199 0 -330 125t-131 332zM340 969q0 -125 84 -203 q84 -76 213 -76q106 0 197 66q92 66 120 162q-12 162 -96 253t-223 91q-127 0 -211 -84t-84 -209z" />
<glyph unicode="&#xf64e;" horiz-adv-x="1155" d="M47 315v123h137q-4 29 -4 68q0 8 4 61h-137v123h164q51 154 195 248q139 94 317 94q170 0 301 -69v-189q-129 68 -266 68q-104 0 -187.5 -40t-126.5 -112h373v-123h-416q-4 -53 -4 -63q0 -35 6 -66h414v-123h-371q43 -72 125 -110.5t187 -38.5q158 0 282 76v-187 q-137 -82 -319 -82q-176 0 -313 93q-139 92 -195 249h-166z" />
<glyph unicode="&#xf653;" horiz-adv-x="1048" d="M96 76v211q176 -121 410 -121q104 0 162.5 30.5t58.5 86.5q0 49 -61 79q-27 12 -97 31l-125 31q-178 45 -258 115.5t-80 197.5q0 117 84 193t236 96v215h188v-213q178 -16 289 -86v-203q-182 102 -362 103q-100 0 -153.5 -30t-53.5 -81q0 -47 63 -80q8 -4 97 -30l116 -25 q344 -76 344 -317q0 -119 -92 -199t-248 -100v-213h-188v210q-213 18 -330 99z" />
<glyph unicode="&#xf6dc;" d="M174 0v195h389v997l-315 -168v219l338 191h198v-1239h367v-195h-977z" />
<glyph unicode="&#xf725;" horiz-adv-x="1124" d="M115 0v190h53q92 0 92 125v76h-145v168h145v86q0 184 116 285.5t324 101.5q168 0 295 -65v-195q-141 70 -276 70q-115 0 -179.5 -47t-64.5 -129v-107h426v-168h-426v-76q0 -90 -49 -125h592v-190h-903z" />
<glyph unicode="&#xf727;" horiz-adv-x="1226" d="M88 1006h250l276 -375l279 375h248l-375 -480h264v-123h-307v-112h307v-123h-307v-168h-219v168h-307v123h307v112h-307v123h258z" />
<glyph unicode="&#xf730;" horiz-adv-x="1275" d="M86 504q0 221 155.5 374.5t397.5 153.5q238 0 395 -153q156 -154 156 -375t-156 -377q-157 -154 -395 -154q-242 0 -397.5 154t-155.5 377zM307 504q0 -145 94 -240q97 -96 238 -96q139 0 235 96q94 94 95 240q0 143 -95 237q-96 96 -235 97q-141 0 -238 -97 q-94 -94 -94 -237z" />
<glyph unicode="&#xf731;" horiz-adv-x="774" d="M68 596v219l335 191h197v-1006h-221v768z" />
<glyph unicode="&#xf732;" horiz-adv-x="1167" d="M102 0v166q340 178 443 244l86 55q12 8 69 53q78 68 78 144q0 78 -61.5 121.5t-167.5 43.5q-201 0 -412 -157v213q193 150 430 149q197 0 316 -94q121 -92 121 -248q0 -121 -83 -213t-239 -174l-205 -106h578v-197h-953z" />
<glyph unicode="&#xf733;" horiz-adv-x="1140" d="M51 -92q180 -127 414 -127q145 0 246 76q102 78 102 206q0 123 -90 196t-244 73q-84 0 -182 -33v154l385 356h-580v197h879v-168l-367 -338q174 -18 301 -133q125 -113 125 -304q0 -219 -161 -350q-162 -133 -402 -133q-252 0 -426 109v219z" />
<glyph unicode="&#xf734;" horiz-adv-x="1304" d="M59 0v174l744 832h221v-811h223v-195h-223v-410h-221v410h-744zM317 195h486v544z" />
<glyph unicode="&#xf735;" horiz-adv-x="1208" d="M100 -109q174 -111 396 -110q156 0 260 80t104 211q0 121 -98 198q-94 76 -262 76q-164 0 -346 -61l92 721h739v-197h-573l-37 -305q80 23 180 22q231 0 381 -125q152 -127 151 -329q0 -227 -167 -359q-168 -133 -416 -133q-231 0 -404 98v213z" />
<glyph unicode="&#xf736;" horiz-adv-x="1308" d="M123 645q0 344 170 580q168 236 471 235q178 0 315 -90v-205q-133 90 -291 90q-207 0 -317 -143q-109 -145 -117 -348q125 162 371 162q195 0 328 -127t133 -330q0 -219 -146 -358q-143 -138 -358 -138q-260 0 -412 179q-147 178 -147 493zM348 516q12 -162 96.5 -253 t223.5 -91q129 0 211 82q84 84 84 211q0 125 -86 201q-84 78 -211 77q-104 0 -199 -65q-90 -66 -119 -162z" />
<glyph unicode="&#xf737;" horiz-adv-x="1132" d="M80 805v201h977v-172l-625 -1244h-242l611 1215h-721z" />
<glyph unicode="&#xf738;" horiz-adv-x="1314" d="M96 399q0 127 78 223.5t209 139.5q-100 43 -158.5 125t-58.5 186q0 170 139 278.5t352 108.5q211 0 350.5 -108.5t139.5 -278.5q0 -104 -57.5 -186t-157.5 -125q131 -43 208 -139.5t77 -223.5q0 -199 -162 -311q-162 -115 -397.5 -115t-399.5 115q-162 113 -162 311z M328 413.5q0 -108.5 94 -177.5q96 -72 235 -72q137 0 234 72q94 69 94 177.5t-94 178.5q-90 70 -234 70q-141 0 -235 -70t-94 -178.5zM381 1054.5q0 -96.5 79 -157.5t197.5 -61t196.5 61t78 157.5t-78 158t-196.5 61.5t-197.5 -61.5t-79 -158z" />
<glyph unicode="&#xf739;" horiz-adv-x="1306" d="M129 537q0 219 143 356q146 139 361 139q262 0 409 -178q150 -176 150 -494q6 -336 -168 -558t-473 -222q-178 0 -315 90v205q133 -90 290 -90q211 0 318 129q106 125 117 328q-125 -162 -371 -162q-199 0 -330 125t-131 332zM352 541q0 -125 84 -203q84 -76 213 -76 q106 0 197 66q92 66 121 161q-12 162 -96.5 253.5t-223.5 91.5q-127 0 -211 -84t-84 -209z" />
<glyph horiz-adv-x="2017" d="M158 0v1006h221v-394h510v394h221v-682l543 682h207v-1006h-222v684l-542 -684h-207v418h-510v-418h-221z" />
<glyph horiz-adv-x="2539" d="M178 0v1434h225v-566h748v566h225v-1053l789 1053h196v-1434h-225v1057l-793 -1057h-192v662h-748v-662h-225z" />
<glyph horiz-adv-x="2506" d="M178 0v1434h1165v-1053l789 1053h197v-1434h-226v1057l-792 -1057h-193v1227h-715v-1227h-225z" />
<glyph horiz-adv-x="2002" d="M158 0v1006h938v-682l542 682h207v-1006h-221v684l-543 -684h-207v811h-495v-811h-221z" />
<glyph horiz-adv-x="1736" d="M127 717q0 315 207 528q209 215 524.5 215t523.5 -215q209 -213 209 -528q0 -274 -166 -481l195 -236h-250l-86 104q-186 -131 -426 -131q-315 0 -524 213q-207 217 -207 531zM358.5 716.5q-0.5 -229.5 143.5 -380.5q145 -152 356 -152q156 0 287 90l-336 408h248 l219 -266q84 133 84 301q0 227 -146 379q-145 154 -356 153.5t-356 -153.5q-143 -150 -143.5 -379.5z" />
<glyph horiz-adv-x="2017" d="M158 0v1006h221v-682l543 682h206v-394h510v394h222v-1006h-222v418h-510v-418h-221v684l-542 -684h-207z" />
<glyph horiz-adv-x="1052" d="M190 1577q2 111 60.5 185.5t148.5 74.5q61 0 150 -51q90 -49 129 -49q68 0 82 94h133q-2 -111 -60.5 -185.5t-148.5 -74.5q-57 0 -147 49q-88 51 -129 51q-70 0 -84 -94h-134z" />
<glyph d="M63 494v159h154q-2 16 -2 76q0 12 4 94h-156v160h189q63 213 233 344q170 133 412 133q199 0 342 -88v-215q-145 96 -315 96q-152 0 -263.5 -70.5t-162.5 -199.5h444v-160h-491q-6 -49 -7 -90q0 -18 5 -80h493v-159h-457q43 -147 159 -230.5t280 -83.5q203 0 346 119 v-225q-143 -100 -373 -101q-256 0 -428 142q-170 145 -227 379h-179z" />
<glyph d="M109 0v203h30q68 0 96.5 30.5t28.5 98.5v260h-155v182h155v211q0 223 132 349t364 126q190 0 330 -80v-213q-127 82 -295 82q-147 0 -226.5 -75.5t-79.5 -221.5v-178h510v-182h-510v-266q0 -80 -55 -123h680v-203h-1005z" />
<glyph d="M25 1434h262l375 -580l378 580h252l-446 -668h342v-160h-416v-170h416v-160h-416v-276h-225v276h-416v160h416v170h-416v160h342z" />
<glyph d="M109 127v242q80 -74 229 -131q147 -55 297 -56q143 0 237.5 58.5t94.5 156.5q0 78 -64 133q-25 23 -74 43q-59 29 -196 68l-29 8q-117 33 -186 60q-55 20 -144 71q-147 92 -147 289q0 156 108.5 258.5t303.5 126.5v207h221v-207q184 -20 346 -113v-223q-219 133 -455 133 q-143 0 -218 -50t-75 -134q0 -125 295 -209q123 -33 248 -80q133 -47 215 -144t82 -233q0 -172 -123 -282q-118 -108 -315 -137v-209h-221v207q-260 25 -430 147z" />
<glyph horiz-adv-x="2263" d="M68 1227v207h1316v-562q147 160 369 160q178 0 275.5 -110.5t97.5 -307.5v-614h-221v565q0 145 -70 202.5t-166 57.5q-82 0 -162 -45.5t-123 -117.5v-662h-221v1227h-397v-1227h-225v1227h-473z" />
<glyph d="M47 811v195h189v131q0 145 81.5 231t233.5 86q131 0 235 -43v-186q-96 37 -174 37q-156 0 -155 -164v-92h686v-1078q0 -168 -89 -258t-245 -90q-129 0 -201 41v193q66 -39 148 -39q166 0 166 178v858h-465v-811h-221v811h-189zM891 1325q0 59 39 100q41 41 100.5 41 t97.5 -41q41 -41 41 -100t-41 -100q-39 -39 -98 -39t-100 39q-39 41 -39 100z" />
<glyph horiz-adv-x="1730" d="M127 717q0 315 207 528q209 215 524.5 215t523.5 -215q209 -213 209 -528q0 -293 -180 -498q-182 -207 -461 -239q68 -16 258 -95q197 -80 308 -80q76 0 126 33v-207q-53 -29 -141 -28q-131 0 -358 96q-221 94 -334 94q-180 0 -307 -115v220q102 68 205 90 q-256 51 -420 252q-160 203 -160 477zM359 717q0 -229 143 -381q145 -152 356 -152t356 152q145 156 146 381q0 227 -146 379q-145 154 -356 153.5t-356 -153.5q-143 -150 -143 -379z" />
<glyph horiz-adv-x="2238" d="M47 811v195h189v131q0 145 81.5 231t233.5 86q131 0 235 -43v-186q-96 37 -174 37q-156 0 -155 -164v-92h465v131q0 145 81.5 231t233.5 86q131 0 236 -43v-186q-96 37 -175 37q-156 0 -155 -164v-92h465v292h221v-292h317v-195h-317v-473q0 -84 38 -123t119.5 -39 t151.5 37v-190q-70 -49 -223 -50q-143 0 -225 78t-82 223v537h-465v-811h-221v811h-465v-811h-221v811h-189z" />
<glyph horiz-adv-x="1064" d="M319 1706q0 84 59.5 143.5t143.5 59.5q82 0 141.5 -60.5t59.5 -142.5t-59.5 -141.5t-141.5 -59.5q-84 0 -143.5 58.5t-59.5 142.5zM432.5 1653q26.5 -53 89.5 -49q41 0 72 29.5t31 72.5t-31 73.5t-72 30.5q-63 2 -89.5 -51t0 -106z" />
<glyph horiz-adv-x="1046" d="M250 1847h276l195 -286h-203z" />
<glyph horiz-adv-x="962" d="M254 1561l195 286h276l-268 -286h-203z" />
<glyph horiz-adv-x="1034" d="M207 1702q0 51 37 86q37 37 88 37t86 -37q35 -35 35 -86t-35 -88q-35 -35 -86 -35t-88 35q-37 37 -37 88zM631 1702q0 51 37 86q37 37 88 37t86 -37q35 -35 35 -86t-35 -88q-35 -35 -86 -35t-88 35q-37 37 -37 88z" />
<glyph horiz-adv-x="2035" d="M158 0v1006h221v-682l543 682h206v-682l543 682h207v-1006h-221v684l-543 -684h-207v684l-542 -684h-207zM1034 1479h189q0 -76 44 -122t119.5 -46t120.5 46t47 122h189q-2 -154 -100.5 -246t-254 -92t-254 92t-100.5 246z" />
<glyph horiz-adv-x="2551" d="M178 0v1434h225v-1053l789 1053h197v-1053l788 1053h197v-1434h-226v1057l-792 -1057h-193v1057l-792 -1057h-193zM1403 1855h188q0 -76 47.5 -121.5t127 -45.5t126.5 47t50 120h188q-2 -154 -103.5 -245.5t-259.5 -91.5q-162 0 -262 92t-102 245z" />
<glyph horiz-adv-x="1058" d="M182 1561l234 286h229l234 -286h-207l-142 174l-141 -174h-207z" />
<glyph horiz-adv-x="2539" d="M178 0v1434h225v-1053l789 1053h197v-566h747v566h225v-1434h-225v662h-747v-662h-226v1057l-792 -1057h-193z" />
<glyph horiz-adv-x="1579" d="M47 811v195h215v292h221v-292h465v292h221v-292h318v-195h-318v-473q0 -84 38 -123t120 -39t152 37v-190q-70 -49 -224 -50q-143 0 -225 78t-82 223v537h-465v-473q0 -84 39 -123t119 -39t152 37v-190q-72 -49 -224 -50q-143 0 -225 78t-82 223v537h-215z" />
<glyph horiz-adv-x="770" d="M139 274v1024h221v-292h318v-195h-318v-473q0 -84 39 -123t119 -39t152 37v-190q-72 -49 -224 -50q-143 0 -225 78t-82 223z" />
<glyph horiz-adv-x="759" d="M158 0v1137q0 145 82 231t233 86q131 0 236 -43v-186q-94 37 -174 37q-156 0 -156 -164v-92h330v-195h-330v-811h-221z" />
<glyph horiz-adv-x="1310" d="M86 504q0 223 137 375q137 154 350 153q231 0 359 -164v138h221v-1006h-221v137q-128 -164 -359 -164q-213 0 -350 154q-137 152 -137 377zM309 504q0 -141 92 -240q93 -96 232 -96q96 0 176 50t123 130v311q-43 78 -124 128.5t-175 50.5q-139 0 -232 -99 q-92 -96 -92 -235z" />
<glyph horiz-adv-x="1249" d="M66 61h223q0 -123 86 -204q84 -82 219 -82q131 0 219 82t88 200q0 115 -76 193q-104 -55 -235 -55q-203 0 -336 120q-131 123 -131 299q0 178 131 297q133 121 336 121q188 1 315 -108l281 108v-178l-176 -76q43 -74 43 -164q0 -127 -68 -227q139 -133 139 -330 q0 -201 -149 -338q-152 -139 -381 -139q-219 0 -375 131q-154 133 -153 350zM332 614q0 -104 73.5 -171.5t184 -67.5t184.5 67.5t74 171.5q0 102 -74 170t-184.5 68t-184 -67.5t-73.5 -170.5z" />
<glyph horiz-adv-x="2633" d="M127 717q0 315 207 528q209 215 524 215q195 0 356.5 -88t260.5 -244q100 156 269 244t372 88q219 0 389 -96v-227q-174 113 -387 112q-225 0 -377 -151q-150 -150 -150 -381.5t152 -382.5q152 -150 383 -150q246 0 409 131v-227q-180 -115 -419 -115q-203 0 -372 88.5 t-269 243.5q-98 -156 -260 -244t-357 -88q-315 0 -524 213q-207 217 -207 531zM359 717q0 -229 143 -381q145 -152 356 -152t356 152q145 156 146 381q0 227 -146 379q-145 154 -356 153.5t-356 -153.5q-143 -150 -143 -379z" />
<glyph horiz-adv-x="2951" d="M127 717q0 315 207 528q209 215 524 215q195 0 356.5 -88t260.5 -244q100 156 260.5 244t355.5 88q315 0 524 -215q209 -213 209 -528t-209 -531q-209 -213 -524 -213q-197 0 -357.5 88.5t-258.5 243.5q-98 -156 -260 -244t-357 -88q-315 0 -524 213q-207 217 -207 531z M359 717q0 -229 143 -381q145 -152 356 -152t356 152q145 156 146 381q0 227 -146 379q-145 154 -356 153.5t-356 -153.5q-143 -150 -143 -379zM1592 717q0 -229 143 -381q145 -152 356 -152t356 152q145 156 146 381q0 227 -146 379q-145 154 -356 153.5t-356 -153.5 q-143 -150 -143 -379z" />
<glyph horiz-adv-x="1947" d="M86 504q0 221 155.5 374.5t397.5 153.5q133 0 247.5 -56t190.5 -155q74 98 190.5 154.5t245.5 56.5q172 0 304 -69v-191q-137 66 -271 66q-152 0 -254 -95q-102 -96 -102 -239q0 -145 102 -242q102 -94 254 -94q162 0 287 76v-189q-144 -82 -322 -82q-129 0 -245.5 56.5 t-188.5 154.5q-74 -98 -189.5 -154.5t-248.5 -56.5q-242 0 -397.5 154t-155.5 377zM307 504q0 -145 94 -240q97 -96 238 -96q139 0 235 96q94 94 95 240q0 143 -95 237q-96 96 -235 97q-141 0 -238 -97q-94 -94 -94 -237z" />
<glyph horiz-adv-x="2160" d="M86 504q0 221 155.5 374.5t397.5 153.5q135 0 251 -58.5t189 -156.5q74 100 192 157.5t253 57.5q238 0 395 -153q156 -154 156 -375t-156 -377q-158 -154 -395 -154q-137 0 -253 57.5t-192 155.5q-74 -98 -189.5 -155.5t-250.5 -57.5q-242 0 -397.5 154t-155.5 377z M307 504q0 -145 94 -240q97 -96 238 -96q139 0 235 96q94 94 95 240q0 143 -95 237q-96 96 -235 97q-141 0 -238 -97q-94 -94 -94 -237zM1192 504q0 -145 94 -240q97 -96 238 -96q139 0 235 96q94 94 94 240q0 143 -94 237q-96 96 -235 97q-141 0 -238 -97q-94 -94 -94 -237 z" />
<glyph horiz-adv-x="1538" d="M201 662v198h1136v-198h-1136z" />
<glyph horiz-adv-x="1867" d="M201 662v198h1466v-198h-1466z" />
<glyph horiz-adv-x="1005" d="M201 662v198h604v-198h-604z" />
<glyph horiz-adv-x="837" d="M178 -258v1868h582v-174h-381v-1520h381v-174h-582z" />
<glyph horiz-adv-x="837" d="M78 -84h381v1520h-381v174h581v-1868h-581v174z" />
<glyph horiz-adv-x="796" d="M106 590v172q72 6 105 45q35 39 44 82t9 131v276q0 145 84 229.5t230 84.5h141v-174h-96q-74 0 -115 -43t-41 -117v-318q0 -229 -154 -282q154 -53 154 -283v-317q0 -74 41 -117t115 -43h96v-174h-141q-145 0 -229.5 84t-84.5 229v277q0 84 -8 125q-8 51 -46 89t-104 44z " />
<glyph horiz-adv-x="796" d="M78 -84h96q74 0 115 43t41 117v317q0 229 153 283q-154 53 -153 282v318q0 74 -41 117t-115 43h-96v174h141q145 0 229 -84t84 -230v-276q0 -86 9 -127q8 -49 47 -87t102 -44v-172q-68 -6 -106 -47q-33 -37 -42.5 -80t-9.5 -131v-277q0 -145 -83.5 -229t-229.5 -84h-141 v174z" />
<glyph horiz-adv-x="1153" d="M72 291l331 426l-331 426h225l295 -371v-113l-295 -368h-225zM561 291l334 426l-334 426h225l295 -371v-113l-295 -368h-225z" />
<glyph horiz-adv-x="1153" d="M72 659v113l295 371h225l-334 -426l334 -426h-225zM561 659v113l295 371h225l-331 -426l331 -426h-225z" />
<glyph horiz-adv-x="661" d="M72 291l329 426l-329 426h223l295 -371v-113l-295 -368h-223z" />
<glyph horiz-adv-x="663" d="M72 659v113l295 371h225l-334 -426l334 -426h-225z" />
<glyph horiz-adv-x="768" d="M168 676q0 557 301 934h227q-324 -416 -323 -934q-1 -524 323 -934h-227q-301 377 -301 934z" />
<glyph horiz-adv-x="768" d="M72 -258q324 410 323 934q0 518 -323 934h227q301 -377 301 -934t-301 -934h-227z" />
<glyph horiz-adv-x="1552" d="M47 817v189h189v131q0 145 81.5 231t233.5 86q131 0 235 -43v-186q-96 37 -174 37q-156 0 -155 -164v-92h465v292h221v-292h317v-189h-317v-479q0 -84 39 -123t118.5 -39t151.5 37v-190q-72 -49 -223 -50q-143 0 -225 78t-82 223v543h-465v-817h-221v817h-189z" />
<glyph horiz-adv-x="2449" d="M178 0v1434h225v-566h748v566h651q195 0 308.5 -94.5t113.5 -258.5q0 -106 -53 -184t-137 -111q135 -25 220 -127t85 -256q0 -182 -131 -292q-129 -111 -353 -111h-704v662h-748v-662h-225zM1376 207h439q131 0 205.5 60.5t74.5 168.5q0 106 -73.5 163.5t-206.5 57.5 h-439v-450zM1376 856h387q113 0 175.5 48t62.5 138.5t-62.5 137.5t-175.5 47h-387v-371z" />
<glyph horiz-adv-x="2566" d="M178 0v1434h225v-566h748v566h506q344 0 563 -201t219 -516q0 -317 -219 -518q-217 -199 -563 -199h-506v662h-748v-662h-225zM1376 207h260q270 0 420 137q152 139 152 372.5t-152 373.5q-150 137 -420 137h-260v-1020z" />
<glyph horiz-adv-x="2285" d="M178 0v1434h225v-566h748v566h1020v-207h-795v-359h647v-206h-647v-455h822v-207h-1047v662h-748v-662h-225z" />
<glyph horiz-adv-x="2252" d="M178 0v1434h225v-566h748v566h1018v-207h-793v-375h629v-207h-629v-645h-225v662h-748v-662h-225z" />
<glyph horiz-adv-x="2369" d="M178 0v1434h225v-566h748v566h225v-586l588 586h289l-664 -656l770 -778h-307l-676 688v-688h-225v662h-748v-662h-225z" />
<glyph horiz-adv-x="2709" d="M178 0v1434h225v-566h748v566h229l465 -646l461 646h225v-1434h-225v1090l-399 -541h-131l-400 541v-1090h-225v662h-748v-662h-225z" />
<glyph horiz-adv-x="2560" d="M178 0v1434h225v-566h748v566h201l809 -1039v1039h221v-1434h-191l-815 1042v-1042h-225v662h-748v-662h-225z" />
<glyph horiz-adv-x="2510" d="M178 0v1434h225v-566h748v566h225v-836q0 -199 100.5 -306.5t274.5 -107.5t275.5 107.5t101.5 306.5v836h225v-828q0 -301 -168 -467q-170 -166 -434 -166t-434 164q-166 166 -166 469v56h-748v-662h-225z" />
<glyph horiz-adv-x="2328" d="M178 0v1434h225v-566h748v566h616q223 0 351 -117q129 -113 129 -299t-129 -307q-125 -119 -351 -119h-391v-592h-225v662h-748v-662h-225zM1376 799h373q127 0 198.5 56t71.5 158.5t-70.5 158t-199.5 55.5h-373v-428z" />
<glyph horiz-adv-x="2473" d="M178 0v1434h225v-566h748v566h653q221 0 346 -113q127 -115 127 -295q0 -150 -83 -255t-228 -140l451 -631h-273l-432 606h-336v-606h-225v662h-748v-662h-225zM1376 805h414q123 0 191.5 55t68.5 158q0 98 -68.5 153.5t-191.5 55.5h-414v-422z" />
<glyph horiz-adv-x="2598" d="M178 0v1434h197l809 -1039v1039h506q344 0 563 -201t219 -516q0 -317 -219 -518q-217 -199 -563 -199h-476l-815 1042v-1042h-221zM1405 207h264q270 0 420 137q152 139 152 372.5t-152 373.5q-150 137 -420 137h-264v-1020z" />
<glyph horiz-adv-x="2482" d="M178 0v1434h197l809 -1039v1039h651q195 0 308.5 -94.5t113.5 -258.5q0 -106 -53.5 -184t-137.5 -111q135 -25 220.5 -127t85.5 -256q0 -182 -131 -292q-129 -111 -353 -111h-674l-815 1042v-1042h-221zM1405 207h442q131 0 206 60.5t75 168.5q0 106 -74 163.5t-207 57.5 h-442v-450zM1405 856h391q113 0 175.5 48t62.5 138.5t-62.5 137.5t-175.5 47h-391v-371z" />
<glyph horiz-adv-x="2508" d="M178 0v1434h230l464 -646l461 646h615q223 0 350 -117q129 -113 129 -299t-129 -307q-125 -119 -350 -119h-389v-592h-226v1090l-399 -541h-131l-400 541v-1090h-225zM1559 799h370q127 0 199 56t72 158.5t-71 158t-200 55.5h-370v-428z" />
<glyph horiz-adv-x="2654" d="M178 0v1434h230l464 -646l461 646h652q221 0 346 -113q127 -115 127 -295q0 -150 -83 -255t-229 -140l451 -631h-273l-432 606h-333v-606h-226v1090l-399 -541h-131l-400 541v-1090h-225zM1559 805h411q123 0 191.5 55t68.5 158q0 98 -68.5 153.5t-191.5 55.5h-411v-422z " />
<glyph horiz-adv-x="2707" d="M178 0v1434h230l464 -646l461 646h226v-566h745v566h225v-1434h-225v662h-745v-662h-226v1090l-399 -541h-131l-400 541v-1090h-225z" />
<glyph horiz-adv-x="2691" d="M178 0v1434h230l464 -646l461 646h223v-836q0 -199 100.5 -306.5t274.5 -107.5t275.5 107.5t101.5 306.5v836h225v-828q0 -301 -168 -467q-170 -166 -434 -166t-434 164q-166 166 -166 469v479l-397 -536h-131l-400 541v-1090h-225z" />
<glyph horiz-adv-x="2361" d="M178 0v1434h197l809 -1039v1039h616q223 0 350 -117q129 -113 129 -299t-129 -307q-125 -119 -350 -119h-391v-592h-195l-815 1042v-1042h-221zM1409 799h373q127 0 198.5 56t71.5 158.5t-70.5 158t-199.5 55.5h-373v-428z" />
<glyph horiz-adv-x="2506" d="M178 0v1434h197l809 -1039v1039h653q221 0 346 -113q127 -115 127 -295q0 -150 -83 -255t-228 -140l450 -631h-272l-432 606h-336v-606h-195l-815 1042v-1042h-221zM1409 805h414q123 0 191.5 55t68.5 158q0 98 -68.5 153.5t-191.5 55.5h-414v-422z" />
<glyph horiz-adv-x="2588" d="M178 0v1434h197l809 -1039v1039h196l809 -1039v1039h221v-1434h-190l-815 1042v-1042h-191l-815 1042v-1042h-221z" />
<glyph horiz-adv-x="2314" d="M160 606v828h225v-836q0 -199 100.5 -306.5t274.5 -107.5t275.5 107.5t101.5 306.5v836h616q225 0 350 -117q129 -113 129 -299t-129 -307q-125 -119 -350 -119h-391q-2 -293 -172 -457q-168 -162 -430 -162q-264 0 -434 164q-166 166 -166 469zM1362 799h373 q127 0 198.5 56t71.5 158.5t-70.5 158t-199.5 55.5h-373v-428z" />
<glyph horiz-adv-x="2459" d="M160 606v828h225v-836q0 -199 100.5 -306.5t274.5 -107.5t275.5 107.5t101.5 306.5v836h653q221 0 346 -113q127 -115 127 -295q0 -150 -83 -255t-228 -140l450 -631h-272l-432 606h-336q0 -301 -168 -467q-170 -166 -434 -166t-434 164q-166 166 -166 469zM1362 805h414 q123 0 191.5 55t68.5 158q0 98 -69 153.5t-191 55.5h-414v-422z" />
<glyph horiz-adv-x="2238" d="M160 606v828h225v-836q0 -199 100.5 -306.5t274.5 -107.5t275.5 107.5t101.5 306.5v836h1017v-207h-792v-375h629v-207h-629v-39q0 -301 -168 -467q-170 -166 -434 -166t-434 164q-166 166 -166 469z" />
<glyph horiz-adv-x="2512" d="M160 606v828h225v-836q0 -199 100.5 -306.5t274.5 -107.5t275.5 107.5t101.5 306.5v836h225v-566h747v566h226v-1434h-226v662h-747v-56q0 -301 -168 -467q-170 -166 -434 -166t-434 164q-166 166 -166 469z" />
<glyph horiz-adv-x="2353" d="M160 606v828h225v-836q0 -199 100.5 -306.5t274.5 -107.5t275.5 107.5t101.5 306.5v836h225v-586l590 586h286l-665 -656l770 -778h-303l-678 688v-82q0 -301 -168 -467q-170 -166 -434 -166t-434 164q-166 166 -166 469z" />
<glyph horiz-adv-x="2693" d="M160 606v828h225v-836q0 -199 100.5 -306.5t274.5 -107.5t275.5 107.5t101.5 306.5v803l-2 33h229l465 -646l461 646h225v-1434h-225v1090l-400 -541h-131l-397 536v-479q0 -301 -168 -467q-170 -166 -434 -166t-434 164q-166 166 -166 469z" />
<glyph horiz-adv-x="2631" d="M178 0v1434h230l464 -646l461 646h652q195 0 308 -94.5t113 -258.5q0 -106 -53 -184t-137 -111q135 -25 220 -127t85 -256q0 -182 -131 -292q-129 -111 -352 -111h-705v1090l-399 -541h-131l-400 541v-1090h-225zM1559 207h438q131 0 205.5 60.5t74.5 168.5 q0 106 -73.5 163.5t-206.5 57.5h-438v-450zM1559 856h387q113 0 175 48t62 138.5t-62.5 137.5t-174.5 47h-387v-371z" />
<glyph horiz-adv-x="2545" d="M160 606v828h225v-836q0 -199 100.5 -306.5t274.5 -107.5t275.5 107.5t101.5 306.5v836h200l809 -1039v1039h221v-1434h-190l-815 1042v-436q0 -301 -168 -467q-170 -166 -434 -166t-434 164q-166 166 -166 469z" />
<glyph horiz-adv-x="2467" d="M178 0v1434h230l464 -646l461 646h1020v-207h-794v-359h647v-206h-647v-455h821v-207h-1047v1090l-399 -541h-131l-400 541v-1090h-225z" />
<glyph horiz-adv-x="1904" d="M160 606v828h225v-836q0 -199 100.5 -306.5t274.5 -107.5t275.5 107.5t101.5 306.5v629h-473v207h1173v-207h-475v-621q0 -301 -168 -467q-170 -166 -434 -166t-434 164q-166 166 -166 469z" />
<glyph horiz-adv-x="1900" d="M68 1227v207h1173v-207h-475v-629q0 -199 100.5 -306.5t274.5 -107.5t275.5 107.5t101.5 306.5v836h225v-828q0 -301 -168 -467q-170 -166 -434 -166t-434 164q-166 166 -166 469v621h-473z" />
<glyph horiz-adv-x="2646" d="M178 0v1434h197l809 -1039v1039h1394v-207h-475v-1227h-225v1227h-473v-1227h-191l-815 1042v-1042h-221z" />
<glyph horiz-adv-x="2617" d="M68 1227v207h1398v-566h748v566h225v-1434h-225v662h-748v-662h-225v1227h-475v-1227h-225v1227h-473z" />
<glyph horiz-adv-x="2617" d="M178 0v1434h225v-566h748v566h1399v-207h-473v-1227h-226v1227h-475v-1227h-225v662h-748v-662h-225z" />
<glyph horiz-adv-x="2195" d="M45 0l627 1442h217l514 -1186l495 1178h244l-610 -1434h-258l-156 356h-680l-153 -356h-240zM516 555h524l-262 602z" />
<glyph horiz-adv-x="2508" d="M178 0v1434h506q215 0 388 -83t274 -231q100 160 269 250t376 90q219 0 389 -96v-227q-174 113 -387 112q-225 0 -377 -151q-150 -150 -150 -381.5t152 -382.5q152 -150 383 -150q246 0 409 131v-227q-179 -115 -419 -115q-207 0 -377 89.5t-268 248.5 q-100 -147 -273.5 -229t-388.5 -82h-506zM403 207h261q270 0 419 137q152 139 152 372.5t-152 373.5q-150 137 -419 137h-261v-1020z" />
<glyph horiz-adv-x="2826" d="M178 0v1434h506q215 0 388 -83t274 -231q98 160 260.5 250t359.5 90q315 0 524 -215q209 -213 209 -528t-209 -531q-209 -213 -524 -213q-197 0 -359.5 89.5t-260.5 248.5q-100 -147 -273.5 -229t-388.5 -82h-506zM403 207h261q270 0 419 137q152 139 152 372.5 t-152 373.5q-150 137 -419 137h-261v-1020zM1467 717q0 -229 143 -381q145 -152 356 -152t356 152q145 156 146 381q0 227 -146 379q-143 154 -356 153.5t-356 -153.5q-143 -150 -143 -379z" />
<glyph horiz-adv-x="2826" d="M178 0v1434h506q215 0 388 -83t274 -231q98 160 260.5 250t359.5 90q315 0 524 -215q209 -213 209 -528q0 -238 -125 -424q-121 -184 -329 -268l30 -29q90 -88 199 -88q100 0 170 45v-207q-88 -45 -205 -45q-111 0 -207 58.5t-217 185.5l-28 30h-9q-8 -2 -12 -2 q-197 0 -359.5 89.5t-260.5 248.5q-100 -147 -273.5 -229t-388.5 -82h-506zM403 207h261q270 0 419 137q152 139 152 372.5t-152 373.5q-150 137 -419 137h-261v-1020zM1467 717q0 -229 143 -381q145 -152 356 -152t356 152q145 156 146 381q0 227 -146 379 q-143 154 -356 153.5t-356 -153.5q-143 -150 -143 -379z" />
<glyph horiz-adv-x="2693" d="M178 0v1434h506q215 0 388 -83t274 -231q100 160 268 250t375 90q260 0 442 -123v-223q-197 135 -428 135q-236 0 -385 -149q-152 -152 -152 -385q0 -238 148 -385q152 -145 366 -146q219 0 347 121v522h225v-614q-90 -106 -243 -173t-329 -67q-203 0 -369.5 89.5 t-264.5 248.5q-100 -147 -273.5 -229t-388.5 -82h-506zM403 207h261q270 0 419 137q152 139 152 372.5t-152 373.5q-150 137 -419 137h-261v-1020z" />
<glyph horiz-adv-x="1964" d="M178 0v1434h225v-615h627l-434 615h262l410 -580l409 580h254l-555 -779v-655h-225v612h-748v-612h-225z" />
<glyph horiz-adv-x="2443" d="M178 0v1434h228v-1227h612l536 1235h218l626 -1442h-241l-156 356h-680l-154 -356h-989zM1399 555h524l-262 602z" />
<glyph horiz-adv-x="2748" d="M178 0v1434h230l464 -646l461 646h506q344 0 563 -201t219 -516q0 -317 -219 -518q-217 -199 -563 -199h-506v1090l-399 -541h-131l-400 541v-1090h-225zM1559 207h260q270 0 419 137q152 139 152 372.5t-152 373.5q-150 137 -419 137h-260v-1020z" />
<glyph horiz-adv-x="2435" d="M178 0v1434h230l464 -646l461 646h1018v-207h-792v-375h628v-207h-628v-645h-226v1090l-399 -541h-131l-400 541v-1090h-225z" />
<glyph horiz-adv-x="2742" d="M178 0v1434h230l464 -646l461 646h201l809 -1039v1039h221v-1434h-190l-815 1042v-1042h-226v1090l-399 -541h-131l-400 541v-1090h-225z" />
<glyph horiz-adv-x="2318" d="M178 0v1434h197l809 -1039v1039h1020v-207h-795v-359h647v-206h-647v-455h821v-207h-1016l-815 1042v-1042h-221z" />
<glyph horiz-adv-x="2285" d="M178 0v1434h197l809 -1039v1039h1018v-207h-793v-375h629v-207h-629v-645h-195l-815 1042v-1042h-221z" />
<glyph horiz-adv-x="2742" d="M178 0v1434h197l809 -1039v1039h229l465 -646l461 646h225v-1434h-225v1090l-400 -541h-131l-399 541v-1090h-195l-815 1042v-1042h-221z" />
<glyph horiz-adv-x="2951" d="M127 717q0 315 207 528q209 215 524 215q195 0 356.5 -88t260.5 -244q100 156 260.5 244t355.5 88q315 0 524 -215q209 -213 209 -528q0 -238 -125 -424q-121 -184 -329 -268l30 -29q90 -88 199 -88q100 0 170 45v-207q-88 -45 -205 -45q-111 0 -207 58.5t-217 185.5 l-29 30q-2 0 -10 -1t-10 -1q-197 0 -357.5 88.5t-258.5 243.5q-98 -156 -260 -244t-357 -88q-315 0 -524 213q-207 217 -207 531zM359 717q0 -229 143 -381q145 -152 356 -152t356 152q145 156 146 381q0 227 -146 379q-145 154 -356 153.5t-356 -153.5q-143 -150 -143 -379 zM1592 717q0 -229 143 -381q145 -152 356 -152t356 152q145 156 146 381q0 227 -146 379q-145 154 -356 153.5t-356 -153.5q-143 -150 -143 -379z" />
<glyph horiz-adv-x="2818" d="M127 717q0 315 207 528q209 215 524 215q195 0 356.5 -88t260.5 -244q100 156 268 244t371 88q262 0 442 -123v-223q-197 135 -428 135q-236 0 -385 -149q-152 -152 -152 -385q0 -238 148 -385q152 -145 366 -146q219 0 346 121v522h226v-614q-90 -106 -243 -173 t-329 -67q-199 0 -365.5 88.5t-264.5 243.5q-98 -156 -260 -244t-357 -88q-315 0 -524 213q-207 217 -207 531zM359 717q0 -229 143 -381q145 -152 356 -152t356 152q145 156 146 381q0 227 -146 379q-145 154 -356 153.5t-356 -153.5q-143 -150 -143 -379z" />
<glyph horiz-adv-x="2430" d="M68 1227v207h2246v-158l-805 -1069h838v-207h-1147v160l807 1067h-1241v-1227h-225v1227h-473z" />
<glyph horiz-adv-x="2160" d="M53 1434h250l473 -1129l496 1137h217l627 -1442h-242l-156 356h-680l-153 -356h-217zM1116 555h524l-262 602z" />
<glyph horiz-adv-x="1964" d="M33 1434h262l410 -580l409 580h254l-438 -615h631v615h225v-1434h-225v612h-748v-612h-225v649z" />
<glyph horiz-adv-x="2201" d="M178 0v1434h225v-566h748v566h227v-1227h762v-207h-989v662h-748v-662h-225z" />
<glyph horiz-adv-x="2402" d="M178 0v1434h197l809 -1039v1039h225v-586l588 586h289l-664 -656l770 -778h-307l-676 688v-688h-195l-815 1042v-1042h-221z" />
<glyph horiz-adv-x="2234" d="M178 0v1434h197l809 -1039v1039h227v-1227h762v-207h-959l-815 1042v-1042h-221z" />
<glyph horiz-adv-x="2383" d="M178 0v1434h230l464 -646l461 646h228v-1227h761v-207h-989v1090l-399 -541h-131l-400 541v-1090h-225z" />
<glyph horiz-adv-x="1982" d="M45 0l627 1442h217l506 -1163l309 727h235l-446 -1006h-219l-156 356h-680l-153 -356h-240zM516 555h524l-262 602z" />
<glyph horiz-adv-x="1964" d="M45 0l627 1442h217l495 -1145l295 709h240l-481 -1115q-135 -311 -383 -311q-125 0 -183 33v194q66 -33 146 -32.5t137 56.5t113 181l-150 344h-680l-153 -356h-240zM516 555h524l-262 602z" />
<glyph horiz-adv-x="2162" d="M178 0v1434h225v-566h748v566h225v-805l393 377h283l-477 -451l549 -555h-303l-445 451v-451h-225v662h-748v-662h-225z" />
<glyph horiz-adv-x="2885" d="M178 0v1434h225v-566h748v566h225v-560q115 158 332 158q117 0 201 -49t116 -131q55 82 152.5 131t214.5 49q168 0 262 -104.5t94 -298.5v-629h-221v578q0 248 -205 247q-80 0 -152.5 -48t-105.5 -120v-657h-221v578q0 248 -207 247q-78 0 -150.5 -46t-109.5 -115v-664 h-225v662h-748v-662h-225z" />
<glyph horiz-adv-x="2275" d="M178 0v1434h225v-566h748v566h225v-994q0 -260 236 -260q82 0 161.5 46t122.5 118v662h222v-1006h-222v133q-147 -160 -368 -160q-178 0 -277.5 111t-99.5 307v271h-748v-662h-225z" />
<glyph horiz-adv-x="1759" d="M66 61v224q121 -100 292 -101q150 0 223.5 75t73.5 233v942h226v-562q147 160 368 160q178 0 275.5 -110.5t97.5 -307.5v-614h-221v565q0 145 -69.5 202.5t-166.5 57.5q-82 0 -161.5 -45.5t-122.5 -117.5v-207q0 -244 -126 -363t-354 -119q-209 0 -335 88z" />
<glyph horiz-adv-x="1671" d="M66 61v224q121 -100 292 -101q150 0 223.5 75t73.5 233v942h226v-809l397 381h283l-478 -451l549 -555h-303l-448 455q0 -244 -126.5 -363t-353.5 -119q-209 0 -335 88z" />
<glyph horiz-adv-x="2390" d="M66 61v224q121 -100 292 -101q150 0 223.5 75t73.5 233v942h226v-560q115 158 331 158q117 0 201 -49t117 -131q55 82 152.5 131t213.5 49q168 0 262.5 -104.5t94.5 -298.5v-629h-221v578q0 248 -205 247q-80 0 -152.5 -48t-105.5 -120v-657h-221v578q0 248 -207 247 q-78 0 -150.5 -46t-109.5 -115v-209q0 -244 -126.5 -363t-353.5 -119q-209 0 -335 88z" />
<glyph horiz-adv-x="1564" d="M178 0v1434h228v-1227h761v799h222v-1006h-1211zM1139 1325q0 59 40 100t99 41q57 0 97 -41t40 -100t-40 -99t-97 -40q-59 0 -99 40t-40 99z" />
<glyph horiz-adv-x="2488" d="M178 0v1434h230l464 -646l461 646h226v-564q123 162 356 162q211 0 350 -153q137 -152 137 -375q0 -225 -137 -377q-139 -154 -350 -154q-231 0 -356 160v-133h-226v1090l-399 -541h-131l-400 541v-1090h-225zM1559 344q43 -80 121.5 -128t174.5 -48q139 0 232 96 q92 98 92 240q0 139 -92 235q-92 98 -232 99q-96 0 -174.5 -49.5t-121.5 -126.5v-318z" />
<glyph horiz-adv-x="2437" d="M178 0v1434h230l464 -646l461 646h226v-562q147 160 368 160q178 0 275.5 -110.5t97.5 -307.5v-614h-221v565q0 260 -236 260q-82 0 -161.5 -46t-122.5 -117v-662h-226v1090l-399 -541h-131l-400 541v-1090h-225z" />
<glyph horiz-adv-x="2349" d="M178 0v1434h230l464 -646l461 646h226v-809l397 381h282l-477 -451l549 -555h-303l-448 455v-455h-226v1090l-399 -541h-131l-400 541v-1090h-225z" />
<glyph horiz-adv-x="3067" d="M178 0v1434h230l464 -646l461 646h226v-560q115 158 331 158q117 0 201 -49t117 -131q55 82 152.5 131t213.5 49q168 0 262.5 -104.5t94.5 -298.5v-629h-221v578q0 248 -205 247q-80 0 -153 -48t-105 -120v-657h-222v578q0 248 -206 247q-78 0 -151 -46t-109 -115v-664 h-226v1090l-399 -541h-131l-400 541v-1090h-225z" />
<glyph horiz-adv-x="2457" d="M178 0v1434h230l464 -646l461 646h226v-994q0 -260 235 -260q82 0 162 46t123 118v662h221v-1006h-221v133q-147 -160 -369 -160q-178 0 -277.5 111t-99.5 307v699l-399 -541h-131l-400 541v-1090h-225z" />
<glyph horiz-adv-x="2283" d="M178 0v1434h197l809 -1039v1039h221v-562q147 160 369 160q178 0 275 -110.5t97 -307.5v-614h-221v565q0 145 -69.5 202.5t-165.5 57.5q-82 0 -162 -45.5t-123 -117.5v-662h-191l-815 1042v-1042h-221z" />
<glyph horiz-adv-x="2195" d="M178 0v1434h197l809 -1039v1039h221v-809l397 381h283l-477 -451l549 -555h-304l-448 455v-455h-191l-815 1042v-1042h-221z" />
<glyph horiz-adv-x="2914" d="M178 0v1434h197l809 -1039v1039h221v-560q115 158 332 158q117 0 200.5 -49t116.5 -131q55 82 152.5 131t214.5 49q168 0 262 -104.5t94 -298.5v-629h-221v578q0 248 -205 247q-80 0 -152.5 -48t-105.5 -120v-657h-221v578q0 248 -207 247q-78 0 -150.5 -46t-109.5 -115 v-664h-191l-815 1042v-1042h-221z" />
<glyph horiz-adv-x="2394" d="M68 1227v207h1394v-566q127 164 359 164q211 0 350 -153q137 -152 137 -375q0 -225 -137 -377q-139 -154 -350 -154q-231 0 -359 164v-137h-221v1227h-475v-1227h-225v1227h-473zM1462 348q43 -80 123 -130t176 -50q139 0 232 96q92 98 92 240q0 139 -92 235 q-92 98 -232 99q-94 0 -175 -50.5t-124 -128.5v-311z" />
<glyph horiz-adv-x="2252" d="M68 1227v207h1394v-809l398 381h282l-477 -451l549 -555h-303l-449 455v-455h-221v1227h-475v-1227h-225v1227h-473z" />
<glyph horiz-adv-x="2275" d="M68 1227v207h1173v-207h-475v-353q115 158 332 158q117 0 200.5 -49t116.5 -131q55 82 152.5 131t214.5 49q168 0 262 -104.5t94 -298.5v-629h-221v578q0 248 -205 247q-80 0 -152.5 -48t-105.5 -120v-657h-221v578q0 248 -207 247q-78 0 -150.5 -46t-109.5 -115v-664 h-225v1227h-473z" />
<glyph horiz-adv-x="2240" d="M160 606v828h225v-836q0 -199 100.5 -306.5t274.5 -107.5t275.5 107.5t101.5 306.5v836h225v-562q147 160 369 160q178 0 275 -110.5t97 -307.5v-614h-221v565q0 145 -69.5 202.5t-165.5 57.5q-82 0 -162 -46t-123 -117v-56q0 -301 -168 -467q-170 -166 -434 -166 t-434 164q-166 166 -166 469z" />
<glyph horiz-adv-x="2152" d="M160 606v828h225v-836q0 -199 100.5 -306.5t274.5 -107.5t275.5 107.5t101.5 306.5v836h225v-809l397 381h283l-477 -451l549 -555h-304l-460 465q-39 -236 -199 -365q-162 -127 -391 -127q-264 0 -434 164q-166 166 -166 469z" />
<glyph horiz-adv-x="2871" d="M160 606v828h225v-836q0 -199 100.5 -306.5t274.5 -107.5t275.5 107.5t101.5 306.5v836h225v-560q115 158 332 158q117 0 200.5 -49t116.5 -131q55 82 152.5 131t214.5 49q168 0 262 -104.5t94 -298.5v-629h-221v578q0 248 -205 247q-80 0 -152.5 -48t-105.5 -120v-657 h-221v578q0 248 -207 247q-78 0 -150.5 -46t-109.5 -115v-58q0 -301 -168 -467q-170 -166 -434 -166t-434 164q-166 166 -166 469z" />
<glyph horiz-adv-x="1329" d="M86 504q0 223 137 375q137 154 350 153q231 0 359 -164v138h221v-1006h-221v137q-128 -164 -359 -164q-213 0 -350 154q-137 152 -137 377zM309 504q0 -141 92 -240q93 -96 232 -96q96 0 176 50t123 130v311q-43 78 -124 128.5t-175 50.5q-139 0 -232 -99 q-92 -96 -92 -235zM903 1325q0 59 40 100t99 41q57 0 97.5 -41t40.5 -100t-40.5 -99t-97.5 -40q-59 0 -99 40t-40 99z" />
<glyph horiz-adv-x="2662" d="M86 504q0 223 137 375q137 154 350 153q231 0 359 -164v138h221v-132q115 158 332 158q117 0 200.5 -49t116.5 -131q55 82 152.5 131t214.5 49q168 0 262 -104.5t94 -298.5v-629h-221v578q0 248 -205 247q-80 0 -152.5 -48t-105.5 -120v-657h-221v578q0 248 -207 247 q-78 0 -150.5 -46t-109.5 -115v-664h-221v137q-128 -164 -359 -164q-213 0 -350 154q-137 152 -137 377zM309 504q0 -141 92 -240q93 -96 232 -96q96 0 176 50t123 130v311q-43 78 -124 128.5t-175 50.5q-139 0 -232 -99q-92 -96 -92 -235z" />
<glyph horiz-adv-x="2031" d="M86 504q0 223 137 375q137 154 350 153q231 0 359 -164v138h221v-134q147 160 369 160q178 0 275 -110.5t97 -307.5v-614h-221v565q0 260 -235 260q-82 0 -162 -46t-123 -117v-662h-221v137q-128 -164 -359 -164q-213 0 -350 154q-137 152 -137 377zM309 504 q0 -141 92 -240q93 -96 232 -96q96 0 176 50t123 130v311q-43 78 -124 128.5t-175 50.5q-139 0 -232 -99q-92 -96 -92 -235z" />
<glyph horiz-adv-x="1982" d="M158 0v1434h221v-566q127 164 358 164q117 0 218.5 -54t164.5 -149q74 94 187.5 148.5t240.5 54.5q172 0 303 -69v-191q-137 66 -270 66q-152 0 -254 -95q-102 -96 -102 -239q0 -145 102 -242q102 -94 254 -94q162 0 287 76v-189q-144 -82 -322 -82q-127 0 -239.5 54.5 t-186.5 148.5q-63 -94 -164.5 -148.5t-218.5 -54.5q-231 0 -358 164v-137h-221zM379 348q43 -80 123 -130t176 -50q139 0 231 96q92 98 92 240q0 139 -92 235q-92 98 -231 99q-94 0 -175 -50.5t-124 -128.5v-311z" />
<glyph horiz-adv-x="2226" d="M158 0v1434h221v-566q127 164 358 164q113 0 213.5 -52t163.5 -140q63 90 162.5 141t212.5 51q231 0 358 -164v566h221v-1434h-221v137q-127 -164 -358 -164q-113 0 -212 51.5t-163 141.5q-63 -88 -163.5 -140.5t-213.5 -52.5q-231 0 -358 164v-137h-221zM379 348 q43 -80 123 -130t176 -50q139 0 231 96q92 98 92 240q0 139 -92 235q-92 98 -231 99q-94 0 -175 -50.5t-124 -128.5v-311zM1225 504q0 -141 92 -240q92 -96 231 -96q96 0 176 50t123 130v311q-43 78 -124 128.5t-175 50.5q-139 0 -231 -99q-92 -96 -92 -235z" />
<glyph horiz-adv-x="2222" d="M158 0v1434h221v-566q127 164 358 164q113 0 212.5 -51t162.5 -139q63 88 163.5 139t215.5 51q236 0 358 -158v132h222v-916q0 -248 -166 -379q-162 -131 -400 -131q-236 0 -393 90v203q162 -98 369 -98q168 0 268 77.5t100 233.5v76q-127 -158 -358 -158 q-227 0 -369 176q-63 -94 -165.5 -150.5t-219.5 -56.5q-231 0 -358 164v-137h-221zM379 348q43 -80 123 -130t176 -50q139 0 231 96q92 98 92 240q0 139 -92 235q-92 98 -231 99q-94 0 -175 -50.5t-124 -128.5v-311zM1227 518q0 -135 92 -227t231 -92q96 0 178 48t121 124 v293q-39 78 -119.5 126t-179.5 48q-139 0 -231 -92.5t-92 -227.5z" />
<glyph horiz-adv-x="2195" d="M158 0v1434h221v-566q127 164 358 164q117 0 219.5 -55t165.5 -150q74 94 188.5 149.5t248.5 55.5q240 0 395 -153.5t155 -374.5t-155 -377q-155 -154 -395 -154q-133 0 -248 55.5t-189 149.5q-63 -94 -165.5 -149.5t-219.5 -55.5q-231 0 -358 164v-137h-221zM379 348 q43 -80 123 -130t176 -50q139 0 231 96q92 98 92 240q0 139 -92 235q-92 98 -231 99q-94 0 -175 -50.5t-124 -128.5v-311zM1227 504q0 -145 94 -240q97 -96 238 -96q139 0 235 96q94 94 94 240q0 143 -94 237q-96 96 -235 97q-141 0 -238 -97q-94 -94 -94 -237z" />
<glyph horiz-adv-x="2228" d="M158 0v1434h221v-566q127 164 358 164q113 0 213.5 -52t163.5 -142q63 90 163.5 142t213.5 52q231 0 358 -164v138h222v-1416h-222v547q-127 -164 -358 -164q-115 0 -214 52.5t-163 142.5q-63 -90 -163.5 -142.5t-213.5 -52.5q-231 0 -358 164v-137h-221zM379 348 q43 -80 123 -130t176 -50q139 0 231 96q92 98 92 240q0 139 -92 235q-92 98 -231 99q-94 0 -175 -50.5t-124 -128.5v-311zM1227 502q0 -139 92 -238q92 -96 231 -96q94 0 175 50t124 128v311q-43 80 -123 130.5t-176 50.5q-139 0 -231 -99q-92 -96 -92 -237z" />
<glyph horiz-adv-x="2662" d="M86 504q0 223 137 375q137 154 350 153q231 0 359 -164v566h221v-560q115 158 332 158q117 0 200.5 -49t116.5 -131q55 82 152.5 131t214.5 49q168 0 262 -104.5t94 -298.5v-629h-221v578q0 248 -205 247q-80 0 -152.5 -48t-105.5 -120v-657h-221v578q0 248 -207 247 q-78 0 -150.5 -46t-109.5 -115v-664h-221v137q-128 -164 -359 -164q-213 0 -350 154q-137 152 -137 377zM309 504q0 -141 92 -240q93 -96 232 -96q96 0 176 50t123 130v311q-43 78 -124 128.5t-175 50.5q-139 0 -232 -99q-92 -96 -92 -235z" />
<glyph horiz-adv-x="1943" d="M86 504q0 223 137 375q137 154 350 153q231 0 359 -164v566h221v-809l397 381h283l-477 -451l549 -555h-303l-449 455v-455h-221v137q-128 -164 -359 -164q-213 0 -350 154q-137 152 -137 377zM309 504q0 -141 92 -240q93 -96 232 -96q96 0 176 50t123 130v311 q-43 78 -124 128.5t-175 50.5q-139 0 -232 -99q-92 -96 -92 -235z" />
<glyph horiz-adv-x="2084" d="M86 520q0 217 137 363q137 150 350 149q236 0 359 -158v560h221v-566q127 164 358 164q213 0 351 -153q137 -152 137 -375q0 -225 -137 -377q-138 -154 -351 -154q-231 0 -358 164v-47q0 -248 -166 -379q-162 -131 -399 -131q-236 0 -393 90v203q162 -98 368 -98 q168 0 268.5 77.5t100.5 233.5v76q-127 -158 -359 -158q-213 0 -350 149.5t-137 366.5zM309 518q0 -135 92.5 -227t231.5 -92q96 0 178 48t121 124v293q-39 78 -120 126t-179 48q-139 0 -231.5 -92.5t-92.5 -227.5zM1153 348q43 -80 123 -130t176 -50q139 0 231 96 q92 98 93 240q0 139 -93 235q-92 98 -231 99q-94 0 -175 -50.5t-124 -128.5v-311z" />
<glyph horiz-adv-x="2031" d="M86 520q0 217 137 363q137 149 350 149q236 0 359 -158v560h221v-562q147 160 369 160q178 0 275 -110.5t97 -307.5v-614h-221v565q0 145 -69.5 202.5t-165.5 57.5q-82 0 -162 -46t-123 -117v-572q0 -248 -166 -379q-162 -131 -399 -131q-236 0 -393 90v203 q162 -98 368 -98q168 0 268.5 77.5t100.5 233.5v76q-127 -158 -359 -158q-213 0 -350 149.5t-137 366.5zM309 518q0 -135 92.5 -227t231.5 -92q96 0 178 48t121 124v293q-39 78 -120 126t-179 48q-139 0 -231.5 -92.5t-92.5 -227.5z" />
<glyph horiz-adv-x="1329" d="M86 520q0 217 137 363q137 150 350 149q236 0 359 -158v132h221v-916q0 -248 -166 -379q-162 -131 -399 -131q-236 0 -393 90v203q162 -98 368 -98q168 0 268.5 77.5t100.5 233.5v76q-127 -158 -359 -158q-213 0 -350 149.5t-137 366.5zM309 518q0 -135 92.5 -227 t231.5 -92q96 0 178 48t121 124v293q-39 78 -120 126t-179 48q-139 0 -231.5 -92.5t-92.5 -227.5zM903 1325q0 59 40 100t99 41q57 0 97.5 -41t40.5 -100t-40.5 -99t-97.5 -40q-59 0 -99 40t-40 99z" />
<glyph horiz-adv-x="1943" d="M86 520q0 217 137 363q137 149 350 149q236 0 359 -158v560h221v-809l397 381h283l-477 -451l549 -555h-303l-449 455v-365q0 -248 -166 -379q-162 -131 -399 -131q-236 0 -393 90v203q162 -98 368 -98q168 0 268.5 77.5t100.5 233.5v76q-127 -158 -359 -158 q-213 0 -350 149.5t-137 366.5zM309 518q0 -135 92.5 -227t231.5 -92q96 0 178 48t121 124v293q-39 78 -120 126t-179 48q-139 0 -231.5 -92.5t-92.5 -227.5z" />
<glyph horiz-adv-x="2662" d="M86 520q0 217 137 363q137 149 350 149q236 0 359 -158v132h221v-132q115 158 332 158q117 0 200.5 -49t116.5 -131q55 82 152.5 131t214.5 49q168 0 262 -104.5t94 -298.5v-629h-221v578q0 248 -205 247q-80 0 -152.5 -48t-105.5 -120v-657h-221v578q0 248 -207 247 q-78 0 -150.5 -46t-109.5 -115v-574q0 -248 -166 -379q-162 -131 -399 -131q-236 0 -393 90v203q162 -98 368 -98q168 0 268.5 77.5t100.5 233.5v76q-127 -158 -359 -158q-213 0 -350 149.5t-137 366.5zM309 518q0 -135 92.5 -227t231.5 -92q96 0 178 48t121 124v293 q-39 78 -120 126t-179 48q-139 0 -231.5 -92.5t-92.5 -227.5z" />
<glyph horiz-adv-x="2031" d="M86 520q0 217 137 363q137 149 350 149q236 0 359 -158v132h221v-134q147 160 369 160q178 0 275 -110.5t97 -307.5v-614h-221v565q0 260 -235 260q-82 0 -162 -46t-123 -117v-572q0 -248 -166 -379q-162 -131 -399 -131q-236 0 -393 90v203q162 -98 368 -98 q168 0 268.5 77.5t100.5 233.5v76q-127 -158 -359 -158q-213 0 -350 149.5t-137 366.5zM309 518q0 -135 92.5 -227t231.5 -92q96 0 178 48t121 124v293q-39 78 -120 126t-179 48q-139 0 -231.5 -92.5t-92.5 -227.5z" />
<glyph horiz-adv-x="1275" d="M147 1325q0 59 40 100t100 41q57 0 97 -41t40 -100t-40 -99t-97 -40q-59 0 -99.5 40t-40.5 99zM176 0v1006h221v-134q147 160 369 160q178 0 275.5 -110.5t97.5 -307.5v-614h-221v565q0 260 -236 260q-82 0 -162 -46t-123 -117v-662h-221z" />
<glyph horiz-adv-x="1906" d="M147 1325q0 59 40 100t100 41q57 0 97 -41t40 -100t-40 -99t-97 -40q-59 0 -99.5 40t-40.5 99zM176 0v1006h221v-132q115 158 332 158q117 0 201 -49t117 -131q55 82 152 131t214 49q168 0 262 -104.5t94 -298.5v-629h-221v578q0 248 -205 247q-80 0 -152.5 -48 t-105.5 -120v-657h-221v578q0 248 -207 247q-78 0 -150.5 -46t-109.5 -115v-664h-221z" />
<glyph horiz-adv-x="2191" d="M86 504q0 221 155.5 374.5t397.5 153.5q131 0 243.5 -54t188.5 -149q61 94 163.5 148.5t219.5 54.5q231 0 358 -164v566h222v-1434h-222v137q-127 -164 -358 -164q-115 0 -217 54.5t-166 146.5q-76 -92 -189.5 -146.5t-242.5 -54.5q-242 0 -397.5 154t-155.5 377z M307 504q0 -145 94 -240q97 -96 238 -96q139 0 235 96q94 94 95 240q0 143 -95 237q-96 96 -235 97q-141 0 -238 -97q-94 -94 -94 -237zM1190 504q0 -141 92 -240q92 -96 231 -96q96 0 176 50t123 130v311q-43 78 -123.5 128.5t-175.5 50.5q-139 0 -231 -99 q-92 -96 -92 -235z" />
<glyph horiz-adv-x="2187" d="M86 504q0 221 155.5 374.5t397.5 153.5q131 0 243.5 -54t186.5 -147q63 92 165.5 146.5t221.5 54.5q236 0 359 -158v132h221v-916q0 -248 -166 -379q-162 -131 -400 -131q-236 0 -393 90v203q164 -98 369 -98q168 0 268.5 77.5t100.5 233.5v76q-127 -158 -359 -158 q-113 0 -212 49t-163 135q-76 -100 -191.5 -157.5t-250.5 -57.5q-242 0 -397.5 154t-155.5 377zM307 504q0 -145 94 -240q97 -96 238 -96q139 0 235 96q94 94 95 240q0 143 -95 237q-96 96 -235 97q-141 0 -238 -97q-94 -94 -94 -237zM1192 518q0 -135 92.5 -227t231.5 -92 q96 0 178 48t121 124v293q-39 78 -120 126t-179 48q-139 0 -231.5 -92.5t-92.5 -227.5z" />
<glyph horiz-adv-x="2193" d="M86 504q0 221 155.5 374.5t397.5 153.5q131 0 244.5 -55t187.5 -150q63 94 165.5 149.5t219.5 55.5q231 0 359 -164v138h221v-1416h-221v547q-127 -164 -359 -164q-117 0 -219 54.5t-166 148.5q-76 -94 -188.5 -148.5t-243.5 -54.5q-242 0 -397.5 154t-155.5 377z M307 504q0 -145 94 -240q97 -96 238 -96q139 0 235 96q94 94 95 240q0 143 -95 237q-96 96 -235 97q-141 0 -238 -97q-94 -94 -94 -237zM1192 502q0 -139 92 -238q92 -96 232 -96q94 0 175 50t124 128v311q-43 80 -123 130.5t-176 50.5q-139 0 -232 -99q-92 -96 -92 -237z " />
<glyph horiz-adv-x="1982" d="M158 -410v1416h221v-138q127 164 358 164q115 0 216.5 -54t164.5 -149q74 94 188.5 148.5t241.5 54.5q172 0 303 -69v-191q-137 66 -270 66q-152 0 -254 -95q-102 -96 -102 -239q0 -145 102 -242q102 -94 254 -94q162 0 287 76v-189q-144 -82 -322 -82 q-123 0 -237.5 54.5t-188.5 146.5q-63 -94 -164.5 -147.5t-218.5 -53.5q-231 0 -358 164v-547h-221zM379 346q43 -78 124 -128t175 -50q139 0 231 96q92 98 92 238q0 141 -92 237q-92 99 -231 99q-96 0 -176 -50.5t-123 -130.5v-311z" />
<glyph horiz-adv-x="2226" d="M158 -410v1416h221v-138q127 164 358 164q113 0 212.5 -51t162.5 -141q63 88 163.5 140t213.5 52q231 0 358 -164v566h221v-1434h-221v137q-127 -164 -358 -164q-236 0 -375 193q-63 -88 -163.5 -140.5t-213.5 -52.5q-231 0 -358 164v-547h-221zM379 346q43 -78 124 -128 t175 -50q139 0 231 96q92 98 92 238q0 141 -92 237q-92 99 -231 99q-96 0 -176 -50.5t-123 -130.5v-311zM1225 504q0 -141 92 -240q92 -96 231 -96q96 0 176 50t123 130v311q-43 78 -124 128.5t-175 50.5q-139 0 -231 -99q-92 -96 -92 -235z" />
<glyph horiz-adv-x="2222" d="M158 -410v1416h221v-138q127 164 358 164q115 0 213.5 -52t159.5 -140q61 88 162.5 140t218.5 52q235 0 358 -158v132h222v-916q0 -248 -166 -379q-162 -131 -400 -131q-236 0 -393 90v203q162 -98 369 -98q168 0 268 77.5t100 233.5v76q-127 -158 -358 -158 q-111 0 -208 47t-159 129q-61 -94 -164.5 -150.5t-222.5 -56.5q-231 0 -358 164v-547h-221zM379 346q43 -78 124 -128t175 -50q139 0 231 96q92 98 92 238q0 141 -92 237q-92 99 -231 99q-96 0 -176 -50.5t-123 -130.5v-311zM1227 518q0 -135 92 -227t231 -92q96 0 178 48 t121 124v293q-39 78 -119.5 126t-179.5 48q-139 0 -231 -92.5t-92 -227.5z" />
<glyph horiz-adv-x="2195" d="M158 -410v1416h221v-138q127 164 358 164q117 0 220.5 -56t164.5 -149q68 94 185.5 149.5t251.5 55.5q240 0 395 -153.5t155 -374.5t-155 -377q-155 -154 -395 -154q-135 0 -251 55.5t-186 149.5q-61 -94 -163.5 -149.5t-221.5 -55.5q-231 0 -358 164v-547h-221zM379 346 q43 -78 124 -128t175 -50q139 0 231 96q92 98 92 238q0 141 -92 237q-92 99 -231 99q-96 0 -176 -50.5t-123 -130.5v-311zM1227 504q0 -145 94 -240q97 -96 238 -96q139 0 235 96q94 94 94 240q0 143 -94 237q-96 96 -235 97q-141 0 -238 -97q-94 -94 -94 -237z" />
<glyph horiz-adv-x="2228" d="M158 -410v1416h221v-138q127 164 358 164q113 0 213.5 -52t163.5 -142q63 90 163.5 142t213.5 52q231 0 358 -164v138h222v-1416h-222v547q-127 -164 -358 -164q-115 0 -214 51.5t-163 141.5q-63 -88 -163.5 -140.5t-213.5 -52.5q-231 0 -358 164v-547h-221zM379 346 q43 -78 124 -128t175 -50q139 0 231 96q92 98 92 238q0 141 -92 237q-92 99 -231 99q-96 0 -176 -50.5t-123 -130.5v-311zM1227 502q0 -139 92 -238q92 -96 231 -96q94 0 175 50t124 128v311q-43 80 -123 130.5t-176 50.5q-139 0 -231 -99q-92 -96 -92 -237z" />
<glyph horiz-adv-x="2031" d="M86 502q0 225 137 377q137 153 350 153q231 0 359 -164v138h221v-134q147 160 369 160q178 0 275 -110.5t97 -307.5v-614h-221v565q0 260 -235 260q-82 0 -162 -46t-123 -117v-1072h-221v547q-127 -164 -359 -164q-213 0 -350 154q-137 152 -137 375zM309 502 q0 -139 92 -238q92 -96 232 -96q94 0 175 50t124 128v311q-43 80 -123 130.5t-176 50.5q-139 0 -232 -99q-92 -96 -92 -237z" />
<glyph horiz-adv-x="1277" d="M139 391v615h221v-566q0 -260 236 -260q82 0 162 46t123 118v662h221v-1006h-221v133q-147 -160 -369 -160q-178 0 -275.5 111t-97.5 307zM852 1325q0 59 40 100t99 41q57 0 97 -41t40 -100t-40 -99t-97 -40q-59 0 -99 40t-40 99z" />
<glyph horiz-adv-x="2611" d="M139 391v615h221v-566q0 -260 236 -260q82 0 162 46t123 118v662h221v-132q115 158 332 158q117 0 200.5 -49t116.5 -131q55 82 152.5 131t214.5 49q168 0 262 -104.5t94 -298.5v-629h-221v578q0 248 -205 247q-80 0 -152.5 -48t-105.5 -120v-657h-221v578 q0 248 -207 247q-78 0 -150.5 -46t-109.5 -115v-664h-221v133q-147 -160 -369 -160q-178 0 -275.5 111t-97.5 307z" />
<glyph horiz-adv-x="1980" d="M139 391v615h221v-566q0 -260 236 -260q82 0 162 46t123 118v662h221v-134q147 160 368 160q178 0 275.5 -110.5t97.5 -307.5v-614h-221v565q0 260 -236 260q-82 0 -161.5 -45.5t-122.5 -117.5v-662h-221v133q-147 -160 -369 -160q-178 0 -275.5 111t-97.5 307z" />
<glyph horiz-adv-x="1892" d="M139 391v615h221v-566q0 -260 236 -260q82 0 162 46t123 118v1090h221v-809l397 381h283l-477 -451l548 -555h-303l-448 455v-455h-221v133q-147 -160 -369 -160q-178 0 -275.5 111t-97.5 307z" />
<glyph horiz-adv-x="2500" d="M178 0v1434h1020v-207h-795v-359h648v-206h-648v-455h672l537 1235h217l627 -1442h-242l-156 356h-680l-153 -356h-1047zM1456 555h524l-262 602z" />
<glyph horiz-adv-x="2551" d="M178 0v1434h230l464 -646l461 646h226v-586l587 586h289l-663 -656l770 -778h-308l-675 688v-688h-226v1090l-399 -541h-131l-400 541v-1090h-225z" />
<glyph horiz-adv-x="2891" d="M178 0v1434h230l464 -646l461 646h230l465 -646l460 646h226v-1434h-226v1090l-399 -541h-131l-399 541v-1090h-226v1090l-399 -541h-131l-400 541v-1090h-225z" />
<glyph horiz-adv-x="2617" d="M68 1227v207h1398v-566h748v566h225v-1434h-225v662h-748v-662h-225v1227h-475v-1227h-225v1227h-473z" />
<glyph horiz-adv-x="2617" d="M178 0v1434h225v-566h748v566h1399v-207h-473v-1227h-226v1227h-475v-1227h-225v662h-748v-662h-225z" />
<glyph horiz-adv-x="2449" d="M178 0v1434h225v-566h748v566h651q195 0 308.5 -94.5t113.5 -258.5q0 -106 -53 -184t-137 -111q135 -25 220 -127t85 -256q0 -182 -131 -292q-129 -111 -353 -111h-704v662h-748v-662h-225zM1376 207h439q131 0 205.5 60.5t74.5 168.5q0 106 -73.5 163.5t-206.5 57.5 h-439v-450zM1376 856h387q113 0 175.5 48t62.5 138.5t-62.5 137.5t-175.5 47h-387v-371z" />
<glyph horiz-adv-x="2285" d="M178 0v1434h225v-566h748v566h1020v-207h-795v-359h647v-206h-647v-455h822v-207h-1047v662h-748v-662h-225z" />
<glyph horiz-adv-x="2369" d="M178 0v1434h225v-566h748v566h225v-586l588 586h289l-664 -656l770 -778h-307l-676 688v-688h-225v662h-748v-662h-225z" />
<glyph horiz-adv-x="2709" d="M178 0v1434h225v-566h748v566h229l465 -646l461 646h225v-1434h-225v1090l-399 -541h-131l-400 541v-1090h-225v662h-748v-662h-225z" />
<glyph horiz-adv-x="2328" d="M178 0v1434h225v-566h748v566h616q223 0 351 -117q129 -113 129 -299t-129 -307q-125 -119 -351 -119h-391v-592h-225v662h-748v-662h-225zM1376 799h373q127 0 198.5 56t71.5 158.5t-70.5 158t-199.5 55.5h-373v-428z" />
<glyph horiz-adv-x="2707" d="M178 0v1434h230l464 -646l461 646h226v-566h745v566h225v-1434h-225v662h-745v-662h-226v1090l-399 -541h-131l-400 541v-1090h-225z" />
<glyph horiz-adv-x="2631" d="M178 0v1434h230l464 -646l461 646h652q195 0 308 -94.5t113 -258.5q0 -106 -53 -184t-137 -111q135 -25 220 -127t85 -256q0 -182 -131 -292q-129 -111 -352 -111h-705v1090l-399 -541h-131l-400 541v-1090h-225zM1559 207h438q131 0 205.5 60.5t74.5 168.5 q0 106 -73.5 163.5t-206.5 57.5h-438v-450zM1559 856h387q113 0 175 48t62 138.5t-62.5 137.5t-174.5 47h-387v-371z" />
<glyph horiz-adv-x="2467" d="M178 0v1434h230l464 -646l461 646h1020v-207h-794v-359h647v-206h-647v-455h821v-207h-1047v1090l-399 -541h-131l-400 541v-1090h-225z" />
<glyph horiz-adv-x="2500" d="M178 0v1434h1020v-207h-795v-359h648v-206h-648v-455h672l537 1235h217l627 -1442h-242l-156 356h-680l-153 -356h-1047zM1456 555h524l-262 602z" />
<glyph horiz-adv-x="2551" d="M178 0v1434h230l464 -646l461 646h226v-586l587 586h289l-663 -656l770 -778h-308l-675 688v-688h-226v1090l-399 -541h-131l-400 541v-1090h-225z" />
<glyph horiz-adv-x="2891" d="M178 0v1434h230l464 -646l461 646h230l465 -646l460 646h226v-1434h-226v1090l-399 -541h-131l-399 541v-1090h-226v1090l-399 -541h-131l-400 541v-1090h-225z" />
<glyph horiz-adv-x="1982" d="M158 -410v1416h221v-138q127 164 358 164q115 0 216.5 -54t164.5 -149q74 94 188.5 148.5t241.5 54.5q172 0 303 -69v-191q-137 66 -270 66q-152 0 -254 -95q-102 -96 -102 -239q0 -145 102 -242q102 -94 254 -94q162 0 287 76v-189q-144 -82 -322 -82 q-123 0 -237.5 54.5t-188.5 146.5q-63 -94 -164.5 -147.5t-218.5 -53.5q-231 0 -358 164v-547h-221zM379 346q43 -78 124 -128t175 -50q139 0 231 96q92 98 92 238q0 141 -92 237q-92 99 -231 99q-96 0 -176 -50.5t-123 -130.5v-311z" />
<glyph horiz-adv-x="2195" d="M158 -410v1416h221v-138q127 164 358 164q117 0 220.5 -56t164.5 -149q68 94 185.5 149.5t251.5 55.5q240 0 395 -153.5t155 -374.5t-155 -377q-155 -154 -395 -154q-135 0 -251 55.5t-186 149.5q-61 -94 -163.5 -149.5t-221.5 -55.5q-231 0 -358 164v-547h-221zM379 346 q43 -78 124 -128t175 -50q139 0 231 96q92 98 92 238q0 141 -92 237q-92 99 -231 99q-96 0 -176 -50.5t-123 -130.5v-311zM1227 504q0 -145 94 -240q97 -96 238 -96q139 0 235 96q94 94 94 240q0 143 -94 237q-96 96 -235 97q-141 0 -238 -97q-94 -94 -94 -237z" />
<glyph horiz-adv-x="1087" d="M-53 1327q0 51 37 86q37 37 88 37t86 -37q35 -35 35 -86t-35 -88q-35 -35 -86 -35t-88 35q-37 37 -37 88zM176 0v1006h223v-1006h-223zM422 1327q0 51 37 86q37 37 88 37t86 -37q35 -35 35 -86t-35 -88q-35 -35 -86 -35t-88 35q-37 37 -37 88zM688 0v1006h223v-1006h-223 zM895 1327q0 51 37 86q37 37 88 37t86 -37q35 -35 35 -86t-35 -88q-35 -35 -86 -35t-88 35q-37 37 -37 88z" />
<glyph horiz-adv-x="2160" d="M86 504q0 221 155.5 374.5t397.5 153.5q135 0 251 -58.5t189 -156.5q74 100 192 157.5t253 57.5q238 0 395 -153q156 -154 156 -375t-156 -377q-158 -154 -395 -154q-137 0 -253 57.5t-192 155.5q-74 -98 -189.5 -155.5t-250.5 -57.5q-242 0 -397.5 154t-155.5 377z M307 504q0 -145 94 -240q97 -96 238 -96q139 0 235 96q94 94 95 240q0 143 -95 237q-96 96 -235 97q-141 0 -238 -97q-94 -94 -94 -237zM1192 504q0 -145 94 -240q97 -96 238 -96q139 0 235 96q94 94 94 240q0 143 -94 237q-96 96 -235 97q-141 0 -238 -97q-94 -94 -94 -237 z" />
<glyph horiz-adv-x="1947" d="M86 504q0 221 155.5 374.5t397.5 153.5q133 0 247.5 -56t190.5 -155q74 98 190.5 154.5t245.5 56.5q172 0 304 -69v-191q-137 66 -271 66q-152 0 -254 -95q-102 -96 -102 -239q0 -145 102 -242q102 -94 254 -94q162 0 287 76v-189q-144 -82 -322 -82q-129 0 -245.5 56.5 t-188.5 154.5q-74 -98 -189.5 -154.5t-248.5 -56.5q-242 0 -397.5 154t-155.5 377zM307 504q0 -145 94 -240q97 -96 238 -96q139 0 235 96q94 94 95 240q0 143 -95 237q-96 96 -235 97q-141 0 -238 -97q-94 -94 -94 -237z" />
<glyph horiz-adv-x="2951" d="M127 717q0 315 207 528q209 215 524 215q195 0 356.5 -88t260.5 -244q100 156 260.5 244t355.5 88q315 0 524 -215q209 -213 209 -528t-209 -531q-209 -213 -524 -213q-197 0 -357.5 88.5t-258.5 243.5q-98 -156 -260 -244t-357 -88q-315 0 -524 213q-207 217 -207 531z M359 717q0 -229 143 -381q145 -152 356 -152t356 152q145 156 146 381q0 227 -146 379q-145 154 -356 153.5t-356 -153.5q-143 -150 -143 -379zM1592 717q0 -229 143 -381q145 -152 356 -152t356 152q145 156 146 381q0 227 -146 379q-145 154 -356 153.5t-356 -153.5 q-143 -150 -143 -379z" />
<glyph horiz-adv-x="2633" d="M127 717q0 315 207 528q209 215 524 215q195 0 356.5 -88t260.5 -244q100 156 269 244t372 88q219 0 389 -96v-227q-174 113 -387 112q-225 0 -377 -151q-150 -150 -150 -381.5t152 -382.5q152 -150 383 -150q246 0 409 131v-227q-180 -115 -419 -115q-203 0 -372 88.5 t-269 243.5q-98 -156 -260 -244t-357 -88q-315 0 -524 213q-207 217 -207 531zM359 717q0 -229 143 -381q145 -152 356 -152t356 152q145 156 146 381q0 227 -146 379q-145 154 -356 153.5t-356 -153.5q-143 -150 -143 -379z" />
<glyph horiz-adv-x="1153" d="M-41 1702q0 51 37 86q37 37 88 37t86 -37q35 -35 35 -86t-35 -88q-35 -35 -86 -35t-88 35q-37 37 -37 88zM188 0v1434h226v-1434h-226zM452.5 1702q0.5 51 36.5 86q37 37 88.5 37t86.5 -37q35 -35 34.5 -86t-34.5 -88q-35 -35 -86.5 -35t-88.5 35q-37 37 -36.5 88zM741 0 v1434h226v-1434h-226zM948 1702q0 51 37 86q37 37 88 37t86 -37q35 -35 35 -86t-35 -88q-35 -35 -86 -35t-88 35q-37 37 -37 88z" />
<glyph horiz-adv-x="2508" d="M178 0v1434h230l464 -646l461 646h615q223 0 350 -117q129 -113 129 -299t-129 -307q-125 -119 -350 -119h-389v-592h-226v1090l-399 -541h-131l-400 541v-1090h-225zM1559 799h370q127 0 199 56t72 158.5t-71 158t-200 55.5h-370v-428z" />
<glyph horiz-adv-x="2629" d="M68 1227v207h1398v-1053l789 1053h196v-1434h-225v1057l-792 -1057h-193v1227h-475v-1227h-225v1227h-473z" />
<glyph horiz-adv-x="1718" d="M127 717q0 315 207 528q209 215 524.5 215t523.5 -215q209 -213 209 -528q0 -213 -99 -386t-273 -268l294 -374h-282l-232 297q-67 -13 -141 -13q-315 0 -524 213q-207 217 -207 531zM359 717q0 -229 143 -381q145 -152 356 -152t356 152q145 156 146 381q0 227 -146 379 q-145 154 -356 153.5t-356 -153.5q-143 -150 -143 -379z" />
<glyph horiz-adv-x="1347" d="M98 463q0 186 127 301q125 117 312 129l-344 371v170h880v-203h-581l311 -338v-180q-66 16 -146 16q-154 0 -243.5 -74.5t-89.5 -197.5q0 -133 104 -209q106 -78 256 -78q174 0 317 88v533h222v-627q-217 -191 -549 -191q-244 0 -410 136q-166 137 -166 354z" />
<glyph horiz-adv-x="536" d="M158 0v1434h221v-1434h-221z" />
<glyph horiz-adv-x="1310" d="M86 504q0 223 137 375q137 154 350 153q231 0 359 -164v138h221v-1006h-221v137q-128 -164 -359 -164q-213 0 -350 154q-137 152 -137 377zM309 504q0 -141 92 -240q93 -96 232 -96q96 0 176 50t123 130v311q-43 78 -124 128.5t-175 50.5q-139 0 -232 -99 q-92 -96 -92 -235z" />
</font>
</defs>
</svg>
