<?xml version="1.0" standalone="no"?>
<!DOCTYPE svg PUBLIC "-//W3C//DTD SVG 1.1//EN" "http://www.w3.org/Graphics/SVG/1.1/DTD/svg11.dtd" >
<svg xmlns="http://www.w3.org/2000/svg" xmlns:xlink="http://www.w3.org/1999/xlink" version="1.1">
<metadata></metadata>
<defs>
<font id="geometriabold" horiz-adv-x="1331" >
<font-face units-per-em="2048" ascent="1591" descent="-457" />
<missing-glyph horiz-adv-x="524" />
<glyph unicode="ij" horiz-adv-x="1175" d="M127 1292q0 74 50 124t122 50t122 -50t50 -124q0 -72 -50 -122t-122 -50t-122 50t-50 122zM156 0v1022h288v-1022h-288zM422 -131q72 -39 153 -39q156 0 156 162v1030h289v-1059q0 -182 -99.5 -283.5t-271.5 -101.5q-152 0 -227 45v246zM700 1292q0 74 50.5 124t122 50 t123 -50t51.5 -124q0 -72 -51.5 -122t-123 -50t-122 50t-50.5 122z" />
<glyph unicode="&#xfb00;" horiz-adv-x="1607" d="M37 780v242h182v96q0 156 90 248t256 92q150 0 260 -43v-233q-92 35 -176 35q-141 0 -141 -138v-57h448v96q0 156 90.5 248t256.5 92q150 0 260 -43v-233q-92 35 -177 35q-141 0 -141 -138v-57h318v-242h-318v-780h-289v780h-448v-780h-289v780h-182z" />
<glyph unicode="&#xfb01;" horiz-adv-x="1400" d="M37 780v242h182v96q0 156 90 248t256 92q150 0 260 -43v-233q-92 35 -176 35q-141 0 -141 -138v-57h737v-1022h-289v780h-448v-780h-289v780h-182zM928 1292q0 74 50 124t121.5 50t122 -50t50.5 -124q0 -72 -50.5 -122t-122 -50t-121.5 50t-50 122z" />
<glyph unicode="&#xfb02;" horiz-adv-x="1466" d="M37 780v242h182v96q0 156 90 248t256 92q150 0 260 -43v-233q-92 35 -176 35q-141 0 -141 -138v-57h448v412h289v-1102q0 -102 92 -103q43 0 74 19v-238q-73 -37 -182 -37q-127 0 -200 69t-73 214v524h-448v-780h-289v780h-182z" />
<glyph unicode="&#xfb03;" horiz-adv-x="2127" d="M37 780v242h182v96q0 156 90 248t256 92q150 0 260 -43v-233q-92 35 -176 35q-141 0 -141 -138v-57h448v96q0 156 90.5 248t256.5 92q150 0 260 -43v-233q-92 35 -177 35q-141 0 -141 -138v-57h737v-1022h-288v780h-449v-780h-289v780h-448v-780h-289v780h-182z M1665 1292q0 74 50 124t122 50t122 -50t50 -124q0 -72 -50 -122t-122 -50t-122 50t-50 122z" />
<glyph unicode="&#xfb04;" horiz-adv-x="2203" d="M37 780v242h182v96q0 156 90 248t256 92q150 0 260 -43v-233q-92 35 -176 35q-141 0 -141 -138v-57h448v96q0 156 90.5 248t256.5 92q150 0 260 -43v-233q-92 35 -177 35q-141 0 -141 -138v-57h449v412h288v-1102q0 -102 93 -103q43 0 73 19v-238q-74 -37 -182 -37 q-127 0 -199.5 69t-72.5 214v524h-449v-780h-289v780h-448v-780h-289v780h-182z" />
<glyph horiz-adv-x="0" />
<glyph unicode="&#xd;" horiz-adv-x="681" />
<glyph unicode=" "  horiz-adv-x="524" />
<glyph unicode="&#x09;" horiz-adv-x="524" />
<glyph unicode="&#xa0;" horiz-adv-x="524" />
<glyph unicode="!" horiz-adv-x="681" d="M164 156q0 76 52 127t126 51t125 -51.5t51 -126.5q0 -74 -51 -126.5t-125 -52.5t-126 52.5t-52 126.5zM166 1434h352l-65 -957h-224z" />
<glyph unicode="&#x22;" horiz-adv-x="800" d="M72 825v609h247v-609h-247zM483 825v609h250v-609h-250z" />
<glyph unicode="#" horiz-adv-x="1585" d="M72 342l34 223h283l49 303h-282l32 224h285l55 342h226l-56 -342h308l55 342h223l-53 -342h285l-37 -224h-283l-49 -303h285l-35 -223h-285l-55 -342h-223l55 342h-309l-54 -342h-225l53 342h-282zM614 565h308l49 303h-307z" />
<glyph unicode="$" horiz-adv-x="1288" d="M88 125v307q90 -78 238 -135q150 -55 295 -55q121 0 198.5 44t77.5 122q0 84 -74 118q-31 18 -82 37l-49 17l-114 34l-107 35q-23 6 -96 35q-63 25 -92 43q-106 74 -136 125q-49 98 -49 201q0 164 106.5 267t299.5 132v205h266v-203q168 -20 338 -111v-286 q-219 135 -465 135q-244 0 -244 -141q0 -61 76 -99q45 -25 117 -43q96 -27 156 -45q178 -55 311 -149q143 -100 143 -299q0 -170 -118.5 -286t-313.5 -146v-207h-266v203q-248 27 -416 145z" />
<glyph unicode="%" horiz-adv-x="1675" d="M50 1096q0 148 102 250q100 100 259.5 100t260.5 -100q102 -102 102 -250t-102 -250q-100 -100 -260 -100.5t-260 100.5q-102 102 -102 250zM248 1095.5q0 -71.5 45 -118.5q47 -47 119 -47q70 0 116.5 47t46.5 118.5t-47 119t-116 47.5q-72 0 -119 -48 q-45 -47 -45 -118.5zM307 0l856 1434h207l-856 -1434h-207zM899 338q0 148 102 250q100 100 260 100t261 -100q102 -102 102 -250t-102 -250q-100 -100 -260 -100t-261 100q-102 102 -102 250zM1098 338q0 -72 45 -119q47 -47 119 -47q70 0 116.5 47t46.5 119t-47 119 t-116 47q-72 0 -119 -47q-45 -47 -45 -119z" />
<glyph unicode="&#x26;" horiz-adv-x="1538" d="M76 432q0 150 74 256q78 109 169 154q-76 100 -75 229q0 168 118 279q119 113 310 112q213 0 379 -104v-277q-170 129 -336 129q-80 0 -133.5 -45t-53.5 -110q0 -37 19 -74q25 -47 112 -135l359 -357q72 109 78 293h276q-10 -272 -158 -483l304 -299h-365l-119 113 q-190 -141 -430 -142q-227 0 -379 121q-150 123 -149 340zM358 444q0 -102 74 -161.5t191 -59.5q123 0 221 80l-359 354q-51 -25 -89 -84t-38 -129z" />
<glyph unicode="'" horiz-adv-x="387" d="M72 825v609h247v-609h-247z" />
<glyph unicode="(" horiz-adv-x="794" d="M145 512q0 557 295 934h295q-326 -418 -326 -934t326 -934h-295q-295 373 -295 934z" />
<glyph unicode=")" horiz-adv-x="794" d="M59 -422q326 418 326 934t-326 934h295q295 -377 295 -934q0 -561 -295 -934h-295z" />
<glyph unicode="*" horiz-adv-x="862" d="M55 940l211 115l-211 114l88 152l205 -127l-6 240h174l-6 -240l203 127l88 -152l-213 -114l213 -115l-88 -152l-203 125l6 -239h-174l6 239l-205 -125z" />
<glyph unicode="+" horiz-adv-x="1312" d="M135 549v258h389v393h262v-393h392v-258h-392v-391h-262v391h-389z" />
<glyph unicode="," horiz-adv-x="573" d="M12 -311l176 620h310l-248 -620h-238z" />
<glyph unicode="-" horiz-adv-x="1026" d="M197 438v260h632v-260h-632z" />
<glyph unicode="." horiz-adv-x="538" d="M92 158q0 74 51.5 125t126.5 51q74 0 126.5 -51.5t52.5 -124.5q0 -76 -52.5 -128.5t-126.5 -52.5q-76 0 -127 52.5t-51 128.5z" />
<glyph unicode="/" horiz-adv-x="1091" d="M-41 -287l862 1909h289l-862 -1909h-289z" />
<glyph unicode="0" horiz-adv-x="1443" d="M104 717q0 201 70 364q74 172 218.5 276.5t330.5 104.5q283 0 448 -219q168 -217 168 -526t-168 -527q-165 -219 -448 -219q-190 0 -334 107q-139 104 -212 270t-73 369zM399 717q0 -197 88 -334q90 -135 236 -135q147 0 233 135q88 137 88 334q0 199 -88 332 q-86 137 -233.5 137t-235.5 -137q-88 -133 -88 -332z" />
<glyph unicode="1" horiz-adv-x="798" d="M41 965v288l336 181h256v-1434h-289v1118z" />
<glyph unicode="2" horiz-adv-x="1183" d="M72 0v215l422 383q145 133 198 213q57 82 57.5 174t-67.5 146.5t-178 54.5q-201 0 -387 -164v303q174 137 418 137q205 0 356 -120.5t151 -317.5q0 -152 -67 -268q-61 -111 -236 -273l-245 -225h598v-258h-1020z" />
<glyph unicode="3" horiz-adv-x="1181" d="M80 86v281q188 -131 420 -131q131 0 215 64.5t84 174.5q0 104 -78 169t-207 65q-104 0 -203 -39v194l342 316h-528v254h905v-222l-323 -297q154 -27 270 -141q117 -113 117 -299q0 -229 -166 -366q-164 -138 -412 -138q-254 0 -436 115z" />
<glyph unicode="4" horiz-adv-x="1312" d="M47 358v213l715 863h291v-838h211v-238h-211v-358h-287v358h-719zM373 596h393v467z" />
<glyph unicode="5" horiz-adv-x="1202" d="M96 74v276q182 -115 396 -114q139 0 228 63t89 176q0 106 -87 172t-233 66q-170 0 -344 -62l95 783h766v-254h-549l-31 -244q63 14 137 14q238 0 387 -131q154 -131 154 -344q0 -236 -174 -371q-174 -133 -426 -133q-225 0 -408 103z" />
<glyph unicode="6" horiz-adv-x="1306" d="M113 643q0 162 41 307.5t119.5 261t206.5 183t290 67.5q184 0 324 -92v-266q-135 92 -291 92q-176 0 -279 -111q-100 -109 -112 -278q115 133 333 133q195 0 328 -127q131 -125 131 -336q0 -223 -149 -364q-148 -142 -371 -142q-270 0 -420.5 178.5t-150.5 493.5z M403 530q6 -145 76 -225t187 -80q109 0 177 68.5t68 177.5q0 104 -69.5 172t-175.5 68q-84 0 -158 -51.5t-105 -129.5z" />
<glyph unicode="7" horiz-adv-x="1161" d="M72 1169v265h1011v-228l-606 -1206h-313l586 1169h-678z" />
<glyph unicode="8" horiz-adv-x="1304" d="M80 408q0 121 72.5 217t193.5 139q-94 43 -147.5 123t-53.5 178q0 176 144 287q145 111 364 110q215 0 360.5 -110.5t145.5 -286.5q0 -98 -53.5 -178t-147.5 -123q121 -43 194 -139.5t73 -216.5q0 -203 -166 -320q-162 -117 -406 -117q-242 0 -407.5 117t-165.5 320z M385 426q0 -88 77 -147.5t191.5 -59.5t190.5 59.5t76 147.5q0 90 -76 149.5t-190.5 59.5t-191.5 -59.5t-77 -149.5zM430 1036q0 -78 64.5 -128t159 -50t157.5 50t63 128q0 80 -63 130.5t-157.5 50.5t-159 -50.5t-64.5 -130.5z" />
<glyph unicode="9" horiz-adv-x="1306" d="M102 956q0 223 148 365q150 141 373 141q270 0 420.5 -178t150.5 -493q0 -162 -41 -307.5t-120 -261.5t-207 -183.5t-289 -67.5q-184 0 -324 92v267q135 -92 291 -92q176 0 276 110q102 113 115 279q-115 -133 -334 -133q-197 0 -328 124.5t-131 337.5zM395 963 q0 -104 70 -172t176 -68q84 0 157.5 51t104.5 131q-6 145 -75.5 224t-186.5 79q-109 0 -177.5 -68.5t-68.5 -176.5z" />
<glyph unicode=":" horiz-adv-x="538" d="M92 158q0 74 51.5 125t126.5 51q74 0 126.5 -51.5t52.5 -124.5q0 -76 -52.5 -128.5t-126.5 -52.5q-76 0 -127 52.5t-51 128.5zM92 834q0 74 51.5 125t126.5 51q74 0 126.5 -51.5t52.5 -124.5q0 -76 -52.5 -128.5t-126.5 -52.5q-76 0 -127 52.5t-51 128.5z" />
<glyph unicode=";" horiz-adv-x="583" d="M12 -311l176 620h310l-248 -620h-238zM152 834q0 74 51 125t127 51q74 0 126 -51.5t52 -124.5q0 -76 -52 -128.5t-126 -52.5q-76 0 -127 52.5t-51 128.5z" />
<glyph unicode="&#x3c;" horiz-adv-x="1312" d="M135 539v272l1043 424v-281l-744 -278l744 -279v-280z" />
<glyph unicode="=" horiz-adv-x="1312" d="M135 315v263h1043v-263h-1043zM135 780v260h1043v-260h-1043z" />
<glyph unicode="&#x3e;" horiz-adv-x="1312" d="M135 117v280l744 279l-744 278v281l1043 -424v-272z" />
<glyph unicode="?" horiz-adv-x="1005" d="M51 1083v258q176 121 414 121q201 0 342 -110q143 -106 143 -299q0 -152 -110 -258q-111 -109 -260 -154v-164h-275v303q137 29 242 97q106 70 106 157q0 80 -64.5 122t-170.5 42q-174 0 -367 -115zM270 158q0 74 51.5 125t127.5 51q74 0 126 -51.5t52 -124.5 q0 -76 -52 -128.5t-126 -52.5q-76 0 -127.5 52.5t-51.5 128.5z" />
<glyph unicode="@" horiz-adv-x="1925" d="M74 565q0 379 260 637q260 260 631 260q379 0 632 -245q256 -246 256 -599q0 -233 -104 -370q-100 -137 -270 -137q-205 0 -293 147q-47 -68 -128 -112t-186 -44q-178 0 -294 131q-115 133 -115 328q0 193 114.5 326t290.5 133t285 -133v108h248v-581q0 -205 141 -205 q92 0 164 110q70 109 70 299q0 315 -226 545q-223 227 -585 228q-354 0 -584 -242q-229 -238 -229 -584q0 -350 229 -585q229 -240 584 -240q223 0 444 123v-80q-200 -115 -444 -115q-377 0 -633 254q-258 256 -258 643zM725 561.5q0 -100.5 62.5 -168t158.5 -67.5 q135 0 207 114v242q-72 115 -207 115q-96 0 -158.5 -67.5t-62.5 -168z" />
<glyph unicode="A" horiz-adv-x="1576" d="M33 0l614 1442h283l614 -1442h-313l-141 332h-607l-141 -332h-309zM575 575h420l-209 498z" />
<glyph unicode="B" horiz-adv-x="1466" d="M158 0v1434h673q199 0 317 -94.5t118 -264.5q0 -104 -51.5 -178t-129.5 -106q117 -25 205 -127q86 -100 86 -256q0 -182 -135 -295q-133 -113 -362 -113h-721zM453 254h370q111 0 172.5 48t61.5 138t-61.5 139.5t-172.5 49.5h-370v-375zM453 872h331q92 0 144.5 41 t52.5 115q0 76 -52 118t-145 42h-331v-316z" />
<glyph unicode="C" horiz-adv-x="1386" d="M109 717q0 328 219 536q221 209 557 209q209 0 379 -90v-297q-166 111 -377 111q-203 0 -342 -133q-135 -131 -135 -336t139 -338q137 -131 350 -131q236 0 393 125v-297q-174 -105 -407 -105q-334 0 -555 209q-221 213 -221 537z" />
<glyph unicode="D" horiz-adv-x="1589" d="M158 0v1434h536q348 0 567.5 -201t219.5 -516q0 -317 -219 -518q-218 -199 -568 -199h-536zM453 264h217q240 0 374 120t134 333t-134.5 332.5t-373.5 119.5h-217v-905z" />
<glyph unicode="E" horiz-adv-x="1310" d="M158 0v1434h1052v-265h-757v-276h610v-260h-610v-369h780v-264h-1075z" />
<glyph unicode="F" horiz-adv-x="1286" d="M158 0v1434h1050v-265h-755v-290h583v-261h-583v-618h-295z" />
<glyph unicode="G" horiz-adv-x="1570" d="M109 717q0 328 219 536q217 209 555 209q248 0 430 -108v-291q-199 123 -410 123q-219 0 -356 -131q-137 -129 -137 -344q0 -213 133 -340t329 -127q188 0 289 94v493h295v-632q-92 -98 -246 -162q-160 -66 -338 -66q-328 0 -544 209q-219 213 -219 537z" />
<glyph unicode="H" horiz-adv-x="1552" d="M158 0v1434h295v-537h647v537h293v-1434h-293v629h-647v-629h-295z" />
<glyph unicode="I" horiz-adv-x="628" d="M168 0v1434h293v-1434h-293z" />
<glyph unicode="J" horiz-adv-x="1044" d="M57 55v291q123 -98 283 -98q139 0 205.5 64.5t66.5 207.5v914h293v-963q0 -137 -40 -237.5t-111.5 -155.5t-159 -81t-193.5 -26q-223 0 -344 84z" />
<glyph unicode="K" horiz-adv-x="1445" d="M158 0v1434h295v-566l528 566h360l-608 -658l713 -776h-377l-616 662v-662h-295z" />
<glyph unicode="L" horiz-adv-x="1234" d="M158 0v1434h295v-1170h727v-264h-1022z" />
<glyph unicode="M" horiz-adv-x="1732" d="M158 0v1434h293l415 -594l416 594h291v-1434h-291v981l-330 -461h-164l-335 461v-981h-295z" />
<glyph unicode="N" horiz-adv-x="1579" d="M158 0v1434h252l723 -918v918h286v-1434h-243l-730 922v-922h-288z" />
<glyph unicode="O" horiz-adv-x="1703" d="M109 717q0 315 210 528q211 217 533 217q319 0 530 -217q213 -217 213 -528q0 -309 -213 -529q-211 -217 -530 -217q-322 0 -532.5 217.5t-210.5 528.5zM410 717q0 -205 125 -336q127 -133 317 -133q188 0 315 133t127 336t-127 336t-315 133q-190 0 -317 -133 q-125 -131 -125 -336z" />
<glyph unicode="P" horiz-adv-x="1349" d="M158 0v1434h626q231 0 365 -121q135 -119 135 -312q0 -195 -135 -313q-133 -121 -365 -121h-331v-567h-295zM453 819h311q106 0 165.5 46t59.5 132t-59.5 132.5t-165.5 46.5h-311v-357z" />
<glyph unicode="Q" horiz-adv-x="1703" d="M319 1245q211 217 533 217q319 0 530 -217q213 -217 213 -528q0 -229 -122 -418q-121 -186 -326 -268q82 -104 219 -105q92 0 170 43v-248q-104 -47 -217 -47q-242 0 -504 301q-307 12 -508 226q-198 210 -198 513q0 318 210 531zM410 717q0 -205 125 -336 q127 -133 317 -133q188 0 315 133t127 336t-127 336t-315 133q-190 0 -317 -133q-125 -131 -125 -336z" />
<glyph unicode="R" horiz-adv-x="1495" d="M158 0v1434h663q229 0 361 -119q133 -117 133 -305q0 -143 -79 -249t-218 -149l442 -612h-342l-418 580h-247v-580h-295zM453 827h352q100 0 156.5 45.5t56.5 128.5q0 82 -56.5 128.5t-156.5 46.5h-352v-349z" />
<glyph unicode="S" horiz-adv-x="1288" d="M88 125v307q90 -78 238 -135q150 -55 295 -55q121 0 198.5 44t77.5 122q0 84 -74 118q-31 18 -82 37l-49 17l-114 34l-107 35q-23 6 -96 35q-63 25 -92 43q-106 74 -136 125q-49 98 -49 201q0 190 146 299q144 110 391 110h4q252 0 469 -119v-286q-219 135 -465 135 q-244 0 -244 -141q0 -61 76 -99q45 -25 117 -43q96 -27 156 -45q178 -55 311 -149q143 -100 143 -299q0 -207 -161.5 -326t-407.5 -119q-324 0 -545 154z" />
<glyph unicode="T" horiz-adv-x="1325" d="M61 1169v265h1203v-265h-455v-1169h-295v1169h-453z" />
<glyph unicode="U" horiz-adv-x="1505" d="M139 602v832h293v-842q0 -166 87 -255t233 -89q147 0 234 89t87 255v842h295v-832q0 -299 -174 -465q-172 -166 -442 -166q-268 0 -440.5 166t-172.5 465z" />
<glyph unicode="V" horiz-adv-x="1556" d="M37 1434h325l418 -1033l420 1033h320l-602 -1442h-279z" />
<glyph unicode="W" horiz-adv-x="2201" d="M43 1434h328l295 -967l323 971h230l325 -971l295 967h322l-484 -1442h-260l-313 956l-320 -956h-260z" />
<glyph unicode="X" horiz-adv-x="1484" d="M12 0l559 772l-473 662h344l301 -428l306 428h340l-474 -660l558 -774h-345l-389 535l-387 -535h-340z" />
<glyph unicode="Y" horiz-adv-x="1425" d="M12 1434h348l357 -510l358 510h338l-553 -785v-649h-293v643z" />
<glyph unicode="Z" horiz-adv-x="1312" d="M68 0v209l745 960h-711v265h1110v-207l-743 -963h776v-264h-1177z" />
<glyph unicode="[" horiz-adv-x="878" d="M162 -422v1868h643v-227h-381v-1414h381v-227h-643z" />
<glyph unicode="\" horiz-adv-x="1089" d="M-18 1622h288l863 -1909h-289z" />
<glyph unicode="]" horiz-adv-x="878" d="M74 -195h381v1414h-381v227h643v-1868h-643v227z" />
<glyph unicode="^" horiz-adv-x="1126" d="M70 694l356 817h274l357 -817h-273l-221 570l-219 -570h-274z" />
<glyph unicode="_" horiz-adv-x="1320" d="M8 -111h1305v-194h-1305v194z" />
<glyph unicode="`" horiz-adv-x="1067" d="M272 1479h351l194 -299h-250z" />
<glyph unicode="a" horiz-adv-x="1232" d="M57 315q0 164 119 250t285 86q174 0 295 -63v30q0 193 -271 193q-166 0 -309 -86v242q156 82 379 82q221 0 352 -107q135 -106 135 -295v-346q0 -78 72 -78q37 0 60 13v-211q-55 -43 -156 -43q-174 0 -232 131q-135 -139 -352 -140q-168 0 -272.5 94.5t-104.5 247.5z M342 330q0 -66 49 -99.5t133 -33.5q152 0 232 104v102q-90 59 -213 60q-92 0 -146.5 -35t-54.5 -98z" />
<glyph unicode="b" horiz-adv-x="1318" d="M141 0v1434h289v-537q121 152 336 152q209 0 344 -156q137 -152 137 -381t-137 -385q-135 -154 -344 -154q-221 0 -336 152v-125h-289zM430 379q37 -68 104.5 -111t149.5 -43q123 0 199 82q78 84 78 205q0 119 -78 203q-76 82 -199 82q-82 0 -149.5 -42t-104.5 -110v-266 z" />
<glyph unicode="c" horiz-adv-x="1056" d="M74 514.5q0 241.5 164 386.5q166 147 395 148q168 0 303 -68v-246q-133 61 -260 62q-135 0 -227 -80q-91 -78 -91 -206q0 -126 92 -206t226 -80q158 0 276 70v-246q-143 -76 -323 -76q-227 0 -391 148q-164 152 -164 393.5z" />
<glyph unicode="d" horiz-adv-x="1320" d="M74 512q0 227 135 381q137 156 346 156q215 0 336 -152v537h289v-1434h-289v125q-115 -152 -336 -152q-207 0 -346 154q-135 156 -135 385zM360 512q0 -121 78 -205q76 -82 199 -82q82 0 149.5 43t104.5 111v266q-37 68 -104.5 110t-149.5 42q-123 0 -199 -82 q-78 -84 -78 -203z" />
<glyph unicode="e" horiz-adv-x="1173" d="M74 512q0 227 147 381q147 156 385 156q221 0 354.5 -158t133.5 -383v-76h-734q23 -102 114 -157.5t228 -55.5q170 0 328 90v-231q-137 -105 -389 -105q-240 0 -403.5 147.5t-163.5 391.5zM360 616h449q-4 88 -62.5 146.5t-152.5 58.5q-96 0 -160 -56.5t-74 -148.5z" />
<glyph unicode="f" horiz-adv-x="870" d="M37 780v242h182v96q0 156 90 248t256 92q150 0 260 -43v-233q-92 35 -176 35q-141 0 -141 -138v-57h317v-242h-317v-780h-289v780h-182z" />
<glyph unicode="g" horiz-adv-x="1306" d="M74 537q0 215 133 364q133 147 342 148q217 -1 338 -146v119h289v-903q0 -262 -176.5 -401.5t-415.5 -139.5q-252 0 -402 88v260q162 -98 371 -98q63 0 118.5 13.5t106.5 43t80 86t29 133.5v64q-121 -145 -338 -145q-209 0 -342 147q-133 150 -133 367zM362 534.5 q0 -112.5 77 -187.5t194 -75q82 0 149.5 39t104.5 101v245q-37 61 -104.5 100.5t-149.5 39.5q-121 0 -196 -75t-75 -187.5z" />
<glyph unicode="h" horiz-adv-x="1265" d="M141 0v1434h289v-537q139 152 342 152q176 0 274.5 -112t98.5 -310v-627h-289v567q0 111 -54 164t-140 53q-66 0 -130.5 -38t-101.5 -95v-651h-289z" />
<glyph unicode="i" horiz-adv-x="600" d="M127 1292q0 74 50 124t122 50t122 -50t50 -124q0 -72 -50 -122t-122 -50t-122 50t-50 122zM156 0v1022h288v-1022h-288z" />
<glyph unicode="j" horiz-adv-x="600" d="M-154 -131q72 -39 154 -39q156 0 156 162v1030h288v-1059q0 -182 -99 -283.5t-271 -101.5q-152 0 -228 45v246zM125 1292q0 74 50 124t122 50t123 -50t51 -124q0 -72 -51 -122t-123 -50t-122 50t-50 122z" />
<glyph unicode="k" horiz-adv-x="1226" d="M141 0v1434h289v-785l352 373h355l-445 -461l514 -561h-372l-404 440v-440h-289z" />
<glyph unicode="l" horiz-adv-x="651" d="M141 256v1178h289v-1102q0 -102 92 -103q43 0 74 19v-238q-73 -37 -182 -37q-127 0 -200 69t-73 214z" />
<glyph unicode="m" horiz-adv-x="1896" d="M141 0v1022h289v-125q115 152 311 152q111 0 198 -49.5t120 -125.5q51 78 147.5 126.5t204.5 48.5q168 0 266.5 -106.5t98.5 -303.5v-639h-289v573q0 211 -170 211q-66 0 -125 -38.5t-88 -100.5v-645h-289v573q0 211 -170 211q-61 0 -122.5 -38.5t-92.5 -96.5v-649h-289z " />
<glyph unicode="n" horiz-adv-x="1265" d="M141 0v1022h289v-123q137 150 342 150q176 0 274.5 -112t98.5 -310v-627h-289v567q0 111 -54 164t-140 53q-66 0 -130.5 -38t-101.5 -95v-651h-289z" />
<glyph unicode="o" horiz-adv-x="1280" d="M74 512q0 227 159 381q158 156 408 156t408 -156q159 -155 159 -378q0 -232 -159 -388q-160 -154 -408 -154t-408 154q-159 156 -159 385zM358 512q0 -123 80 -205t203 -82t203 82q80 84 80 205q0 123 -80 203q-80 82 -203 82t-203 -82q-80 -80 -80 -203z" />
<glyph unicode="p" horiz-adv-x="1318" d="M141 -410v1432h289v-125q115 152 336 152q209 0 344 -156q137 -152 137 -383q0 -227 -137 -383q-135 -154 -344 -154q-215 0 -336 152v-535h-289zM430 377q37 -68 104.5 -110t149.5 -42q123 0 199 82q78 84 78 203q0 121 -78 205q-76 82 -199 82q-82 0 -149.5 -43 t-104.5 -111v-266z" />
<glyph unicode="q" horiz-adv-x="1320" d="M74 510q0 229 135 383q137 156 346 156q221 0 336 -152v125h289v-1432h-289v535q-121 -152 -336 -152q-207 0 -346 154q-135 156 -135 383zM360 510q0 -119 78 -203q76 -82 199 -82q82 0 149.5 42t104.5 110v266q-37 68 -104.5 111t-149.5 43q-123 0 -199 -82 q-78 -84 -78 -205z" />
<glyph unicode="r" horiz-adv-x="866" d="M141 0v1022h289v-172q47 82 143 139q100 59 213 60q25 0 33 -2v-283q-41 10 -90 10q-100 0 -183 -52t-116 -126v-596h-289z" />
<glyph unicode="s" horiz-adv-x="1048" d="M88 70v256q74 -49 187.5 -83t230.5 -34q176 0 176 86q0 41 -51 63q-27 12 -53 19l-76 18q-16 4 -44 11.5t-38 11.5q-182 49 -257 117.5t-75 199.5q0 145 120 229.5t331 84.5q233 0 383 -95v-245q-182 106 -371 106q-164 0 -164 -82q0 -16 9.5 -29.5t18.5 -19.5t29 -18 q12 -4 45 -13.5t43 -13.5l109 -23q170 -39 252 -115.5t82 -207.5q0 -143 -125 -231.5t-332 -88.5q-272 0 -430 97z" />
<glyph unicode="t" horiz-adv-x="903" d="M37 780v242h201v281h288v-281h291v-242h-291v-405q0 -76 33 -110t107 -34q76 0 149 37v-239q-90 -55 -244 -56q-333 0 -333 344v463h-201z" />
<glyph unicode="u" horiz-adv-x="1267" d="M123 395v627h289v-567q0 -111 54 -164t140 -53q66 0 130.5 38t101.5 95v651h288v-1022h-288v123q-137 -150 -342 -150q-176 0 -274.5 112t-98.5 310z" />
<glyph unicode="v" horiz-adv-x="1206" d="M27 1022h311l270 -664l269 664h301l-445 -1030h-262z" />
<glyph unicode="w" horiz-adv-x="1693" d="M39 1022h289l202 -608l201 612h232l206 -612l199 608h287l-350 -1030h-250l-213 616l-211 -616h-246z" />
<glyph unicode="x" horiz-adv-x="1189" d="M35 0l391 532l-356 490h323l205 -287l207 287h319l-358 -487l389 -535h-324l-237 328l-240 -328h-319z" />
<glyph unicode="y" horiz-adv-x="1185" d="M12 1022h312l270 -672l256 672h305l-473 -1128q-136 -316 -408 -316q-127 0 -204 41v252q72 -41 155 -41q78 0 130.5 48t97.5 157z" />
<glyph unicode="z" horiz-adv-x="1077" d="M66 0v190l516 590h-484v242h879v-197l-518 -583h551v-242h-944z" />
<glyph unicode="{" horiz-adv-x="837" d="M100 397v230q94 10 126 63t32 176v238q0 158 92 250t250 92h164v-227h-102q-66 0 -104 -40t-38 -106v-291q0 -221 -164 -270q164 -49 164 -270v-291q0 -66 38 -106t104 -40h102v-227h-164q-158 0 -250 92t-92 250v227q0 125 -32.5 182.5t-125.5 67.5z" />
<glyph unicode="|" horiz-adv-x="708" d="M225 -227v1783h258v-1783h-258z" />
<glyph unicode="}" horiz-adv-x="837" d="M74 -195h102q66 0 103.5 40t37.5 106v291q0 221 164 270q-164 49 -164 270v291q0 66 -37.5 106t-103.5 40h-102v227h164q158 0 250 -92t92 -250v-238q0 -123 31.5 -176t125.5 -63v-230q-92 -10 -124.5 -67.5t-32.5 -182.5v-227q0 -158 -92 -250t-250 -92h-164v227z" />
<glyph unicode="~" horiz-adv-x="1288" d="M135 362v259q29 39 96.5 63.5t145.5 24.5q100 0 266 -56q168 -55 266 -55q156 0 244 94v-260q-31 -39 -98.5 -62.5t-145.5 -23.5q-98 0 -266 55q-170 55 -266 56q-154 0 -242 -95z" />
<glyph unicode="&#xa2;" horiz-adv-x="1056" d="M74 514q0 207 119 340q121 139 303 178v230h243v-222q98 -12 197 -59v-248q-133 61 -260 62q-133 0 -227 -78q-90 -78 -90.5 -205t92 -207t225.5 -80q158 0 276 70v-246q-102 -53 -213 -69v-220h-243v228q-182 41 -303 180q-119 139 -119 346z" />
<glyph unicode="&#xa3;" horiz-adv-x="1232" d="M96 0v264h29q84 0 110.5 36t26.5 132v146h-166v227h166v168q0 227 139.5 358t378.5 131q190 0 328 -71v-275q-127 70 -281 70q-270 0 -270 -254v-127h461v-227h-461v-187q0 -90 -59 -127h643v-264h-1045z" />
<glyph unicode="&#xa5;" horiz-adv-x="1378" d="M20 1434h332l340 -512l342 512h322l-441 -639h324v-195h-403v-143h403v-193h-403v-264h-293v264h-402v193h402v143h-402v195h320z" />
<glyph unicode="&#xa8;" horiz-adv-x="1067" d="M168 1317q0 61 45 105t106 44q63 0 107.5 -43t44.5 -106.5t-44.5 -107.5t-107.5 -44q-61 0 -106 44t-45 108zM618.5 1316.5q-0.5 63.5 43.5 106.5q45 43 108.5 43t106.5 -43q45 -43 45 -106.5t-45 -108.5q-43 -43 -106.5 -43t-108.5 43q-43 45 -43.5 108.5z" />
<glyph unicode="&#xa9;" horiz-adv-x="1699" d="M109 717q0 307 217 524q219 221 526 221q309 0 524 -219q215 -217 215 -526q0 -307 -217 -527q-219 -219 -526 -219q-309 0 -524 219.5t-215 526.5zM182 714.5q0 -278.5 193 -476.5q194 -197 473 -197q283 0 475 199q195 201 195 479q0 283 -193 477q-195 197 -473 197 q-283 0 -475 -199q-195 -201 -195 -479.5zM473 717q0 172 123 289q121 119 305 118q117 0 207 -47v-174q-100 59 -207 60q-104 0 -176 -71t-72 -175q0 -106 74 -176q72 -70 182 -70q127 0 215 68v-174q-94 -58 -223 -58q-184 0 -305 119q-123 119 -123 291z" />
<glyph unicode="&#xaa;" horiz-adv-x="907" d="M47 899q0 117 86 183.5t215 66.5q127 0 230 -53v32q0 158 -211 158q-123 0 -232 -65v163q109 63 279 64q162 0 259 -80t97 -219v-268q0 -66 57 -66q27 0 43 10v-145q-39 -27 -106 -27q-133 0 -166 101q-104 -109 -268 -109q-125 0 -204 69.5t-79 184.5zM240 909 q0 -109 147 -108q119 0 191 84v82q-76 49 -177 49q-74 0 -117.5 -29t-43.5 -78z" />
<glyph unicode="&#xab;" horiz-adv-x="1208" d="M66 438v146l280 366h289l-330 -438l330 -440h-289zM573 438v146l281 366h291l-332 -438l332 -440h-291z" />
<glyph unicode="&#xad;" horiz-adv-x="1026" d="M197 438v260h632v-260h-632z" />
<glyph unicode="&#xae;" horiz-adv-x="1699" d="M109 717q0 307 217 524q219 221 526 221q309 0 524 -219q215 -217 215 -526q0 -307 -217 -527q-219 -219 -526 -219q-309 0 -524 219.5t-215 526.5zM182 714.5q0 -278.5 193 -476.5q194 -197 473 -197q283 0 475 199q195 201 195 479q0 283 -193 477q-195 197 -473 197 q-283 0 -475 -199q-195 -201 -195 -479.5zM537 344v784h366q123 0 198 -65.5t75 -169.5q0 -78 -42 -136.5t-118 -80.5l241 -332h-194l-227 311h-125v-311h-174zM711 799h184q104 0 104 88q0 45 -27.5 69.5t-76.5 24.5h-184v-182z" />
<glyph unicode="&#xb2;" horiz-adv-x="729" d="M78 659v142l221 188q133 115 133 191q0 41 -31.5 64.5t-83.5 23.5q-111 0 -213 -80v194q96 66 230 66q117 0 205 -68q90 -66 90 -176q0 -84 -36 -147.5t-128 -145.5l-98 -88h286v-164h-575z" />
<glyph unicode="&#xb3;" horiz-adv-x="671" d="M45 707v180q113 -70 234 -70q63 0 105 28.5t42 76.5q0 45 -36 72.5t-97 27.5q-74 0 -125 -23v121l178 150h-278v164h518v-146l-164 -141q88 -18 144.5 -74.5t56.5 -154.5q0 -121 -97 -199q-96 -74 -231 -74q-145 0 -250 62z" />
<glyph unicode="&#xb4;" horiz-adv-x="937" d="M287 1167l194 299h348l-292 -299h-250z" />
<glyph unicode="&#xb8;" horiz-adv-x="1030" d="M221 -297l240 320h231l-137 -320h-334z" />
<glyph unicode="&#xb9;" horiz-adv-x="516" d="M35 1128v193l215 113h188v-775h-196v574z" />
<glyph unicode="&#xba;" horiz-adv-x="919" d="M39 1047q0 172 119 284q119 117 303 117q182 0 301 -117q119 -113 119 -284q0 -174 -119 -287q-121 -115 -301 -115q-182 0 -303 115q-119 113 -119 287zM248 1046.5q0 -94.5 60.5 -157t152.5 -62.5t151.5 62.5t59.5 157.5q0 92 -59.5 154.5t-151.5 62.5 q-94 0 -153.5 -61.5t-59.5 -156z" />
<glyph unicode="&#xbb;" horiz-adv-x="1206" d="M63 72l330 440l-330 438h289l281 -366v-146l-281 -366h-289zM571 72l330 440l-330 438h289l281 -366v-146l-281 -366h-289z" />
<glyph unicode="&#xbc;" horiz-adv-x="1566" d="M35 1128v193l215 113h188v-775h-196v574zM203 0l864 1434h221l-864 -1434h-221zM848 184v140l379 450h198v-438h111v-152h-111v-184h-188v184h-389zM1047 336h190v221z" />
<glyph unicode="&#xbd;" horiz-adv-x="1650" d="M35 1128v193l215 113h188v-775h-196v574zM203 0l864 1434h221l-864 -1434h-221zM999 0v141l222 189q133 115 133 190q0 41 -32 64.5t-83 23.5q-113 0 -213 -80v195q96 66 229 65q117 0 205 -67q90 -66 90 -176q0 -84 -35.5 -147.5t-128.5 -145.5l-98 -88h287v-164h-576z " />
<glyph unicode="&#xbe;" horiz-adv-x="1654" d="M45 707v180q113 -70 234 -70q63 0 105 28.5t42 76.5q0 45 -36 72.5t-97 27.5q-74 0 -125 -23v121l178 150h-278v164h518v-146l-164 -141q88 -18 144.5 -74.5t56.5 -154.5q0 -121 -97 -199q-96 -74 -231 -74q-145 0 -250 62zM293 0l864 1434h221l-864 -1434h-221zM936 184 v140l379 450h198v-438h111v-152h-111v-184h-188v184h-389zM1135 336h190v221z" />
<glyph unicode="&#x132;" horiz-adv-x="1298" d="M168 59v293q156 -104 350 -104q172 0 255 68.5t83 220.5v897h293v-940q0 -276 -162 -400q-164 -123 -422 -123t-397 88zM168 553v881h293v-881h-293z" />
<glyph unicode="&#x2c6;" horiz-adv-x="1105" d="M170 1167l250 299h278l244 -299h-254l-135 160l-135 -160h-248z" />
<glyph unicode="&#x2da;" horiz-adv-x="1136" d="M324 1331q0 88 63.5 151.5t151.5 63.5t151.5 -63.5t63.5 -151.5t-63.5 -151.5t-151.5 -63.5t-151.5 63.5t-63.5 151.5zM444 1331.5q0 -38.5 27 -67.5q29 -27 68 -27t65 27q29 29 29 67.5t-29 65.5q-27 29 -65.5 28.5t-67.5 -28.5q-27 -27 -27 -65.5z" />
<glyph unicode="&#x2dc;" horiz-adv-x="1042" d="M143 1180q0 121 64 202q66 84 168 84q63 0 145 -45q84 -45 127 -45q70 0 86 84h158q-2 -113 -68 -203q-66 -86 -164 -86q-66 0 -147 46q-84 47 -125 47q-70 0 -88 -84h-156z" />
<glyph unicode="&#x401;" horiz-adv-x="1310" d="M158 0v1434h1052v-265h-757v-276h610v-260h-610v-369h780v-264h-1075zM317 1708q0 61 45.5 105.5t106.5 44.5q63 0 107.5 -43t44.5 -106.5t-44.5 -108t-107.5 -44.5q-61 0 -106.5 44.5t-45.5 107.5zM768 1708q0 64 43 107q45 43 108.5 43t106.5 -43t43 -107t-43 -109 q-43 -43 -106.5 -43t-108.5 43q-43 45 -43 109z" />
<glyph unicode="&#x402;" horiz-adv-x="1595" d="M61 1169v265h1069v-265h-454v-329q147 55 323 55q242 0 385 -131q145 -133 146 -340q0 -190 -129 -315q-125 -125 -344 -125q-102 0 -174 22v240q61 -23 131 -23q100 0 162.5 53.5t62.5 139.5q0 92 -74.5 149.5t-201.5 57.5q-158 0 -287 -60v-563h-293v1169h-322z" />
<glyph unicode="&#x403;" horiz-adv-x="1263" d="M158 0v1434h1034v-265h-739v-1169h-295zM487 1559l195 299h348l-293 -299h-250z" />
<glyph unicode="&#x404;" horiz-adv-x="1376" d="M117 717q0 313 221 528q219 217 547 217q207 0 379 -92v-289q-170 109 -383 109q-154 0 -275 -92q-119 -88 -155 -236h544v-248h-559q31 -164 158 -268q127 -102 293 -102q250 0 403 123v-293q-174 -103 -401 -103q-326 0 -549 217.5t-223 528.5z" />
<glyph unicode="&#x405;" horiz-adv-x="1288" d="M92 125v307q90 -78 238 -135q150 -55 295 -55q121 0 198.5 44t77.5 122q0 84 -74 118q-31 18 -82 37l-49 17l-114 34l-107 35q-23 6 -96 35q-63 25 -92 43q-106 74 -135 125q-49 98 -50 201q0 190 146 299q145 111 395 110q252 0 469 -119v-286q-217 135 -465 135 q-244 0 -244 -141q0 -61 76 -99q45 -25 117 -43q98 -27 156 -45q178 -55 311 -149q143 -100 143 -299q0 -207 -161.5 -326t-407.5 -119q-324 0 -545 154z" />
<glyph unicode="&#x406;" horiz-adv-x="628" d="M168 0v1434h293v-1434h-293z" />
<glyph unicode="&#x407;" horiz-adv-x="628" d="M-61 1708q0 61 45 105.5t106 44.5q63 0 107.5 -43t44.5 -106.5t-44.5 -108t-107.5 -44.5q-61 0 -106 44.5t-45 107.5zM168 0v1434h293v-1434h-293zM389 1708q0 64 43 107q45 43 108.5 43t106.5 -43t43 -107t-43 -109q-43 -43 -106.5 -43t-108.5 43q-43 45 -43 109z" />
<glyph unicode="&#x408;" horiz-adv-x="1044" d="M57 55v291q123 -98 283 -98q139 0 205.5 64.5t66.5 207.5v914h293v-963q0 -137 -40 -237.5t-111.5 -155.5t-159 -81t-193.5 -26q-223 0 -344 84z" />
<glyph unicode="&#x409;" horiz-adv-x="2256" d="M14 12v267q45 -16 105 -17q115 0 155 158q41 162 48 594l6 420h1001v-473h307q256 0 406 -136q150 -131 149.5 -346t-149.5 -346q-152 -133 -406 -133h-600v1169h-424l-8 -290q-16 -506 -115 -695q-100 -190 -354 -190q-78 0 -121 18zM1329 256h289q129 0 202.5 60.5 t73.5 166.5q0 109 -73.5 170.5t-202.5 61.5h-289v-459z" />
<glyph unicode="&#x40a;" horiz-adv-x="2299" d="M158 0v1434h295v-508h626v508h293v-473h307q254 0 406 -136q150 -131 149.5 -346t-149.5 -346q-152 -133 -406 -133h-600v666h-626v-666h-295zM1372 256h289q129 0 202.5 60.5t73.5 166.5q0 109 -73.5 170.5t-202.5 61.5h-289v-459z" />
<glyph unicode="&#x40b;" horiz-adv-x="1640" d="M61 1169v265h1069v-265h-454v-327q150 53 323 53q254 0 391.5 -120t137.5 -349v-426h-293v377q0 131 -67.5 188.5t-206.5 57.5q-158 -1 -285 -62v-561h-293v1169h-322z" />
<glyph unicode="&#x40c;" horiz-adv-x="1445" d="M158 0v1434h295v-566l528 566h360l-608 -658l713 -776h-377l-616 662v-662h-295zM543 1559l194 299h348l-292 -299h-250z" />
<glyph unicode="&#x40e;" horiz-adv-x="1357" d="M23 1434h325l363 -705l317 705h313l-528 -1123q-160 -340 -451 -340q-147 0 -217 41v260q70 -39 166 -39q90 0 144 41q51 39 110 158zM303 1862h217q0 -68 42 -109t114 -41t115 41t45 109h217q-2 -160 -106.5 -255.5t-268.5 -95.5t-268.5 95.5t-106.5 255.5z" />
<glyph unicode="&#x40f;" horiz-adv-x="1507" d="M158 0v1434h295v-1170h600v1170h295v-1434h-457v-293h-279v293h-454z" />
<glyph unicode="&#x410;" horiz-adv-x="1576" d="M33 0l614 1442h283l614 -1442h-313l-141 332h-607l-141 -332h-309zM575 575h420l-209 498z" />
<glyph unicode="&#x411;" horiz-adv-x="1406" d="M158 0v1434h1040v-265h-745v-229h323q252 0 395 -131q147 -133 147.5 -340t-144.5 -340q-146 -129 -398 -129h-618zM453 260h301q129 0 198.5 55.5t69.5 160t-70.5 161.5t-197.5 57h-301v-434z" />
<glyph unicode="&#x412;" horiz-adv-x="1466" d="M158 0v1434h673q199 0 317 -94.5t118 -264.5q0 -104 -51.5 -178t-129.5 -106q117 -25 205 -127q86 -100 86 -256q0 -182 -135 -295q-133 -113 -362 -113h-721zM453 254h370q111 0 172.5 48t61.5 138t-61.5 139.5t-172.5 49.5h-370v-375zM453 872h331q92 0 144.5 41 t52.5 115q0 76 -52 118t-145 42h-331v-316z" />
<glyph unicode="&#x413;" horiz-adv-x="1263" d="M158 0v1434h1034v-265h-739v-1169h-295z" />
<glyph unicode="&#x414;" horiz-adv-x="1628" d="M37 264h141q96 147 144 369q45 213 45 573v228h1007v-1170h197v-557h-277v293h-981v-293h-276v557zM504 264h575v905h-420q0 -297 -33.5 -510t-121.5 -395z" />
<glyph unicode="&#x415;" horiz-adv-x="1310" d="M158 0v1434h1052v-265h-757v-276h610v-260h-610v-369h780v-264h-1075z" />
<glyph unicode="&#x416;" horiz-adv-x="2111" d="M12 0l606 743l-544 691h362l471 -605v605h295v-605l473 605h363l-547 -691l608 -743h-385l-512 633v-633h-295v633l-512 -633h-383z" />
<glyph unicode="&#x417;" horiz-adv-x="1288" d="M72 104v287q94 -66 225 -105.5t252 -39.5q164 0 255 55t91 154q0 86 -81 132t-224 46h-180v248h215q231 0 231 157q0 72 -71.5 112t-196.5 40q-248 0 -459 -107v273q199 106 473 106q250 0 395 -112q150 -113 150 -295q0 -102 -56.5 -177t-138.5 -110q111 -41 178.5 -130 t67.5 -214q0 -190 -164 -324q-161 -129 -444 -129q-311 0 -518 133z" />
<glyph unicode="&#x418;" horiz-adv-x="1560" d="M158 0v1434h295v-934l694 934h254v-1434h-293v940l-702 -940h-248z" />
<glyph unicode="&#x419;" horiz-adv-x="1560" d="M158 0v1434h295v-934l694 934h254v-1434h-293v940l-702 -940h-248zM403 1862h218q0 -68 42 -109t113.5 -41t114.5 41t45 109h217q-2 -160 -106.5 -255.5t-268.5 -95.5t-268.5 95.5t-106.5 255.5z" />
<glyph unicode="&#x41a;" horiz-adv-x="1445" d="M158 0v1434h295v-566l528 566h360l-608 -658l713 -776h-377l-616 662v-662h-295z" />
<glyph unicode="&#x41b;" horiz-adv-x="1499" d="M14 12v267q45 -16 105 -17q115 0 155 158q41 162 48 594l6 420h1011v-1434h-292v1169h-435l-8 -290q-16 -506 -115 -695q-100 -190 -354 -190q-78 0 -121 18z" />
<glyph unicode="&#x41c;" horiz-adv-x="1732" d="M158 0v1434h293l415 -594l416 594h291v-1434h-291v981l-330 -461h-164l-335 461v-981h-295z" />
<glyph unicode="&#x41d;" horiz-adv-x="1552" d="M158 0v1434h295v-537h647v537h293v-1434h-293v629h-647v-629h-295z" />
<glyph unicode="&#x41e;" horiz-adv-x="1703" d="M109 717q0 315 210 528q211 217 533 217q319 0 530 -217q213 -217 213 -528q0 -309 -213 -529q-211 -217 -530 -217q-322 0 -532.5 217.5t-210.5 528.5zM410 717q0 -205 125 -336q127 -133 317 -133q188 0 315 133t127 336t-127 336t-315 133q-190 0 -317 -133 q-125 -131 -125 -336z" />
<glyph unicode="&#x41f;" horiz-adv-x="1517" d="M158 0v1434h1200v-1434h-293v1169h-612v-1169h-295z" />
<glyph unicode="&#x420;" horiz-adv-x="1349" d="M158 0v1434h626q231 0 365 -121q135 -119 135 -312q0 -195 -135 -313q-133 -121 -365 -121h-331v-567h-295zM453 819h311q106 0 165.5 46t59.5 132t-59.5 132.5t-165.5 46.5h-311v-357z" />
<glyph unicode="&#x421;" horiz-adv-x="1386" d="M109 717q0 328 219 536q221 209 557 209q209 0 379 -90v-297q-166 111 -377 111q-203 0 -342 -133q-135 -131 -135 -336t139 -338q137 -131 350 -131q236 0 393 125v-297q-174 -105 -407 -105q-334 0 -555 209q-221 213 -221 537z" />
<glyph unicode="&#x422;" horiz-adv-x="1325" d="M61 1169v265h1203v-265h-455v-1169h-295v1169h-453z" />
<glyph unicode="&#x423;" horiz-adv-x="1357" d="M23 1434h325l363 -705l317 705h313l-528 -1123q-160 -340 -451 -340q-147 0 -217 41v260q70 -39 166 -39q90 0 144 41q51 39 110 158z" />
<glyph unicode="&#x424;" horiz-adv-x="1898" d="M109 729q0 252 180 432q182 182 512 195v131h297v-131q330 -12 512 -195q180 -180 180 -432q0 -250 -180 -432t-512 -195v-157h-297v157q-332 12 -512 194.5t-180 432.5zM412 729q0 -162 102.5 -259t286.5 -101v721q-184 -2 -286.5 -99.5t-102.5 -261.5zM1098 369 q184 4 286.5 101t102.5 259q0 164 -102.5 261.5t-286.5 99.5v-721z" />
<glyph unicode="&#x425;" horiz-adv-x="1484" d="M12 0l559 772l-473 662h344l301 -428l306 428h340l-474 -660l558 -774h-345l-389 535l-387 -535h-340z" />
<glyph unicode="&#x426;" horiz-adv-x="1603" d="M158 0v1434h295v-1170h600v1170h295v-1170h198v-557h-278v293h-1110z" />
<glyph unicode="&#x427;" horiz-adv-x="1417" d="M111 975v459h295v-410q0 -131 66.5 -187.5t207.5 -56.5q160 0 285 62v592h292v-1434h-292v559q-152 -51 -324 -51q-256 0 -393 118.5t-137 348.5z" />
<glyph unicode="&#x428;" horiz-adv-x="2115" d="M158 0v1434h295v-1170h456v1170h293v-1170h459v1170h295v-1434h-1798z" />
<glyph unicode="&#x429;" horiz-adv-x="2211" d="M158 0v1434h295v-1170h458v1170h293v-1170h459v1170h293v-1170h198v-557h-278v293h-1718z" />
<glyph unicode="&#x42a;" horiz-adv-x="1638" d="M41 1169v265h661v-473h316q256 0 405 -136q150 -131 150 -346t-150 -346q-151 -133 -405 -133h-610v1169h-367zM702 260h299q129 0 202 58.5t73 164.5q0 109 -73 168.5t-202 59.5h-299v-451z" />
<glyph unicode="&#x42b;" horiz-adv-x="1900" d="M158 0v1434h295v-473h266q256 0 405 -136q150 -131 150 -346t-150 -346q-151 -133 -405 -133h-561zM453 260h249q129 0 202 58.5t73 164.5q0 109 -73 168.5t-202 59.5h-249v-451zM1446 0v1434h295v-1434h-295z" />
<glyph unicode="&#x42c;" horiz-adv-x="1388" d="M158 0v1434h295v-473h315q256 0 406 -136q150 -131 149.5 -346t-149.5 -346q-152 -133 -406 -133h-610zM453 260h299q129 0 201.5 58.5t72.5 164.5q0 109 -72.5 168.5t-201.5 59.5h-299v-451z" />
<glyph unicode="&#x42d;" horiz-adv-x="1376" d="M94 74v293q154 -123 404 -123q166 0 293 102q127 104 157 268h-559v248h545q-37 147 -156 236q-119 92 -274 92q-213 0 -383 -109v289q172 92 379 92q328 0 547 -217q221 -215 221 -528q0 -311 -223 -528.5t-549 -217.5q-227 0 -402 103z" />
<glyph unicode="&#x42e;" horiz-adv-x="2150" d="M158 0v1434h299v-578h209q43 262 231.5 434t450.5 172q299 0 495 -217q199 -213 199 -528q0 -313 -199 -531q-197 -215 -495 -215q-268 0 -453 172q-182 176 -231 445h-207v-588h-299zM954 717q0 -211 111 -340t283 -129q174 0 284 127q111 129 111 342t-111 340 q-111 129 -284 129q-172 0 -283 -129q-111 -127 -111 -340z" />
<glyph unicode="&#x42f;" horiz-adv-x="1501" d="M35 0l448 612q-141 43 -220 148.5t-79 249.5q0 188 133 305q131 119 361 119h663v-1434h-294v580h-250l-422 -580h-340zM481 1001q0 -84 56.5 -129t156.5 -45h353v349h-353q-100 0 -156.5 -46.5t-56.5 -128.5z" />
<glyph unicode="&#x430;" horiz-adv-x="1232" d="M57 315q0 164 119 250t285 86q174 0 295 -63v30q0 193 -271 193q-166 0 -309 -86v242q156 82 379 82q221 0 352 -107q135 -106 135 -295v-346q0 -78 72 -78q37 0 60 13v-211q-55 -43 -156 -43q-174 0 -232 131q-135 -139 -352 -140q-168 0 -272.5 94.5t-104.5 247.5z M342 330q0 -66 49 -99.5t133 -33.5q152 0 232 104v102q-90 59 -213 60q-92 0 -146.5 -35t-54.5 -98z" />
<glyph unicode="&#x431;" horiz-adv-x="1247" d="M80 639q0 207 57.5 347t184.5 233q131 96 299 151q166 57 436 100v-268l-109 -18l-106 -19q-43 -8 -97 -20q-80 -16 -174 -51q-66 -25 -133 -86q-84 -74 -96 -226q137 174 381 174q201 0 326 -125q127 -127 127 -331q0 -231 -154 -379q-150 -147 -381 -148 q-272 0 -416 181q-145 182 -145 485zM362 561q2 -166 75 -255t202 -89q111 0 181.5 74t70.5 188q0 109 -67.5 173.5t-174.5 64.5q-84 0 -163.5 -44t-123.5 -112z" />
<glyph unicode="&#x432;" horiz-adv-x="1198" d="M141 0v1022h578q156 0 242 -72.5t86 -189.5q0 -154 -125 -217q195 -68 194 -262q0 -131 -98.5 -206t-274.5 -75h-602zM426 203h246q150 0 149.5 114.5t-149.5 114.5h-246v-229zM426 614h201q137 0 137 104.5t-137 104.5h-201v-209z" />
<glyph unicode="&#x433;" horiz-adv-x="991" d="M141 0v1022h811v-242h-522v-780h-289z" />
<glyph unicode="&#x434;" horiz-adv-x="1384" d="M41 242h131q117 182 123 581l4 199h860v-780h168v-502h-272v260h-738v-260h-276v502zM467 242h410v538h-320q0 -317 -90 -538z" />
<glyph unicode="&#x435;" horiz-adv-x="1173" d="M74 512q0 227 147 381q147 156 385 156q221 0 354.5 -158t133.5 -383v-76h-734q23 -102 114 -157.5t228 -55.5q170 0 328 90v-231q-137 -105 -389 -105q-240 0 -403.5 147.5t-163.5 391.5zM360 616h449q-4 88 -62.5 146.5t-152.5 58.5q-96 0 -160 -56.5t-74 -148.5z" />
<glyph unicode="&#x436;" horiz-adv-x="1701" d="M27 0l440 545l-395 477h325l312 -385v385h284v-385l310 385h325l-395 -477l442 -545h-344l-338 436v-436h-284v436l-340 -436h-342z" />
<glyph unicode="&#x437;" horiz-adv-x="1089" d="M102 51v234q158 -82 357 -82q117 0 181.5 30.5t64.5 88.5q0 100 -181 100h-200v209h200q147 0 148 90q0 98 -209 98q-190 0 -332 -69v225q158 74 395 74q186 0 314 -80q127 -80 127 -201q0 -170 -148 -219q84 -27 136.5 -89.5t52.5 -154.5q0 -145 -142 -239 q-137 -93 -366 -93q-238 0 -398 78z" />
<glyph unicode="&#x438;" horiz-adv-x="1300" d="M141 0v1022h285v-602l463 602h270v-1022h-285v602l-462 -602h-271z" />
<glyph unicode="&#x439;" horiz-adv-x="1300" d="M141 0v1022h285v-602l463 602h270v-1022h-285v602l-462 -602h-271zM279 1485h217q0 -68 41 -109t110.5 -41t109.5 41t42 109h219q-2 -162 -107 -256q-102 -94 -262 -94q-164 0 -266 95t-104 255z" />
<glyph unicode="&#x43a;" horiz-adv-x="1226" d="M141 0v1022h289v-373l352 373h355l-445 -461l514 -561h-372l-404 440v-440h-289z" />
<glyph unicode="&#x43b;" horiz-adv-x="1296" d="M41 10v236q23 -8 59 -8q100 0 133 131q31 117 33 352l6 301h883v-1022h-289v780h-315l-4 -143q-10 -227 -47 -358q-39 -137 -122 -210t-228 -77q-76 0 -109 18z" />
<glyph unicode="&#x43c;" horiz-adv-x="1447" d="M141 0v1022h285l297 -381l299 381h285v-1022h-273v631l-254 -318h-114l-252 318v-631h-273z" />
<glyph unicode="&#x43d;" horiz-adv-x="1280" d="M141 0v1022h289v-379h420v379h289v-1022h-289v401h-420v-401h-289z" />
<glyph unicode="&#x43e;" horiz-adv-x="1280" d="M74 512q0 227 159 381q158 156 408 156t408 -156q160 -156 159 -381q0 -229 -159 -385q-160 -154 -408 -154t-408 154q-159 156 -159 385zM358 512q0 -123 80 -205t203 -82t203 82q80 84 80 205q0 123 -80 203q-80 82 -203 82t-203 -82q-80 -80 -80 -203z" />
<glyph unicode="&#x43f;" horiz-adv-x="1267" d="M141 0v1022h985v-1022h-288v780h-408v-780h-289z" />
<glyph unicode="&#x440;" horiz-adv-x="1318" d="M141 -410v1432h289v-125q115 152 336 152q209 0 344 -156q137 -152 137 -383q0 -227 -137 -383q-135 -154 -344 -154q-215 0 -336 152v-535h-289zM430 377q37 -68 104.5 -110t149.5 -42q123 0 199 82q78 84 78 203q0 121 -78 205q-76 82 -199 82q-82 0 -149.5 -43 t-104.5 -111v-266z" />
<glyph unicode="&#x441;" horiz-adv-x="1056" d="M74 514.5q0 241.5 164 386.5q166 147 395 148q168 0 303 -68v-246q-133 61 -260 62q-135 0 -227 -80q-90 -78 -90.5 -205t92 -207t225.5 -80q158 0 276 70v-246q-143 -76 -323 -76q-227 0 -391 148q-164 152 -164 393.5z" />
<glyph unicode="&#x442;" horiz-adv-x="991" d="M31 780v242h932v-242h-324v-780h-289v780h-319z" />
<glyph unicode="&#x443;" horiz-adv-x="1185" d="M12 1022h312l270 -672l256 672h305l-473 -1128q-136 -316 -408 -316q-127 0 -204 41v252q72 -41 155 -41q78 0 130.5 48t97.5 157z" />
<glyph unicode="&#x444;" horiz-adv-x="1554" d="M74 512q0 223 148.5 362.5t414.5 159.5v400h285v-400q262 -12 411 -157q150 -143 150 -365q0 -225 -146.5 -363.5t-414.5 -158.5v-400h-285v400q-262 8 -416 155q-147 147 -147 367zM352 512q0 -127 77 -206t208 -85v580q-131 -8 -208 -85t-77 -204zM922 221 q131 6 207.5 85t76.5 206t-76.5 204t-207.5 85v-580z" />
<glyph unicode="&#x445;" horiz-adv-x="1214" d="M35 0l391 532l-356 490h323l205 -287l207 287h319l-358 -487l389 -535h-324l-237 328l-240 -328h-319z" />
<glyph unicode="&#x446;" horiz-adv-x="1355" d="M141 0v1022h289v-780h412v780h288v-780h168v-502h-278v260h-879z" />
<glyph unicode="&#x447;" horiz-adv-x="1181" d="M92 719v303h289v-274q0 -111 44 -157t148 -46q109 0 179 39v438h288v-1022h-288v336q-100 -35 -224 -35q-436 0 -436 418z" />
<glyph unicode="&#x448;" horiz-adv-x="1761" d="M141 0v1022h285v-780h311v780h283v-780h317v780h283v-1022h-1479z" />
<glyph unicode="&#x449;" horiz-adv-x="1845" d="M141 0v1022h285v-780h311v780h283v-780h317v780h283v-780h168v-502h-260v260h-1387z" />
<glyph unicode="&#x44a;" horiz-adv-x="1341" d="M29 780v242h575v-299h246q193 0 307.5 -98.5t114.5 -262.5q0 -156 -107 -260q-108 -102 -301 -102h-549v780h-286zM604 223h201q84 0 131 37t47 104.5t-47 105.5t-131 38h-201v-285z" />
<glyph unicode="&#x44b;" horiz-adv-x="1609" d="M141 0v1022h289v-299h209q193 0 307.5 -98.5t114.5 -262.5q0 -156 -107 -260q-108 -102 -301 -102h-512zM430 223h164q84 0 131 37t47 104.5t-47 105.5t-131 38h-164v-285zM1184 0v1022h284v-1022h-284z" />
<glyph unicode="&#x44c;" horiz-adv-x="1167" d="M141 0v1022h289v-299h246q193 0 307.5 -98.5t114.5 -262.5q0 -156 -107 -260q-108 -102 -301 -102h-549zM430 223h201q84 0 131 37t47 104.5t-47 105.5t-131 38h-201v-285z" />
<glyph unicode="&#x44d;" horiz-adv-x="1046" d="M100 47v236q131 -70 275 -70q117 0 202 55.5t105 145.5h-377v200h375q-23 90 -105.5 143.5t-199.5 53.5q-131 0 -254 -59v231q135 66 299 66q227 0 391 -148q164 -145 164 -387q0 -246 -164 -393.5t-391 -147.5q-186 0 -320 74z" />
<glyph unicode="&#x44e;" horiz-adv-x="1714" d="M141 0v1022h289v-377h170q41 178 176 291q137 113 336 113q233 0 381 -156q150 -152 149.5 -381t-149.5 -385q-148 -154 -381 -154q-203 0 -346 121q-137 119 -172 309h-164v-403h-289zM862 512q0 -121 68 -205q69 -82 182 -82q109 0 177.5 82t68.5 205t-68.5 204 t-177.5 81q-111 0 -180.5 -81t-69.5 -204z" />
<glyph unicode="&#x44f;" horiz-adv-x="1214" d="M51 0l275 389q-203 74 -203 301q0 150 103.5 241t297.5 91h549v-1022h-289v338h-174l-235 -338h-324zM418 671.5q0 -59.5 40.5 -92t112.5 -32.5h213v250h-213q-72 0 -112.5 -33t-40.5 -92.5z" />
<glyph unicode="&#x451;" horiz-adv-x="1173" d="M74 512q0 227 147 381q147 156 385 156q221 0 354.5 -158t133.5 -383v-76h-734q23 -102 114 -157.5t228 -55.5q170 0 328 90v-231q-137 -105 -389 -105q-240 0 -403.5 147.5t-163.5 391.5zM213 1317q0 61 45 105t107 44q63 0 107 -43t44 -106.5t-44 -107.5t-107 -44 q-61 0 -106.5 44t-45.5 108zM360 616h449q-4 88 -62.5 146.5t-152.5 58.5q-96 0 -160 -56.5t-74 -148.5zM664 1316.5q0 63.5 43 106.5q45 43 108.5 43t106.5 -43q45 -43 45 -106.5t-45 -108.5q-43 -43 -106.5 -43t-108.5 43q-43 45 -43 108.5z" />
<glyph unicode="&#x452;" horiz-adv-x="1361" d="M29 1061v190h209v183h288v-183h328v-190h-328v-309q139 152 342 151q176 0 274.5 -111.5t98.5 -310.5v-518q0 -182 -99.5 -283.5t-271.5 -101.5q-152 0 -227 45v246q72 -39 154 -39q156 0 155 162v430q0 111 -54 164t-140 53q-66 0 -130.5 -38t-101.5 -95v-506h-288v1061 h-209z" />
<glyph unicode="&#x453;" horiz-adv-x="991" d="M141 0v1022h811v-242h-522v-780h-289zM340 1167l195 299h348l-293 -299h-250z" />
<glyph unicode="&#x454;" horiz-adv-x="1052" d="M82 514q0 242 164 387q164 147 391 148q164 0 299 -66v-231q-123 59 -254 59q-117 0 -200 -53t-105 -144h375v-200h-377q20 -90 105 -145.5t202 -55.5q143 0 274 70v-236q-133 -74 -319 -74q-227 0 -391 147.5t-164 393.5z" />
<glyph unicode="&#x455;" horiz-adv-x="1003" d="M74 70v256q74 -49 187.5 -83t230.5 -34q176 0 176 86q0 41 -52 63q-27 12 -53 19l-76 18q-16 4 -43.5 11.5t-37.5 11.5q-182 49 -257 117.5t-75 199.5q0 145 119.5 229.5t330.5 84.5q233 0 383 -95v-245q-182 106 -370 106q-164 0 -164 -82q0 -16 9 -29.5t18.5 -19.5 t29.5 -18q12 -4 45 -13.5t43 -13.5l109 -23q170 -39 252 -115.5t82 -207.5q0 -143 -125 -231.5t-332 -88.5q-272 0 -430 97z" />
<glyph unicode="&#x456;" horiz-adv-x="600" d="M127 1292q0 74 50 124t122 50t122 -50t50 -124q0 -72 -50 -122t-122 -50t-122 50t-50 122zM156 0v1022h288v-1022h-288z" />
<glyph unicode="&#x457;" horiz-adv-x="544" d="M-104 1317q0 61 45 105t106 44q63 0 107.5 -43t44.5 -106.5t-44.5 -107.5t-107.5 -44q-61 0 -106 44t-45 108zM129 0v1022h289v-1022h-289zM346 1316.5q0 63.5 43 106.5q45 43 108.5 43t106.5 -43q45 -43 45 -106.5t-45 -108.5q-43 -43 -106.5 -43t-108.5 43 q-43 45 -43 108.5z" />
<glyph unicode="&#x458;" horiz-adv-x="600" d="M-154 -131q72 -39 154 -39q156 0 156 162v1030h288v-1059q0 -182 -99 -283.5t-271 -101.5q-152 0 -228 45v246zM125 1292q0 74 50 124t122 50t123 -50t51 -124q0 -72 -51 -122t-123 -50t-122 50t-50 122z" />
<glyph unicode="&#x459;" horiz-adv-x="1882" d="M41 10v236q23 -8 59 -8q109 0 140 141q31 125 30 395l2 248h873v-299h246q193 0 307 -98.5t114 -262.5q0 -156 -106 -260q-108 -102 -301 -102h-549v780h-305q-12 -322 -33 -428q-63 -328 -313 -356q-37 -4 -55 -4q-76 0 -109 18zM1145 223h201q84 0 131 37t47 104.5 t-47 105.5t-131 38h-201v-285z" />
<glyph unicode="&#x45a;" horiz-adv-x="1861" d="M141 0v1022h289v-354h406v354h288v-299h246q193 0 307.5 -98.5t114.5 -262.5q0 -156 -106 -260q-109 -102 -302 -102h-548v436h-406v-436h-289zM1124 223h201q84 0 131 37t47 104.5t-47 105.5t-131 38h-201v-285z" />
<glyph unicode="&#x45b;" horiz-adv-x="1361" d="M29 1061v190h209v183h288v-183h328v-190h-328v-309q139 152 342 151q176 0 274.5 -111.5t98.5 -310.5v-481h-289v422q0 111 -54 164t-140 53q-66 0 -130.5 -38t-101.5 -95v-506h-288v1061h-209z" />
<glyph unicode="&#x45c;" horiz-adv-x="1226" d="M141 0v1022h289v-373l352 373h355l-445 -461l514 -561h-372l-404 440v-440h-289zM467 1167l195 299h348l-293 -299h-250z" />
<glyph unicode="&#x45e;" horiz-adv-x="1185" d="M12 1022h312l270 -672l256 672h305l-473 -1128q-136 -316 -408 -316q-127 0 -204 41v252q72 -41 155 -41q78 0 130.5 48t97.5 157zM213 1485h217q0 -68 41 -109t110.5 -41t109.5 41t42 109h219q-2 -162 -106 -256q-102 -94 -262 -94q-164 0 -266.5 95t-104.5 255z" />
<glyph unicode="&#x45f;" horiz-adv-x="1271" d="M141 0v1022h289v-780h412v780h288v-1022h-354v-260h-280v260h-355z" />
<glyph unicode="&#x490;" horiz-adv-x="1259" d="M158 0v1434h764v284h266v-549h-735v-1169h-295z" />
<glyph unicode="&#x491;" horiz-adv-x="991" d="M141 0v1022h547v254h264v-496h-522v-780h-289z" />
<glyph unicode="&#x2000;" horiz-adv-x="965" />
<glyph unicode="&#x2001;" horiz-adv-x="1931" />
<glyph unicode="&#x2002;" horiz-adv-x="965" />
<glyph unicode="&#x2003;" horiz-adv-x="1931" />
<glyph unicode="&#x2004;" horiz-adv-x="643" />
<glyph unicode="&#x2005;" horiz-adv-x="482" />
<glyph unicode="&#x2006;" horiz-adv-x="321" />
<glyph unicode="&#x2007;" horiz-adv-x="321" />
<glyph unicode="&#x2008;" horiz-adv-x="241" />
<glyph unicode="&#x2009;" horiz-adv-x="386" />
<glyph unicode="&#x200a;" horiz-adv-x="107" />
<glyph unicode="&#x2010;" horiz-adv-x="1026" d="M197 438v260h632v-260h-632z" />
<glyph unicode="&#x2011;" horiz-adv-x="1026" d="M197 438v260h632v-260h-632z" />
<glyph unicode="&#x2012;" horiz-adv-x="1026" d="M197 438v260h632v-260h-632z" />
<glyph unicode="&#x2013;" horiz-adv-x="1579" d="M197 438v260h1185v-260h-1185z" />
<glyph unicode="&#x2014;" horiz-adv-x="1878" d="M197 438v260h1484v-260h-1484z" />
<glyph unicode="&#x2018;" horiz-adv-x="593" d="M51 813l248 621h238l-177 -621h-309z" />
<glyph unicode="&#x2019;" horiz-adv-x="593" d="M53 813l176 621h310l-248 -621h-238z" />
<glyph unicode="&#x201a;" horiz-adv-x="573" d="M12 -311l176 620h310l-248 -620h-238z" />
<glyph unicode="&#x201c;" horiz-adv-x="1038" d="M51 813l248 621h238l-177 -621h-309zM496 813l247 621h238l-176 -621h-309z" />
<glyph unicode="&#x201d;" horiz-adv-x="1038" d="M53 813l176 621h310l-248 -621h-238zM498 813l176 621h309l-248 -621h-237z" />
<glyph unicode="&#x201e;" horiz-adv-x="1017" d="M12 -311l176 620h310l-248 -620h-238zM457 -311l176 620h309l-248 -620h-237z" />
<glyph unicode="&#x2026;" horiz-adv-x="1542" d="M92 158q0 74 51.5 125t126.5 51q74 0 126.5 -51.5t52.5 -124.5q0 -76 -52.5 -128.5t-126.5 -52.5q-76 0 -127 52.5t-51 128.5zM594 158q0 74 52 125t126 51t126 -51.5t52 -124.5q0 -76 -52 -128.5t-126 -52.5t-126 52.5t-52 128.5zM1096 158q0 74 52 125t126 51 t126 -51.5t52 -124.5q0 -76 -52 -128.5t-126 -52.5t-126 52.5t-52 128.5z" />
<glyph unicode="&#x202f;" horiz-adv-x="386" />
<glyph unicode="&#x2030;" horiz-adv-x="2480" d="M50 1096q0 148 102 250q100 100 259.5 100t260.5 -100q102 -102 102 -250t-102 -250q-100 -100 -260 -100.5t-260 100.5q-102 102 -102 250zM248 1095.5q0 -71.5 45 -118.5q47 -47 119 -47q70 0 116.5 47t46.5 118.5t-47 119t-116 47.5q-72 0 -119 -48 q-45 -47 -45 -118.5zM307 0l856 1434h207l-856 -1434h-207zM899 338q0 148 102 250q100 100 260 100t261 -100q102 -102 102 -250t-102 -250q-100 -100 -260 -100t-261 100q-102 102 -102 250zM1098 338q0 -72 45 -119q47 -47 119 -47q70 0 116.5 47t46.5 119t-47 119 t-116 47q-72 0 -119 -47q-45 -47 -45 -119zM1704 336q0 148 102 250q100 100 260 100t261 -100q102 -102 102 -250t-102 -250q-100 -100 -260 -100t-261 100q-102 102 -102 250zM1903 336q0 -72 45 -119q47 -47 118 -47q70 0 117 47t47 119t-47 119t-117 47q-72 0 -118 -47 q-45 -47 -45 -119z" />
<glyph unicode="&#x2039;" horiz-adv-x="698" d="M66 438v146l280 366h289l-330 -438l330 -440h-289z" />
<glyph unicode="&#x203a;" horiz-adv-x="698" d="M63 72l330 440l-330 438h289l281 -366v-146l-281 -366h-289z" />
<glyph unicode="&#x2044;" horiz-adv-x="460" d="M-311 0l864 1434h221l-864 -1434h-221z" />
<glyph unicode="&#x205f;" horiz-adv-x="482" />
<glyph unicode="&#x2070;" horiz-adv-x="776" d="M39 1046.5q0 161.5 92 282.5q94 119 258 119q162 0 254 -119q94 -119 94 -282.5t-94 -282.5q-92 -119 -254 -119q-164 0 -258 119q-92 121 -92 282.5zM241.5 977q8.5 -70 49.5 -118t98 -44q57 -4 96 44t48.5 118t0 139.5t-48.5 117.5t-96 44q-57 4 -98 -44t-49.5 -117.5 t0 -139.5z" />
<glyph unicode="&#x2074;" horiz-adv-x="745" d="M27 844v139l379 451h198v-439h111v-151h-111v-185h-188v185h-389zM225 995h191v222z" />
<glyph unicode="&#x2075;" horiz-adv-x="677" d="M51 700v183q102 -66 221 -66q66 0 109 27.5t43 79.5q0 47 -41 75.5t-113 28.5q-96 0 -194 -31l51 437h442v-164h-295l-10 -99q20 4 53 5q135 0 219.5 -69t84.5 -183q0 -133 -99 -207q-100 -72 -241 -72q-133 0 -230 55z" />
<glyph unicode="&#x2076;" horiz-adv-x="722" d="M53 1008q0 184 94 311q94 129 279 129q115 0 184 -47v-172q-70 49 -161 49q-80 0 -132.5 -46t-58.5 -126q57 70 164 70q113 0 183.5 -69t70.5 -185q0 -123 -85 -200t-214 -77q-154 0 -239 97.5t-85 265.5zM242 954q2 -70 35.5 -110.5t87 -40.5t85 33.5t31.5 85.5 q0 45 -33.5 77.5t-82.5 32.5q-37 0 -72 -21.5t-51 -56.5z" />
<glyph unicode="&#x2077;" horiz-adv-x="665" d="M43 1270v164h578v-154l-320 -621h-213l309 611h-354z" />
<glyph unicode="&#x2078;" horiz-adv-x="735" d="M43 885q0 59 41 112.5t98 73.5q-45 20 -73.5 63.5t-28.5 94.5q0 96 82 157.5t207 61.5q123 0 204.5 -61.5t81.5 -157.5q0 -49 -29.5 -93t-72.5 -65q61 -20 100 -72.5t39 -113.5q0 -113 -92 -176.5t-231 -63.5q-141 0 -233.5 63.5t-92.5 176.5zM240 901q0 -43 36 -70.5 t93 -27.5q55 0 91 28.5t36 69.5q0 45 -36 72.5t-91 27.5q-57 0 -93 -27.5t-36 -72.5zM260 1208q0 -37 31 -60.5t78 -23.5q45 0 74.5 23.5t29.5 60.5q0 39 -29.5 62.5t-74.5 23.5q-47 0 -78 -23.5t-31 -62.5z" />
<glyph unicode="&#x2079;" horiz-adv-x="722" d="M53 1171q0 121 84 199q88 78 213 78q154 0 240 -97.5t86 -265.5q0 -180 -96 -311q-96 -129 -277 -129q-117 0 -186 47v172q72 -49 162 -49q80 0 132 46t60 126q-63 -70 -166 -69q-111 0 -181.5 69.5t-70.5 183.5zM248 1171q0 -45 32.5 -77.5t81.5 -32.5q86 0 123 78 q-2 70 -35.5 110.5t-84.5 40.5q-53 0 -85 -33.5t-32 -85.5z" />
<glyph unicode="&#x2080;" horiz-adv-x="776" d="M39 387q0 162 92 283q94 119 258 118q162 0 254 -118q94 -119 94 -283t-94 -283q-92 -118 -254 -118q-164 0 -258 118q-92 121 -92 283zM241.5 317.5q8.5 -69.5 49.5 -117.5t98 -44q57 -4 96 44t48.5 117.5t0 139t-48.5 118t-96 43.5q-57 4 -98 -44t-49.5 -117.5t0 -139z " />
<glyph unicode="&#x2081;" horiz-adv-x="516" d="M35 469v193l215 112h188v-774h-196v573z" />
<glyph unicode="&#x2082;" horiz-adv-x="729" d="M78 0v141l221 189q133 115 133 190q0 41 -31.5 64.5t-83.5 23.5q-111 0 -213 -80v195q96 66 230 65q117 0 205 -67q90 -66 90 -176q0 -84 -36 -147.5t-128 -145.5l-98 -88h286v-164h-575z" />
<glyph unicode="&#x2083;" horiz-adv-x="671" d="M45 47v180q113 -70 234 -69q63 0 105 28.5t42 75.5q0 45 -36 72.5t-97 27.5q-74 0 -125 -22v121l178 149h-278v164h518v-145l-164 -142q88 -18 144.5 -74.5t56.5 -154.5q0 -121 -97 -199q-96 -73 -231 -73q-145 0 -250 61z" />
<glyph unicode="&#x2084;" horiz-adv-x="745" d="M27 184v140l379 450h198v-438h111v-152h-111v-184h-188v184h-389zM225 336h191v221z" />
<glyph unicode="&#x2085;" horiz-adv-x="677" d="M51 41v182q102 -66 221 -65q66 0 109 27.5t43 78.5q0 47 -41 76t-113 29q-96 0 -194 -31l51 436h442v-164h-295l-10 -98q20 4 53 4q135 0 219.5 -68.5t84.5 -183.5q0 -133 -99 -207q-100 -71 -241 -71q-133 0 -230 55z" />
<glyph unicode="&#x2086;" horiz-adv-x="722" d="M53 348q0 184 94 311q96 129 279 129q115 0 184 -47v-172q-70 49 -161 49q-80 0 -132.5 -46t-58.5 -126q57 70 164 70q113 0 183.5 -68.5t70.5 -185.5q0 -123 -85 -199.5t-214 -76.5q-154 0 -239 97t-85 265zM242 295q2 -70 35.5 -111t87 -41t85 34t31.5 85 q0 45 -33.5 78t-82.5 33q-37 0 -72 -21.5t-51 -56.5z" />
<glyph unicode="&#x2087;" horiz-adv-x="665" d="M43 610v164h578v-153l-320 -621h-213l309 610h-354z" />
<glyph unicode="&#x2088;" horiz-adv-x="735" d="M43 225q0 59 41 112.5t98 74.5q-45 20 -73.5 63t-28.5 94q0 96 82 157.5t207 61.5q123 0 204.5 -61t81.5 -158q0 -49 -29.5 -93t-72.5 -64q61 -20 100 -72.5t39 -114.5q0 -113 -92 -176t-231 -63q-141 0 -233.5 63.5t-92.5 175.5zM240 242q0 -43 36 -71t93 -28 q55 0 91 29t36 70q0 45 -36 72.5t-91 27.5q-57 0 -93 -27.5t-36 -72.5zM260 549q0 -37 31 -60.5t78 -23.5q45 0 74.5 23.5t29.5 60.5q0 39 -29.5 62.5t-74.5 23.5q-47 0 -78 -23.5t-31 -62.5z" />
<glyph unicode="&#x2089;" horiz-adv-x="722" d="M53 510q0 121 84 199q88 77 213 77q154 0 240 -97t86 -265q0 -180 -96 -311q-96 -129 -277 -129q-117 0 -186 47v172q70 -49 162 -49q80 0 132 46t60 126q-63 -70 -166 -70q-111 0 -181.5 69.5t-70.5 184.5zM248 510q0 -45 32.5 -78t81.5 -33q86 0 123 78 q-2 70 -35.5 111t-84.5 41q-53 0 -85 -34t-32 -85z" />
<glyph unicode="&#x20ac;" horiz-adv-x="1353" d="M61 489v179h142q-2 16 -2 67q0 8 4 70h-144v176h179q63 215 239 348t420 133q190 0 330 -76v-278q-139 84 -293 84q-276 0 -377 -211h387v-176h-440q-4 -61 -4 -74q0 -18 4 -63h440v-179h-401q45 -119 147.5 -183t243.5 -64q188 0 324 104v-289q-145 -86 -361 -86 q-260 0 -434 142q-178 147 -236 376h-168z" />
<glyph unicode="&#x2122;" horiz-adv-x="1400" d="M35 1288v146h551v-146h-195v-491h-162v491h-194zM670 797v637h149l170 -232l166 232h152v-637h-162v379l-115 -152h-82l-119 154v-381h-159z" />
<glyph unicode="&#x2153;" horiz-adv-x="1624" d="M35 1128v193l215 113h188v-775h-196v574zM203 0l864 1434h221l-864 -1434h-221zM997 47v180q113 -70 234 -69q63 0 105 28.5t42 75.5q0 45 -35.5 72.5t-97.5 27.5q-74 0 -125 -22v121l178 149h-278v164h518v-145l-164 -142q88 -18 144.5 -74.5t56.5 -154.5 q0 -121 -96 -199q-95 -73 -232 -73q-145 0 -250 61z" />
<glyph unicode="&#x2154;" horiz-adv-x="1816" d="M78 659v142l221 188q133 115 133 191q0 41 -31.5 64.5t-83.5 23.5q-111 0 -213 -80v194q96 66 230 66q117 0 205 -68q90 -66 90 -176q0 -84 -36 -147.5t-128 -145.5l-98 -88h286v-164h-575zM395 0l865 1434h221l-865 -1434h-221zM1190 47v180q113 -70 233 -69 q63 0 105.5 28.5t42.5 75.5q0 45 -36 72.5t-97 27.5q-74 0 -125 -22v121l178 149h-279v164h519v-145l-164 -142q88 -18 144 -74.5t56 -154.5q0 -121 -96 -199q-94 -73 -231 -73q-145 0 -250 61z" />
<glyph unicode="&#x2155;" horiz-adv-x="1587" d="M35 1128v193l215 113h188v-775h-196v574zM203 0l864 1434h221l-864 -1434h-221zM961 41v182q102 -66 221 -65q66 0 108.5 27.5t42.5 78.5q0 47 -41 76t-112 29q-96 0 -195 -31l51 436h443v-164h-295l-10 -98q20 4 53 4q135 0 219 -68.5t84 -183.5q0 -133 -98 -207 q-101 -71 -242 -71q-133 0 -229 55z" />
<glyph unicode="&#x2156;" horiz-adv-x="1779" d="M78 659v142l221 188q133 115 133 191q0 41 -31.5 64.5t-83.5 23.5q-111 0 -213 -80v194q96 66 230 66q117 0 205 -68q90 -66 90 -176q0 -84 -36 -147.5t-128 -145.5l-98 -88h286v-164h-575zM395 0l865 1434h221l-865 -1434h-221zM1153 41v182q102 -66 221 -65 q66 0 109 27.5t43 78.5q0 47 -41 76t-113 29q-96 0 -194 -31l51 436h442v-164h-295l-10 -98q20 4 53 4q135 0 219 -68.5t84 -183.5q0 -133 -98 -207q-101 -71 -242 -71q-133 0 -229 55z" />
<glyph unicode="&#x2157;" horiz-adv-x="1675" d="M45 707v180q113 -70 234 -70q63 0 105 28.5t42 76.5q0 45 -36 72.5t-97 27.5q-74 0 -125 -23v121l178 150h-278v164h518v-146l-164 -141q88 -18 144.5 -74.5t56.5 -154.5q0 -121 -97 -199q-96 -74 -231 -74q-145 0 -250 62zM293 0l864 1434h221l-864 -1434h-221zM1049 41 v182q102 -66 221 -65q66 0 108.5 27.5t42.5 78.5q0 47 -41 76t-112 29q-96 0 -195 -31l51 436h443v-164h-295l-10 -98q20 4 53 4q135 0 219 -68.5t84 -183.5q0 -133 -98 -207q-101 -71 -242 -71q-135 0 -229 55z" />
<glyph unicode="&#x2158;" horiz-adv-x="1761" d="M27 844v139l379 451h198v-439h111v-151h-111v-185h-188v185h-389zM225 995h191v222zM379 0l864 1434h221l-864 -1434h-221zM1135 41v182q102 -66 221 -65q66 0 108.5 27.5t42.5 78.5q0 47 -41 76t-112 29q-96 0 -195 -31l51 436h443v-164h-295l-10 -98q20 4 53 4 q135 0 219 -68.5t84 -183.5q0 -133 -98 -207q-101 -71 -242 -71q-135 0 -229 55z" />
<glyph unicode="&#x2159;" horiz-adv-x="1591" d="M35 1128v193l215 113h188v-775h-196v574zM203 0l864 1434h221l-864 -1434h-221zM922 348q0 184 94 311q94 129 278 129q115 0 185 -47v-172q-70 49 -162 49q-80 0 -132 -46t-59 -126q57 70 164 70q113 0 183.5 -68.5t70.5 -185.5q0 -125 -86 -201q-84 -75 -213 -75 q-154 0 -238.5 97t-84.5 265zM1110 295q2 -70 36 -111t87 -41t85 34t32 85q0 45 -34 78t-83 33q-37 0 -72 -21.5t-51 -56.5z" />
<glyph unicode="&#x215a;" horiz-adv-x="1679" d="M51 700v183q102 -66 221 -66q66 0 109 27.5t43 79.5q0 47 -41 75.5t-113 28.5q-96 0 -194 -31l51 437h442v-164h-295l-10 -99q20 4 53 5q135 0 219.5 -69t84.5 -183q0 -133 -99 -207q-100 -72 -241 -72q-133 0 -230 55zM291 0l864 1434h221l-864 -1434h-221zM1010 348 q0 184 94 311q96 129 278 129q115 0 185 -47v-172q-72 49 -162 49q-80 0 -132 -46t-59 -126q57 70 164 70q113 0 183.5 -68.5t70.5 -185.5q0 -123 -85 -199.5t-214 -76.5q-154 0 -238.5 97t-84.5 265zM1198 295q2 -70 36 -111t87 -41t85 34t32 85q0 45 -34 78t-83 33 q-37 0 -72 -21.5t-51 -56.5z" />
<glyph unicode="&#x215b;" horiz-adv-x="1638" d="M35 1128v193l215 113h188v-775h-196v574zM203 0l864 1434h221l-864 -1434h-221zM946 225q0 59 41 112.5t98 74.5q-45 20 -73.5 63t-28.5 94q0 96 82 157.5t207 61.5q123 0 205 -61t82 -158q0 -49 -30 -93t-73 -64q61 -20 100 -72.5t39 -114.5q0 -113 -92 -176t-231 -63 q-141 0 -233.5 63.5t-92.5 175.5zM1143 242q0 -43 36 -71t93 -28q55 0 91 29t36 70q0 45 -36 72.5t-91 27.5q-57 0 -93 -27.5t-36 -72.5zM1163 549q0 -37 31 -60.5t78 -23.5q45 0 74.5 23.5t29.5 60.5q0 39 -29.5 62.5t-74.5 23.5q-47 0 -78 -23.5t-31 -62.5z" />
<glyph unicode="&#x215c;" horiz-adv-x="1728" d="M45 707v180q113 -70 234 -70q63 0 105 28.5t42 76.5q0 45 -36 72.5t-97 27.5q-74 0 -125 -23v121l178 150h-278v164h518v-146l-164 -141q88 -18 144.5 -74.5t56.5 -154.5q0 -121 -97 -199q-96 -74 -231 -74q-145 0 -250 62zM293 0l864 1434h221l-864 -1434h-221z M1036 225q0 59 41 112.5t99 74.5q-45 20 -74 63t-29 94q0 96 82 157.5t207 61.5q123 0 205 -61t82 -158q0 -49 -30 -93t-73 -64q61 -20 100.5 -72.5t39.5 -114.5q0 -113 -92.5 -176t-231.5 -63q-141 0 -233.5 63.5t-92.5 175.5zM1233 242q0 -43 36 -71t93 -28q55 0 91 29 t36 70q0 45 -36 72.5t-91 27.5q-57 0 -93 -27.5t-36 -72.5zM1253 549q0 -37 31 -60.5t78 -23.5q45 0 74.5 23.5t29.5 60.5q0 39 -29.5 62.5t-74.5 23.5q-47 0 -78 -23.5t-31 -62.5z" />
<glyph unicode="&#x215d;" horiz-adv-x="1726" d="M51 700v183q102 -66 221 -66q66 0 109 27.5t43 79.5q0 47 -41 75.5t-113 28.5q-96 0 -194 -31l51 437h442v-164h-295l-10 -99q20 4 53 5q135 0 219.5 -69t84.5 -183q0 -133 -99 -207q-100 -72 -241 -72q-133 0 -230 55zM291 0l864 1434h221l-864 -1434h-221zM1034 225 q0 59 41 112.5t99 74.5q-45 20 -74 63t-29 94q0 96 82 157.5t207 61.5q123 0 205 -61t82 -158q0 -49 -30 -93t-73 -64q61 -20 100 -72.5t39 -114.5q0 -113 -92 -176t-231 -63q-141 0 -233.5 63.5t-92.5 175.5zM1231 242q0 -43 36 -71t93 -28q55 0 91 29t36 70q0 45 -36 72.5 t-91 27.5q-57 0 -93 -27.5t-36 -72.5zM1251 549q0 -37 31 -60.5t78 -23.5q45 0 74.5 23.5t29.5 60.5q0 39 -29.5 62.5t-74.5 23.5q-47 0 -78 -23.5t-31 -62.5z" />
<glyph unicode="&#x215e;" horiz-adv-x="1613" d="M43 1270v164h578v-154l-320 -621h-213l309 611h-354zM178 0l864 1434h222l-865 -1434h-221zM922 225q0 59 41 112.5t98 74.5q-45 20 -74 63t-29 94q0 96 82 157.5t207 61.5q123 0 205 -61t82 -158q0 -49 -29.5 -93t-72.5 -64q61 -20 100 -72.5t39 -114.5 q0 -113 -92.5 -176t-231.5 -63q-141 0 -233 63.5t-92 175.5zM1118 242q0 -43 36 -71t93 -28q55 0 91 29t36 70q0 45 -35.5 72.5t-91.5 27.5q-57 0 -93 -27.5t-36 -72.5zM1139 549q0 -37 30.5 -60.5t77.5 -23.5q45 0 75 23.5t30 60.5q0 39 -30 62.5t-75 23.5 q-47 0 -77.5 -23.5t-30.5 -62.5z" />
<glyph unicode="&#x2190;" horiz-adv-x="1445" d="M86 547l389 452h285l-299 -340h858v-227h-860l301 -340h-285z" />
<glyph unicode="&#x2192;" horiz-adv-x="1445" d="M127 432v227h858l-299 340h285l389 -452l-389 -455h-285l301 340h-860z" />
<glyph unicode="&#x25fc;" horiz-adv-x="1024" d="M0 0v1024h1024v-1024h-1024z" />
<glyph unicode="&#xf639;" d="M84 717q0 430 264 639q133 106 318 106q178 0 314 -104.5t204 -276.5q66 -168 65 -364q0 -430 -266 -639q-133 -106 -317 -107q-178 0 -313.5 103.5t-202.5 275.5q-66 172 -66 367zM377 717q0 -201 76 -338t213 -137q139 0 214.5 137t75.5 338t-75.5 338t-214.5 137 q-137 0 -213 -137t-76 -338z" />
<glyph unicode="&#xf63a;" d="M154 0v215l421 383q145 133 199 213q57 82 57 174t-67.5 146.5t-177.5 54.5q-201 0 -387 -164v303q174 137 417 137q205 0 356.5 -120.5t151.5 -317.5q0 -152 -67 -268q-61 -111 -236 -273l-246 -225h599v-258h-1020z" />
<glyph unicode="&#xf63b;" d="M147 86v281q188 -131 420 -131q131 0 215 64.5t84 174.5q0 104 -77.5 169t-206.5 65q-104 0 -203 -39v194l342 316h-528v254h905v-222l-324 -297q154 -27 270 -141q117 -113 117 -299q0 -229 -166 -366q-163 -138 -411 -138q-254 0 -437 115z" />
<glyph unicode="&#xf63c;" d="M47 358v213l715 863h291v-838h211v-238h-211v-358h-287v358h-719zM373 596h393v467z" />
<glyph unicode="&#xf63d;" d="M145 74v276q182 -115 396 -114q139 0 228 63t89 176q0 106 -87 172t-232 66q-170 0 -344 -62l94 783h766v-254h-549l-31 -244q63 14 137 14q238 0 387 -131q154 -131 154 -344q0 -236 -174 -371q-174 -133 -426 -133q-227 0 -408 103z" />
<glyph unicode="&#xf63e;" d="M125 643q0 162 41 307.5t120 261t207 183t289 67.5q184 0 324 -92v-266q-135 92 -291 92q-176 0 -278 -111q-100 -109 -113 -278q115 133 334 133q195 0 327 -127q131 -125 132 -336q0 -223 -150 -364q-148 -142 -371 -142q-270 0 -420.5 178.5t-150.5 493.5zM416 530 q6 -145 75.5 -225t186.5 -80q109 0 177.5 68.5t68.5 177.5q0 104 -70 172t-176 68q-84 0 -158 -51.5t-104 -129.5z" />
<glyph unicode="&#xf63f;" d="M162 1169v265h1012v-228l-607 -1206h-313l586 1169h-678z" />
<glyph unicode="&#xf640;" d="M92 408q0 121 73 217t193 139q-94 43 -147 123t-53 178q0 176 143 287q145 111 365 110q215 0 360 -110.5t145 -286.5q0 -98 -53 -178t-147 -123q121 -43 193.5 -139.5t72.5 -216.5q0 -203 -166 -320q-162 -117 -405 -117q-242 0 -408 117t-166 320zM397 426 q0 -88 77 -147.5t191.5 -59.5t190.5 59.5t76 147.5q0 90 -76 149.5t-190.5 59.5t-191.5 -59.5t-77 -149.5zM442 1036q0 -78 64.5 -128t159 -50t158 50t63.5 128q0 80 -63.5 130.5t-158 50.5t-159 -50.5t-64.5 -130.5z" />
<glyph unicode="&#xf641;" d="M115 956q0 223 147 365q150 141 373 141q270 0 420.5 -178t150.5 -493q0 -162 -41 -307.5t-119.5 -261.5t-206.5 -183.5t-290 -67.5q-184 0 -324 92v267q135 -92 291 -92q176 0 277 110q102 113 114 279q-115 -133 -334 -133q-197 0 -327.5 124.5t-130.5 337.5zM408 963 q0 -104 69.5 -172t175.5 -68q84 0 158 51t104 131q-6 145 -75.5 224t-186.5 79q-109 0 -177 -68.5t-68 -176.5z" />
<glyph unicode="&#xf64e;" horiz-adv-x="1146" d="M33 338v125h135q-2 10 -2 51q0 6 1 25.5t1 23.5h-135v125h160q51 168 200.5 264.5t329.5 96.5q168 0 303 -68v-227q-129 59 -256 59q-203 0 -278 -125h327v-125h-370q-4 -45 -5 -51q0 -12 5 -49h370v-125h-330q76 -129 281 -129q154 0 272 70v-228q-145 -78 -321 -78 q-178 0 -328 97q-147 98 -200 268h-160z" />
<glyph unicode="&#xf653;" horiz-adv-x="1048" d="M88 70v256q74 -49 187.5 -83t230.5 -34q176 0 176 86q0 41 -51 63q-27 12 -53 19l-76 18q-16 4 -44 11.5t-38 11.5q-182 49 -257 117.5t-75 199.5q0 119 80 197t225 104v189h256v-185q162 -20 273 -86v-245q-182 106 -371 106q-164 0 -164 -82q0 -16 9.5 -29.5 t18.5 -19.5t29 -18q12 -4 45 -13.5t43 -13.5l109 -23q170 -39 252 -115.5t82 -207.5q0 -119 -87 -200.5t-239 -108.5v-187h-256v183q-197 20 -305 90z" />
<glyph unicode="&#xf6dc;" d="M182 0v258h371v860l-303 -153v288l336 181h256v-1176h348v-258h-1008z" />
<glyph unicode="&#xf725;" horiz-adv-x="1167" d="M117 0v219h53q96 0 96 117v67h-149v177h149v90q0 174 122 276.5t335 102.5q170 0 289 -54v-231q-131 49 -248 49q-104 0 -162.5 -49t-58.5 -135v-49h383v-177h-383v-61q0 -86 -51 -123h550v-219h-925z" />
<glyph unicode="&#xf727;" horiz-adv-x="1228" d="M53 1022h309l254 -363l256 363h304l-367 -479h246v-125h-301v-92h301v-125h-301v-201h-281v201h-299v125h299v92h-299v125h238z" />
<glyph unicode="&#xf730;" horiz-adv-x="1280" d="M74 512q0 227 159 381q158 156 408 156t408 -156q160 -156 159 -381q0 -229 -159 -385q-160 -154 -408 -154t-408 154q-159 156 -159 385zM358 512q0 -123 80 -205t203 -82t203 82q80 84 80 205q0 123 -80 203q-80 82 -203 82t-203 -82q-80 -80 -80 -203z" />
<glyph unicode="&#xf731;" horiz-adv-x="790" d="M57 553v289l336 180h256v-1022h-289v707z" />
<glyph unicode="&#xf732;" horiz-adv-x="1175" d="M90 0v217q287 145 432 232l105 65q100 72 100 145q0 123 -184 123q-197 0 -414 -149v278q199 137 440 138q201 0 326 -95q127 -96 127 -258q0 -238 -313 -381l-134 -61h494v-254h-979z" />
<glyph unicode="&#xf733;" horiz-adv-x="1157" d="M53 -27q188 -131 420 -131q131 0 215 63.5t84 172.5q0 102 -77 164.5t-208 62.5q-104 0 -202 -39v195l342 307h-529v254h906v-221l-324 -289q152 -27 270 -139q117 -106 117 -295q0 -227 -166 -363q-164 -137 -412 -137q-254 0 -436 115v280z" />
<glyph unicode="&#xf734;" horiz-adv-x="1312" d="M47 0v215l715 807h291v-782h211v-240h-211v-410h-293v410h-713zM375 240h385v434z" />
<glyph unicode="&#xf735;" horiz-adv-x="1179" d="M80 -43q182 -115 395 -115q139 0 228.5 63.5t89.5 176.5q0 106 -86 169.5t-234 63.5q-166 0 -344 -63l92 770h766v-254h-551l-26 -231q66 16 135 16q238 0 389 -129q154 -129 153 -342q0 -238 -174 -369q-172 -135 -426 -135q-227 0 -407 103v276z" />
<glyph unicode="&#xf736;" horiz-adv-x="1306" d="M113 643q0 162 41 307.5t119.5 261t206.5 183t290 67.5q184 0 324 -92v-266q-135 92 -291 92q-176 0 -279 -111q-100 -109 -112 -278q115 133 333 133q195 0 328 -127q131 -125 131 -336q0 -223 -149 -364q-148 -142 -371 -142q-270 0 -420.5 178.5t-150.5 493.5z M403 530q6 -145 76 -225t187 -80q109 0 177 68.5t68 177.5q0 104 -69.5 172t-175.5 68q-84 0 -158 -51.5t-105 -129.5z" />
<glyph unicode="&#xf737;" horiz-adv-x="1153" d="M70 760v262h1011v-227l-602 -1205h-311l582 1170h-680z" />
<glyph unicode="&#xf738;" horiz-adv-x="1306" d="M80 408q0 121 72.5 217t193.5 139q-94 43 -147.5 123t-53.5 178q0 176 144 287q145 111 364 110q215 0 360.5 -110.5t145.5 -286.5q0 -98 -53.5 -178t-147.5 -123q121 -43 194 -139.5t73 -216.5q0 -203 -166 -320q-162 -117 -406 -117q-242 0 -407.5 117t-165.5 320z M385 426q0 -88 77 -147.5t191.5 -59.5t190.5 59.5t76 147.5q0 90 -76 149.5t-190.5 59.5t-191.5 -59.5t-77 -149.5zM430 1036q0 -78 64.5 -128t159 -50t157.5 50t63 128q0 80 -63 130.5t-157.5 50.5t-159 -50.5t-64.5 -130.5z" />
<glyph unicode="&#xf739;" horiz-adv-x="1306" d="M113 543q0 223 147 364q150 142 373 142q270 0 420.5 -178.5t150.5 -493.5q0 -223 -69 -395q-72 -184 -225.5 -294t-362.5 -110q-186 0 -324 92v267q135 -92 291 -93q174 0 277.5 99.5t113.5 269.5q-115 -133 -334 -133q-197 0 -327.5 125t-130.5 338zM406 549 q0 -104 69.5 -172t175.5 -68q84 0 158 51.5t104 131.5q-6 145 -75.5 224t-186.5 79q-109 0 -177 -69t-68 -177z" />
<glyph horiz-adv-x="2129" d="M74 512q0 227 159 381q158 156 408 156q266 0 424 -189q158 188 426 189q250 0 407 -156q160 -156 160 -381q0 -229 -160 -385q-160 -154 -407 -154q-272 0 -426 187q-154 -187 -424 -187q-248 0 -408 154q-160 156 -159 385zM358 512q0 -123 80 -205t203 -82t203 82 q80 84 80 205q0 123 -80 203q-80 82 -203 82t-203 -82q-80 -80 -80 -203zM1208 512q0 -123 80 -205t203 -82t203 82q80 84 80 205q0 123 -80 203q-80 82 -203 82t-203 -82q-80 -80 -80 -203z" />
<glyph horiz-adv-x="1908" d="M74 512q0 227 159 381q158 156 408 156q248 0 424 -189q172 188 420 189q168 0 303 -68v-246q-133 61 -260 62q-135 0 -228 -80q-90 -78 -90 -205t92.5 -207t225.5 -80q158 0 276 70v-246q-143 -76 -323 -76q-244 0 -416 189q-170 -188 -424 -189q-248 0 -408 154 q-160 156 -159 385zM358 512q0 -123 80 -205t203 -82t203 82q80 84 80 205q0 123 -80 203q-80 82 -203 82t-203 -82q-80 -80 -80 -203z" />
<glyph horiz-adv-x="2889" d="M109 717q0 315 210 528q211 217 533 217q182 0 336.5 -75.5t255.5 -212.5q104 137 257.5 212.5t336.5 75.5q319 0 530 -217q213 -217 213 -528q0 -309 -213 -529q-211 -217 -530 -217q-182 0 -336 76t-258 211q-100 -135 -255 -211t-337 -76q-322 0 -532.5 217.5 t-210.5 528.5zM410 717q0 -205 125 -336q127 -133 317 -133q188 0 315 133t127 336t-127 336t-315 133q-190 0 -317 -133q-125 -131 -125 -336zM1595 717q0 -205 125 -336q127 -133 318 -133q188 0 315 133t127 336t-127 336t-315 133q-190 0 -318 -133q-125 -131 -125 -336 z" />
<glyph horiz-adv-x="2572" d="M109 717q0 315 210 528q211 217 533 217q182 0 336.5 -75.5t255.5 -212.5q106 137 269 212.5t358 75.5q209 0 378 -90v-297q-166 111 -376 111q-203 0 -342 -133q-135 -131 -135.5 -336t139.5 -338q137 -131 350 -131q236 0 393 125v-297q-176 -105 -407 -105 q-195 0 -358 76t-269 213q-100 -137 -255 -213t-337 -76q-322 0 -532.5 217.5t-210.5 528.5zM410 717q0 -205 125 -336q127 -133 317 -133q188 0 315 133t127 336t-127 336t-315 133q-190 0 -317 -133q-125 -131 -125 -336z" />
<glyph horiz-adv-x="1052" d="M133 1561l250 297h279l243 -297h-252l-137 157l-133 -157h-250z" />
<glyph horiz-adv-x="1032" d="M205 1858h348l195 -299h-250z" />
<glyph horiz-adv-x="1060" d="M299 1716q0 88 63.5 151.5t151.5 63.5t151.5 -63.5t63.5 -151.5t-63.5 -151.5t-151.5 -63.5t-151.5 63.5t-63.5 151.5zM419 1716.5q0 -38.5 27 -67.5q29 -27 68 -27t66 27q29 29 28.5 67.5t-28.5 65.5q-27 29 -66 28.5t-68 -28.5q-27 -27 -27 -65.5z" />
<glyph d="M113 125v307q90 -78 237 -135q150 -55 295 -55q121 0 199 44t78 122q0 84 -74 118q-31 18 -82 37l-49 17l-115 34l-106 35q-23 6 -97 35q-63 25 -92 43q-106 74 -135 125q-49 98 -49 201q0 164 106.5 267t298.5 132v205h267v-203q168 -20 338 -111v-286 q-219 135 -465 135q-244 0 -244 -141q0 -61 76 -99q45 -25 116 -43q96 -27 156 -45q178 -55 311 -149q143 -100 144 -299q0 -170 -119 -286t-313 -146v-207h-267v203q-248 27 -415 145z" />
<glyph d="M-2 1434h332l340 -512l342 512h321l-440 -639h324v-195h-404v-143h404v-193h-404v-264h-293v264h-401v193h401v143h-401v195h319z" />
<glyph d="M145 0v264h29q84 0 110.5 36t26.5 132v146h-166v227h166v168q0 227 139.5 358t378.5 131q190 0 328 -71v-275q-127 70 -280 70q-270 0 -271 -254v-127h461v-227h-461v-187q0 -90 -59 -127h643v-264h-1045z" />
<glyph d="M61 489v179h142q-2 16 -2 67q0 8 4 70h-144v176h179q63 215 239 348t420 133q190 0 330 -76v-278q-139 84 -293 84q-276 0 -377 -211h387v-176h-440q-4 -61 -4 -74q0 -18 4 -63h440v-179h-401q45 -119 147.5 -183t243.5 -64q188 0 324 104v-289q-145 -86 -361 -86 q-260 0 -434 142q-178 147 -236 376h-168z" />
<glyph horiz-adv-x="1042" d="M168 1567q2 123 66.5 204.5t166.5 81.5q63 0 145.5 -45t125.5 -45q70 0 88 84h155q0 -113 -65 -202q-63 -86 -166 -86q-66 0 -147 45q-84 47 -125 47q-70 0 -86 -84h-158z" />
<glyph horiz-adv-x="919" d="M209 1559l194 299h349l-293 -299h-250z" />
<glyph horiz-adv-x="1017" d="M145 1708q0 61 45.5 105.5t106.5 44.5q63 0 107.5 -43t44.5 -106.5t-44.5 -108t-107.5 -44.5q-61 0 -106.5 44.5t-45.5 107.5zM596 1708q0 64 43 107q45 43 108.5 43t106.5 -43t43 -107t-43 -109q-43 -43 -106.5 -43t-108.5 43q-43 45 -43 109z" />
<glyph horiz-adv-x="1720" d="M109 717q0 315 210 528q211 217 533 217q319 0 530 -217q213 -217 213 -528q0 -283 -182 -496q-182 -211 -461 -244q80 -14 250 -79q219 -82 326 -82q68 0 114 28v-243q-49 -23 -131 -23q-129 0 -368 92q-221 86 -336 86q-184 0 -303 -100v254q96 61 196 76 q-264 53 -428 254q-164 207 -163 477zM410 717q0 -205 125 -336q127 -133 317 -133q188 0 315 133t127 336t-127 336t-315 133q-190 0 -317 -133q-125 -131 -125 -336z" />
<glyph horiz-adv-x="1732" d="M109 717q0 315 210 528q211 217 533 217q319 0 530 -217q213 -217 213 -528q0 -266 -155 -465l200 -252h-315l-70 86q-180 -115 -403 -115q-322 0 -532.5 217.5t-210.5 528.5zM410 717q0 -205 125 -336q127 -133 317 -133q129 0 227 61l-309 389h315l160 -202 q49 104 49 221q0 203 -127 336t-315 133q-190 0 -317 -133q-125 -131 -125 -336z" />
<glyph horiz-adv-x="2359" d="M37 780v242h182v96q0 156 90 248t256 92q150 0 260 -43v-233q-92 35 -176 35q-141 0 -141 -138v-57h448v96q0 156 90.5 248t256.5 92q150 0 260 -43v-233q-92 35 -177 35q-141 0 -141 -138v-57h449v281h288v-281h291v-242h-291v-405q0 -76 33 -110t107 -34q76 0 149 37 v-239q-88 -55 -243 -56q-334 0 -334 344v463h-449v-780h-289v780h-448v-780h-289v780h-182z" />
<glyph horiz-adv-x="788" d="M123 317v986h289v-281h290v-242h-290v-405q0 -76 32.5 -110t106.5 -34q76 0 149 37v-239q-90 -55 -243 -56q-334 0 -334 344z" />
<glyph horiz-adv-x="792" d="M141 0v1118q0 156 90.5 248t255.5 92q150 0 261 -43v-233q-92 35 -177 35q-141 0 -141 -138v-57h318v-242h-318v-780h-289z" />
<glyph horiz-adv-x="1400" d="M37 780v242h182v96q0 156 90 248t256 92q150 0 260 -43v-233q-92 35 -176 35q-141 0 -141 -138v-57h737v-1059q0 -182 -99.5 -283.5t-271.5 -101.5q-152 0 -227 45v246q72 -39 154 -39q156 0 155 162v788h-448v-780h-289v780h-182zM926 1292q0 74 50 124t121.5 50 t123 -50t51.5 -124q0 -72 -51.5 -122t-123 -50t-121.5 50t-50 122z" />
<glyph horiz-adv-x="2295" d="M61 1169v265h1399v-537q139 152 342 152q176 0 274.5 -112t98.5 -310v-627h-289v567q0 111 -54 164t-140 53q-66 0 -130.5 -38t-101.5 -95v-651h-289v1169h-362v-1169h-295v1169h-453z" />
<glyph horiz-adv-x="1996" d="M141 0v1022h981v-602l463 602h270v-1022h-284v596l-463 -596h-270v780h-408v-780h-289z" />
<glyph horiz-adv-x="2469" d="M158 0v1434h1200v-936l696 936h256v-1434h-295v942l-702 -942h-248v1174h-612v-1174h-295z" />
<glyph horiz-adv-x="2504" d="M158 0v1434h295v-539h647v539h293v-936l696 936h256v-1434h-295v942l-702 -942h-248v631h-647v-631h-295z" />
<glyph horiz-adv-x="2009" d="M141 0v1022h289v-379h420v379h285v-602l462 602h271v-1022h-285v596l-463 -596h-270v403h-420v-403h-289z" />
<glyph horiz-adv-x="2504" d="M158 0v1434h295v-936l694 936h254v-539h649v539h295v-1434h-295v631h-649v-631h-293v942l-702 -942h-248z" />
<glyph horiz-adv-x="2009" d="M141 0v1022h285v-602l463 602h270v-379h420v379h289v-1022h-289v403h-420v-403h-285v602l-462 -602h-271z" />
<glyph horiz-adv-x="1619" d="M37 780v242h182v96q0 156 90 248t256 92q150 0 260 -43v-233q-92 35 -176 35q-141 0 -141 -138v-57h446v281h289v-281h291v-242h-291v-405q0 -76 33 -110t106 -34q76 0 150 37v-239q-90 -55 -244 -56q-334 0 -334 344v463h-446v-780h-289v780h-182z" />
<glyph horiz-adv-x="2031" d="M141 0v1022h285v-602l463 602h270v-602l463 602h268v-1022h-282v602l-469 -602h-265v602l-462 -602h-271zM1012 1485h215q2 -68 43 -109t108 -41q70 0 111 41t43 109h219q-2 -162 -106 -256q-102 -94 -264 -94t-264.5 95t-104.5 255z" />
<glyph horiz-adv-x="2408" d="M158 0v1434h295v-537h647v537h674q199 0 316.5 -94.5t117.5 -264.5q0 -104 -51.5 -178t-128.5 -106q117 -25 204 -127q86 -100 86 -256q0 -182 -135 -295q-133 -113 -362 -113h-721v629h-647v-629h-295zM1395 254h370q111 0 172.5 48t61.5 138t-61.5 139.5t-172.5 49.5 h-370v-375zM1395 872h331q92 0 144.5 41t52.5 115q0 76 -52 118t-145 42h-331v-316z" />
<glyph horiz-adv-x="2531" d="M158 0v1434h295v-537h647v537h536q348 0 567.5 -201t219.5 -516q0 -317 -219 -518q-218 -199 -568 -199h-536v629h-647v-629h-295zM1395 264h217q240 0 374 120t134 333t-134.5 332.5t-373.5 119.5h-217v-905z" />
<glyph horiz-adv-x="2252" d="M158 0v1434h295v-537h647v537h1052v-265h-757v-276h610v-260h-610v-369h780v-264h-1075v629h-647v-629h-295z" />
<glyph horiz-adv-x="2228" d="M158 0v1434h295v-537h647v537h1050v-265h-755v-290h583v-261h-583v-618h-295v629h-647v-629h-295z" />
<glyph horiz-adv-x="2387" d="M158 0v1434h295v-537h647v537h295v-566l528 566h361l-609 -658l713 -776h-377l-616 662v-662h-295v629h-647v-629h-295z" />
<glyph horiz-adv-x="2674" d="M158 0v1434h295v-537h647v537h293l415 -594l416 594h291v-1434h-291v981l-330 -461h-163l-336 461v-981h-295v629h-647v-629h-295z" />
<glyph horiz-adv-x="2525" d="M158 0v1434h295v-537h647v537h256l723 -918v918h286v-1434h-243l-729 922v-922h-293v629h-647v-629h-295z" />
<glyph horiz-adv-x="2465" d="M158 0v1434h295v-537h647v537h293v-842q0 -166 87 -255t232 -89q147 0 234.5 89t87.5 255v842h295v-832q0 -299 -175 -465q-172 -166 -442 -166q-268 0 -440 166t-172 465v27h-647v-629h-295z" />
<glyph horiz-adv-x="2291" d="M158 0v1434h295v-537h647v537h626q231 0 365 -121q135 -119 135 -312q0 -195 -135 -313q-133 -121 -365 -121h-331v-567h-295v629h-647v-629h-295zM1395 819h311q106 0 165.5 46t59.5 132t-59.5 132.5t-165.5 46.5h-311v-357z" />
<glyph horiz-adv-x="2437" d="M158 0v1434h295v-537h647v537h663q229 0 361 -119q133 -117 133 -305q0 -143 -79 -249t-218 -149l442 -612h-342l-418 580h-247v-580h-295v629h-647v-629h-295zM1395 827h352q100 0 156.5 45.5t56.5 128.5q0 82 -56.5 128.5t-156.5 46.5h-352v-349z" />
<glyph horiz-adv-x="2564" d="M158 0v1434h252l723 -918v918h536q348 0 567.5 -201t219.5 -516q0 -317 -220 -518q-217 -199 -567 -199h-493l-730 922v-922h-288zM1427 264h218q240 0 373.5 120t133.5 333t-134 332.5t-373 119.5h-218v-905z" />
<glyph horiz-adv-x="2441" d="M158 0v1434h252l723 -918v918h673q199 0 317 -94.5t118 -264.5q0 -104 -51.5 -178t-129.5 -106q117 -25 205 -127q86 -100 86 -256q0 -182 -135 -295q-133 -113 -363 -113h-677l-730 922v-922h-288zM1427 254h371q111 0 172.5 48t61.5 138t-61.5 139.5t-172.5 49.5h-371 v-375zM1427 872h332q92 0 144.5 41t52.5 115q0 76 -52.5 118t-144.5 42h-332v-316z" />
<glyph horiz-adv-x="2473" d="M158 0v1434h293l415 -594l416 594h627q231 0 364 -121q135 -119 135 -312q0 -195 -135 -313q-133 -121 -364 -121h-332v-567h-295v981l-330 -461h-164l-335 461v-981h-295zM1577 819h311q106 0 166 46t60 132t-59.5 132.5t-166.5 46.5h-311v-357z" />
<glyph horiz-adv-x="2619" d="M158 0v1434h293l415 -594l416 594h664q229 0 360 -119q133 -117 133 -305q0 -143 -79 -249t-218 -149l443 -612h-342l-418 580h-248v-580h-295v981l-330 -461h-164l-335 461v-981h-295zM1577 827h352q100 0 156.5 45.5t56.5 128.5q0 82 -56 128.5t-157 46.5h-352v-349z " />
<glyph horiz-adv-x="2676" d="M158 0v1434h293l415 -594l416 594h295v-537h647v537h293v-1434h-293v629h-647v-629h-295v981l-330 -461h-164l-335 461v-981h-295z" />
<glyph horiz-adv-x="2648" d="M158 0v1434h293l415 -594l416 594h293v-842q0 -166 87 -255t232 -89q147 0 234.5 89t87.5 255v842h295v-832q0 -299 -174 -465q-173 -166 -443 -166q-268 0 -440 166t-172 465v379l-330 -461h-164l-335 461v-981h-295z" />
<glyph horiz-adv-x="2324" d="M158 0v1434h252l723 -918v918h626q231 0 365 -121q135 -119 135 -312q0 -195 -135 -313q-133 -121 -365 -121h-332v-567h-251l-730 922v-922h-288zM1427 819h312q106 0 165.5 46t59.5 132t-59.5 132.5t-165.5 46.5h-312v-357z" />
<glyph horiz-adv-x="1640" d="M37 780v242h201v281h288v-281h449v281h289v-281h290v-242h-290v-405q0 -76 32.5 -110t106.5 -34q76 0 149 37v-239q-90 -55 -243 -56q-334 0 -334 344v463h-449v-405q0 -76 33 -110t107 -34q76 0 149 37v-239q-90 -55 -244 -56q-333 0 -333 344v463h-201z" />
<glyph horiz-adv-x="1212" d="M12 86h293q0 -121 68.5 -189.5t181.5 -68.5q111 0 182.5 67.5t71.5 165.5q0 106 -76 170q-86 -35 -180 -34q-213 0 -344 122q-133 123 -133 303.5t133 303.5q131 123 344 123q184 -1 315 -105l285 105v-230l-154 -61q29 -68 29 -135q0 -129 -70 -232q141 -133 142 -330 q0 -205 -154 -344q-156 -139 -391 -139q-225 0 -385 135q-158 135 -158 373zM344 623q0 -86 59.5 -141.5t149.5 -55.5t148.5 55.5t58.5 141.5q0 84 -58.5 140t-148.5 56t-149.5 -56t-59.5 -140z" />
<glyph horiz-adv-x="2410" d="M139 602v832h293v-842q0 -166 87 -255t233 -89q147 0 234 89t87 255v842h664q229 0 360 -119q133 -117 133 -305q0 -143 -78.5 -249t-218.5 -149l443 -612h-342l-418 580h-248q-8 -291 -180 -451q-174 -158 -436 -158q-268 0 -440.5 166t-172.5 465zM1368 827h352 q100 0 156.5 45.5t56.5 128.5q0 82 -56 128.5t-157 46.5h-352v-349z" />
<glyph horiz-adv-x="2201" d="M139 602v832h293v-842q0 -166 87 -255t233 -89q147 0 234 89t87 255v842h1051v-265h-756v-290h584v-261h-584v-16q0 -299 -174 -465q-172 -166 -442 -166q-268 0 -440.5 166t-172.5 465z" />
<glyph horiz-adv-x="2467" d="M139 602v832h293v-842q0 -166 87 -255t233 -89q147 0 234 89t87 255v842h295v-537h647v537h293v-1434h-293v629h-647v-27q0 -299 -174 -465q-172 -166 -442 -166q-268 0 -440.5 166t-172.5 465z" />
<glyph horiz-adv-x="2361" d="M139 602v832h293v-842q0 -166 87 -255t233 -89q147 0 234 89t87 255v842h295v-566l528 566h361l-608 -658l712 -776h-376l-617 662v-60q0 -299 -174 -465q-172 -166 -442 -166q-268 0 -440.5 166t-172.5 465z" />
<glyph horiz-adv-x="2648" d="M139 602v832h293v-842q0 -166 87 -255t233 -89q147 0 234 89t87 255v842h293l416 -594l416 594h290v-1434h-290v981l-330 -461h-164l-336 461v-379q0 -299 -174 -465q-172 -166 -442 -166q-268 0 -440.5 166t-172.5 465z" />
<glyph horiz-adv-x="2590" d="M158 0v1434h293l415 -594l416 594h674q199 0 316.5 -94.5t117.5 -264.5q0 -104 -51 -178t-129 -106q117 -25 205 -127q86 -100 86 -256q0 -182 -136 -295q-133 -113 -362 -113h-721v981l-330 -461h-164l-335 461v-981h-295zM1577 254h371q111 0 172 48t61 138 t-61.5 139.5t-171.5 49.5h-371v-375zM1577 872h332q92 0 144 41t52 115q0 76 -52 118t-144 42h-332v-316z" />
<glyph horiz-adv-x="2500" d="M139 602v832h293v-842q0 -166 87 -255t233 -89q147 0 234 89t87 255v842h258l723 -918v918h287v-1434h-244l-729 922v-320q0 -299 -174 -465q-172 -166 -442 -166q-268 0 -440.5 166t-172.5 465z" />
<glyph horiz-adv-x="2435" d="M158 0v1434h293l415 -594l416 594h1053v-265h-758v-276h610v-260h-610v-369h780v-264h-1075v981l-330 -461h-164l-335 461v-981h-295z" />
<glyph horiz-adv-x="1579" d="M197 664v260h1185v-260h-1185z" />
<glyph horiz-adv-x="1878" d="M197 664v260h1484v-260h-1484z" />
<glyph horiz-adv-x="1026" d="M197 664v260h632v-260h-632z" />
<glyph horiz-adv-x="878" d="M162 -217v1868h643v-228h-381v-1413h381v-227h-643z" />
<glyph horiz-adv-x="878" d="M74 10h381v1413h-381v228h643v-1868h-643v227z" />
<glyph horiz-adv-x="837" d="M100 602v229q94 10 126 63.5t32 176.5v238q0 158 92 250t250 92h164v-228h-102q-66 0 -104 -40t-38 -105v-291q0 -221 -164 -270q164 -49 164 -271v-290q0 -66 38 -106t104 -40h102v-227h-164q-158 0 -250 92t-92 250v227q0 125 -32.5 182.5t-125.5 67.5z" />
<glyph horiz-adv-x="837" d="M74 10h102q66 0 103.5 40t37.5 106v290q0 221 164 271q-164 49 -164 270v291q0 66 -37.5 105.5t-103.5 39.5h-102v228h164q158 0 250 -92.5t92 -249.5v-238q0 -123 31.5 -176t125.5 -64v-229q-92 -10 -124.5 -67.5t-32.5 -182.5v-227q0 -158 -92 -250t-250 -92h-164v227z " />
<glyph horiz-adv-x="1206" d="M63 276l330 441l-330 438h289l281 -367v-145l-281 -367h-289zM571 276l330 441l-330 438h289l281 -367v-145l-281 -367h-289z" />
<glyph horiz-adv-x="1208" d="M66 643v145l280 367h289l-330 -438l330 -441h-289zM573 643v145l281 367h291l-332 -438l332 -441h-291z" />
<glyph horiz-adv-x="698" d="M63 276l330 441l-330 438h289l281 -367v-145l-281 -367h-289z" />
<glyph horiz-adv-x="698" d="M66 643v145l280 367h289l-330 -438l330 -441h-289z" />
<glyph horiz-adv-x="794" d="M145 717q0 557 295 934h295q-326 -418 -326 -934t326 -934h-295q-295 373 -295 934z" />
<glyph horiz-adv-x="794" d="M59 -217q326 418 326 934t-326 934h295q295 -377 295 -934q0 -561 -295 -934h-295z" />
<glyph horiz-adv-x="1884" d="M139 602v832h293v-842q0 -166 87 -255t233 -89q147 0 234 89t87 255v577h-452v265h1202v-265h-455v-567q0 -299 -174 -465q-172 -166 -442 -166q-268 0 -440.5 166t-172.5 465z" />
<glyph horiz-adv-x="1882" d="M61 1169v265h1203v-265h-453v-577q0 -166 87 -255t235 -89q145 0 232 89t87 255v842h293v-832q0 -299 -172 -465t-440.5 -166t-444.5 166q-172 166 -172 465v567h-455z" />
<glyph horiz-adv-x="2682" d="M158 0v1434h252l723 -918v918h1488v-265h-454v-1169h-295v1169h-453v-1169h-243l-730 922v-922h-288z" />
<glyph horiz-adv-x="2658" d="M61 1169v265h1498v-537h647v537h293v-1434h-293v629h-647v-629h-295v1169h-455v-1169h-295v1169h-453z" />
<glyph horiz-adv-x="2656" d="M158 0v1434h293v-537h647v537h1497v-265h-453v-1169h-295v1169h-454v-1169h-295v629h-647v-629h-293z" />
<glyph horiz-adv-x="2150" d="M33 0l614 1442h283l444 -1041l420 1033h320l-598 -1434h-285l-141 332h-607l-141 -332h-309zM575 575h420l-209 498z" />
<glyph horiz-adv-x="2457" d="M158 0v1434h536q408 0 629 -267q106 141 271 218t362 77q209 0 379 -90v-297q-166 111 -377 111q-203 0 -342 -133q-135 -131 -135 -336t139 -338q137 -131 350 -131q236 0 393 125v-297q-176 -105 -407 -105q-197 0 -360.5 77t-270.5 218q-221 -266 -631 -266h-536z M453 264h217q240 0 374 120t134 333t-134.5 332.5t-373.5 119.5h-217v-905z" />
<glyph horiz-adv-x="2775" d="M158 0v1434h536q410 0 631 -267q100 139 257 217t341 78q319 0 531 -217q213 -217 212 -528q0 -309 -212 -529q-212 -217 -531 -217q-184 0 -341 78t-257 217q-221 -266 -631 -266h-536zM453 264h217q240 0 374 120t134 333t-134.5 332.5t-373.5 119.5h-217v-905z M1481 717q0 -205 125 -336q127 -133 317 -133q188 0 315 133t127 336t-127 336t-315 133q-190 0 -317 -133q-125 -131 -125 -336z" />
<glyph horiz-adv-x="2775" d="M158 0v1434h536q410 0 631 -267q100 139 257 217t341 78q319 0 531 -217q213 -217 212 -528q0 -229 -122 -418q-121 -186 -326 -268l20 -23q33 -33 89.5 -57.5t109.5 -24.5q94 0 170 43v-248q-104 -47 -217 -47q-100 0 -190 47.5t-199 147.5l-115 106q-356 14 -561 291 q-221 -266 -631 -266h-536zM453 264h217q240 0 374 120t134 333t-134.5 332.5t-373.5 119.5h-217v-905zM1481 717q0 -205 125 -336q127 -133 317 -133q188 0 315 133t127 336t-127 336t-315 133q-190 0 -317 -133q-125 -131 -125 -336z" />
<glyph horiz-adv-x="2641" d="M158 0v1434h536q408 0 629 -267q104 141 269 218t362 77q248 0 430 -108v-291q-201 123 -410 123q-219 0 -356 -131q-137 -129 -137 -344q0 -213 133 -340t330 -127q188 0 288 94v493h295v-632q-92 -98 -246 -162q-159 -66 -337 -66q-190 0 -352 77t-267 218 q-221 -266 -631 -266h-536zM453 264h217q240 0 374 120t134 333t-134.5 332.5t-373.5 119.5h-217v-905z" />
<glyph horiz-adv-x="2060" d="M158 0v1434h295v-537h571l-377 537h348l357 -510l358 510h338l-553 -785v-649h-293v629h-749v-629h-295z" />
<glyph horiz-adv-x="2414" d="M158 0v1434h295v-1170h530l502 1178h282l615 -1442h-314l-141 332h-606l-141 -332h-1022zM1413 575h420l-209 498z" />
<glyph horiz-adv-x="2713" d="M158 0v1434h293l415 -594l416 594h537q348 0 567 -201t219 -516q0 -317 -219 -518q-217 -199 -567 -199h-537v981l-330 -461h-164l-335 461v-981h-295zM1577 264h217q240 0 374 120t134 333t-134 332.5t-374 119.5h-217v-905z" />
<glyph horiz-adv-x="2410" d="M158 0v1434h293l415 -594l416 594h1051v-265h-756v-290h584v-261h-584v-618h-295v981l-330 -461h-164l-335 461v-981h-295z" />
<glyph horiz-adv-x="2705" d="M158 0v1434h293l415 -594l416 594h254l723 -918v918h287v-1434h-244l-729 922v-922h-291v981l-330 -461h-164l-335 461v-981h-295z" />
<glyph horiz-adv-x="2287" d="M158 0v1434h252l723 -918v918h1054v-265h-757v-276h610v-260h-610v-369h780v-264h-1034l-730 922v-922h-288z" />
<glyph horiz-adv-x="2260" d="M158 0v1434h252l723 -918v918h1050v-265h-756v-290h584v-261h-584v-618h-251l-730 922v-922h-288z" />
<glyph horiz-adv-x="2707" d="M158 0v1434h252l723 -918v918h292l416 -594l416 594h291v-1434h-291v981l-330 -461h-164l-336 461v-981h-251l-730 922v-922h-288z" />
<glyph horiz-adv-x="2889" d="M109 717q0 315 210 528q211 217 533 217q182 0 336.5 -75.5t255.5 -212.5q104 137 257.5 212.5t336.5 75.5q319 0 530 -217q213 -217 213 -528q0 -229 -123 -418q-121 -186 -325 -268l20 -23q33 -33 89.5 -57.5t109.5 -24.5q94 0 170 43v-248q-104 -47 -217 -47 q-100 0 -190 47.5t-199 147.5l-115 106q-354 16 -557 283q-100 -135 -255 -211t-337 -76q-322 0 -532.5 217.5t-210.5 528.5zM410 717q0 -205 125 -336q127 -133 317 -133q188 0 315 133t127 336t-127 336t-315 133q-190 0 -317 -133q-125 -131 -125 -336zM1595 717 q0 -205 125 -336q127 -133 318 -133q188 0 315 133t127 336t-127 336t-315 133q-190 0 -318 -133q-125 -131 -125 -336z" />
<glyph horiz-adv-x="2756" d="M109 717q0 315 210 528q211 217 533 217q182 0 336.5 -75.5t255.5 -210.5q104 137 267 211.5t357 74.5q248 0 431 -108v-291q-199 123 -410 123q-219 0 -356 -131q-137 -129 -138 -344q0 -213 133.5 -340t329.5 -127q188 0 289 94v493h295v-632q-92 -98 -246 -162 q-160 -66 -338 -66q-188 0 -348 76t-266 211q-100 -135 -255 -211t-337 -76q-322 0 -532.5 217.5t-210.5 528.5zM410 717q0 -205 125 -336q127 -133 317 -133q188 0 315 133t127 336t-127 336t-315 133q-190 0 -317 -133q-125 -131 -125 -336z" />
<glyph horiz-adv-x="2473" d="M61 1169v265h2313v-207l-744 -963h776v-264h-1177v209l745 960h-1165v-1169h-295v1169h-453z" />
<glyph horiz-adv-x="2156" d="M37 1434h325l420 -1039l445 1047h282l615 -1442h-314l-141 332h-606l-141 -332h-287zM1155 575h420l-209 498z" />
<glyph horiz-adv-x="2062" d="M12 1434h348l357 -510l358 510h338l-379 -537h576v537h293v-1434h-293v629h-750v-629h-295l2 6v637z" />
<glyph horiz-adv-x="2177" d="M158 0v1434h295v-537h647v537h295v-1170h727v-264h-1022v629h-647v-629h-295z" />
<glyph horiz-adv-x="2420" d="M158 0v1434h252l723 -918v918h294v-566l529 566h360l-608 -658l713 -776h-377l-617 662v-662h-251l-730 922v-922h-288z" />
<glyph horiz-adv-x="2209" d="M158 0v1434h252l723 -918v918h294v-1170h727v-264h-978l-730 922v-922h-288z" />
<glyph horiz-adv-x="2359" d="M158 0v1434h293l415 -594l416 594h295v-1170h727v-264h-1022v981l-330 -461h-164l-335 461v-981h-295z" />
<glyph horiz-adv-x="1984" d="M33 0l614 1442h283l459 -1077l266 657h301l-440 -1022h-285l-141 332h-607l-141 -332h-309zM575 575h420l-209 498z" />
<glyph horiz-adv-x="1980" d="M33 0l614 1442h283l461 -1086l254 666h305l-473 -1128q-135 -315 -408 -316q-127 0 -205 41v252q72 -41 156 -41q72 0 120 40t91 130l-141 332h-607l-141 -332h-309zM575 575h420l-209 498z" />
<glyph horiz-adv-x="2189" d="M158 0v1434h295v-537h647v537h293v-785l352 373h354l-444 -461l514 -561h-373l-403 440v-440h-293v629h-647v-629h-295z" />
<glyph horiz-adv-x="2859" d="M158 0v1434h295v-537h647v537h293v-537q115 152 311 152q111 0 198 -49.5t119 -125.5q51 78 147.5 126.5t205.5 48.5q168 0 266 -106.5t98 -303.5v-639h-289v573q0 211 -170 211q-66 0 -125 -38.5t-88 -100.5v-645h-288v573q0 211 -170 211q-61 0 -123 -38.5t-92 -96.5 v-649h-293v629h-647v-629h-295z" />
<glyph horiz-adv-x="2248" d="M158 0v1434h295v-537h647v537h293v-979q0 -111 54 -164t140 -53q66 0 130.5 37.5t101.5 95.5v651h288v-1022h-288v123q-137 -150 -342 -150q-178 0 -277.5 113t-99.5 309v234h-647v-629h-295z" />
<glyph horiz-adv-x="1740" d="M57 55v291q123 -98 283 -98q139 0 205.5 64.5t66.5 207.5v914h293v-537q139 152 342 152q176 0 274.5 -112t98.5 -310v-627h-289v567q0 111 -54 164t-140 53q-66 0 -130.5 -37.5t-101.5 -95.5v-180q0 -137 -40 -237.5t-111.5 -155.5t-159 -81t-193.5 -26q-223 0 -344 84z " />
<glyph horiz-adv-x="1701" d="M57 55v291q123 -98 283 -98q139 0 205.5 64.5t66.5 207.5v914h293v-785l352 373h355l-445 -461l514 -561h-372l-404 440q-8 -248 -147 -358q-140 -111 -357 -111q-223 0 -344 84z" />
<glyph horiz-adv-x="2371" d="M57 55v291q123 -98 283 -98q139 0 205.5 64.5t66.5 207.5v914h293v-537q115 152 312 152q111 0 197.5 -49.5t119.5 -125.5q51 78 147.5 126.5t204.5 48.5q168 0 266.5 -106.5t98.5 -303.5v-639h-289v573q0 211 -170 211q-66 0 -125 -38.5t-88 -100.5v-645h-289v573 q0 211 -170 211q-61 0 -122.5 -38.5t-92.5 -96.5v-178q0 -137 -40 -237.5t-111.5 -155.5t-159 -81t-193.5 -26q-223 0 -344 84z" />
<glyph horiz-adv-x="1624" d="M158 0v1434h295v-1170h727v758h288v-1022h-1310zM1151 1292q0 74 50 124t122 50t122 -50t50 -124q0 -72 -50 -122t-122 -50t-122 50t-50 122z" />
<glyph horiz-adv-x="2461" d="M158 0v1434h293l415 -594l416 594h291v-537q121 152 336 152q209 0 344 -156q137 -152 137 -381t-137 -385q-135 -154 -344 -154q-221 0 -336 152v-125h-291v981l-330 -461h-164l-335 461v-981h-295zM1573 379q37 -68 104.5 -111t149.5 -43q123 0 198 82q78 84 78 205 q0 119 -78 203q-76 82 -198 82q-82 0 -149.5 -42t-104.5 -110v-266z" />
<glyph horiz-adv-x="2408" d="M158 0v1434h293l415 -594l416 594h291v-535q137 150 342 150q176 0 274.5 -112t98.5 -310v-627h-289v567q0 111 -54.5 164t-140.5 53q-66 0 -130 -37.5t-101 -95.5v-651h-291v981l-330 -461h-164l-335 461v-981h-295z" />
<glyph horiz-adv-x="2369" d="M158 0v1434h293l415 -594l416 594h291v-785l352 373h354l-444 -461l514 -561h-373l-403 440v-440h-291v981l-330 -461h-164l-335 461v-981h-295z" />
<glyph horiz-adv-x="3039" d="M158 0v1434h293l415 -594l416 594h291v-537q115 152 311 152q111 0 198 -49.5t120 -125.5q51 78 147 126.5t205 48.5q168 0 266 -106.5t98 -303.5v-639h-288v573q0 211 -170 211q-66 0 -125.5 -38.5t-87.5 -100.5v-645h-289v573q0 211 -170 211q-61 0 -122.5 -38.5 t-92.5 -96.5v-649h-291v981l-330 -461h-164l-335 461v-981h-295z" />
<glyph horiz-adv-x="2428" d="M158 0v1434h293l415 -594l416 594h291v-979q0 -111 54 -164t140 -53q66 0 130.5 37.5t101.5 95.5v651h289v-1022h-289v123q-137 -150 -342 -150q-176 0 -274.5 112t-98.5 310v586l-332 -461h-164l-335 461v-981h-295z" />
<glyph horiz-adv-x="2256" d="M158 0v1434h252l723 -918v918h288v-537q139 152 342 152q176 0 274.5 -112t98.5 -310v-627h-289v567q0 111 -54 164t-140 53q-66 0 -130.5 -38t-101.5 -95v-651h-245l-730 922v-922h-288z" />
<glyph horiz-adv-x="2217" d="M158 0v1434h252l723 -918v918h288v-785l353 373h354l-445 -461l515 -561h-373l-404 440v-440h-245l-730 922v-922h-288z" />
<glyph horiz-adv-x="2885" d="M158 0v1434h252l723 -918v918h286v-537q115 152 312 152q111 0 197.5 -49.5t119.5 -125.5q51 78 147.5 126.5t204.5 48.5q168 0 266.5 -106.5t98.5 -303.5v-639h-289v573q0 211 -170 211q-66 0 -125 -38.5t-88 -100.5v-645h-289v573q0 211 -170 211q-61 0 -122.5 -38.5 t-92.5 -96.5v-649h-243l-730 922v-922h-288z" />
<glyph horiz-adv-x="2441" d="M61 1169v265h1491v-537q121 152 336 152q209 0 344 -156q137 -152 137.5 -381t-137.5 -385q-135 -154 -344 -154q-221 0 -336 152v-125h-288v1169h-455v-1169h-295v1169h-453zM1552 379q37 -68 104.5 -111t149.5 -43q123 0 199 82q78 84 78 205q0 119 -78 203 q-76 82 -199 82q-82 0 -149.5 -42t-104.5 -110v-266z" />
<glyph horiz-adv-x="2349" d="M61 1169v265h1491v-785l353 373h354l-444 -461l514 -561h-373l-404 440v-440h-288v1169h-455v-1169h-295v1169h-453z" />
<glyph horiz-adv-x="2275" d="M61 1169v265h1203v-265h-455v-272q115 152 311 152q111 0 198 -49.5t120 -125.5q51 78 147 126.5t205 48.5q168 0 266 -106.5t98 -303.5v-639h-288v573q0 211 -170 211q-66 0 -125.5 -38.5t-87.5 -100.5v-645h-289v573q0 211 -170 211q-61 0 -122.5 -38.5t-92.5 -96.5 v-649h-295v1169h-453z" />
<glyph horiz-adv-x="2203" d="M139 602v832h293v-842q0 -166 87 -255t233 -89q147 0 234 89t87 255v842h295v-537q139 152 342 152q176 0 274.5 -112t98.5 -310v-627h-289v567q0 111 -54 164t-141 53q-66 0 -130 -37.5t-101 -95.5v-49q0 -299 -174 -465q-172 -166 -442 -166q-268 0 -440.5 166 t-172.5 465z" />
<glyph horiz-adv-x="2164" d="M139 602v832h293v-842q0 -166 87 -255t233 -89q147 0 234 89t87 255v842h295v-785l352 373h355l-445 -461l514 -561h-372l-416 455q-41 -231 -207 -359q-161 -125 -397 -125q-268 0 -440.5 166t-172.5 465z" />
<glyph horiz-adv-x="2834" d="M139 602v832h293v-842q0 -166 87 -255t233 -89q147 0 234 89t87 255v842h295v-537q115 152 311 152q111 0 198 -49.5t120 -125.5q51 78 147.5 126.5t204.5 48.5q168 0 266.5 -106.5t98.5 -303.5v-639h-289v573q0 211 -170 211q-66 0 -125 -38.5t-88 -100.5v-645h-289v573 q0 211 -170 211q-61 0 -122.5 -38.5t-92.5 -96.5v-47q0 -299 -174 -465q-172 -166 -442 -166q-268 0 -440.5 166t-172.5 465z" />
<glyph horiz-adv-x="1335" d="M74 512q0 227 135 381q137 156 346 156q215 0 336 -152v125h289v-1022h-289v125q-115 -152 -336 -152q-207 0 -346 154q-135 156 -135 385zM360 512q0 -121 78 -205q76 -82 199 -82q82 0 149.5 43t104.5 111v266q-37 68 -104.5 110t-149.5 42q-123 0 -199 -82 q-78 -84 -78 -203zM862 1292q0 74 50.5 124t122 50t121.5 -50t50 -124q0 -72 -50 -122t-121.5 -50t-122 50t-50.5 122z" />
<glyph horiz-adv-x="2646" d="M74 512q0 227 135 381q137 156 346 156q215 0 336 -152v125h289v-125q115 152 311 152q111 0 198 -49.5t119 -125.5q51 78 147.5 126.5t205.5 48.5q168 0 266 -106.5t98 -303.5v-639h-289v573q0 211 -170 211q-66 0 -125 -38.5t-88 -100.5v-645h-288v573q0 211 -170 211 q-61 0 -123 -38.5t-92 -96.5v-649h-289v125q-115 -152 -336 -152q-207 0 -346 154q-135 156 -135 385zM360 512q0 -121 78 -205q76 -82 199 -82q82 0 149.5 43t104.5 111v266q-37 68 -104.5 110t-149.5 42q-123 0 -199 -82q-78 -84 -78 -203z" />
<glyph horiz-adv-x="2015" d="M74 512q0 227 135 381q137 156 346 156q215 0 336 -152v125h289v-123q137 150 342 150q176 0 274 -112t98 -310v-627h-288v567q0 111 -54.5 164t-140.5 53q-66 0 -130 -38t-101 -95v-651h-289v125q-115 -152 -336 -152q-207 0 -346 154q-135 156 -135 385zM360 512 q0 -121 78 -205q76 -82 199 -82q82 0 149.5 43t104.5 111v266q-37 68 -104.5 110t-149.5 42q-123 0 -199 -82q-78 -84 -78 -203z" />
<glyph horiz-adv-x="1947" d="M141 0v1434h289v-537q121 152 336 152q221 0 348 -189q145 188 410 189q168 0 303 -68v-246q-131 61 -260 62q-135 0 -228 -80q-90 -78 -90 -205t92.5 -207t225.5 -80q156 0 276 70v-246q-143 -76 -323 -76q-258 0 -406 189q-121 -188 -348 -189q-221 0 -336 152v-125 h-289zM430 379q37 -68 104.5 -111t149.5 -43q123 0 199 82q78 84 78 205q0 119 -78 203q-76 82 -199 82q-82 0 -149.5 -42t-104.5 -110v-266z" />
<glyph horiz-adv-x="2209" d="M141 0v1434h289v-537q121 152 336 152q211 0 338 -189q127 188 340 189q215 0 336 -152v537h288v-1434h-288v125q-115 -152 -336 -152q-213 0 -340 189q-123 -188 -338 -189q-221 0 -336 152v-125h-289zM430 379q37 -68 104.5 -111t149.5 -43q123 0 199 82q78 84 78 205 q0 119 -78 203q-76 82 -199 82q-82 0 -149.5 -42t-104.5 -110v-266zM1249 512q0 -121 78 -205q76 -82 199 -82q82 0 149.5 43t104.5 111v266q-37 68 -104.5 110t-149.5 42q-123 0 -199 -82q-78 -84 -78 -203z" />
<glyph horiz-adv-x="2193" d="M141 0v1434h289v-537q121 152 336 152q203 0 334 -187q129 186 336 187q217 -1 338 -146v119h288v-903q0 -262 -176 -401.5t-416 -139.5q-252 0 -401 88v260q164 -98 371 -98q63 0 118.5 13.5t106.5 43t80 86t29 133.5v64q-121 -145 -338 -145q-190 0 -320 161 q-61 -98 -153.5 -154.5t-196.5 -56.5q-221 0 -336 152v-125h-289zM430 379q37 -68 104.5 -111t149.5 -43q123 0 199 82q78 84 78 205q0 119 -78 203q-76 82 -199 82q-82 0 -149.5 -42t-104.5 -110v-266zM1249 534.5q0 -112.5 77 -187.5t194 -75q82 0 149.5 39t104.5 101v245 q-37 61 -104.5 100.5t-149.5 39.5q-121 0 -196 -75t-75 -187.5z" />
<glyph horiz-adv-x="2168" d="M141 0v1434h289v-537q121 152 336 152q221 0 348 -189q145 188 416 189q250 0 407 -156q160 -156 160 -381q0 -229 -160 -385q-159 -154 -407 -154q-272 0 -416 187q-123 -186 -348 -187q-221 0 -336 152v-125h-289zM430 379q37 -68 104.5 -111t149.5 -43q123 0 199 82 q78 84 78 205q0 119 -78 203q-76 82 -199 82q-82 0 -149.5 -42t-104.5 -110v-266zM1247 512q0 -123 80 -205t203 -82t203 82q80 84 79 205q0 123 -79 203q-80 82 -203 82t-203 -82q-80 -80 -80 -203z" />
<glyph horiz-adv-x="2207" d="M141 0v1434h289v-537q121 152 336 152q211 0 338 -189q127 188 338 189q221 0 336 -152v125h288v-1432h-288v535q-121 -152 -336 -152q-211 0 -338 189q-123 -188 -338 -189q-221 0 -336 152v-125h-289zM430 379q37 -68 104.5 -111t149.5 -43q123 0 199 82q78 84 78 205 q0 119 -78 203q-76 82 -199 82q-82 0 -149.5 -42t-104.5 -110v-266zM1247 510q0 -119 78 -203q76 -82 199 -82q82 0 149.5 42t104.5 110v266q-37 68 -104.5 111t-149.5 43q-123 0 -199 -82q-78 -84 -78 -205z" />
<glyph horiz-adv-x="2646" d="M74 512q0 227 135 381q137 156 346 156q215 0 336 -152v537h289v-537q115 152 311 152q111 0 198 -49.5t119 -125.5q51 78 147.5 126.5t205.5 48.5q168 0 266 -106.5t98 -303.5v-639h-289v573q0 211 -170 211q-66 0 -125 -38.5t-88 -100.5v-645h-288v573q0 211 -170 211 q-61 0 -123 -38.5t-92 -96.5v-649h-289v125q-115 -152 -336 -152q-207 0 -346 154q-135 156 -135 385zM360 512q0 -121 78 -205q76 -82 199 -82q82 0 149.5 43t104.5 111v266q-37 68 -104.5 110t-149.5 42q-123 0 -199 -82q-78 -84 -78 -203z" />
<glyph horiz-adv-x="1976" d="M74 512q0 227 135 381q137 156 346 156q215 0 336 -152v537h289v-785l352 373h354l-444 -461l514 -561h-373l-403 440v-440h-289v125q-115 -152 -336 -152q-207 0 -346 154q-135 156 -135 385zM360 512q0 -121 78 -205q76 -82 199 -82q82 0 149.5 43t104.5 111v266 q-37 68 -104.5 110t-149.5 42q-123 0 -199 -82q-78 -84 -78 -203z" />
<glyph horiz-adv-x="2064" d="M74 537q0 215 133 364q133 147 342 148q217 0 338 -146v531h289v-537q121 152 335 152q209 0 344 -156q137 -152 137.5 -381t-137.5 -385q-135 -154 -344 -154q-215 0 -335 146q0 -262 -176.5 -401.5t-415.5 -139.5q-252 0 -402 88v260q162 -98 371 -98q63 0 118.5 13.5 t106.5 43t80 86t29 133.5v64q-121 -145 -338 -145q-209 0 -342 147q-133 150 -133 367zM362 534.5q0 -112.5 77 -187.5t194 -75q82 0 149.5 39t104.5 101v245q-37 61 -104.5 100.5t-149.5 39.5q-121 0 -196 -75t-75 -187.5zM1176 379q37 -68 104.5 -111t149.5 -43 q123 0 198 82q78 84 78 205q0 119 -78 203q-76 82 -198 82q-82 0 -150 -42t-104 -110v-266z" />
<glyph horiz-adv-x="2011" d="M74 537q0 215 133 364q133 147 342 148q217 0 338 -146v531h289v-537q139 152 342 152q176 0 274 -112t98 -310v-627h-288v567q0 111 -54.5 164t-140.5 53q-66 0 -130 -38t-101 -95v-532q0 -262 -176.5 -401.5t-415.5 -139.5q-252 0 -402 88v260q162 -98 371 -98 q63 0 118.5 13.5t106.5 43t80 86t29 133.5v64q-121 -145 -338 -145q-209 0 -342 147q-133 150 -133 367zM362 534.5q0 -112.5 77 -187.5t194 -75q82 0 149.5 39t104.5 101v245q-37 61 -104.5 100.5t-149.5 39.5q-121 0 -196 -75t-75 -187.5z" />
<glyph d="M74 537q0 215 133 364q133 147 342 148q217 -1 338 -146v119h289v-903q0 -262 -176.5 -401.5t-415.5 -139.5q-252 0 -402 88v260q162 -98 371 -98q63 0 118.5 13.5t106.5 43t80 86t29 133.5v64q-121 -145 -338 -145q-209 0 -342 147q-133 150 -133 367zM362 534.5 q0 -112.5 77 -187.5t194 -75q82 0 149.5 39t104.5 101v245q-37 61 -104.5 100.5t-149.5 39.5q-121 0 -196 -75t-75 -187.5zM858 1292q0 74 50 124t122 50t122 -50t50 -124q0 -72 -50 -122t-122 -50t-122 50t-50 122z" />
<glyph horiz-adv-x="1972" d="M74 537q0 215 133 364q133 148 342 148q217 0 338 -146v531h289v-785l352 373h354l-444 -461l514 -561h-373l-403 440v-321q0 -262 -176.5 -401.5t-415.5 -139.5q-252 0 -402 88v260q162 -98 371 -98q63 0 118.5 13.5t106.5 43t80 86t29 133.5v64q-121 -145 -338 -145 q-209 0 -342 147q-133 150 -133 367zM362 534.5q0 -112.5 77 -187.5t194 -75q82 0 149.5 39t104.5 101v245q-37 61 -104.5 100.5t-149.5 39.5q-121 0 -196 -75t-75 -187.5z" />
<glyph horiz-adv-x="2641" d="M74 537q0 215 133 364q133 147 342 148q217 -1 338 -146v119h289v-125q115 152 311 152q111 0 198 -49.5t119 -125.5q51 78 147.5 126.5t205.5 48.5q168 0 266 -106.5t98 -303.5v-639h-289v573q0 211 -170 211q-66 0 -125 -38.5t-88 -100.5v-645h-288v573q0 211 -170 211 q-61 0 -123 -38.5t-92 -96.5v-530q0 -262 -176.5 -401.5t-415.5 -139.5q-252 0 -402 88v260q162 -98 371 -98q63 0 118.5 13.5t106.5 43t80 86t29 133.5v64q-121 -145 -338 -145q-209 0 -342 147q-133 150 -133 367zM362 534.5q0 -112.5 77 -187.5t194 -75q82 0 149.5 39 t104.5 101v245q-37 61 -104.5 100.5t-149.5 39.5q-121 0 -196 -75t-75 -187.5z" />
<glyph horiz-adv-x="2011" d="M74 537q0 215 133 364q133 147 342 148q217 -1 338 -146v119h289v-123q137 150 342 150q176 0 274 -112t98 -310v-627h-288v567q0 111 -54.5 164t-140.5 53q-66 0 -130.5 -37.5t-100.5 -95.5v-532q0 -262 -176.5 -401.5t-415.5 -139.5q-252 0 -402 88v260 q162 -98 371 -98q63 0 118.5 13.5t106.5 43t80 86t29 133.5v64q-121 -145 -338 -145q-209 0 -342 147q-133 150 -133 367zM362 534.5q0 -112.5 77 -187.5t194 -75q82 0 149.5 39t104.5 101v245q-37 61 -104.5 100.5t-149.5 39.5q-121 0 -196 -75t-75 -187.5z" />
<glyph horiz-adv-x="1282" d="M127 1292q0 74 50 124t122 50t122 -50t50 -124q0 -72 -50 -122t-122 -50t-122 50t-50 122zM158 0v1022h288v-123q137 150 342 150q176 0 274.5 -112t98.5 -310v-627h-289v567q0 111 -54 164t-140 53q-66 0 -130.5 -38t-101.5 -95v-651h-288z" />
<glyph horiz-adv-x="1910" d="M127 1292q0 74 50 124t122 50t122 -50t50 -124q0 -72 -50 -122t-122 -50t-122 50t-50 122zM156 0v1022h288v-125q115 152 312 152q111 0 197.5 -49.5t119.5 -125.5q51 78 147.5 126.5t204.5 48.5q168 0 266.5 -106.5t98.5 -303.5v-639h-289v573q0 211 -170 211 q-66 0 -125 -38.5t-88 -100.5v-645h-289v573q0 211 -170 211q-61 0 -122.5 -38.5t-92.5 -96.5v-649h-288z" />
<glyph horiz-adv-x="2170" d="M74 512q0 225 159 381q158 156 408 156q270 0 416 -189q127 188 348 189q215 0 336 -152v537h289v-1434h-289v125q-115 -152 -336 -152q-225 0 -348 187q-144 -187 -416 -187q-248 0 -408 154q-160 156 -159 385zM358 512q0 -123 80 -205t203 -82t203 82q80 84 80 205 q0 123 -80 203q-80 82 -203 82t-203 -82q-80 -80 -80 -203zM1210 512q0 -121 78 -205q76 -82 199 -82q82 0 149.5 43t104.5 111v266q-37 68 -104.5 110t-149.5 42q-123 0 -199 -82q-78 -84 -78 -203z" />
<glyph horiz-adv-x="2154" d="M74 512q0 227 159 381q158 156 408 156q260 0 410 -191q123 190 346 191q217 -1 338 -146v119h288v-903q0 -262 -176 -401.5t-415 -139.5q-252 0 -402 88v260q162 -98 371 -98q63 0 118.5 13.5t106.5 43t80 86t29 133.5v64q-121 -145 -338 -145q-205 0 -328 165 q-150 -215 -428 -215q-248 0 -408 154q-160 156 -159 385zM358 512q0 -123 80 -205t203 -82t203 82q80 84 80 205q0 123 -80 203q-80 82 -203 82t-203 -82q-80 -80 -80 -203zM1210 534.5q0 -112.5 77 -187.5t194 -75q82 0 149.5 39t104.5 101v245q-37 61 -104.5 100.5 t-149.5 39.5q-121 0 -196 -75t-75 -187.5z" />
<glyph horiz-adv-x="2170" d="M74 512q0 225 159 381q158 156 408 156q270 0 416 -189q127 188 348 189q215 0 336 -152v125h289v-1432h-289v535q-115 -152 -336 -152q-225 0 -348 187q-144 -187 -416 -187q-248 0 -408 154q-160 156 -159 385zM358 512q0 -123 80 -205t203 -82t203 82q80 84 80 205 q0 123 -80 203q-80 82 -203 82t-203 -82q-80 -80 -80 -203zM1210 512q0 -121 78 -205q76 -82 199 -82q82 0 149.5 43t104.5 111v266q-37 68 -104.5 110t-149.5 42q-123 0 -199 -82q-78 -84 -78 -203z" />
<glyph horiz-adv-x="1947" d="M141 -410v1432h289v-125q121 152 336 152q221 0 348 -189q145 188 410 189q168 0 303 -68v-246q-131 61 -260 62q-135 0 -228 -80q-90 -78 -90 -205t92.5 -207t225.5 -80q156 0 276 70v-246q-143 -76 -323 -76q-258 0 -406 189q-121 -188 -348 -189q-221 0 -336 152v-535 h-289zM430 379q37 -68 104.5 -111t149.5 -43q123 0 199 82q78 84 78 205q0 119 -78 203q-76 82 -199 82q-82 0 -149.5 -42t-104.5 -110v-266z" />
<glyph horiz-adv-x="2207" d="M141 -410v1432h289v-125q115 152 336 152q211 0 338 -189q127 188 338 189q215 0 336 -152v537h288v-1434h-288v125q-115 -152 -336 -152q-215 0 -338 189q-127 -189 -338 -189q-215 0 -336 152v-535h-289zM430 377q37 -68 104.5 -110t149.5 -42q123 0 199 82 q78 84 78 203q0 121 -78 205q-76 82 -199 82q-82 0 -149.5 -43t-104.5 -111v-266zM1247 512q0 -121 78 -205q76 -82 199 -82q82 0 149.5 43t104.5 111v266q-37 68 -104.5 110t-149.5 42q-123 0 -199 -82q-78 -84 -78 -203z" />
<glyph horiz-adv-x="2193" d="M141 -410v1432h289v-125q121 152 336 152q203 0 334 -187q129 186 336 187q217 -1 338 -146v119h288v-903q0 -262 -176 -401.5t-416 -139.5q-252 0 -401 88v260q164 -98 371 -98q63 0 118.5 13.5t106.5 43t80 86t29 133.5v64q-121 -145 -338 -145q-190 0 -320 161 q-61 -98 -153.5 -154.5t-196.5 -56.5q-221 0 -336 152v-535h-289zM430 379q37 -68 104.5 -111t149.5 -43q123 0 199 82q78 84 78 205q0 119 -78 203q-76 82 -199 82q-82 0 -149.5 -42t-104.5 -110v-266zM1249 534.5q0 -112.5 77 -187.5t194 -75q82 0 149.5 39t104.5 101v245 q-37 61 -104.5 100.5t-149.5 39.5q-121 0 -196 -75t-75 -187.5z" />
<glyph horiz-adv-x="2168" d="M141 -410v1432h289v-125q121 152 336 152q221 0 348 -189q145 188 416 189q250 0 407 -156q160 -156 160 -381q0 -229 -160 -385q-159 -154 -407 -154q-272 0 -416 187q-123 -186 -348 -187q-221 0 -336 152v-535h-289zM430 379q37 -68 104.5 -111t149.5 -43 q123 0 199 82q78 84 78 205q0 119 -78 203q-76 82 -199 82q-82 0 -149.5 -42t-104.5 -110v-266zM1247 512q0 -123 80 -205t203 -82t203 82q80 84 79 205q0 123 -79 203q-80 82 -203 82t-203 -82q-80 -80 -80 -203z" />
<glyph horiz-adv-x="2207" d="M141 -410v1432h289v-125q115 152 336 152q211 0 338 -189q127 188 338 189q215 0 336 -152v125h288v-1432h-288v535q-115 -152 -336 -152q-215 0 -338 189q-127 -189 -338 -189q-215 0 -336 152v-535h-289zM430 377q37 -68 104.5 -110t149.5 -42q123 0 199 82 q78 84 78 203q0 121 -78 205q-76 82 -199 82q-82 0 -149.5 -43t-104.5 -111v-266zM1247 512q0 -121 78 -205q76 -82 199 -82q82 0 149.5 43t104.5 111v266q-37 68 -104.5 110t-149.5 42q-123 0 -199 -82q-78 -84 -78 -203z" />
<glyph horiz-adv-x="2015" d="M74 510q0 229 135 383q137 156 346 156q221 0 336 -152v125h289v-123q137 150 342 150q176 0 274 -112t98 -310v-627h-288v567q0 111 -54.5 164t-140.5 53q-66 0 -130 -37.5t-101 -95.5v-1061h-289v535q-121 -152 -336 -152q-207 0 -346 154q-135 156 -135 383zM360 510 q0 -119 78 -203q76 -82 199 -82q82 0 149.5 42t104.5 110v266q-37 68 -104.5 111t-149.5 43q-123 0 -199 -82q-78 -84 -78 -205z" />
<glyph horiz-adv-x="1282" d="M123 395v627h289v-567q0 -111 54 -164t140 -53q66 0 130.5 37.5t101.5 95.5v651h288v-1022h-288v123q-137 -150 -342 -150q-176 0 -274.5 112t-98.5 310zM809 1292q0 74 50 124t122 50t122 -50t50 -124q0 -72 -50 -122t-122 -50t-122 50t-50 122z" />
<glyph horiz-adv-x="2592" d="M123 395v627h289v-567q0 -111 54 -164t140 -53q66 0 130.5 38t101.5 95v651h288v-125q115 152 312 152q111 0 197.5 -49.5t119.5 -125.5q51 78 147.5 126.5t204.5 48.5q168 0 266.5 -106.5t98.5 -303.5v-639h-289v573q0 211 -170 211q-66 0 -125 -38.5t-88 -100.5v-645 h-289v573q0 211 -170 211q-61 0 -122.5 -38.5t-92.5 -96.5v-649h-288v123q-137 -150 -342 -150q-176 0 -274.5 112t-98.5 310z" />
<glyph horiz-adv-x="1961" d="M123 395v627h289v-567q0 -111 54 -164t140 -53q66 0 130.5 37.5t101.5 95.5v651h288v-123q137 150 342 150q176 0 274.5 -112t98.5 -310v-627h-289v567q0 111 -54 164t-140 53q-66 0 -130.5 -38t-101.5 -95v-651h-288v123q-137 -150 -342 -150q-176 0 -274.5 112 t-98.5 310z" />
<glyph horiz-adv-x="1923" d="M123 395v627h289v-567q0 -111 54 -164t140 -53q66 0 130.5 38t101.5 95v1063h288v-785l353 373h354l-444 -461l514 -561h-373l-404 440v-440h-288v123q-137 -150 -342 -150q-176 0 -274.5 112t-98.5 310z" />
<glyph horiz-adv-x="2623" d="M158 0v1434h1052v-265h-757v-276h610v-260h-610v-369h739l502 1178h282l615 -1442h-314l-141 332h-606l-141 -332h-1231zM1622 575h420l-209 498z" />
<glyph horiz-adv-x="2570" d="M158 0v1434h293l415 -594l416 594h295v-566l528 566h361l-608 -658l712 -776h-377l-616 662v-662h-295v981l-330 -461h-164l-335 461v-981h-295z" />
<glyph horiz-adv-x="2856" d="M158 0v1434h293l415 -594l416 594h293l416 -594l415 594h291v-1434h-291v981l-329 -461h-164l-336 461v-981h-295v981l-330 -461h-164l-335 461v-981h-295z" />
<glyph horiz-adv-x="2666" d="M61 1169v265h1498v-934l694 934h254v-1434h-293v940l-703 -940h-247v1169h-455v-1169h-295v1169h-453z" />
<glyph horiz-adv-x="2658" d="M61 1169v265h1498v-537h647v537h293v-1434h-293v629h-647v-629h-295v1169h-455v-1169h-295v1169h-453z" />
<glyph horiz-adv-x="2656" d="M158 0v1434h293v-537h647v537h1497v-265h-453v-1169h-295v1169h-454v-1169h-295v629h-647v-629h-293z" />
<glyph horiz-adv-x="2408" d="M158 0v1434h295v-537h647v537h674q199 0 316.5 -94.5t117.5 -264.5q0 -104 -51.5 -178t-128.5 -106q117 -25 204 -127q86 -100 86 -256q0 -182 -135 -295q-133 -113 -362 -113h-721v629h-647v-629h-295zM1395 254h370q111 0 172.5 48t61.5 138t-61.5 139.5t-172.5 49.5 h-370v-375zM1395 872h331q92 0 144.5 41t52.5 115q0 76 -52 118t-145 42h-331v-316z" />
<glyph horiz-adv-x="2252" d="M158 0v1434h295v-537h647v537h1052v-265h-757v-276h610v-260h-610v-369h780v-264h-1075v629h-647v-629h-295z" />
<glyph horiz-adv-x="2387" d="M158 0v1434h295v-537h647v537h295v-566l528 566h361l-609 -658l713 -776h-377l-616 662v-662h-295v629h-647v-629h-295z" />
<glyph horiz-adv-x="2674" d="M158 0v1434h295v-537h647v537h293l415 -594l416 594h291v-1434h-291v981l-330 -461h-163l-336 461v-981h-295v629h-647v-629h-295z" />
<glyph horiz-adv-x="2291" d="M158 0v1434h295v-537h647v537h626q231 0 365 -121q135 -119 135 -312q0 -195 -135 -313q-133 -121 -365 -121h-331v-567h-295v629h-647v-629h-295zM1395 819h311q106 0 165.5 46t59.5 132t-59.5 132.5t-165.5 46.5h-311v-357z" />
<glyph horiz-adv-x="2676" d="M158 0v1434h293l415 -594l416 594h295v-537h647v537h293v-1434h-293v629h-647v-629h-295v981l-330 -461h-164l-335 461v-981h-295z" />
<glyph horiz-adv-x="2590" d="M158 0v1434h293l415 -594l416 594h674q199 0 316.5 -94.5t117.5 -264.5q0 -104 -51 -178t-129 -106q117 -25 205 -127q86 -100 86 -256q0 -182 -136 -295q-133 -113 -362 -113h-721v981l-330 -461h-164l-335 461v-981h-295zM1577 254h371q111 0 172 48t61 138 t-61.5 139.5t-171.5 49.5h-371v-375zM1577 872h332q92 0 144 41t52 115q0 76 -52 118t-144 42h-332v-316z" />
<glyph horiz-adv-x="2435" d="M158 0v1434h293l415 -594l416 594h1053v-265h-758v-276h610v-260h-610v-369h780v-264h-1075v981l-330 -461h-164l-335 461v-981h-295z" />
<glyph horiz-adv-x="2623" d="M158 0v1434h1052v-265h-757v-276h610v-260h-610v-369h739l502 1178h282l615 -1442h-314l-141 332h-606l-141 -332h-1231zM1622 575h420l-209 498z" />
<glyph horiz-adv-x="2570" d="M158 0v1434h293l415 -594l416 594h295v-566l528 566h361l-608 -658l712 -776h-377l-616 662v-662h-295v981l-330 -461h-164l-335 461v-981h-295z" />
<glyph horiz-adv-x="2856" d="M158 0v1434h293l415 -594l416 594h293l416 -594l415 594h291v-1434h-291v981l-329 -461h-164l-336 461v-981h-295v981l-330 -461h-164l-335 461v-981h-295z" />
<glyph horiz-adv-x="1947" d="M141 -410v1432h289v-125q121 152 336 152q221 0 348 -189q145 188 410 189q168 0 303 -68v-246q-131 61 -260 62q-135 0 -228 -80q-90 -78 -90 -205t92.5 -207t225.5 -80q156 0 276 70v-246q-143 -76 -323 -76q-258 0 -406 189q-121 -188 -348 -189q-221 0 -336 152v-535 h-289zM430 379q37 -68 104.5 -111t149.5 -43q123 0 199 82q78 84 78 205q0 119 -78 203q-76 82 -199 82q-82 0 -149.5 -42t-104.5 -110v-266z" />
<glyph horiz-adv-x="2168" d="M141 -410v1432h289v-125q121 152 336 152q221 0 348 -189q145 188 416 189q250 0 407 -156q160 -156 160 -381q0 -229 -160 -385q-159 -154 -407 -154q-272 0 -416 187q-123 -186 -348 -187q-221 0 -336 152v-535h-289zM430 379q37 -68 104.5 -111t149.5 -43 q123 0 199 82q78 84 78 205q0 119 -78 203q-76 82 -199 82q-82 0 -149.5 -42t-104.5 -110v-266zM1247 512q0 -123 80 -205t203 -82t203 82q80 84 79 205q0 123 -79 203q-80 82 -203 82t-203 -82q-80 -80 -80 -203z" />
<glyph horiz-adv-x="1087" d="M-104 1317q0 61 45 105t106 44q63 0 107.5 -43t44.5 -106.5t-44.5 -107.5t-107.5 -44q-61 0 -106 44t-45 108zM129 0v1022h289v-1022h-289zM391 1316.5q0 63.5 43 106.5q45 43 108.5 43t106.5 -43q45 -43 45 -106.5t-45 -108.5q-43 -43 -106.5 -43t-108.5 43 q-43 45 -43 108.5zM672 0v1022h289v-1022h-289zM889 1316.5q0 63.5 43 106.5q45 43 108.5 43t106.5 -43q45 -43 45 -106.5t-45 -108.5q-43 -43 -106.5 -43t-108.5 43q-43 45 -43 108.5z" />
<glyph horiz-adv-x="2129" d="M74 512q0 227 159 381q158 156 408 156q266 0 424 -189q158 188 426 189q250 0 407 -156q160 -156 160 -381q0 -229 -160 -385q-160 -154 -407 -154q-272 0 -426 187q-154 -187 -424 -187q-248 0 -408 154q-160 156 -159 385zM358 512q0 -123 80 -205t203 -82t203 82 q80 84 80 205q0 123 -80 203q-80 82 -203 82t-203 -82q-80 -80 -80 -203zM1208 512q0 -123 80 -205t203 -82t203 82q80 84 80 205q0 123 -80 203q-80 82 -203 82t-203 -82q-80 -80 -80 -203z" />
<glyph horiz-adv-x="1908" d="M74 512q0 227 159 381q158 156 408 156q248 0 424 -189q172 188 420 189q168 0 303 -68v-246q-133 61 -260 62q-135 0 -228 -80q-90 -78 -90 -205t92.5 -207t225.5 -80q158 0 276 70v-246q-143 -76 -323 -76q-244 0 -416 189q-170 -188 -424 -189q-248 0 -408 154 q-160 156 -159 385zM358 512q0 -123 80 -205t203 -82t203 82q80 84 80 205q0 123 -80 203q-80 82 -203 82t-203 -82q-80 -80 -80 -203z" />
<glyph horiz-adv-x="2889" d="M109 717q0 315 210 528q211 217 533 217q182 0 336.5 -75.5t255.5 -212.5q104 137 257.5 212.5t336.5 75.5q319 0 530 -217q213 -217 213 -528q0 -309 -213 -529q-211 -217 -530 -217q-182 0 -336 76t-258 211q-100 -135 -255 -211t-337 -76q-322 0 -532.5 217.5 t-210.5 528.5zM410 717q0 -205 125 -336q127 -133 317 -133q188 0 315 133t127 336t-127 336t-315 133q-190 0 -317 -133q-125 -131 -125 -336zM1595 717q0 -205 125 -336q127 -133 318 -133q188 0 315 133t127 336t-127 336t-315 133q-190 0 -318 -133q-125 -131 -125 -336 z" />
<glyph horiz-adv-x="2572" d="M109 717q0 315 210 528q211 217 533 217q182 0 336.5 -75.5t255.5 -212.5q106 137 269 212.5t358 75.5q209 0 378 -90v-297q-166 111 -376 111q-203 0 -342 -133q-135 -131 -135.5 -336t139.5 -338q137 -131 350 -131q236 0 393 125v-297q-176 -105 -407 -105 q-195 0 -358 76t-269 213q-100 -137 -255 -213t-337 -76q-322 0 -532.5 217.5t-210.5 528.5zM410 717q0 -205 125 -336q127 -133 317 -133q188 0 315 133t127 336t-127 336t-315 133q-190 0 -317 -133q-125 -131 -125 -336z" />
<glyph horiz-adv-x="1200" d="M-61 1708q0 61 45 105.5t106 44.5q63 0 107.5 -43t44.5 -106.5t-44.5 -108t-107.5 -44.5q-61 0 -106 44.5t-45 107.5zM168 0v1434h293v-1434h-293zM451 1708q0 64 43 107q45 43 108.5 43t106.5 -43t43 -107t-43 -109q-43 -43 -106.5 -43t-108.5 43q-43 45 -43 109zM739 0 v1434h293v-1434h-293zM961 1708q0 64 43 107q45 43 108.5 43t106.5 -43t43 -107t-43 -109q-43 -43 -106.5 -43t-108.5 43q-43 45 -43 109z" />
<glyph horiz-adv-x="2473" d="M158 0v1434h293l415 -594l416 594h627q231 0 364 -121q135 -119 135 -312q0 -195 -135 -313q-133 -121 -364 -121h-332v-567h-295v981l-330 -461h-164l-335 461v-981h-295zM1577 819h311q106 0 166 46t60 132t-59.5 132.5t-166.5 46.5h-311v-357z" />
<glyph horiz-adv-x="1703" d="M109 717q0 315 210 528q211 217 533 217q319 0 530 -217q213 -217 213 -528q0 -201 -94 -371t-256 -268l295 -389h-346l-221 293q-72 -11 -121 -11q-322 0 -532.5 217.5t-210.5 528.5zM410 717q0 -205 125 -336q127 -133 317 -133q188 0 315 133t127 336t-127 336 t-315 133q-190 0 -317 -133q-125 -131 -125 -336z" />
<glyph horiz-adv-x="2512" d="M158 0v1434h295v-936l694 936h254v-936l694 936h258v-1434h-295v942l-702 -942h-248v942l-702 -942h-248zM1362 1862h217q0 -68 41 -109t111 -41q68 0 108.5 41t42.5 109h219q-2 -162 -106 -256q-102 -95 -262 -95q-164 0 -266.5 95.5t-104.5 255.5z" />
<glyph horiz-adv-x="2265" d="M139 602v832h293v-842q0 -166 87 -255t233 -89q147 0 234 89t87 255v842h627q231 0 364 -121q135 -119 136 -312q0 -195 -136 -313q-133 -121 -364 -121h-332q-8 -283 -182 -440q-170 -156 -434 -156q-268 0 -440.5 166t-172.5 465zM1368 819h311q106 0 166 46t60 132 t-59.5 132.5t-166.5 46.5h-311v-357z" />
<glyph horiz-adv-x="2553" d="M158 0v1434h252l723 -918v918h251l723 -918v918h287v-1434h-244l-729 922v-922h-245l-730 922v-922h-288z" />
<glyph horiz-adv-x="2469" d="M158 0v1434h252l723 -918v918h663q229 0 361 -119q133 -117 133 -305q0 -143 -79 -249t-218 -149l442 -612h-342l-418 580h-248v-580h-251l-730 922v-922h-288zM1427 827h353q100 0 156.5 45.5t56.5 128.5q0 82 -56.5 128.5t-156.5 46.5h-353v-349z" />
<glyph horiz-adv-x="1320" d="M74 512q0 227 135 381q137 156 346 156q215 0 336 -152v125h289v-1022h-289v125q-115 -152 -336 -152q-207 0 -346 154q-135 156 -135 385zM360 512q0 -121 78 -205q76 -82 199 -82q82 0 149.5 43t104.5 111v266q-37 68 -104.5 110t-149.5 42q-123 0 -199 -82 q-78 -84 -78 -203z" />
<glyph horiz-adv-x="1355" d="M86 473q0 186 115 297q111 111 270 133l-295 309v222h914v-258h-537l260 -267v-229q-61 20 -151 20q-127 0 -205 -63.5t-78 -163.5q0 -113 88 -177.5t227 -64.5q145 0 264 70v487h289v-616q-219 -201 -567 -201q-248 0 -422 140q-172 139 -172 362z" />
<glyph horiz-adv-x="571" d="M141 0v1434h289v-1434h-289z" />
<glyph horiz-adv-x="1320" d="M74 512q0 227 135 381q137 156 346 156q215 0 336 -152v125h289v-1022h-289v125q-115 -152 -336 -152q-207 0 -346 154q-135 156 -135 385zM360 512q0 -121 78 -205q76 -82 199 -82q82 0 149.5 43t104.5 111v266q-37 68 -104.5 110t-149.5 42q-123 0 -199 -82 q-78 -84 -78 -203z" />
</font>
</defs>
</svg>
