<svg width="21" height="21" fill="none" xmlns="http://www.w3.org/2000/svg"><circle cx="10.5" cy="10.5" r="10.5" fill="#FC4D5A"/><path d="M12.03 11.766v-.742a2.965 2.965 0 0 0 1.568-.896 2.702 2.702 0 0 0 .672-1.764c0-.84-.378-1.526-.882-2.002-.504-.476-1.302-.91-2.478-.91-1.176 0-1.974.448-2.436.91-.42.42-.798 1.106-.84 1.988h2.464c0-.28.098-.546.252-.7.126-.14.336-.238.602-.238.266 0 .518.098.672.266.168.168.238.434.238.658 0 .266-.112.56-.322.77-.336.336-.882.462-1.316.462-.182 0-.322-.028-.476-.07v2.268h2.282zm-1.078 3.444c.364 0 .728-.14 1.022-.434.252-.252.42-.56.42-1.022 0-.462-.168-.77-.406-1.008a1.478 1.478 0 0 0-1.05-.448 1.39 1.39 0 0 0-1.008.434 1.426 1.426 0 0 0-.434 1.022c0 .504.252.84.434 1.022a1.42 1.42 0 0 0 1.022.434z" fill="#fff"/></svg>