<svg width="58" height="63" fill="none" xmlns="http://www.w3.org/2000/svg"><path d="M36.284 26.009a.969.969 0 0 0-.56.282c-3.204 3.131-5.602 5.715-8.66 8.737l-3.48-2.867a.968.968 0 0 0-.702-.22.98.98 0 0 0-.655.33.932.932 0 0 0-.223.685.919.919 0 0 0 .34.638l4.16 3.432a.975.975 0 0 0 1.3-.058c3.433-3.355 5.887-6.044 9.28-9.36a.915.915 0 0 0 .194-1.082.947.947 0 0 0-.41-.416.981.981 0 0 0-.584-.101z" fill="#fff" stroke="#fff" stroke-width=".3"/><path d="M28.703 1.013a.663.663 0 0 0-.27.145C20.642 7.602 11.611 12.516 1.746 15.393a.663.663 0 0 0-.477.56A39.8 39.8 0 0 0 1 20.572c0 17.704 11.635 37.163 27.682 41.42a.662.662 0 0 0 .332 0c16.047-4.257 27.682-23.716 27.682-41.42 0-1.56-.093-3.111-.27-4.62a.663.663 0 0 0-.476-.56c-9.866-2.877-18.896-7.791-26.688-14.235a.663.663 0 0 0-.56-.145zm.145 1.471c7.708 6.29 16.577 11.13 26.273 14.028.143 1.334.249 2.687.249 4.06 0 17.054-11.385 35.94-26.522 40.073C13.71 56.512 2.326 37.626 2.326 20.573c0-1.374.106-2.727.249-4.061C12.27 13.614 21.14 8.775 28.848 2.484z" fill="#fff" stroke="#fff" stroke-width=".8"/><circle cx="29" cy="32" r="13" stroke="#fff" stroke-width="2"/></svg>