<svg width="64" height="60" fill="none" xmlns="http://www.w3.org/2000/svg"><path d="M62.784 17.096L47.08 1.208a.663.663 0 0 0-.965 0l-7.163 7.215c-2.824-.069-5.097.07-6.957.417-1.86-.347-4.064-.486-6.957-.417l-7.094-7.215a.663.663 0 0 0-.964 0L1.207 17.096a.674.674 0 0 0 0 .971L8.3 25.213c-.826 4.44-.207 8.117 2.204 11.864l-3.72 3.746a4.43 4.43 0 0 0-1.308 3.122c0 1.18.482 2.29 1.309 3.122.826.833 1.86 1.249 2.962 1.318l-.896.902a4.43 4.43 0 0 0-1.309 3.122c0 1.18.483 2.29 1.31 3.122.826.833 1.928 1.318 3.099 1.318 1.17 0 2.273-.485 3.1-1.318l.895-.902c0 1.11.482 2.15 1.308 2.983.827.833 1.998 1.319 3.1 1.319s2.273-.417 3.1-1.319l3.306-3.33 2.273 2.29c.826.832 1.928 1.318 3.099 1.318 1.17 0 2.273-.486 3.1-1.318.826-.833 1.24-1.943 1.308-2.983l4.064 4.093c.827.832 1.998 1.318 3.1 1.318s2.273-.416 3.1-1.318c.826-.833 1.239-1.943 1.308-2.983l.895.901c.827.833 1.998 1.319 3.1 1.319s2.273-.417 3.1-1.319a4.42 4.42 0 0 0 0-6.244l-.896-.901c1.102 0 2.135-.486 2.962-1.319a4.43 4.43 0 0 0 1.308-3.122 4.43 4.43 0 0 0-1.308-3.122l-3.927-4.024c2.273-3.885 3.031-7.77 2.411-11.655l7.095-7.146a.747.747 0 0 0-.07-.971zm-50.832 29.07a3.011 3.011 0 0 1-2.136.901 3.011 3.011 0 0 1-2.135-.902 3.055 3.055 0 0 1-.895-2.15c0-.833.344-1.596.895-2.151l3.582-3.608c.895 1.249 1.997 2.498 3.306 3.816l.689.694-3.306 3.4zm2.135 8.394a3.011 3.011 0 0 1-2.135.902 3.011 3.011 0 0 1-2.136-.902 3.055 3.055 0 0 1-.895-2.15c0-.833.344-1.597.895-2.152l6.475-6.521 2.273 2.29 1.997 2.011-3.306 3.33-3.168 3.192zm8.403 2.15a3.02 3.02 0 0 1-4.27 0 3.072 3.072 0 0 1 0-4.3l3.306-3.331 4.27 4.301-3.306 3.33zm34.646-12.696c0 .833-.345 1.596-.896 2.151a3.02 3.02 0 0 1-4.27 0l-8.334-8.464-5.235-5.273a.663.663 0 0 0-.964 0 .674.674 0 0 0 0 .972l5.234 5.272 8.404 8.464 3.168 3.192a3.072 3.072 0 0 1 0 4.301 3.02 3.02 0 0 1-4.27 0l-3.1-3.122L33.717 37.84a.663.663 0 0 0-.964 0 .674.674 0 0 0 0 .971L45.84 52.409a3.073 3.073 0 0 1 0 4.302 3.02 3.02 0 0 1-4.27 0l-6.27-6.314-7.783-7.77a.663.663 0 0 0-.964 0 .674.674 0 0 0 0 .971l7.714 7.77a3.073 3.073 0 0 1 0 4.302 3.011 3.011 0 0 1-2.135.902 3.011 3.011 0 0 1-2.135-.902l-2.755-2.775-8.817-8.88-1.722-1.735-1.17-1.18c-5.442-5.48-7.026-9.92-5.855-16.026v-.347c0-.07 0-.07-.07-.139 0-.069-.068-.069-.068-.138 0 0 0-.07-.069-.07l-6.888-6.937 14.74-14.847 6.888 6.937c.138.14.276.209.413.209h.07c1.446-.07 2.685 0 3.787 0-2.617 1.11-4.546 2.983-7.163 5.689l-7.852 8.048a4.429 4.429 0 0 0-1.309 3.122 4.43 4.43 0 0 0 1.309 3.122c.826.832 1.997 1.318 3.1 1.318 1.102 0 2.273-.417 3.099-1.319l5.58-5.62c.826.14 1.583.278 2.41.278 2.755 0 5.579-.97 8.472-2.844L56.24 41.794c.62.625.896 1.388.896 2.22zm-4.822-8.186L37.3 20.773c.275-.208.55-.347.758-.555.275-.208.344-.694.137-.972-.206-.277-.689-.346-.964-.138-4.202 3.26-8.265 4.51-12.054 3.607h-.345c-.069 0-.069 0-.138.07-.069 0-.069.07-.138.07 0 0-.069 0-.069.068l-5.854 5.898a3.02 3.02 0 0 1-4.27 0 3.055 3.055 0 0 1-.896-2.151c0-.833.344-1.596.895-2.15l7.99-8.049c5.097-5.134 7.37-6.938 16.807-6.66h.069c.137 0 .275-.07.413-.208l6.888-6.938 14.74 14.847-6.888 6.938s0 .07-.07.07c0 .069-.068.069-.068.138 0 .07-.069.07-.069.139v.347c.827 3.538.138 7.145-1.86 10.684z" fill="#fff" stroke="#fff"/></svg>