<svg width="54" height="50" fill="none" xmlns="http://www.w3.org/2000/svg"><path d="M51.75 0H0v2.233h51.75V0zm-31.5 11.167H0V13.4h20.25v-2.233zm-4.5 11.166H0v2.234h15.75v-2.234zm0 11.167H0v2.233h15.75V33.5zm22.5 6.7c-8.683 0-15.75-7.015-15.75-15.633 0-8.621 7.067-15.634 15.75-15.634S54 15.946 54 24.567C54 33.185 46.933 40.2 38.25 40.2zm0-29.033c-7.445 0-13.5 6.01-13.5 13.4 0 7.39 6.055 13.4 13.5 13.4s13.5-6.01 13.5-13.4c0-7.39-6.055-13.4-13.5-13.4z" fill="#fff"/><path d="M27.618 33.54L13.539 47.516l1.591 1.58L29.209 35.12l-1.591-1.58z" fill="#fff"/><path d="M45.597 18.986a.968.968 0 0 0-.56.283c-3.204 3.13-5.602 5.714-8.66 8.736l-3.48-2.866a.969.969 0 0 0-.703-.22.98.98 0 0 0-.655.33.933.933 0 0 0-.223.685.919.919 0 0 0 .34.638l4.16 3.432a.976.976 0 0 0 1.3-.059c3.434-3.354 5.887-6.044 9.28-9.36a.915.915 0 0 0 .194-1.082.947.947 0 0 0-.41-.415.982.982 0 0 0-.583-.102z" fill="#fff" stroke="#206CDE" stroke-width=".3"/></svg>