<svg width="802" height="459" fill="none" xmlns="http://www.w3.org/2000/svg"><path fill-rule="evenodd" clip-rule="evenodd" d="M800.33 286.464c.835 0 1.67-.835 1.67-1.67-.835-.835-1.67-2.505-2.505-2.505h-.835c.835.835 0 2.505.835 2.505 0 1.67 0 1.67.835 1.67zm-5.011-11.693c0 .835 1.67 2.505 1.67 2.505.835 0 1.67-.835 1.67-.835 0-.835.835-2.505.835-4.175-.835-1.67.835-3.34-.835-4.176l-1.67-.835v1.671c0 1.67.835 1.67 0 2.505 0 1.67-.835 1.67-1.67 3.34zm2.505-11.691v1.67s0 .835.835 1.67c.835 0 1.671 0 1.671-.835l-1.671-.835c-.835-.835-.835-.835-.835-1.67zm-5.846 5.846s.835 1.67 1.67 1.67h.835v-2.505h-.835c-.835 0-1.67 0-1.67.835zM690.086 25.89l2.506-15.868c-4.176.835-7.516 4.176-8.351 10.022-.835 4.176 2.505 5.01 5.845 5.846zm15.034 270.596c-.836-1.67-2.506-1.67-3.341-3.34-2.505 0-2.505 0-2.505 3.34 3.34.835 3.34 1.67 5.846 0zm60.967-135.298l-1.67-1.67-1.67.835v4.176c0 .835 1.67 1.67 1.67 3.34 0 .835.835 1.67.835 1.67 0-.835-.835-4.175 0-5.845.835-.835.835-.836.835-2.506zm-483.565-51.78c-.835 2.505 0 .835-.835 3.34 0 1.671-2.505.836-2.505 3.341-.836 4.176 5.011 7.517 7.516 10.022h1.671c0-3.34-.836-5.846 0-10.022 1.67-10.022 5.846-10.022 10.857-14.198l-.835-.835c.835 0 3.34 0 3.34-.835-.835-1.67-2.505-3.34-2.505-5.011-1.671 0-3.341-1.67-3.341-1.67-.835-.836-.835-.836-1.67-.836-.835.835-.835 2.506-2.506 3.34-.835-.834-1.67-1.67-2.505-1.67h-1.671v1.67c0 .836.835 1.671 1.671 2.506 0 0-3.341 0-3.341.836-.835.835-.835 2.505-2.506 2.505-.835 0-.835-1.67-1.67-1.67-2.505 0-3.341 2.505-4.176 4.176.835 2.505 4.176 5.011 5.011 5.011zm20.045-14.198c.835.835.835 1.67.835 3.34 0 .836 2.505 1.671 4.176 2.506 1.67 0 .835-2.505 1.67-3.34.835 0 1.67.835 2.506.835.835-1.67 0-2.506 0-3.341 0 .835.835 1.67 1.67 2.505.835 0 1.67-.835 1.67-1.67 0-1.67-.835-1.67 0-2.505l.835 1.67c1.671 0 3.341-3.34 4.176-4.176 0 .835.835 1.67 1.671 1.67.835 0 .835-1.67 1.67-1.67 0 0 3.341.835 4.176 0s.835-1.67 1.67-1.67c4.176-.836 6.682-.836 12.528-.836l9.187 1.67c4.176-.834 9.187-1.67 10.857-7.516.835-3.34-4.176-5.01-5.011-4.176-2.506 0-2.506 2.506-4.176 2.506-.835 0-2.505-.835-2.505-.835-2.506 0-4.176.835-5.847.835-3.34-.835-4.175-3.34-6.681-4.176v.835l-6.681-.835c-1.671.835-3.341 1.67-5.011 1.67-.836 0-.836 1.67-1.671 1.67l-1.67-.834c-1.671.835-1.671 1.67-3.341 1.67 0-.835-.835-1.67-1.67-1.67v1.67c.835.835.835.835.835 1.67-.835 0-1.67 0-2.506-.835 0 1.67.836 1.67.836 3.34-.836 0-1.671-.834-1.671-.834h-1.67v2.505h-.835c-1.671 0-1.671 1.67-2.506 3.34-.835-1.67-.835-2.505-1.67-2.505-1.67 0-5.846.835-5.846 2.506 0 0 3.34 2.505 3.34 3.34h-1.67c-.835 0-1.67-.835-1.67.836-2.506.835-1.671 0 0 .835zm-53.452 27.56h3.341c1.67 0 2.505 0 3.34.835 0 0 1.67 0 1.67-.835s-.835-1.67-.835-2.506c0 0-1.67-3.34-1.67-4.175-2.505 0-5.846.835-6.681 5.011-.835.835-.835 1.67.835 1.67zm42.594 10.858c-.835.835-3.34 1.67-3.34 2.505s3.34 6.681 3.34 6.681c1.67 0 2.505-.835 3.34-2.505 0-.836-.835-2.506-1.67-3.341-.835 0 0-2.505 0-2.505s-1.67 0-1.67-.835z" fill="#C5D2DC"/><path fill-rule="evenodd" clip-rule="evenodd" d="M277.511 114.418h.835c0-1.67 0-1.67.836-2.505 0-1.67.835-2.505-.836-2.505-.835 0-.835 0-1.67.835 0 1.67.835 2.505.835 3.34 0 0-.835 0 0 .835zm71.825 9.188h-1.67c-1.671 0-3.341.835-4.176 2.505 0 .835.835 1.67 1.67 1.67 1.671 0 2.506 0 4.176.835v-1.67c-.835 0-1.67-.835-1.67-.835.835 0 .835-.835.835-.835l.835-1.67zm6.682 10.022c.835.835 2.505.835 3.34 0-1.67 0-1.67-.836-2.505-1.671l-.835 1.671zm7.516 12.527c.835 0 4.175-.835 4.175-1.67 0 0-1.67-1.67-2.505-1.67-.835 1.67-3.34.835-3.34 2.505 0 0 .835.835 1.67.835zm374.993 207.959c-1.67-2.506-.835-6.682-3.34-9.187l.835-5.847c2.505-4.175 7.516 3.341 12.527 2.506-5.846-4.176-5.846-5.846-10.857-9.187-6.681-4.176-14.198-10.022-18.374-15.868-5.846-9.187-5.011-12.528-15.033-18.374-.835 3.341 3.341 7.517-3.341 5.846-4.176-.835 5.011 5.846 5.011 11.693.836 2.505.836 3.34 1.671 5.846h1.67c7.517 2.505 15.868 18.374 18.374 29.231 10.857 6.681 9.187 19.209 19.209 26.726 0-3.341-3.341-8.352-1.67-10.023 1.67-.835 3.34-1.67 5.011-1.67 1.67 0 2.505 1.67 5.011 3.341 0-8.352-14.198-5.011-16.704-15.033z" fill="#C5D2DC"/><path fill-rule="evenodd" clip-rule="evenodd" d="M797.824 243.871c-.835-5.011-3.34-2.506-5.846-7.517-.835-2.506.835-7.517 2.506-8.352 9.186-1.67-5.847-1.67-6.682-12.527 0-4.176-.835-4.176 1.671-5.847 10.022-6.681-5.012-10.022-6.682-14.197-6.681-18.374 3.341 3.34 2.506-9.187-.836-1.671-2.506-2.506-6.682-2.506-3.34-.835-5.011-1.67-6.681-4.176v-5.011s-1.67-3.341-4.176.835c-1.67.836 1.67 5.847-1.67 5.011-3.341-1.67-7.517-16.703-11.693-22.549-2.505-4.176.835-5.011 4.176-5.846.835-1.671 0-2.506-1.67-4.176l.835-5.847c1.67-2.505 3.341 4.176 5.011 5.011 3.341 0-2.506-6.681-2.506-10.022 3.341-15.868 15.869-7.516 14.198-10.022-2.505-4.176-5.011-15.868-5.846-33.407-1.67 0-2.505.836-5.011.836 1.671 0 2.506-.836 4.176-.836 0-5.01 0-10.022-.835-15.033 0-2.505 7.516-4.176 8.352-8.351.835-2.506-.836-6.682-6.682-5.847-9.187 0-14.198-5.846-20.044 4.176-4.176 3.34-7.517-1.67-4.176-3.34 3.341-2.506 7.517-1.67 7.517-8.352.835-14.198-10.858-9.187-12.528-15.033.835-6.682 12.528 4.175 11.693-6.682 0-5.846 3.34-4.176 5.011-4.176 8.351 3.341 5.846-4.175 9.187-4.175 5.846 0 9.186-6.682 6.681-8.352-9.187 2.505-5.011-6.682-13.363-4.176-4.176 1.67 8.352-5.846-1.67-14.198-7.517 2.506-14.198 3.34-16.704 14.198 0 0 5.011 0 7.517 2.505-.835 3.341-.835 4.176-5.011 4.176-2.506 0-4.176-5.01-12.528-3.34-10.857 8.351-25.055 10.022-35.077 20.044-2.506 2.505-5.846 8.352-8.352 11.692-5.011 5.011-9.187 9.187-8.352 10.022 4.176 4.176 4.176 2.506 8.352 3.341 4.176-.835 3.341 5.011 3.341 5.011-1.67.835 0 5.011-5.846 1.67-2.506 3.341-5.011 1.67-8.352-.835-2.506-1.67-.835 4.176-2.506 8.352-2.505 5.011-10.022 4.176-10.857 10.857v1.67c0 3.341 2.506 7.517 4.176 9.187 2.506 8.352-7.516-8.351-11.692-4.175-3.341 2.505 0-2.506-8.352-5.847-7.517-2.505-15.033 5.847-15.868 10.022 0 2.506-3.341 13.363-10.858 6.682-7.516 0-10.022 4.176-10.022 1.67 0-2.505 4.176-6.681-5.846-4.176-8.352 1.671-1.67 13.363-5.846 13.363-.835.835.835-7.516-.835-6.681-.835.835-2.506 1.67-4.176 2.505-1.671-1.67 4.176-2.505 3.341-5.011-5.847 0-12.528 7.517-18.374 5.011 5.846 6.682-.835 3.341-2.506 10.857 5.011 1.671 4.176-6.681 5.846 4.176 5.847 3.341 2.506 5.847-2.505 3.341-5.011 2.506 5.011 10.022-2.506 5.846-8.351-1.67-5.011-2.505-10.022 4.176-5.011 3.341-6.681-4.176-7.516-.835s4.176 15.033-3.341 11.692c-5.846-1.67-8.352-5.846-7.517-12.527 0-2.506-5.011-1.671-4.175-5.011-2.506-3.341 1.67-5.847-10.022-6.682-1.671 5.847-9.187-1.67-12.528 2.506-1.67.835 1.67 5.846 1.67 6.681 1.671 5.846-5.846 4.176-11.692 5.011-8.352 1.671-3.341-6.681-6.682-5.011h-9.186c-1.671.835-6.682 3.341-7.517 1.671-1.67-3.341-1.67 1.67-7.517 0h-.835l-1.67-1.671c-8.352.835 1.67 5.011-1.67 6.682-3.341 5.846-10.858 5.011-13.363 8.351.835-6.681 20.044-19.209 22.549-32.571.836-5.011-5.846-15.869-10.857-16.704-1.67 0-5.011-.835-6.681 0-1.671 5.011-3.341 3.341-5.846 3.341-1.671 0 10.022-7.517-5.847-7.517-1.67-1.67 6.682-.835 2.506-5.846-3.341-1.67-5.846-1.67-5.846-.835-1.671.835-4.176 5.846-6.682 7.516-2.505 1.671 2.506 6.682-3.34 8.352 0 0-7.517-4.176-1.671 4.176-2.505-1.67-3.34-1.67-4.176-1.67 0 0-4.175 4.176-5.846 3.34-1.67 0 3.341-4.175 0-4.175-4.176 2.505-5.846 1.67-8.352 1.67-5.011-.835.001 2.505-1.67 3.341-1.67.835-6.681 0-10.022 2.505-5.846 2.506-9.187 5.846-11.692 9.187-3.341 2.505 4.176 17.539-2.506 9.187-8.352 0-10.857-.835-15.868-1.67-6.682-.836-8.352 1.67-5.846 7.516.835 2.506-4.176 5.846.835 9.187 2.505-.835 0 5.846 2.505 5.011 1.671 4.176 3.341 5.011-1.67 8.352 0 0 1.67 7.516 0 9.187-.835 8.351-.835 5.846-.835 4.176 5.846-8.352 2.505-12.528-1.671-2.506 0-1.67 3.341-9.187 4.176-10.857 7.517-8.352-1.67-3.341-2.505-7.517s-3.341-5.011-5.846-9.187c0 0-.836.835-1.671.835-1.67 0-4.176 0-4.176.836 4.176 5.846 0 5.011-5.011 0-1.67 1.67-6.681 3.34 2.506 10.022 0 0 3.341 5.846 0 6.681-1.67-.835-1.67-3.341-2.506-5.011-3.34-.835-5.846-5.011-5.846-5.846 0-4.176 3.341-6.682 5.011-10.022 0 0 1.67-3.341 1.67-7.517-2.505-3.34-3.34 10.022-5.846 9.187-6.681.835-6.681 2.506-7.516 5.011-1.671 4.176 1.67 12.528-2.506 13.363-2.505 3.341-4.176 6.681-4.176 9.187-.835 5.011-2.505 6.681 6.682 5.846 3.34 1.67 5.011 5.846 5.011 10.857 0 5.011-3.341 2.506-4.176 5.847-.835 3.34 5.011 6.681 4.176 7.516-3.341 0-6.682-3.341-5.846-5.011.835-2.505 1.67-4.176 4.175-7.517-2.505-2.505-.835-7.516-7.516-8.351-5.011 0-5.846 2.505-6.682 13.363-5.846 1.67-4.175 1.67-5.846 4.175-5.011 6.682-9.187 0-11.692 6.682-3.341-5.011-10.022-4.176-9.187-8.352 0-1.67-4.176-5.011 1.67-3.341 3.341.836 0 6.682 5.011 7.517 4.176 0 7.517-8.352 14.198-10.857 3.341-8.352 7.517 1.67 3.341-11.693-2.506-5.846 5.846-15.868 9.187-20.879 3.341-5.011-1.671-4.176.835-10.022 2.506-5.011 4.176-.835 7.517-8.352 1.67-4.176.835-5.011-4.176-8.352-4.176-3.34-3.341-5.846-7.517-1.67-1.67 1.67-5.846 12.528-15.033 11.692-6.681 4.176 1.67 6.682-3.341 9.187-3.34 5.011-11.692 5.011-5.846 10.022 3.341 2.506.835 5.847 1.671 8.352 0 0-.001 5.846-3.341 5.011-4.176 0-5.011-10.022-7.517-17.538 0-.836-.835-1.671-.835-2.506-1.67-4.176-8.352-6.681-10.857-11.692h-4.176c-1.67.835 0 4.175-.835 5.011 0 9.187-4.176 1.67-6.682 3.34.836 4.176-5.011 6.682-4.175.836.835-3.341 5.846-1.671 3.34-5.847-8.351.835-10.022 0-14.198-5.011-7.516 3.341-5.011.835-6.681 0-4.176-1.67-6.682-4.176-.835-3.34 0-3.341 11.692-2.506 2.505-4.176-1.67 0-3.34-.835-4.176-.835-1.67 2.505-4.175 5.011-4.175-.836-1.671 0-6.682 0-9.187-.835-7.517-1.67-9.187-5.011-17.539 2.506-1.67 1.67-3.341-2.506-5.011-4.176 1.67-3.341 0-8.352 0-8.352 2.505 0 1.67-3.341 8.352.835 4.176 2.506 4.176-5.846 3.34-9.187-3.34-2.505-5.011-9.187-5.846-7.516-.835 4.176 1.67 5.846-7.516 9.187-8.352 3.34 2.505 5.846-5.847 10.022 0 0-.835-.835-2.505.835l-3.341 3.341c1.67-4.176-7.516-3.341.835-5.011-.835-2.506-1.67-5.847-4.176-5.847-5.846 2.506-10.022-1.67-12.527-2.505-7.517-1.67-5.011 9.187-8.352 10.857-3.341-2.505-5.011-10.022-4.176-15.033.835-1.67-6.681-6.681-8.351 3.341 5.011 5.011.835 6.681-1.671 6.681-2.505-.835-4.176-2.505-4.176-4.176 0-3.34.835-7.516 1.671-9.187 0-3.34 1.67-4.176 5.846-10.022 8.352-1.67 7.516-5.846 8.352-15.033v-1.67c4.175-12.528.835 3.34 3.34 9.187 0 11.692 4.176 20.879 13.363 22.549 9.187 1.671 14.198-5.011 14.198-14.198.835-5.01-3.341-8.351 0-20.044-3.341-5.01-.835-5.01-3.341-9.187-15.033-4.175 2.506-.835-2.505-5.01.835-11.693 2.505 2.505 4.176 0-.836-3.341 0-6.682-3.341-7.517-2.506.835-5.846-3.34-8.352-4.176-8.351-3.34-12.527 0-13.363 8.352-.835 7.516-6.681 3.34-10.857 5.01-1.67.836-2.505 2.506-3.34 4.177-3.341 4.175-5.847 8.351-10.858 6.68-.835-.834-.835 3.342-5.011 3.342-.835 5.01-1.67 5.846-4.176 5.846-.835 6.681-2.505 5.846-6.681 5.01-.835 10.023-3.341 12.528-5.011 12.528 0 0-10.857 0-20.044-1.67-3.341-.835-5.846-1.67-8.352-2.505-1.67 2.505-2.505 4.175-3.341 6.681-1.67 3.341 3.341 5.011.836 9.187l-.836.835c-1.67.835-.835-5.011-1.67-6.681-2.505-.835-3.341-1.671-4.176-2.506-2.505-3.341-4.176 0-4.176-.835l-.835 2.506c-2.505-.836-3.34-.836-4.176 1.67v-1.67l-5.01-.836c-1.671 2.506-4.177 2.506-5.012 4.176-.835.835-.835 2.506-2.505 3.341-.835 0-3.341-.835-4.176 0-1.67.835-.835 3.341-.835 4.176-.836 0-3.341.835-3.341.835-2.506.835-2.506 5.011-4.176 6.681-.835.835-1.67.835-2.505 2.506-.836 2.505 1.67 3.341 1.67 5.011s-2.506 1.67-2.506 2.505c0 .836 4.176 2.506 4.176 4.176 0 1.671-.835 4.176.835 5.011-.835 1.671-1.67 1.671-3.34 1.671-1.67.835-1.67 4.176-5.846 3.34-.836 3.341-2.506 4.176-3.341 6.682-.835 1.67 0 2.505 0 4.176-.835.835-1.67 0-2.506 0 0 1.67 1.67 2.505 1.67 5.011 0 .835-.834.835-.834 2.505v.835c-.836 0-.836.835-1.67.835-3.342-.835-3.342-5.846-6.682-5.846 2.505-2.505 2.505 0 2.505.835-.835 2.506-5.846 1.671-6.681 5.847 0 1.67 0 2.505 1.67 2.505.835 0 1.67 0 1.67-.835l2.506 5.011c.835 1.67 5.011 1.67 4.176 4.176 0 .835-.835 2.505-1.67 3.341v2.505c0-.835.835-.835 1.67-1.67-1.67.835-2.506 2.505-3.34 2.505 0 .835 0 0 0 0-.836 0-4.177 1.671-4.177 3.341 0 2.506 1.67 3.341 1.67 4.176.836.835 0 2.505 0 3.341-.834.835-1.67 1.67-1.67 2.505-.835.835-2.505.835-3.34 2.506-.836 3.34 1.67 2.505 2.505 3.34.835 1.671-.835 3.341.835 5.011.836.836 5.011 1.671 4.176 3.341 0 .835 0 2.506-.835 3.341 0 .835-.835 1.67-.835 3.34.835 1.671 2.505.836 2.505 2.506.836 2.505 1.67 6.681 1.67 6.681 0 .835 0 5.011.836 5.847v1.67c-1.67 1.67-3.34.835-5.846.835 0 .835.835 1.67 0 2.506-2.506 0-2.506-.836-3.341-.836v1.671c0 1.67-2.505 5.011-5.011 4.176-2.506 0-2.506-5.011-5.011-5.847 0 0-.835.836-1.67.836-1.67 0-1.67-2.506-3.341-2.506-1.67 0-4.176 1.67-5.011 2.506 1.67 2.505 4.176 2.505 5.01 3.34 2.506 2.506.836 3.341-4.175 1.671l-.835-.836c-2.506-.835-4.176-1.67-4.176-2.505-1.67-3.341-1.67 1.67-3.34 2.505 1.67 2.506 3.34 4.176.835 6.682 0 0-.836-.835-1.67-1.671-1.671-1.67-4.177-2.505-5.847-1.67-2.506 4.176-4.176 2.506-5.011 1.67l-2.506-5.846-2.505.835c1.67 1.671.835 5.011 0 6.682-.835 3.341 2.505 8.352 0 9.187-.835 1.67.835 1.67.835 4.176.835 3.34 0 6.681 0 10.857 0 .835 0 2.505.835 4.176.835-.835.835-.835 1.67 0 0 0 1.67 3.34 2.506 4.176 0-2.506 0-1.671 0 0-.835 3.34 3.34 10.022 5.846 12.527l1.67 1.671c.836 1.67.836 7.516 2.506 8.351 0 1.671 1.67 2.506 1.67 3.341l-1.67 1.67c0 2.506 5.011 3.341 6.681 3.341v.835c0 1.67 1.67 1.67 3.341 4.176.835.835 0 3.341.835 5.011-1.67.835-2.505 1.67-3.34 3.341-.835 2.505 1.67 2.505 1.67 4.176.835 1.67 0 4.175.835 6.681v5.846c0 .835.835 3.341 2.506 3.341 1.67 0 2.505-.835 3.34-.835 1.67 0 2.506 0 3.341.835.835 0 1.67.835 3.34 0 0-2.506.836-4.176.836-7.517 1.67-4.176-2.506-9.187 3.34-12.527.836-1.671 6.682-4.176 5.847-7.517-1.67-3.341-1.67-5.011.835-7.516.835-.836 1.67-.836 2.506-.836 1.67 0 4.175-.835 6.681-2.505 1.67-1.67 2.506-1.67 4.176-1.67 1.67 0 3.34 1.67 5.01 1.67 3.342 0 5.847.835 9.188 1.67-1.67-.835-1.67-.835-1.67-1.67l.835-5.011c1.67.835 1.67 2.505 3.34 2.505 1.67-2.505 1.67-3.34 1.67-5.846.836-3.341 1.671-6.681 0-8.352-1.67-1.67-4.175-.835-4.175-4.175 0-2.506 2.505-1.671 3.34-3.341l-.835-1.67c-.835-.836-1.67-1.671-1.67-3.341 0-1.67 1.67-2.506 2.505-3.341 2.506-.835 5.847 0 6.682-4.176.835-3.34 5.846-2.505 8.352-2.505.835 0 .835-1.671 2.505-1.671h1.67c-.835 1.671-.835 3.341-1.67 7.517 0 0 1.67 1.67 2.506 1.67 4.176.836 3.34-5.846 7.516-5.011 2.506 0 3.341-.835 5.846-.835.836 0 1.671.835 2.506.835 3.341.835 4.176-.835 7.516 0h1.671-.835c2.505.835.835 5.011 4.176 5.011 1.67 0 2.505 0 3.34.836.835.835 0 3.34 0 4.175.835 1.671 5.011 1.671 5.011 5.011 0 1.671 0 8.352 1.671 9.187 2.505.835 1.67 1.671 2.505 3.341 0 2.506 1.67 4.176 3.341 4.176 2.505 0 4.176-.835 6.681-.835 4.176.835 2.506 4.176 5.011 5.846l4.176.835c2.506 3.341 0 10.857 5.011 11.693.835 0 1.67-.836 3.341-.836 2.505.836 1.67 4.176 4.176 5.011 5.011.836 6.681-.835 8.351-3.34.836-3.341-2.505-2.506-2.505-4.176 0-.835.835-1.671 0-1.671 0-.835-2.506-.835-1.67-1.67 0-.835.835-.835.835-1.67 0-1.671-1.671-1.671-1.671-3.341l.836-1.67v.835c1.67-.835 5.846 1.67 5.846 1.67 1.67-1.67 1.67-6.681 5.011-6.681 2.505.835 3.341 3.341 5.846 3.341.835 0 .835-.836 1.67-1.671 0-.835-3.34-3.34-3.34-4.176v-1.67h2.505c-.835-.835-2.505-1.67-2.505-2.505 0-1.671 1.67-2.506 3.34-2.506.836 0 5.011 3.341 5.847 4.176 3.34.835 5.011.835 6.681.835 3.341.835 5.011 3.341 8.352 3.341h2.505v.835c1.671 0 2.506-.835 4.176-.835 1.67 0 1.67 1.67 2.506 2.505.835 0 .835-.835 1.67-.835s10.857 1.67 10.857 1.67c.835 0 1.671-.835 2.506-1.67 1.67.835 2.505.835 4.176 0v-.835s0 .835.835.835c2.505 0 3.34.835 5.011 2.506 1.67.835 1.67 4.175 4.176 4.175h1.67c.835 1.671.835 6.682.835 6.682-.835 2.505-1.67 3.341-3.34 4.176v1.67c1.67 0 2.505.835 2.505 1.67.835 0 1.67-.835 2.506-.835 2.505 0 .835 4.176 2.505 5.011.835 0 .835 0 1.67-.835l1.671 2.506s2.505 0 2.505.835c0 1.67-2.505 0-3.34 2.505 0 .835.835 1.671 1.67 1.671h.835c.835 0 1.67 1.67 2.506 1.67 1.67 0 2.505-.835 5.011-.835 2.505 0 3.34-.835 4.176-.835 3.34 0 5.011-.836 8.351-.836h1.671c0 1.671-1.671 1.671-3.341 1.671v1.67c1.67 3.341 4.176 5.846 5.011 10.022l5.011 31.737s0 1.67.835 1.67c2.506.835 3.341-4.176 5.011-4.176.835 0 2.506 1.671 2.506 2.506-.835 2.505 1.67 2.505.835 5.846.835 0 2.505.835 4.176.835 3.34.835 5.846-.835 8.352 0 3.34.835 5.011 4.176 5.846 6.682l-.835.835c-.836 3.34 2.505 3.34 4.175 5.011.836.835 0 2.505 0 4.176 0 2.505 3.341 3.34 5.847 3.34 0 1.671.835 1.671 1.67 2.506 2.506 0 2.505-2.506 5.846-2.506 0 .836 0 1.671-.835 3.341 0 1.67.835 2.506.835 4.176 0 0 4.176 1.67 6.682-.835 1.67-4.176 6.681-.835 9.186-1.671 1.671-.835 3.341-1.67 4.176-1.67 0-.835 0-.835 0 0 6.682-3.341 11.693-6.681 15.869-6.681 6.681-.836 18.373 3.34 17.538 5.846-1.67 5.011 5.846 5.846 10.857 6.681 10.023 1.671 15.869 2.506 16.704-5.011 0-1.67-3.341-3.34-3.341-6.681.835-5.011 5.847-8.352 8.352-11.693 6.681 3.341 15.033 5.847 21.715 8.352 4.175 2.506.835 11.693 8.351 12.528 9.187 1.67 10.022-5.011 20.88-3.341 4.175.835 6.681 4.176 9.186 4.176h.836c1.67-3.341 5.011-3.341 5.846-6.681-.835 3.34-4.176 4.175-5.846 6.681 0 0 .835 5.846 10.022 7.516 17.538 2.506 31.736-11.692 35.077-17.538 1.67-2.506 6.681 1.67 10.857 1.67 1.671 0 4.176-2.505 5.846-1.67 3.341.835 4.176 2.505 7.517 3.341 7.517 2.505 8.352-5.011 13.363-7.517 2.505-.835-2.506-4.176-1.671-9.187.836-6.681 1.671-7.517 4.176-13.363 5.011-11.692-5.846-4.176-5.846-8.351 1.67-5.847 5.846-10.023 10.857-12.528 4.176-2.506 7.517-3.341 10.022-3.341 10.858.835 11.693-.835 13.363-.835 11.693 3.341 22.55 28.396 29.231 32.572 4.176 2.505 7.517-2.506 13.363-1.67 4.176.835 7.517 1.67 10.022 1.67l1.67-2.506.836-3.34 1.67-1.671c-.835.835-1.67.835-1.67 2.506v.835c0 1.67-.836 2.505-2.506 4.176 3.341.835 2.506 1.67 4.176 8.352 1.67 5.011 10.022.835 15.033-5.847 3.341-4.175 5.846-10.022 9.187-11.692.835 0 1.67.835 1.67 1.67.836 1.671.836 4.176 4.176 5.011-1.67 5.011-1.67 9.187-.835 13.363.835 5.846 2.506 11.693 1.67 20.879-2.505 0-7.516-.835-10.022 0-.835 4.176-3.34 8.352-3.34 8.352 2.505 4.176 5.011 4.176 8.351 13.363 0 .835.836 5.011.836 6.681-5.011 2.506-3.341 5.011 0 8.352-2.506-5.011-2.506-5.011 2.505-5.846 1.67-6.682.835-8.352 3.341-10.022 4.176-1.671 1.67 2.505 5.011 3.34 8.352 1.671 14.198-10.857 15.868-15.033 2.506-7.516 5.011-27.56 7.517-44.264-1.671-5.011-1.671-9.187-1.671-12.527 0-9.187 3.341-11.693 1.671-17.539-2.506-10.022-9.187-15.868-11.693-25.89-1.67-6.682-1.67-16.704-10.022-19.209-5.011-1.671 10.022-5.847-5.011-6.682-2.505-.835-5.846-7.516-15.033 0-.835 5.846 2.506 9.187-.835 10.022-5.846 6.682-5.846-8.351-6.682-4.176-1.67 1.671 0 5.847-1.67 6.682-2.505-3.341 2.506-15.033-11.692-5.846-6.682 0 2.505-11.693 4.176-20.88 2.505-10.857 1.67-18.374 2.505-19.209 4.176-5.846 2.506-15.868 4.176-25.89 1.67-7.517 5.846-4.176 9.187-10.022 0 0 5.011-5.011 9.187-3.341-.835-2.505 0-4.176 1.67-5.846 2.506-1.67 6.681-2.506 10.022-5.846 0 0-3.341-4.176-1.67-6.682 2.505-2.505 10.022-3.34 15.033-6.681 2.505.835-4.176 8.352 0 6.681 2.505-5.011 7.516-5.011 6.681-11.692 2.506-3.341 5.846-4.176 6.682-8.352.835-3.341-7.517 5.011-8.352 2.506-1.67-5.011 0-20.88-2.506-24.22-4.175-5.011 1.671-10.022 4.176-15.033 5.011 2.505 2.506-5.847 4.176-5.011 1.67 1.67 3.341 11.692 5.846 9.186 3.341-5.011 3.341 2.506 5.011 1.671 4.176-.835-3.34-10.022-.835-15.033 1.671-1.671 1.671-3.341.835-4.176-.835-5.011-6.681-9.187-6.681-9.187 0-2.506 5.011-10.022 8.352-8.352-8.352 10.857 5.011 14.198 6.681 18.374 1.67 9.187-2.505 10.857.835 25.055.835 3.341 2.506 10.022 2.506 15.868 1.67 13.363-6.682 10.858.835 17.539 3.341 3.341-2.506 7.517 5.846 18.374 0 0 6.682 10.022 15.869 15.868 6.681 5.011 20.044 14.198 27.56 20.044 6.682-2.505 6.682-8.351 5.011-13.362zM23.619 317.366c0 .835.835.835 1.67.835-1.67 0-1.67 0-1.67-.835zm53.45-171.211s0 .835 0 0c0 .835 0 .835 0 0 0 .835 0 .835 0 0zM246.61 309.014zm414.246 74.33c0-.835-.835-.835 0 0 0-.835 0 0 0 0z" fill="#C5D2DC"/><path fill-rule="evenodd" clip-rule="evenodd" d="M370.216 141.144c0 1.67 1.67 2.505 3.34 2.505v-2.505c-.835 0-.835-1.67-.835-1.67s-2.505.835-2.505 1.67zm200.441-40.088s-.835 0-.835.835 0 3.341 1.67 3.341c.835 0 1.67-.836 1.67-1.671 0-.835 0-.835-.835-1.67v-.835c-.835.835-1.67 0-1.67 0zm-20.044-4.176v-2.506c0-.835-1.67-1.67-1.67-1.67v.835c0 .835.835 4.176 1.67 4.176v-.835zm3.341-3.34v2.505c.835 2.506 3.341 3.34 5.846 3.34 0 .836 1.671.836 2.506.836.835 0 1.67-.835 1.67-1.67V95.21c2.506 0 3.341-2.506 3.341-3.34 1.67-1.671 5.011 0 5.846-2.506v-1.67h-1.67s-.836.834-1.671.834c-2.505 0-4.176-3.34-4.176-5.01v-2.506h.836c0 2.505.835 5.01 3.34 5.846 2.506 0 3.341 0 4.176-.835.835 0 0-3.34 0-3.34-1.67 0-.835-3.342-2.505-3.342-1.671 0-3.341-.835-4.176 0-.835 0-2.506 1.67-4.176 1.67-.835 0-.835-.834-1.67-.834-.836 0-1.671.835-1.671.835-.835 2.505.835 3.34 1.671 4.176v.835c-.836 0-1.671-.835-2.506-.835h-.835c-1.67 0-2.506-1.67-5.011-1.67-.835 0-1.671 3.34-2.506 4.175 0 .835.835 1.67.835 2.506l-.835.835c.835 1.67 2.506 1.67 3.341 2.505zm25.055-11.693c2.505 0 2.505-.835 5.011 0h.835s1.67-.835 2.505-.835c1.671 0 4.176-4.176 5.011-5.011v-.836s-.835-.835-1.67-.835-4.176 0-5.011.835c-.835.836-.835 1.67-1.67 1.67h-.835c0-.834-.836-1.67-.836-1.67-1.67 0-2.505 3.341-3.34 3.341-.835-.835-1.67-.835-1.67-2.505h-.836v1.67c0 1.67.836 4.176 2.506 4.176zm-4.176 27.56c0 .836-1.67.836-1.67 1.671h.835l1.67-1.671c.835-.835 3.341-.835 3.341-.835 2.505 0 5.01 0 5.845-3.34.836-3.341-5.01-3.341-7.516-4.176-.835 0-2.505 2.505-2.505 3.341-.835 2.505 0 3.34 0 5.01zm98.55 198.771l-.835-6.68-4.175 4.175v1.67l5.01.835zm-7.516.001l.835-3.341-2.505 2.505c0 .836 1.67.836 1.67.836zM427.842 47.604c.835 0 .835-.835 1.67-.835 0-.835-.835-1.67-.835-1.67-.835 0-1.67 0-1.67.835-.835.835 0 1.67.835 1.67zm.836 13.364c-.836 0-.836.835-1.671.835-.835.835 0 .835 0 1.67s.835 1.67 1.671 2.505c0 .835.835 1.67.835 1.67.835 0 2.505-2.505 2.505-2.505 0-2.505-2.505-4.175-3.34-4.175zm4.175-9.188c0 1.67-1.67 3.341-3.34 3.341v.835c-.835 0-.835 0-1.67.835 0 .835 1.67 1.67 1.67 1.67.835.836.835 3.341 2.505 3.341 1.671 0 2.506-1.67 4.176-1.67.835 0 4.176 0 4.176-1.67 0-.836-1.671-1.67-1.671-3.341 0-.835 2.506-.835 2.506-2.505s-.835-2.506-1.67-2.506c-.836 0-.836-4.176-2.506-5.01-.835 0-.835.834-1.67.834 0 0-1.67.836-2.506.836-.835 0-3.34.835-3.34 2.505 1.67 1.67 3.34 2.505 3.34 2.505z" fill="#C5D2DC"/><path fill-rule="evenodd" clip-rule="evenodd" d="M440.37 66.814c0-.836-.835-1.67-.835-1.67 0-.836 1.67-1.671 1.67-2.506 0-1.67 0-.835-1.67-1.67 0 0-5.846.835-6.682 1.67 0 1.67.001 1.67-.835 3.34-.835.836-2.505.836-2.505 1.67 0 1.67 2.505 1.67 2.505 3.341 0 1.67.836 3.34 1.671 3.34 3.34.836 3.34 3.341 6.681 4.177 1.67 0 3.34 0 4.175-1.67 0-1.671-.835-2.506-.835-3.341l.835-.836c.836-3.34.836-4.175.836-5.846 0-1.67 0-3.34-1.671-4.175-.835 0-.835.835-.835 1.67s-.835 1.67-2.505 2.505zm5.011 18.373c-.835 0-1.67 1.67-1.67 2.505 0 .836.835.836.835 1.67.835 0 1.67-.834 2.506-.834 1.67-1.67 4.175-1.67 5.846-1.67 2.505-.836 5.01-1.671 5.846-5.011 0-1.67-1.671-5.846-3.341-6.682-1.67 0-2.506.835-3.341 2.506h-.835V76l1.671-3.341v-.835s-.001-.835-.836-1.67c0 0-2.505 1.67-2.505 2.505l-.835 3.34c-.835 2.506-1.67 5.011-3.341 6.682v2.505z" fill="#C5D2DC"/><circle cx="109.5" cy="184.5" r="24" stroke="#fff" stroke-opacity=".32"/><g filter="url(#filter0_d)"><circle cx="109.5" cy="184.5" r="14.928" fill="#fff"/></g><path stroke="#FC4D5A" d="M101.043 180.564v11.186m1.243-12.015v11.187m1.243-12.015v11.186m1.243-12.015v11.187m1.243-11.601v11.186"/><path stroke="#5E9EFF" d="M107.258 180.564v11.186m1.243-12.015v11.187m1.243-12.015v11.186m1.243-12.015v11.187m1.243-11.601v11.186"/><path stroke="#D4DDE6" d="M113.473 180.15v11.186m1.243-12.015v11.187m1.243-12.016v11.187m1.243-12.015v11.186m1.243-11.6v11.186"/><circle cx="678" cy="190" r="21.5" stroke="#fff" stroke-opacity=".32"/><g filter="url(#filter1_d)"><circle cx="678" cy="190" r="13.404" fill="#fff"/></g><path stroke="#FC4D5A" d="M670.458 186.466v10.045m1.116-10.789v10.045m1.116-10.789v10.044m1.116-10.789v10.045m1.116-10.417v10.045"/><path stroke="#5E9EFF" d="M676.038 186.466v10.045m1.116-10.789v10.045m1.117-10.789v10.044m1.115-10.789v10.045m1.116-10.417v10.045"/><path stroke="#D4DDE6" d="M681.619 186.094v10.045m1.116-10.789v10.045m1.116-10.79v10.045m1.116-10.789v10.045m1.116-10.417v10.045"/><circle cx="154.5" cy="226.5" r="15" stroke="#fff" stroke-opacity=".32"/><g filter="url(#filter2_d)"><circle cx="154.5" cy="226.5" r="9.444" fill="#fff"/></g><path stroke="#FC4D5A" d="M149.334 224.01v7.077m.786-7.601v7.077m.786-7.602v7.078m.787-7.602v7.077m.786-7.339v7.077"/><path stroke="#5E9EFF" d="M153.265 224.01v7.077m.787-7.601v7.077m.786-7.602v7.078m.787-7.602v7.077m.786-7.339v7.077"/><path stroke="#D4DDE6" d="M157.197 223.748v7.077m.787-7.601v7.077m.786-7.602v7.077m.786-7.601v7.077m.787-7.339v7.077"/><circle cx="352" cy="348" r="24.5" stroke="#fff" stroke-opacity=".32"/><g filter="url(#filter3_d)"><circle cx="352" cy="348" r="15.232" fill="#fff"/></g><path stroke="#FC4D5A" d="M343.361 343.984v11.414m1.268-12.26v11.415m1.268-12.26v11.414m1.269-12.26v11.415m1.268-11.838v11.415"/><path stroke="#5E9EFF" d="M349.702 343.984v11.414m1.269-12.26v11.415m1.268-12.26v11.414m1.268-12.26v11.415m1.269-11.838v11.415"/><path stroke="#D4DDE6" d="M356.044 343.561v11.415m1.268-12.261v11.415m1.269-12.26v11.415m1.268-12.261v11.415m1.268-11.837v11.414"/><circle cx="570.5" cy="246.5" r="13" stroke="#fff" stroke-opacity=".32"/><g filter="url(#filter4_d)"><circle cx="570.5" cy="246.5" r="8.225" fill="#fff"/></g><path stroke="#FC4D5A" d="M566.065 244.331v6.164m.685-6.62v6.164m.685-6.621v6.164m.685-6.621v6.164m.685-6.392v6.164"/><path stroke="#5E9EFF" d="M569.489 244.331v6.164m.685-6.62v6.164m.685-6.621v6.164m.685-6.621v6.164m.685-6.392v6.164"/><path stroke="#D4DDE6" d="M572.914 244.103v6.164m.685-6.621v6.164m.684-6.62v6.164m.685-6.621v6.164m.685-6.392v6.164"/><circle cx="520" cy="349" r="11.5" stroke="#fff" stroke-opacity=".32"/><g filter="url(#filter5_d)"><circle cx="520" cy="349" r="7.311" fill="#fff"/></g><path stroke="#FC4D5A" d="M516.113 347.072v5.479m.609-5.885v5.479m.609-5.885v5.48m.609-5.885v5.479m.608-5.682v5.479"/><path stroke="#5E9EFF" d="M519.157 347.072v5.479m.609-5.885v5.479m.609-5.885v5.48m.609-5.885v5.479m.608-5.682v5.479"/><path stroke="#D4DDE6" d="M522.201 346.869v5.479m.609-5.885v5.479m.609-5.884v5.479m.609-5.885v5.479m.608-5.682v5.479"/><circle cx="471" cy="248" r="11.5" stroke="#fff" stroke-opacity=".32"/><g filter="url(#filter6_d)"><circle cx="471" cy="248" r="7.311" fill="#fff"/></g><path stroke="#FC4D5A" d="M467.113 246.072v5.479m.609-5.885v5.479m.609-5.885v5.48m.609-5.885v5.479m.608-5.682v5.479"/><path stroke="#5E9EFF" d="M470.157 246.072v5.479m.609-5.885v5.479m.609-5.885v5.48m.609-5.885v5.479m.608-5.682v5.479"/><path stroke="#D4DDE6" d="M473.201 245.869v5.479m.609-5.885v5.479m.609-5.884v5.479m.609-5.885v5.479m.608-5.682v5.479"/><circle cx="293" cy="294" r="14.5" stroke="#fff" stroke-opacity=".32"/><g filter="url(#filter7_d)"><circle cx="293" cy="294" r="9.139" fill="#fff"/></g><path stroke="#FC4D5A" d="M288.016 291.59v6.849m.761-7.356v6.849m.761-7.356v6.848m.761-7.356v6.849m.761-7.102v6.848"/><path stroke="#5E9EFF" d="M291.821 291.59v6.849m.761-7.356v6.849m.761-7.356v6.848m.761-7.356v6.849m.761-7.102v6.848"/><path stroke="#D4DDE6" d="M295.626 291.337v6.848m.761-7.356v6.849m.761-7.356v6.849m.761-7.356v6.848m.761-7.102v6.849"/><circle cx="115" cy="256" r="11.5" stroke="#fff" stroke-opacity=".32"/><g filter="url(#filter8_d)"><circle cx="115" cy="256" r="7.311" fill="#fff"/></g><path stroke="#FC4D5A" d="M111.113 254.072v5.479m.609-5.885v5.479m.609-5.885v5.48m.609-5.885v5.479m.608-5.682v5.479"/><path stroke="#5E9EFF" d="M114.157 254.072v5.479m.609-5.885v5.479m.609-5.885v5.48m.609-5.885v5.479m.608-5.682v5.479"/><path stroke="#D4DDE6" d="M117.201 253.869v5.479m.609-5.885v5.479m.609-5.884v5.479m.609-5.885v5.479m.608-5.682v5.479"/><circle cx="49" cy="273" r="11.5" stroke="#fff" stroke-opacity=".32"/><g filter="url(#filter9_d)"><circle cx="49" cy="273" r="7.311" fill="#fff"/></g><path stroke="#FC4D5A" d="M45.113 271.072v5.479m.609-5.885v5.479m.609-5.885v5.48m.609-5.885v5.479m.608-5.682v5.479"/><path stroke="#5E9EFF" d="M48.157 271.072v5.479m.609-5.885v5.479m.609-5.885v5.48m.609-5.885v5.479m.608-5.682v5.479"/><path stroke="#D4DDE6" d="M51.201 270.869v5.479m.609-5.885v5.479m.609-5.884v5.479m.609-5.885v5.479m.608-5.682v5.479"/><circle cx="173.5" cy="282.5" r="15" stroke="#fff" stroke-opacity=".32"/><g filter="url(#filter10_d)"><circle cx="173.5" cy="282.5" r="9.444" fill="#fff"/></g><path stroke="#FC4D5A" d="M168.334 280.01v7.077m.786-7.601v7.077m.786-7.602v7.078m.787-7.602v7.077m.786-7.339v7.077"/><path stroke="#5E9EFF" d="M172.265 280.01v7.077m.787-7.601v7.077m.786-7.602v7.078m.787-7.602v7.077m.786-7.339v7.077"/><path stroke="#D4DDE6" d="M176.197 279.748v7.077m.787-7.601v7.077m.786-7.602v7.077m.786-7.601v7.077m.787-7.339v7.077"/><circle cx="198" cy="241" r="11.5" stroke="#fff" stroke-opacity=".32"/><g filter="url(#filter11_d)"><circle cx="198" cy="241" r="7.311" fill="#fff"/></g><path stroke="#FC4D5A" d="M194.113 239.072v5.479m.609-5.885v5.479m.609-5.885v5.48m.609-5.885v5.479m.608-5.682v5.479"/><path stroke="#5E9EFF" d="M197.157 239.072v5.479m.609-5.885v5.479m.609-5.885v5.48m.609-5.885v5.479m.608-5.682v5.479"/><path stroke="#D4DDE6" d="M200.201 238.869v5.479m.609-5.885v5.479m.609-5.884v5.479m.609-5.885v5.479m.608-5.682v5.479"/><circle cx="104" cy="132" r="15.5" stroke="#fff" stroke-opacity=".32"/><g filter="url(#filter12_d)"><circle cx="104" cy="132" r="9.749" fill="#fff"/></g><path stroke="#FC4D5A" d="M98.651 129.43v7.305m.812-7.847v7.306m.811-7.847v7.306m.812-7.847v7.306m.812-7.576v7.305"/><path stroke="#5E9EFF" d="M102.709 129.43v7.305m.812-7.847v7.306m.812-7.847v7.306m.812-7.847v7.306m.811-7.576v7.305"/><path stroke="#D4DDE6" d="M106.768 129.159v7.305m.812-7.846v7.305m.811-7.846v7.305m.812-7.846v7.305m.812-7.576v7.305"/><circle cx="653" cy="335" r="11.5" stroke="#fff" stroke-opacity=".32"/><g filter="url(#filter13_d)"><circle cx="653" cy="335" r="7.311" fill="#fff"/></g><path stroke="#FC4D5A" d="M649.113 333.072v5.479m.609-5.885v5.479m.609-5.885v5.48m.608-5.885v5.479m.609-5.682v5.479"/><path stroke="#5E9EFF" d="M652.157 333.072v5.479m.609-5.885v5.479m.609-5.885v5.48m.608-5.885v5.479m.609-5.682v5.479"/><path stroke="#D4DDE6" d="M655.201 332.869v5.479m.609-5.885v5.479m.609-5.884v5.479m.608-5.885v5.479m.609-5.682v5.479"/><circle cx="387" cy="274" r="11.5" stroke="#fff" stroke-opacity=".32"/><g filter="url(#filter14_d)"><circle cx="387" cy="274" r="7.311" fill="#fff"/></g><path stroke="#FC4D5A" d="M383.113 272.072v5.479m.609-5.885v5.479m.609-5.885v5.48m.609-5.885v5.479m.608-5.682v5.479"/><path stroke="#5E9EFF" d="M386.157 272.072v5.479m.609-5.885v5.479m.609-5.885v5.48m.609-5.885v5.479m.608-5.682v5.479"/><path stroke="#D4DDE6" d="M389.201 271.869v5.479m.609-5.885v5.479m.609-5.884v5.479m.609-5.885v5.479m.608-5.682v5.479"/><circle cx="236" cy="277" r="11.5" stroke="#fff" stroke-opacity=".32"/><g filter="url(#filter15_d)"><circle cx="236" cy="277" r="7.311" fill="#fff"/></g><path stroke="#FC4D5A" d="M232.113 275.072v5.479m.609-5.885v5.479m.609-5.885v5.48m.609-5.885v5.479m.608-5.682v5.479"/><path stroke="#5E9EFF" d="M235.157 275.072v5.479m.609-5.885v5.479m.609-5.885v5.48m.609-5.885v5.479m.608-5.682v5.479"/><path stroke="#D4DDE6" d="M238.201 274.869v5.479m.609-5.885v5.479m.609-5.884v5.479m.609-5.885v5.479m.608-5.682v5.479"/><circle cx="217" cy="210" r="11.5" stroke="#fff" stroke-opacity=".32"/><g filter="url(#filter16_d)"><circle cx="217" cy="210" r="7.311" fill="#fff"/></g><path stroke="#FC4D5A" d="M213.113 208.072v5.479m.609-5.885v5.479m.609-5.885v5.48m.609-5.885v5.479m.608-5.682v5.479"/><path stroke="#5E9EFF" d="M216.157 208.072v5.479m.609-5.885v5.479m.609-5.885v5.48m.609-5.885v5.479m.608-5.682v5.479"/><path stroke="#D4DDE6" d="M219.201 207.869v5.479m.609-5.885v5.479m.609-5.884v5.479m.609-5.885v5.479m.608-5.682v5.479"/><circle cx="427" cy="380" r="11.5" stroke="#fff" stroke-opacity=".32"/><g filter="url(#filter17_d)"><circle cx="427" cy="380" r="7.311" fill="#fff"/></g><path stroke="#FC4D5A" d="M423.113 378.072v5.479m.609-5.885v5.479m.609-5.885v5.48m.609-5.885v5.479m.608-5.682v5.479"/><path stroke="#5E9EFF" d="M426.157 378.072v5.479m.609-5.885v5.479m.609-5.885v5.48m.609-5.885v5.479m.608-5.682v5.479"/><path stroke="#D4DDE6" d="M429.201 377.869v5.479m.609-5.885v5.479m.609-5.884v5.479m.609-5.885v5.479m.608-5.682v5.479"/><circle cx="646" cy="262" r="11.5" stroke="#fff" stroke-opacity=".32"/><g filter="url(#filter18_d)"><circle cx="646" cy="262" r="7.311" fill="#fff"/></g><path stroke="#FC4D5A" d="M642.113 260.072v5.479m.609-5.885v5.479m.609-5.885v5.48m.608-5.885v5.479m.609-5.682v5.479"/><path stroke="#5E9EFF" d="M645.157 260.072v5.479m.609-5.885v5.479m.609-5.885v5.48m.608-5.885v5.479m.609-5.682v5.479"/><path stroke="#D4DDE6" d="M648.201 259.869v5.479m.609-5.885v5.479m.609-5.884v5.479m.608-5.885v5.479m.609-5.682v5.479"/><circle cx="485" cy="321" r="11.5" stroke="#fff" stroke-opacity=".32"/><g filter="url(#filter19_d)"><circle cx="485" cy="321" r="7.311" fill="#fff"/></g><path stroke="#FC4D5A" d="M481.113 319.072v5.479m.609-5.885v5.479m.609-5.885v5.48m.609-5.885v5.479m.608-5.682v5.479"/><path stroke="#5E9EFF" d="M484.157 319.072v5.479m.609-5.885v5.479m.609-5.885v5.48m.609-5.885v5.479m.608-5.682v5.479"/><path stroke="#D4DDE6" d="M487.201 318.869v5.479m.609-5.885v5.479m.609-5.884v5.479m.609-5.885v5.479m.608-5.682v5.479"/><circle cx="447" cy="263" r="11.5" stroke="#fff" stroke-opacity=".32"/><g filter="url(#filter20_d)"><circle cx="447" cy="263" r="7.311" fill="#fff"/></g><path stroke="#FC4D5A" d="M443.113 261.072v5.479m.609-5.885v5.479m.609-5.885v5.48m.609-5.885v5.479m.608-5.682v5.479"/><path stroke="#5E9EFF" d="M446.157 261.072v5.479m.609-5.885v5.479m.609-5.885v5.48m.609-5.885v5.479m.608-5.682v5.479"/><path stroke="#D4DDE6" d="M449.201 260.869v5.479m.609-5.885v5.479m.609-5.884v5.479m.609-5.885v5.479m.608-5.682v5.479"/><defs><filter id="filter0_d" x="71.573" y="150.573" width="75.855" height="75.855" filterUnits="userSpaceOnUse" color-interpolation-filters="sRGB"><feFlood flood-opacity="0" result="BackgroundImageFix"/><feColorMatrix in="SourceAlpha" values="0 0 0 0 0 0 0 0 0 0 0 0 0 0 0 0 0 0 127 0"/><feOffset dy="4"/><feGaussianBlur stdDeviation="11.5"/><feColorMatrix values="0 0 0 0 0 0 0 0 0 0 0 0 0 0 0 0 0 0 0.25 0"/><feBlend in2="BackgroundImageFix" result="effect1_dropShadow"/><feBlend in="SourceGraphic" in2="effect1_dropShadow" result="shape"/></filter><filter id="filter1_d" x="641.596" y="157.596" width="72.808" height="72.808" filterUnits="userSpaceOnUse" color-interpolation-filters="sRGB"><feFlood flood-opacity="0" result="BackgroundImageFix"/><feColorMatrix in="SourceAlpha" values="0 0 0 0 0 0 0 0 0 0 0 0 0 0 0 0 0 0 127 0"/><feOffset dy="4"/><feGaussianBlur stdDeviation="11.5"/><feColorMatrix values="0 0 0 0 0 0 0 0 0 0 0 0 0 0 0 0 0 0 0.25 0"/><feBlend in2="BackgroundImageFix" result="effect1_dropShadow"/><feBlend in="SourceGraphic" in2="effect1_dropShadow" result="shape"/></filter><filter id="filter2_d" x="122.056" y="198.056" width="64.888" height="64.888" filterUnits="userSpaceOnUse" color-interpolation-filters="sRGB"><feFlood flood-opacity="0" result="BackgroundImageFix"/><feColorMatrix in="SourceAlpha" values="0 0 0 0 0 0 0 0 0 0 0 0 0 0 0 0 0 0 127 0"/><feOffset dy="4"/><feGaussianBlur stdDeviation="11.5"/><feColorMatrix values="0 0 0 0 0 0 0 0 0 0 0 0 0 0 0 0 0 0 0.25 0"/><feBlend in2="BackgroundImageFix" result="effect1_dropShadow"/><feBlend in="SourceGraphic" in2="effect1_dropShadow" result="shape"/></filter><filter id="filter3_d" x="313.768" y="313.768" width="76.464" height="76.464" filterUnits="userSpaceOnUse" color-interpolation-filters="sRGB"><feFlood flood-opacity="0" result="BackgroundImageFix"/><feColorMatrix in="SourceAlpha" values="0 0 0 0 0 0 0 0 0 0 0 0 0 0 0 0 0 0 127 0"/><feOffset dy="4"/><feGaussianBlur stdDeviation="11.5"/><feColorMatrix values="0 0 0 0 0 0 0 0 0 0 0 0 0 0 0 0 0 0 0.25 0"/><feBlend in2="BackgroundImageFix" result="effect1_dropShadow"/><feBlend in="SourceGraphic" in2="effect1_dropShadow" result="shape"/></filter><filter id="filter4_d" x="539.275" y="219.275" width="62.451" height="62.451" filterUnits="userSpaceOnUse" color-interpolation-filters="sRGB"><feFlood flood-opacity="0" result="BackgroundImageFix"/><feColorMatrix in="SourceAlpha" values="0 0 0 0 0 0 0 0 0 0 0 0 0 0 0 0 0 0 127 0"/><feOffset dy="4"/><feGaussianBlur stdDeviation="11.5"/><feColorMatrix values="0 0 0 0 0 0 0 0 0 0 0 0 0 0 0 0 0 0 0.25 0"/><feBlend in2="BackgroundImageFix" result="effect1_dropShadow"/><feBlend in="SourceGraphic" in2="effect1_dropShadow" result="shape"/></filter><filter id="filter5_d" x="489.688" y="322.689" width="60.623" height="60.623" filterUnits="userSpaceOnUse" color-interpolation-filters="sRGB"><feFlood flood-opacity="0" result="BackgroundImageFix"/><feColorMatrix in="SourceAlpha" values="0 0 0 0 0 0 0 0 0 0 0 0 0 0 0 0 0 0 127 0"/><feOffset dy="4"/><feGaussianBlur stdDeviation="11.5"/><feColorMatrix values="0 0 0 0 0 0 0 0 0 0 0 0 0 0 0 0 0 0 0.25 0"/><feBlend in2="BackgroundImageFix" result="effect1_dropShadow"/><feBlend in="SourceGraphic" in2="effect1_dropShadow" result="shape"/></filter><filter id="filter6_d" x="440.688" y="221.689" width="60.623" height="60.623" filterUnits="userSpaceOnUse" color-interpolation-filters="sRGB"><feFlood flood-opacity="0" result="BackgroundImageFix"/><feColorMatrix in="SourceAlpha" values="0 0 0 0 0 0 0 0 0 0 0 0 0 0 0 0 0 0 127 0"/><feOffset dy="4"/><feGaussianBlur stdDeviation="11.5"/><feColorMatrix values="0 0 0 0 0 0 0 0 0 0 0 0 0 0 0 0 0 0 0.25 0"/><feBlend in2="BackgroundImageFix" result="effect1_dropShadow"/><feBlend in="SourceGraphic" in2="effect1_dropShadow" result="shape"/></filter><filter id="filter7_d" x="260.861" y="265.861" width="64.278" height="64.278" filterUnits="userSpaceOnUse" color-interpolation-filters="sRGB"><feFlood flood-opacity="0" result="BackgroundImageFix"/><feColorMatrix in="SourceAlpha" values="0 0 0 0 0 0 0 0 0 0 0 0 0 0 0 0 0 0 127 0"/><feOffset dy="4"/><feGaussianBlur stdDeviation="11.5"/><feColorMatrix values="0 0 0 0 0 0 0 0 0 0 0 0 0 0 0 0 0 0 0.25 0"/><feBlend in2="BackgroundImageFix" result="effect1_dropShadow"/><feBlend in="SourceGraphic" in2="effect1_dropShadow" result="shape"/></filter><filter id="filter8_d" x="84.689" y="229.689" width="60.623" height="60.623" filterUnits="userSpaceOnUse" color-interpolation-filters="sRGB"><feFlood flood-opacity="0" result="BackgroundImageFix"/><feColorMatrix in="SourceAlpha" values="0 0 0 0 0 0 0 0 0 0 0 0 0 0 0 0 0 0 127 0"/><feOffset dy="4"/><feGaussianBlur stdDeviation="11.5"/><feColorMatrix values="0 0 0 0 0 0 0 0 0 0 0 0 0 0 0 0 0 0 0.25 0"/><feBlend in2="BackgroundImageFix" result="effect1_dropShadow"/><feBlend in="SourceGraphic" in2="effect1_dropShadow" result="shape"/></filter><filter id="filter9_d" x="18.689" y="246.689" width="60.623" height="60.623" filterUnits="userSpaceOnUse" color-interpolation-filters="sRGB"><feFlood flood-opacity="0" result="BackgroundImageFix"/><feColorMatrix in="SourceAlpha" values="0 0 0 0 0 0 0 0 0 0 0 0 0 0 0 0 0 0 127 0"/><feOffset dy="4"/><feGaussianBlur stdDeviation="11.5"/><feColorMatrix values="0 0 0 0 0 0 0 0 0 0 0 0 0 0 0 0 0 0 0.25 0"/><feBlend in2="BackgroundImageFix" result="effect1_dropShadow"/><feBlend in="SourceGraphic" in2="effect1_dropShadow" result="shape"/></filter><filter id="filter10_d" x="141.056" y="254.056" width="64.888" height="64.888" filterUnits="userSpaceOnUse" color-interpolation-filters="sRGB"><feFlood flood-opacity="0" result="BackgroundImageFix"/><feColorMatrix in="SourceAlpha" values="0 0 0 0 0 0 0 0 0 0 0 0 0 0 0 0 0 0 127 0"/><feOffset dy="4"/><feGaussianBlur stdDeviation="11.5"/><feColorMatrix values="0 0 0 0 0 0 0 0 0 0 0 0 0 0 0 0 0 0 0.25 0"/><feBlend in2="BackgroundImageFix" result="effect1_dropShadow"/><feBlend in="SourceGraphic" in2="effect1_dropShadow" result="shape"/></filter><filter id="filter11_d" x="167.688" y="214.689" width="60.623" height="60.623" filterUnits="userSpaceOnUse" color-interpolation-filters="sRGB"><feFlood flood-opacity="0" result="BackgroundImageFix"/><feColorMatrix in="SourceAlpha" values="0 0 0 0 0 0 0 0 0 0 0 0 0 0 0 0 0 0 127 0"/><feOffset dy="4"/><feGaussianBlur stdDeviation="11.5"/><feColorMatrix values="0 0 0 0 0 0 0 0 0 0 0 0 0 0 0 0 0 0 0.25 0"/><feBlend in2="BackgroundImageFix" result="effect1_dropShadow"/><feBlend in="SourceGraphic" in2="effect1_dropShadow" result="shape"/></filter><filter id="filter12_d" x="71.251" y="103.251" width="65.497" height="65.497" filterUnits="userSpaceOnUse" color-interpolation-filters="sRGB"><feFlood flood-opacity="0" result="BackgroundImageFix"/><feColorMatrix in="SourceAlpha" values="0 0 0 0 0 0 0 0 0 0 0 0 0 0 0 0 0 0 127 0"/><feOffset dy="4"/><feGaussianBlur stdDeviation="11.5"/><feColorMatrix values="0 0 0 0 0 0 0 0 0 0 0 0 0 0 0 0 0 0 0.25 0"/><feBlend in2="BackgroundImageFix" result="effect1_dropShadow"/><feBlend in="SourceGraphic" in2="effect1_dropShadow" result="shape"/></filter><filter id="filter13_d" x="622.688" y="308.689" width="60.623" height="60.623" filterUnits="userSpaceOnUse" color-interpolation-filters="sRGB"><feFlood flood-opacity="0" result="BackgroundImageFix"/><feColorMatrix in="SourceAlpha" values="0 0 0 0 0 0 0 0 0 0 0 0 0 0 0 0 0 0 127 0"/><feOffset dy="4"/><feGaussianBlur stdDeviation="11.5"/><feColorMatrix values="0 0 0 0 0 0 0 0 0 0 0 0 0 0 0 0 0 0 0.25 0"/><feBlend in2="BackgroundImageFix" result="effect1_dropShadow"/><feBlend in="SourceGraphic" in2="effect1_dropShadow" result="shape"/></filter><filter id="filter14_d" x="356.688" y="247.689" width="60.623" height="60.623" filterUnits="userSpaceOnUse" color-interpolation-filters="sRGB"><feFlood flood-opacity="0" result="BackgroundImageFix"/><feColorMatrix in="SourceAlpha" values="0 0 0 0 0 0 0 0 0 0 0 0 0 0 0 0 0 0 127 0"/><feOffset dy="4"/><feGaussianBlur stdDeviation="11.5"/><feColorMatrix values="0 0 0 0 0 0 0 0 0 0 0 0 0 0 0 0 0 0 0.25 0"/><feBlend in2="BackgroundImageFix" result="effect1_dropShadow"/><feBlend in="SourceGraphic" in2="effect1_dropShadow" result="shape"/></filter><filter id="filter15_d" x="205.688" y="250.689" width="60.623" height="60.623" filterUnits="userSpaceOnUse" color-interpolation-filters="sRGB"><feFlood flood-opacity="0" result="BackgroundImageFix"/><feColorMatrix in="SourceAlpha" values="0 0 0 0 0 0 0 0 0 0 0 0 0 0 0 0 0 0 127 0"/><feOffset dy="4"/><feGaussianBlur stdDeviation="11.5"/><feColorMatrix values="0 0 0 0 0 0 0 0 0 0 0 0 0 0 0 0 0 0 0.25 0"/><feBlend in2="BackgroundImageFix" result="effect1_dropShadow"/><feBlend in="SourceGraphic" in2="effect1_dropShadow" result="shape"/></filter><filter id="filter16_d" x="186.688" y="183.689" width="60.623" height="60.623" filterUnits="userSpaceOnUse" color-interpolation-filters="sRGB"><feFlood flood-opacity="0" result="BackgroundImageFix"/><feColorMatrix in="SourceAlpha" values="0 0 0 0 0 0 0 0 0 0 0 0 0 0 0 0 0 0 127 0"/><feOffset dy="4"/><feGaussianBlur stdDeviation="11.5"/><feColorMatrix values="0 0 0 0 0 0 0 0 0 0 0 0 0 0 0 0 0 0 0.25 0"/><feBlend in2="BackgroundImageFix" result="effect1_dropShadow"/><feBlend in="SourceGraphic" in2="effect1_dropShadow" result="shape"/></filter><filter id="filter17_d" x="396.688" y="353.689" width="60.623" height="60.623" filterUnits="userSpaceOnUse" color-interpolation-filters="sRGB"><feFlood flood-opacity="0" result="BackgroundImageFix"/><feColorMatrix in="SourceAlpha" values="0 0 0 0 0 0 0 0 0 0 0 0 0 0 0 0 0 0 127 0"/><feOffset dy="4"/><feGaussianBlur stdDeviation="11.5"/><feColorMatrix values="0 0 0 0 0 0 0 0 0 0 0 0 0 0 0 0 0 0 0.25 0"/><feBlend in2="BackgroundImageFix" result="effect1_dropShadow"/><feBlend in="SourceGraphic" in2="effect1_dropShadow" result="shape"/></filter><filter id="filter18_d" x="615.688" y="235.689" width="60.623" height="60.623" filterUnits="userSpaceOnUse" color-interpolation-filters="sRGB"><feFlood flood-opacity="0" result="BackgroundImageFix"/><feColorMatrix in="SourceAlpha" values="0 0 0 0 0 0 0 0 0 0 0 0 0 0 0 0 0 0 127 0"/><feOffset dy="4"/><feGaussianBlur stdDeviation="11.5"/><feColorMatrix values="0 0 0 0 0 0 0 0 0 0 0 0 0 0 0 0 0 0 0.25 0"/><feBlend in2="BackgroundImageFix" result="effect1_dropShadow"/><feBlend in="SourceGraphic" in2="effect1_dropShadow" result="shape"/></filter><filter id="filter19_d" x="454.688" y="294.689" width="60.623" height="60.623" filterUnits="userSpaceOnUse" color-interpolation-filters="sRGB"><feFlood flood-opacity="0" result="BackgroundImageFix"/><feColorMatrix in="SourceAlpha" values="0 0 0 0 0 0 0 0 0 0 0 0 0 0 0 0 0 0 127 0"/><feOffset dy="4"/><feGaussianBlur stdDeviation="11.5"/><feColorMatrix values="0 0 0 0 0 0 0 0 0 0 0 0 0 0 0 0 0 0 0.25 0"/><feBlend in2="BackgroundImageFix" result="effect1_dropShadow"/><feBlend in="SourceGraphic" in2="effect1_dropShadow" result="shape"/></filter><filter id="filter20_d" x="416.688" y="236.689" width="60.623" height="60.623" filterUnits="userSpaceOnUse" color-interpolation-filters="sRGB"><feFlood flood-opacity="0" result="BackgroundImageFix"/><feColorMatrix in="SourceAlpha" values="0 0 0 0 0 0 0 0 0 0 0 0 0 0 0 0 0 0 127 0"/><feOffset dy="4"/><feGaussianBlur stdDeviation="11.5"/><feColorMatrix values="0 0 0 0 0 0 0 0 0 0 0 0 0 0 0 0 0 0 0.25 0"/><feBlend in2="BackgroundImageFix" result="effect1_dropShadow"/><feBlend in="SourceGraphic" in2="effect1_dropShadow" result="shape"/></filter></defs></svg>