<svg width="85" height="21" fill="none" xmlns="http://www.w3.org/2000/svg"><path d="M7.655 10.733c0-.298-.056-.578-.169-.84-.1-.273-.25-.51-.449-.709-.2-.2-.437-.355-.711-.467a1.98 1.98 0 0 0-.861-.186c-.3 0-.58.056-.842.168a2.19 2.19 0 0 0-.693.466c-.187.2-.343.436-.468.71a2.105 2.105 0 0 0-.168.84c0 .298.056.578.168.84.113.261.269.491.468.69.2.187.43.343.693.467a2.257 2.257 0 0 0 1.703 0c.262-.112.486-.268.674-.467.2-.199.355-.429.468-.69.124-.262.187-.535.187-.822zm-4.267 9.539H0V5.917h3.388v1.064C4.11 6.073 5.097 5.62 6.345 5.62a4.47 4.47 0 0 1 1.909.41 4.714 4.714 0 0 1 2.564 2.707c.25.622.374 1.288.374 1.997 0 .71-.125 1.37-.374 1.979a4.87 4.87 0 0 1-1.011 1.605A4.56 4.56 0 0 1 8.291 15.4a4.637 4.637 0 0 1-1.909.392c-1.198 0-2.196-.41-2.994-1.232v5.712zm9.735-14.355h3.388v1.568c.361-.572.804-1.008 1.328-1.306.524-.312 1.136-.467 1.835-.467h.28c.113 0 .237.012.375.037v3.23a3.226 3.226 0 0 0-1.46-.336c-.786 0-1.379.236-1.778.709-.387.46-.58 1.139-.58 2.035v4.106h-3.388V5.917zm11.991 4.742c0 .323.056.622.169.896.124.261.28.491.468.69.2.2.43.355.692.467a2.258 2.258 0 0 0 1.703 0 1.95 1.95 0 0 0 .693-.467c.2-.199.355-.429.468-.69a2.09 2.09 0 0 0 .187-.878c0-.298-.063-.578-.188-.84a2.131 2.131 0 0 0-.467-.709 1.941 1.941 0 0 0-.693-.467 2.258 2.258 0 0 0-1.703 0 2.19 2.19 0 0 0-.692.467c-.188.2-.344.43-.468.69a2.105 2.105 0 0 0-.169.84zm-3.574-.038c0-.709.143-1.368.43-1.978a4.759 4.759 0 0 1 1.198-1.606 5.629 5.629 0 0 1 1.815-1.082 6.68 6.68 0 0 1 2.321-.392c.823 0 1.585.13 2.283.392a5.343 5.343 0 0 1 1.834 1.064c.524.448.93.99 1.217 1.624.287.622.43 1.313.43 2.072 0 .759-.15 1.456-.449 2.09a4.957 4.957 0 0 1-1.198 1.624c-.511.448-1.129.797-1.852 1.046a6.98 6.98 0 0 1-2.321.373 6.759 6.759 0 0 1-2.284-.373 5.373 5.373 0 0 1-1.815-1.064 5.027 5.027 0 0 1-1.179-1.643c-.287-.647-.43-1.363-.43-2.147zm16.866-4.704v5.395c0 1.182.574 1.773 1.722 1.773 1.148 0 1.722-.59 1.722-1.773V5.917h3.387v6.048c0 1.294-.43 2.265-1.291 2.912-.849.647-2.121.97-3.818.97s-2.976-.323-3.837-.97c-.848-.647-1.272-1.618-1.272-2.912V5.917h3.387zm12.277 4.76c0 .311.056.604.168.878.112.261.262.491.45.69.199.2.43.355.692.467a2.306 2.306 0 0 0 1.721 0 1.94 1.94 0 0 0 .693-.467c.2-.199.356-.429.468-.69.125-.262.187-.542.187-.84a1.92 1.92 0 0 0-.187-.84 2.133 2.133 0 0 0-.468-.71 1.942 1.942 0 0 0-.692-.466 2.257 2.257 0 0 0-1.703 0 2.191 2.191 0 0 0-.693.466c-.187.2-.343.43-.468.691a1.974 1.974 0 0 0-.168.821zM54.95 0h3.406v15.493H54.95V14.43c-.724.909-1.703 1.363-2.939 1.363a4.683 4.683 0 0 1-3.462-1.475 5.079 5.079 0 0 1-1.03-1.624 5.615 5.615 0 0 1-.355-2.016c0-.684.112-1.331.337-1.941a4.99 4.99 0 0 1 .992-1.624 4.58 4.58 0 0 1 1.516-1.083 4.67 4.67 0 0 1 1.965-.41c1.198 0 2.19.417 2.976 1.25V0zm9.099 0v15.493H60.66V0h3.388zm5.978 14.187l-4.641-8.27h3.93l2.564 4.91 2.49-4.91h3.892l-7.71 14.355h-3.8l3.275-6.085z" fill="#2C3646"/><path d="M82.27 17.111A2.726 2.726 0 0 0 85 14.39a2.726 2.726 0 0 0-2.73-2.722 2.726 2.726 0 0 0-2.728 2.722 2.726 2.726 0 0 0 2.729 2.722z" fill="#1771F8"/></svg>