<svg width="132" height="35" fill="none" xmlns="http://www.w3.org/2000/svg"><g clip-path="url(#clip0)"><path d="M1.06 7.716H0v27.287h1.06V7.716zm2.805-1.931h-1.06v27.288h1.06V5.785zm2.809-1.927h-1.06v27.287h1.06V3.858zm2.805-1.931h-1.06v27.288h1.06V1.927zM12.285 0h-1.06v27.287h1.06V0z" fill="#D10A11"/><path d="M15.093 7.716h-1.06v27.287h1.06V7.716zm2.805-1.931h-1.06v27.288h1.06V5.785zm2.805-1.927h-1.06v27.287h1.06V3.858zm2.809-1.931h-1.06v27.288h1.06V1.927zM26.317 0h-1.06v27.287h1.06V0z" fill="#164193"/><path d="M29.108 7.716h-1.06v27.287h1.06V7.716zm2.805-1.931h-1.06v27.288h1.06V5.785zm2.809-1.927h-1.06v27.287h1.06V3.858zm2.802-1.931h-1.057v27.288h1.057V1.927zM40.335 0h-1.06v27.287h1.06V0z" fill="#B1B1B1"/><path d="M52.657 2.93c.088.019.17.056.244.108a.81.81 0 0 1 .288.379c.029.073.055.15.078.226l.363 1.372h-.842l-.32-1.219a.884.884 0 0 0-.223-.411.645.645 0 0 0-.453-.141h-.532v1.763h-.825V1.06h.825v1.56h.485a.862.862 0 0 0 .19-.02.465.465 0 0 0 .18-.077.613.613 0 0 0 .159-.165c.053-.091.093-.19.116-.294l.261-1.007h.81l-.29 1.137a1.44 1.44 0 0 1-.191.429.748.748 0 0 1-.311.267l-.012.038zm5.19.102c.003.275-.035.548-.113.811-.07.236-.185.456-.34.646a1.6 1.6 0 0 1-.58.43 1.883 1.883 0 0 1-.788.155 2.13 2.13 0 0 1-.828-.147 1.484 1.484 0 0 1-.58-.414 1.743 1.743 0 0 1-.334-.64 3.19 3.19 0 0 1 0-1.631 1.85 1.85 0 0 1 .328-.656 1.51 1.51 0 0 1 .58-.443c.266-.115.552-.17.84-.162.287-.009.571.047.834.165.219.1.41.252.56.443a1.8 1.8 0 0 1 .316.65c.07.258.105.525.105.793zm-.894 0a4.11 4.11 0 0 0-.035-.532 1.569 1.569 0 0 0-.14-.467.814.814 0 0 0-.29-.332.775.775 0 0 0-.462-.126.838.838 0 0 0-.476.123.879.879 0 0 0-.29.326 1.48 1.48 0 0 0-.146.467 3.34 3.34 0 0 0-.04.547c-.02.36.052.718.212 1.04a.802.802 0 0 0 .746.367.809.809 0 0 0 .421-.105.841.841 0 0 0 .29-.294c.077-.14.13-.29.16-.447a2.85 2.85 0 0 0 .05-.555v-.012zm4.149 1.983V3.252H59.58v1.763h-.848v-3.96h.848v1.58h1.522v-1.58h.848v3.96h-.848zm3.657-4.04a3.4 3.4 0 0 1 .563.044 4 4 0 0 1 .48.118l-.12.623a2.96 2.96 0 0 0-.816-.118 1.009 1.009 0 0 0-.83.344c-.215.301-.318.67-.29 1.04-.003.198.017.395.057.588.031.157.097.304.192.432a.831.831 0 0 0 .351.258c.174.062.357.091.54.085h.18c.073 0 .154 0 .239-.026.084-.026.171-.023.255-.038a2.73 2.73 0 0 0 .244-.053l.137.588c-.09.036-.182.066-.276.09a4.935 4.935 0 0 1-.642.11h-.314a2.27 2.27 0 0 1-.897-.156 1.42 1.42 0 0 1-.58-.43 1.604 1.604 0 0 1-.291-.64 3.42 3.42 0 0 1-.087-.793c.001-.24.03-.48.087-.714.051-.242.15-.47.29-.673.152-.21.351-.38.581-.497.296-.139.621-.202.947-.182zm4.603 4.04l-.273-.905H67.66l-.29.905h-.84l1.333-3.96h1.06l1.296 3.96h-.857zm-.732-2.524l-.227-.86h-.029l-.238.88-.29 1.014h1.074l-.29-1.034zm4.742 2.53V1.654h-.918l-.017.364c-.023.488-.05.914-.082 1.281a3.63 3.63 0 0 1-.197.938 1.448 1.448 0 0 1-.436.622 1.772 1.772 0 0 1-.795.341l-.183-.587c.179-.062.345-.157.49-.28a.96.96 0 0 0 .256-.423 3.08 3.08 0 0 0 .12-.675c.02-.274.04-.617.063-1.032l.067-1.149h2.474v3.973l-.842-.006zm2.808-.006v-3.35h-1.24V1.05h3.317v.617H77.02v3.35h-.84zm5.332-3.961h.808V5.01h-.813V2.327h-.023c-.186.294-.369.608-.552.91l-.549.911-.54.882h-.83V1.06h.83V3.8h.023l.468-.767c.079-.141.174-.294.29-.488.117-.194.224-.37.34-.558l.32-.526c.093-.168.171-.309.23-.406zm4.223 3.961V3.252h-1.522v1.763h-.85v-3.96h.85v1.58h1.522v-1.58h.848v3.96h-.848zm1.905 0V1.05h2.695v.605H88.48v3.361h-.839zm6.918-1.983a2.76 2.76 0 0 1-.114.811 1.905 1.905 0 0 1-.342.646 1.59 1.59 0 0 1-.581.43c-.25.107-.519.16-.79.155a2.115 2.115 0 0 1-.825-.147 1.517 1.517 0 0 1-.58-.414 1.738 1.738 0 0 1-.332-.64 3.147 3.147 0 0 1 0-1.631c.066-.238.178-.461.328-.656a1.53 1.53 0 0 1 .581-.443c.264-.115.55-.17.837-.162.287-.009.573.047.836.165.219.101.41.253.56.443.147.193.255.414.317.65.07.258.105.525.105.793zm-.895 0c0-.178-.012-.356-.038-.532a1.566 1.566 0 0 0-.136-.467.86.86 0 0 0-.29-.332.783.783 0 0 0-.465-.126.846.846 0 0 0-.477.123.903.903 0 0 0-.29.326 1.419 1.419 0 0 0-.148.467 3.73 3.73 0 0 0-.04.547c-.02.36.054.718.214 1.04a.792.792 0 0 0 .744.367.76.76 0 0 0 .705-.402c.077-.14.13-.29.16-.447.038-.181.059-.367.061-.552v-.012zm4.202-.079a.833.833 0 0 1 .5.429.89.89 0 0 1 .084.258c.01.074.017.149.018.223.002.163-.028.324-.09.473a1.076 1.076 0 0 1-.645.6 1.5 1.5 0 0 1-.5.08H95.45V1.054h1.708c.33-.026.655.08.909.293a1.021 1.021 0 0 1 .29.767c0 .07-.007.138-.023.206a.857.857 0 0 1-.232.432.846.846 0 0 1-.244.17l.008.03zm-1.58-1.293v1.022h.634a.674.674 0 0 0 .438-.126.46.46 0 0 0 .148-.367.541.541 0 0 0-.136-.385.613.613 0 0 0-.45-.144h-.633zm0 1.598V4.41h.712a.59.59 0 0 0 .474-.168.625.625 0 0 0 .142-.417.592.592 0 0 0-.151-.402.609.609 0 0 0-.465-.165h-.711zm5.55 1.757l-.273-.905h-1.428l-.29.905h-.84l1.333-3.96h1.06l1.295 3.96h-.857zm-.734-2.524l-.227-.86h-.029l-.238.88-.29 1.014h1.077l-.293-1.034zm3.06.717a.93.93 0 0 1-.476-.388 1.133 1.133 0 0 1-.16-.587c0-.153.023-.305.07-.45a.986.986 0 0 1 .221-.373c.111-.112.245-.198.392-.253.186-.07.383-.102.581-.097h1.629v3.967h-.842V3.432h-.427a.733.733 0 0 0-.436.117.794.794 0 0 0-.264.44c0 .024-.026.086-.055.189l-.096.332a9.75 9.75 0 0 1-.096.332c-.032.103-.046.162-.052.185h-.837l.314-1.105c.041-.16.108-.31.201-.446a.695.695 0 0 1 .339-.247l-.006-.02zm.212-.94a.632.632 0 0 0 .056.294.453.453 0 0 0 .142.173.53.53 0 0 0 .192.094.855.855 0 0 0 .209.027h.598V1.68h-.598a.619.619 0 0 0-.43.15.581.581 0 0 0-.169.423v.015zm4.679 2.747V1.05h2.695v.605h-1.859v3.361h-.836zm6.304-2.75c.001.147-.022.293-.066.432a1.156 1.156 0 0 1-.619.69 1.372 1.372 0 0 1-.581.112h-.711v1.522h-.851V1.055h1.487c.366-.03.729.089 1.01.329a1.168 1.168 0 0 1 .331.881zm-1.986-.611v1.26h.563a.674.674 0 0 0 .218-.032.43.43 0 0 0 .186-.106.56.56 0 0 0 .131-.193.815.815 0 0 0 .046-.294.587.587 0 0 0-.174-.485.657.657 0 0 0-.436-.147l-.534-.003zm4.205 1.806l.337-.957.523-1.454h.828l-1.339 3.414a1.03 1.03 0 0 1-.346.496.898.898 0 0 1-.52.144 3.62 3.62 0 0 1-.322-.017 2.45 2.45 0 0 1-.47-.1l.13-.588c.111.024.201.041.27.05.064.009.128.014.192.015a.376.376 0 0 0 .195-.047.365.365 0 0 0 .136-.197l.09-.241h-.209l-1.255-2.938h.837l.555 1.454.342.958.026.009zm4.827 1.555V1.671h-1.522v3.344h-.848V1.05h3.224v3.966h-.854zm4.31 0V1.671h-1.522v3.344h-.851V1.05h3.221v3.966h-.848zm4.423 0l-.273-.905h-1.432l-.29.905h-.84l1.336-3.96h1.057l1.295 3.96h-.853zm-.735-2.524l-.229-.86h-.03l-.238.88-.29 1.014h1.077l-.29-1.034zm-18.426 13.084V8.718h-1.868v6.857h1.868zM61.37 20.729a6.312 6.312 0 0 0 3.162-.773 4.638 4.638 0 0 0 1.588-1.488 4.722 4.722 0 0 0 .478-4.23 4.675 4.675 0 0 0-1.215-1.813 5.538 5.538 0 0 0-3.845-1.41h-6.752v9.71l6.584.004zm-4.679-7.786c.096 0 .192-.015.29-.015h4.334a4.794 4.794 0 0 1 2.16.45c.516.263.938.684 1.206 1.201a2.838 2.838 0 0 1-.439 3.232 2.767 2.767 0 0 1-1.481.829c-.482.112-.975.17-1.47.173-1.426.02-2.851 0-4.277 0h-.317l-.006-5.87z" fill="#0F265C"/><path d="M66.339 10.26a7.848 7.848 0 0 0-4.865-1.557H50.352v1.933h11.122a5.848 5.848 0 0 1 4.092 1.487c1.414 1.293 1.978 2.915 1.586 4.795-.407 1.94-1.67 3.159-3.485 3.82a6.938 6.938 0 0 1-2.428.358h-6.438v6.27h4.025V25.44h-2.129v-2.4h.317c1.408 0 2.82.02 4.228 0a12.957 12.957 0 0 0 2.08-.19 7.046 7.046 0 0 0 3.74-1.949 6.95 6.95 0 0 0 1.648-2.507 7.018 7.018 0 0 0-.4-5.866 6.916 6.916 0 0 0-1.974-2.254l.003-.015zM50.352 29.667h8.482v-1.863h-8.482v1.863z" fill="#0F265C"/><path d="M50.355 25.465v1.913H54.4v-16.34h-4.048v1.902H52.5v12.525h-2.146zm53.504-14.815a8.391 8.391 0 0 0-3.792.557 8.477 8.477 0 0 0-3.163 2.19 8.606 8.606 0 0 0-1.887 3.373 8.676 8.676 0 0 0-.227 3.87 8.272 8.272 0 0 0 2.965 5.201c2.166 1.787 4.667 2.266 7.385 1.763a10.889 10.889 0 0 0 3.624-1.363c.581-.356 1.136-.776 1.714-1.175l-1.269-1.47c-.256.197-.485.391-.729.565a9.084 9.084 0 0 1-4.868 1.698 6.376 6.376 0 0 1-2.524-.318 6.43 6.43 0 0 1-2.206-1.28 6.67 6.67 0 0 1-2.154-3.65 6.726 6.726 0 0 1 .47-4.226 6.623 6.623 0 0 1 2.901-3.075 6.51 6.51 0 0 1 4.149-.67 5.412 5.412 0 0 1 2.791 1.316 2.233 2.233 0 0 1 .787 1.625h1.885v-.032a3.82 3.82 0 0 0-.282-1.546c-.2-.49-.5-.93-.88-1.296-1.295-1.313-2.909-1.906-4.69-2.056zm-23.191-.032a8.422 8.422 0 0 0-4.724 1.449 8.57 8.57 0 0 0-3.13 3.862 8.685 8.685 0 0 0-.478 4.97 8.623 8.623 0 0 0 2.336 4.4 8.462 8.462 0 0 0 4.36 2.342 8.4 8.4 0 0 0 4.91-.507 8.515 8.515 0 0 0 3.803-3.185 8.664 8.664 0 0 0 1.408-4.786 8.628 8.628 0 0 0-2.497-6.047 8.427 8.427 0 0 0-5.988-2.498zm-.035 15.25a6.54 6.54 0 0 1-3.656-1.142 6.657 6.657 0 0 1-2.413-3.004 6.746 6.746 0 0 1-.36-3.853 6.697 6.697 0 0 1 1.816-3.408 6.57 6.57 0 0 1 3.38-1.814 6.524 6.524 0 0 1 3.806.39 6.613 6.613 0 0 1 2.952 2.461 6.73 6.73 0 0 1 .597 6.265 6.678 6.678 0 0 1-1.44 2.166 6.59 6.59 0 0 1-2.15 1.442 6.527 6.527 0 0 1-2.532.497zm42.048 1.507h4.031v-1.919h-2.14V12.948h3.011v2.627h1.879v-4.548h-6.781v16.348z" fill="#0F265C"/><path d="M113.185 8.726v6.85h1.91v-4.922h14.785v4.921h1.868V8.726h-18.563zm5.024 20.944h8.503v-1.872h-8.503v1.872zM80.676 8.306a10.673 10.673 0 0 0-5.986 1.828 10.861 10.861 0 0 0-3.971 4.886 11.007 11.007 0 0 0-.617 6.295 10.93 10.93 0 0 0 2.946 5.58 10.724 10.724 0 0 0 5.515 2.98c2.09.42 4.255.203 6.222-.623a10.79 10.79 0 0 0 4.83-4.018 10.98 10.98 0 0 0 1.806-6.056 10.954 10.954 0 0 0-3.152-7.683 10.7 10.7 0 0 0-7.593-3.189zm-.014 19.877a8.787 8.787 0 0 1-4.923-1.51 8.943 8.943 0 0 1-3.263-4.023 9.063 9.063 0 0 1-.505-5.18 8.997 8.997 0 0 1 2.424-4.59 8.83 8.83 0 0 1 4.536-2.453 8.766 8.766 0 0 1 5.12.509 8.883 8.883 0 0 1 3.976 3.3 9.04 9.04 0 0 1 1.495 4.98 9.062 9.062 0 0 1-2.607 6.328 8.852 8.852 0 0 1-6.254 2.64z" fill="#0F265C"/><path d="M118.209 25.474v1.91h4.066V11.04h-6.802v4.534h1.87v-2.627h3.015v12.526h-2.149zm-8.428.561a11.88 11.88 0 0 1-5.027 2.01 9.233 9.233 0 0 1-4.522-.367 8.848 8.848 0 0 1-4.394-3.404 9.016 9.016 0 0 1-1.53-5.382 9.08 9.08 0 0 1 2.422-5.822 8.884 8.884 0 0 1 5.602-2.79 8.163 8.163 0 0 1 4.199.659c1.284.567 2.382 1.366 3.082 2.644 0 .024.04.038.075.068V8.726h-1.87v.588a.246.246 0 0 1-.067 0c-.041-.015-.084-.03-.122-.047a10.624 10.624 0 0 0-3.363-.896 10.646 10.646 0 0 0-6.793 1.593 10.846 10.846 0 0 0-4.396 5.476 11.015 11.015 0 0 0-.136 7.125 10.883 10.883 0 0 0 4.245 5.686c2.492 1.692 5.248 2.162 8.184 1.627a14.08 14.08 0 0 0 4.623-1.704c.7-.411 1.345-.907 2.033-1.378l-1.301-1.469c-.325.235-.624.488-.944.708z" fill="#0F265C"/></g><defs><clipPath id="clip0"><path fill="#fff" d="M0 0h132v35H0z"/></clipPath></defs></svg>