<svg version="1.0" xmlns="http://www.w3.org/2000/svg" width="666.667" height="666.667" viewBox="0 0 500 500"><path d="M457.1 205c0 94.5.4 151 1 151.1.5.1 4.1.2 7.9.3 6.4.1 7-.1 7-1.9.1-2.9.1-284.7 0-293.3V54h-15.9v151zM147 216.3v151.3l8-.1h8V65h-16v151.3zm155.4-150c-.2.7-.3 68.7-.2 151.2l.3 150h15l.3-151.2.2-151.2h-7.5c-5 0-7.8.4-8.1 1.2zm124.3-.5c-.3.4-.4 68.5-.4 151.3v150.6H442l.1-4.6c0-2.5.1-70.5.1-151.1l.1-146.5-7.6-.2c-4.2-.2-7.8.1-8 .5zM116 81.4c-.1 8.7-.1 290.9-.1 294.2l.1 3.1 8 .1 8 .1-.2-151.2-.3-151.2-7.7-.1-7.8-.1v5.1zm155 146.1v151.1l8 .2 8 .2V76.3l-8 .1h-8v151.1zM396.7 87.8c-1.6.3-1.7 9-1.7 151.3V390h16l-.2-151.2-.3-151.3h-6c-3.3 0-6.8.1-7.8.3zm-308.4 11l-3.3.3v301.7l7 .4c3.9.2 7.5.2 8 0 1.2-.4 1.4-302.2.3-302.3-3.6-.3-9.4-.3-12-.1zm156 0l-4.3.3v151c0 83 .3 150.9.8 150.9.4.1 4 .2 8 .3l7.2.2v-303h-3.7c-2.1 0-5.7.1-8 .3zm120.2 12.4c-.3.7-.4 68.8-.2 151.3l.2 150h7.8c7.5 0 7.7 0 7.8-2.5 0-2.7 0-292.8-.1-297.3V110h-7.5c-5.1 0-7.7.4-8 1.2zM53.9 123.7c0 1.5-.1 69.6-.1 151.3l-.1 148.5h15.8v-302l-7.7-.3-7.8-.3-.1 2.8zM209 272.4v151.3l8-.1h8V121l-8 .1-8 .1v151.2zm124 11.2v151.2l8-.1h8V132.4h-16v151.2zM23.8 144.1c-.7.4-1 49.5-.9 150.5 0 82.5 0 150.2.1 150.6 0 .5 3.6.8 8 .8h7.9l-.2-151.2-.2-151.2-6.8-.1c-3.8 0-7.3.3-7.9.6zm154.6-.2c-.2.2-.4 68.3-.4 151.3V446h16l-.2-151.3-.3-151.2h-7.3c-4 0-7.5.2-7.8.4z"/></svg>